%TF.GenerationSoftware,KiCad,Pcbnew,6.0.7-f9a2dced07~116~ubuntu20.04.1*%
%TF.CreationDate,2022-08-11T19:39:56+07:00*%
%TF.ProjectId,CH569Board,43483536-3942-46f6-9172-642e6b696361,rev?*%
%TF.SameCoordinates,Original*%
%TF.FileFunction,Legend,Top*%
%TF.FilePolarity,Positive*%
%FSLAX46Y46*%
G04 Gerber Fmt 4.6, Leading zero omitted, Abs format (unit mm)*
G04 Created by KiCad (PCBNEW 6.0.7-f9a2dced07~116~ubuntu20.04.1) date 2022-08-11 19:39:56*
%MOMM*%
%LPD*%
G01*
G04 APERTURE LIST*
%ADD10C,0.250000*%
%ADD11C,0.150000*%
%ADD12C,0.125000*%
%ADD13C,0.120000*%
%ADD14C,0.080000*%
%ADD15C,0.200000*%
%ADD16C,0.300000*%
G04 APERTURE END LIST*
D10*
X111328247Y-102230228D02*
X112090152Y-102230228D01*
X111709200Y-102611180D02*
X111709200Y-101849276D01*
D11*
X143411380Y-98138761D02*
X142411380Y-98138761D01*
X142887571Y-98138761D02*
X142887571Y-97567333D01*
X143411380Y-97567333D02*
X142411380Y-97567333D01*
X143411380Y-96662571D02*
X142887571Y-96662571D01*
X142792333Y-96710190D01*
X142744714Y-96805428D01*
X142744714Y-96995904D01*
X142792333Y-97091142D01*
X143363761Y-96662571D02*
X143411380Y-96757809D01*
X143411380Y-96995904D01*
X143363761Y-97091142D01*
X143268523Y-97138761D01*
X143173285Y-97138761D01*
X143078047Y-97091142D01*
X143030428Y-96995904D01*
X143030428Y-96757809D01*
X142982809Y-96662571D01*
X142744714Y-96186380D02*
X143411380Y-96186380D01*
X142839952Y-96186380D02*
X142792333Y-96138761D01*
X142744714Y-96043523D01*
X142744714Y-95900666D01*
X142792333Y-95805428D01*
X142887571Y-95757809D01*
X143411380Y-95757809D01*
X143363761Y-95329238D02*
X143411380Y-95234000D01*
X143411380Y-95043523D01*
X143363761Y-94948285D01*
X143268523Y-94900666D01*
X143220904Y-94900666D01*
X143125666Y-94948285D01*
X143078047Y-95043523D01*
X143078047Y-95186380D01*
X143030428Y-95281619D01*
X142935190Y-95329238D01*
X142887571Y-95329238D01*
X142792333Y-95281619D01*
X142744714Y-95186380D01*
X142744714Y-95043523D01*
X142792333Y-94948285D01*
X142887571Y-93376857D02*
X142935190Y-93234000D01*
X142982809Y-93186380D01*
X143078047Y-93138761D01*
X143220904Y-93138761D01*
X143316142Y-93186380D01*
X143363761Y-93234000D01*
X143411380Y-93329238D01*
X143411380Y-93710190D01*
X142411380Y-93710190D01*
X142411380Y-93376857D01*
X142459000Y-93281619D01*
X142506619Y-93234000D01*
X142601857Y-93186380D01*
X142697095Y-93186380D01*
X142792333Y-93234000D01*
X142839952Y-93281619D01*
X142887571Y-93376857D01*
X142887571Y-93710190D01*
X143411380Y-92281619D02*
X142887571Y-92281619D01*
X142792333Y-92329238D01*
X142744714Y-92424476D01*
X142744714Y-92614952D01*
X142792333Y-92710190D01*
X143363761Y-92281619D02*
X143411380Y-92376857D01*
X143411380Y-92614952D01*
X143363761Y-92710190D01*
X143268523Y-92757809D01*
X143173285Y-92757809D01*
X143078047Y-92710190D01*
X143030428Y-92614952D01*
X143030428Y-92376857D01*
X142982809Y-92281619D01*
X143411380Y-91805428D02*
X142744714Y-91805428D01*
X142411380Y-91805428D02*
X142459000Y-91853047D01*
X142506619Y-91805428D01*
X142459000Y-91757809D01*
X142411380Y-91805428D01*
X142506619Y-91805428D01*
X143363761Y-90948285D02*
X143411380Y-91043523D01*
X143411380Y-91234000D01*
X143363761Y-91329238D01*
X143268523Y-91376857D01*
X142887571Y-91376857D01*
X142792333Y-91329238D01*
X142744714Y-91234000D01*
X142744714Y-91043523D01*
X142792333Y-90948285D01*
X142887571Y-90900666D01*
X142982809Y-90900666D01*
X143078047Y-91376857D01*
X143411380Y-90472095D02*
X142744714Y-90472095D01*
X142935190Y-90472095D02*
X142839952Y-90424476D01*
X142792333Y-90376857D01*
X142744714Y-90281619D01*
X142744714Y-90186380D01*
X144116619Y-99091142D02*
X144069000Y-99043523D01*
X144021380Y-98948285D01*
X144021380Y-98710190D01*
X144069000Y-98614952D01*
X144116619Y-98567333D01*
X144211857Y-98519714D01*
X144307095Y-98519714D01*
X144449952Y-98567333D01*
X145021380Y-99138761D01*
X145021380Y-98519714D01*
X144021380Y-97900666D02*
X144021380Y-97805428D01*
X144069000Y-97710190D01*
X144116619Y-97662571D01*
X144211857Y-97614952D01*
X144402333Y-97567333D01*
X144640428Y-97567333D01*
X144830904Y-97614952D01*
X144926142Y-97662571D01*
X144973761Y-97710190D01*
X145021380Y-97805428D01*
X145021380Y-97900666D01*
X144973761Y-97995904D01*
X144926142Y-98043523D01*
X144830904Y-98091142D01*
X144640428Y-98138761D01*
X144402333Y-98138761D01*
X144211857Y-98091142D01*
X144116619Y-98043523D01*
X144069000Y-97995904D01*
X144021380Y-97900666D01*
X144116619Y-97186380D02*
X144069000Y-97138761D01*
X144021380Y-97043523D01*
X144021380Y-96805428D01*
X144069000Y-96710190D01*
X144116619Y-96662571D01*
X144211857Y-96614952D01*
X144307095Y-96614952D01*
X144449952Y-96662571D01*
X145021380Y-97234000D01*
X145021380Y-96614952D01*
X144116619Y-96234000D02*
X144069000Y-96186380D01*
X144021380Y-96091142D01*
X144021380Y-95853047D01*
X144069000Y-95757809D01*
X144116619Y-95710190D01*
X144211857Y-95662571D01*
X144307095Y-95662571D01*
X144449952Y-95710190D01*
X145021380Y-96281619D01*
X145021380Y-95662571D01*
X144640428Y-95234000D02*
X144640428Y-94472095D01*
X144021380Y-93805428D02*
X144021380Y-93710190D01*
X144069000Y-93614952D01*
X144116619Y-93567333D01*
X144211857Y-93519714D01*
X144402333Y-93472095D01*
X144640428Y-93472095D01*
X144830904Y-93519714D01*
X144926142Y-93567333D01*
X144973761Y-93614952D01*
X145021380Y-93710190D01*
X145021380Y-93805428D01*
X144973761Y-93900666D01*
X144926142Y-93948285D01*
X144830904Y-93995904D01*
X144640428Y-94043523D01*
X144402333Y-94043523D01*
X144211857Y-93995904D01*
X144116619Y-93948285D01*
X144069000Y-93900666D01*
X144021380Y-93805428D01*
X144021380Y-93138761D02*
X144021380Y-92472095D01*
X145021380Y-92900666D01*
X144640428Y-92091142D02*
X144640428Y-91329238D01*
X144116619Y-90900666D02*
X144069000Y-90853047D01*
X144021380Y-90757809D01*
X144021380Y-90519714D01*
X144069000Y-90424476D01*
X144116619Y-90376857D01*
X144211857Y-90329238D01*
X144307095Y-90329238D01*
X144449952Y-90376857D01*
X145021380Y-90948285D01*
X145021380Y-90329238D01*
X144021380Y-89995904D02*
X144021380Y-89376857D01*
X144402333Y-89710190D01*
X144402333Y-89567333D01*
X144449952Y-89472095D01*
X144497571Y-89424476D01*
X144592809Y-89376857D01*
X144830904Y-89376857D01*
X144926142Y-89424476D01*
X144973761Y-89472095D01*
X145021380Y-89567333D01*
X145021380Y-89853047D01*
X144973761Y-89948285D01*
X144926142Y-89995904D01*
X140025714Y-106994142D02*
X139978095Y-107041761D01*
X139835238Y-107089380D01*
X139740000Y-107089380D01*
X139597142Y-107041761D01*
X139501904Y-106946523D01*
X139454285Y-106851285D01*
X139406666Y-106660809D01*
X139406666Y-106517952D01*
X139454285Y-106327476D01*
X139501904Y-106232238D01*
X139597142Y-106137000D01*
X139740000Y-106089380D01*
X139835238Y-106089380D01*
X139978095Y-106137000D01*
X140025714Y-106184619D01*
X140454285Y-107089380D02*
X140454285Y-106089380D01*
X140454285Y-106565571D02*
X141025714Y-106565571D01*
X141025714Y-107089380D02*
X141025714Y-106089380D01*
X141978095Y-106089380D02*
X141501904Y-106089380D01*
X141454285Y-106565571D01*
X141501904Y-106517952D01*
X141597142Y-106470333D01*
X141835238Y-106470333D01*
X141930476Y-106517952D01*
X141978095Y-106565571D01*
X142025714Y-106660809D01*
X142025714Y-106898904D01*
X141978095Y-106994142D01*
X141930476Y-107041761D01*
X141835238Y-107089380D01*
X141597142Y-107089380D01*
X141501904Y-107041761D01*
X141454285Y-106994142D01*
X142882857Y-106089380D02*
X142692380Y-106089380D01*
X142597142Y-106137000D01*
X142549523Y-106184619D01*
X142454285Y-106327476D01*
X142406666Y-106517952D01*
X142406666Y-106898904D01*
X142454285Y-106994142D01*
X142501904Y-107041761D01*
X142597142Y-107089380D01*
X142787619Y-107089380D01*
X142882857Y-107041761D01*
X142930476Y-106994142D01*
X142978095Y-106898904D01*
X142978095Y-106660809D01*
X142930476Y-106565571D01*
X142882857Y-106517952D01*
X142787619Y-106470333D01*
X142597142Y-106470333D01*
X142501904Y-106517952D01*
X142454285Y-106565571D01*
X142406666Y-106660809D01*
X143454285Y-107089380D02*
X143644761Y-107089380D01*
X143740000Y-107041761D01*
X143787619Y-106994142D01*
X143882857Y-106851285D01*
X143930476Y-106660809D01*
X143930476Y-106279857D01*
X143882857Y-106184619D01*
X143835238Y-106137000D01*
X143740000Y-106089380D01*
X143549523Y-106089380D01*
X143454285Y-106137000D01*
X143406666Y-106184619D01*
X143359047Y-106279857D01*
X143359047Y-106517952D01*
X143406666Y-106613190D01*
X143454285Y-106660809D01*
X143549523Y-106708428D01*
X143740000Y-106708428D01*
X143835238Y-106660809D01*
X143882857Y-106613190D01*
X143930476Y-106517952D01*
X144263809Y-106089380D02*
X144501904Y-107089380D01*
X144692380Y-106375095D01*
X144882857Y-107089380D01*
X145120952Y-106089380D01*
X139787619Y-107699380D02*
X139787619Y-108508904D01*
X139835238Y-108604142D01*
X139882857Y-108651761D01*
X139978095Y-108699380D01*
X140168571Y-108699380D01*
X140263809Y-108651761D01*
X140311428Y-108604142D01*
X140359047Y-108508904D01*
X140359047Y-107699380D01*
X140787619Y-108651761D02*
X140930476Y-108699380D01*
X141168571Y-108699380D01*
X141263809Y-108651761D01*
X141311428Y-108604142D01*
X141359047Y-108508904D01*
X141359047Y-108413666D01*
X141311428Y-108318428D01*
X141263809Y-108270809D01*
X141168571Y-108223190D01*
X140978095Y-108175571D01*
X140882857Y-108127952D01*
X140835238Y-108080333D01*
X140787619Y-107985095D01*
X140787619Y-107889857D01*
X140835238Y-107794619D01*
X140882857Y-107747000D01*
X140978095Y-107699380D01*
X141216190Y-107699380D01*
X141359047Y-107747000D01*
X142120952Y-108175571D02*
X142263809Y-108223190D01*
X142311428Y-108270809D01*
X142359047Y-108366047D01*
X142359047Y-108508904D01*
X142311428Y-108604142D01*
X142263809Y-108651761D01*
X142168571Y-108699380D01*
X141787619Y-108699380D01*
X141787619Y-107699380D01*
X142120952Y-107699380D01*
X142216190Y-107747000D01*
X142263809Y-107794619D01*
X142311428Y-107889857D01*
X142311428Y-107985095D01*
X142263809Y-108080333D01*
X142216190Y-108127952D01*
X142120952Y-108175571D01*
X141787619Y-108175571D01*
X142692380Y-107699380D02*
X143311428Y-107699380D01*
X142978095Y-108080333D01*
X143120952Y-108080333D01*
X143216190Y-108127952D01*
X143263809Y-108175571D01*
X143311428Y-108270809D01*
X143311428Y-108508904D01*
X143263809Y-108604142D01*
X143216190Y-108651761D01*
X143120952Y-108699380D01*
X142835238Y-108699380D01*
X142740000Y-108651761D01*
X142692380Y-108604142D01*
X143740000Y-108604142D02*
X143787619Y-108651761D01*
X143740000Y-108699380D01*
X143692380Y-108651761D01*
X143740000Y-108604142D01*
X143740000Y-108699380D01*
X144406666Y-107699380D02*
X144501904Y-107699380D01*
X144597142Y-107747000D01*
X144644761Y-107794619D01*
X144692380Y-107889857D01*
X144740000Y-108080333D01*
X144740000Y-108318428D01*
X144692380Y-108508904D01*
X144644761Y-108604142D01*
X144597142Y-108651761D01*
X144501904Y-108699380D01*
X144406666Y-108699380D01*
X144311428Y-108651761D01*
X144263809Y-108604142D01*
X144216190Y-108508904D01*
X144168571Y-108318428D01*
X144168571Y-108080333D01*
X144216190Y-107889857D01*
X144263809Y-107794619D01*
X144311428Y-107747000D01*
X144406666Y-107699380D01*
X141363333Y-113962380D02*
X141030000Y-113486190D01*
X140791904Y-113962380D02*
X140791904Y-112962380D01*
X141172857Y-112962380D01*
X141268095Y-113010000D01*
X141315714Y-113057619D01*
X141363333Y-113152857D01*
X141363333Y-113295714D01*
X141315714Y-113390952D01*
X141268095Y-113438571D01*
X141172857Y-113486190D01*
X140791904Y-113486190D01*
X141696666Y-112962380D02*
X142363333Y-113962380D01*
X142363333Y-112962380D02*
X141696666Y-113962380D01*
X143518095Y-113030000D02*
X143422857Y-112982380D01*
X143280000Y-112982380D01*
X143137142Y-113030000D01*
X143041904Y-113125238D01*
X142994285Y-113220476D01*
X142946666Y-113410952D01*
X142946666Y-113553809D01*
X142994285Y-113744285D01*
X143041904Y-113839523D01*
X143137142Y-113934761D01*
X143280000Y-113982380D01*
X143375238Y-113982380D01*
X143518095Y-113934761D01*
X143565714Y-113887142D01*
X143565714Y-113553809D01*
X143375238Y-113553809D01*
X143994285Y-113982380D02*
X143994285Y-112982380D01*
X144565714Y-113982380D01*
X144565714Y-112982380D01*
X145041904Y-113982380D02*
X145041904Y-112982380D01*
X145280000Y-112982380D01*
X145422857Y-113030000D01*
X145518095Y-113125238D01*
X145565714Y-113220476D01*
X145613333Y-113410952D01*
X145613333Y-113553809D01*
X145565714Y-113744285D01*
X145518095Y-113839523D01*
X145422857Y-113934761D01*
X145280000Y-113982380D01*
X145041904Y-113982380D01*
X146502380Y-96200742D02*
X145835714Y-96200742D01*
X146026190Y-96200742D02*
X145930952Y-96153123D01*
X145883333Y-96105504D01*
X145835714Y-96010266D01*
X145835714Y-95915028D01*
X146454761Y-95200742D02*
X146502380Y-95295980D01*
X146502380Y-95486457D01*
X146454761Y-95581695D01*
X146359523Y-95629314D01*
X145978571Y-95629314D01*
X145883333Y-95581695D01*
X145835714Y-95486457D01*
X145835714Y-95295980D01*
X145883333Y-95200742D01*
X145978571Y-95153123D01*
X146073809Y-95153123D01*
X146169047Y-95629314D01*
X145835714Y-94819790D02*
X146502380Y-94581695D01*
X145835714Y-94343600D01*
X146502380Y-93438838D02*
X146502380Y-94010266D01*
X146502380Y-93724552D02*
X145502380Y-93724552D01*
X145645238Y-93819790D01*
X145740476Y-93915028D01*
X145788095Y-94010266D01*
X138178095Y-112982380D02*
X138749523Y-112982380D01*
X138463809Y-113982380D02*
X138463809Y-112982380D01*
X138987619Y-112982380D02*
X139654285Y-113982380D01*
X139654285Y-112982380D02*
X138987619Y-113982380D01*
D10*
X104064133Y-98804361D02*
X104206990Y-98851980D01*
X104445085Y-98851980D01*
X104540323Y-98804361D01*
X104587942Y-98756742D01*
X104635561Y-98661504D01*
X104635561Y-98566266D01*
X104587942Y-98471028D01*
X104540323Y-98423409D01*
X104445085Y-98375790D01*
X104254609Y-98328171D01*
X104159371Y-98280552D01*
X104111752Y-98232933D01*
X104064133Y-98137695D01*
X104064133Y-98042457D01*
X104111752Y-97947219D01*
X104159371Y-97899600D01*
X104254609Y-97851980D01*
X104492704Y-97851980D01*
X104635561Y-97899600D01*
X105064133Y-98328171D02*
X105397466Y-98328171D01*
X105540323Y-98851980D02*
X105064133Y-98851980D01*
X105064133Y-97851980D01*
X105540323Y-97851980D01*
X106540323Y-98851980D02*
X106206990Y-98375790D01*
X105968895Y-98851980D02*
X105968895Y-97851980D01*
X106349847Y-97851980D01*
X106445085Y-97899600D01*
X106492704Y-97947219D01*
X106540323Y-98042457D01*
X106540323Y-98185314D01*
X106492704Y-98280552D01*
X106445085Y-98328171D01*
X106349847Y-98375790D01*
X105968895Y-98375790D01*
X106968895Y-98851980D02*
X106968895Y-97851980D01*
X107206990Y-97851980D01*
X107349847Y-97899600D01*
X107445085Y-97994838D01*
X107492704Y-98090076D01*
X107540323Y-98280552D01*
X107540323Y-98423409D01*
X107492704Y-98613885D01*
X107445085Y-98709123D01*
X107349847Y-98804361D01*
X107206990Y-98851980D01*
X106968895Y-98851980D01*
X107968895Y-98328171D02*
X108302228Y-98328171D01*
X108445085Y-98851980D02*
X107968895Y-98851980D01*
X107968895Y-97851980D01*
X108445085Y-97851980D01*
X108826038Y-98804361D02*
X108968895Y-98851980D01*
X109206990Y-98851980D01*
X109302228Y-98804361D01*
X109349847Y-98756742D01*
X109397466Y-98661504D01*
X109397466Y-98566266D01*
X109349847Y-98471028D01*
X109302228Y-98423409D01*
X109206990Y-98375790D01*
X109016514Y-98328171D01*
X108921276Y-98280552D01*
X108873657Y-98232933D01*
X108826038Y-98137695D01*
X108826038Y-98042457D01*
X108873657Y-97947219D01*
X108921276Y-97899600D01*
X109016514Y-97851980D01*
X109254609Y-97851980D01*
X109397466Y-97899600D01*
D11*
%TO.C,R4*%
X112974380Y-88660266D02*
X112498190Y-88993600D01*
X112974380Y-89231695D02*
X111974380Y-89231695D01*
X111974380Y-88850742D01*
X112022000Y-88755504D01*
X112069619Y-88707885D01*
X112164857Y-88660266D01*
X112307714Y-88660266D01*
X112402952Y-88707885D01*
X112450571Y-88755504D01*
X112498190Y-88850742D01*
X112498190Y-89231695D01*
X112307714Y-87803123D02*
X112974380Y-87803123D01*
X111926761Y-88041219D02*
X112641047Y-88279314D01*
X112641047Y-87660266D01*
%TO.C,CN1*%
X103589523Y-82887142D02*
X103541904Y-82934761D01*
X103399047Y-82982380D01*
X103303809Y-82982380D01*
X103160952Y-82934761D01*
X103065714Y-82839523D01*
X103018095Y-82744285D01*
X102970476Y-82553809D01*
X102970476Y-82410952D01*
X103018095Y-82220476D01*
X103065714Y-82125238D01*
X103160952Y-82030000D01*
X103303809Y-81982380D01*
X103399047Y-81982380D01*
X103541904Y-82030000D01*
X103589523Y-82077619D01*
X104018095Y-82982380D02*
X104018095Y-81982380D01*
X104589523Y-82982380D01*
X104589523Y-81982380D01*
X105589523Y-82982380D02*
X105018095Y-82982380D01*
X105303809Y-82982380D02*
X105303809Y-81982380D01*
X105208571Y-82125238D01*
X105113333Y-82220476D01*
X105018095Y-82268095D01*
D12*
%TO.C,C14*%
X122398571Y-112621428D02*
X122422380Y-112645238D01*
X122446190Y-112716666D01*
X122446190Y-112764285D01*
X122422380Y-112835714D01*
X122374761Y-112883333D01*
X122327142Y-112907142D01*
X122231904Y-112930952D01*
X122160476Y-112930952D01*
X122065238Y-112907142D01*
X122017619Y-112883333D01*
X121970000Y-112835714D01*
X121946190Y-112764285D01*
X121946190Y-112716666D01*
X121970000Y-112645238D01*
X121993809Y-112621428D01*
X122446190Y-112145238D02*
X122446190Y-112430952D01*
X122446190Y-112288095D02*
X121946190Y-112288095D01*
X122017619Y-112335714D01*
X122065238Y-112383333D01*
X122089047Y-112430952D01*
X122112857Y-111716666D02*
X122446190Y-111716666D01*
X121922380Y-111835714D02*
X122279523Y-111954761D01*
X122279523Y-111645238D01*
%TO.C,C19*%
X120628571Y-103346428D02*
X120652380Y-103370238D01*
X120676190Y-103441666D01*
X120676190Y-103489285D01*
X120652380Y-103560714D01*
X120604761Y-103608333D01*
X120557142Y-103632142D01*
X120461904Y-103655952D01*
X120390476Y-103655952D01*
X120295238Y-103632142D01*
X120247619Y-103608333D01*
X120200000Y-103560714D01*
X120176190Y-103489285D01*
X120176190Y-103441666D01*
X120200000Y-103370238D01*
X120223809Y-103346428D01*
X120676190Y-102870238D02*
X120676190Y-103155952D01*
X120676190Y-103013095D02*
X120176190Y-103013095D01*
X120247619Y-103060714D01*
X120295238Y-103108333D01*
X120319047Y-103155952D01*
X120676190Y-102632142D02*
X120676190Y-102536904D01*
X120652380Y-102489285D01*
X120628571Y-102465476D01*
X120557142Y-102417857D01*
X120461904Y-102394047D01*
X120271428Y-102394047D01*
X120223809Y-102417857D01*
X120200000Y-102441666D01*
X120176190Y-102489285D01*
X120176190Y-102584523D01*
X120200000Y-102632142D01*
X120223809Y-102655952D01*
X120271428Y-102679761D01*
X120390476Y-102679761D01*
X120438095Y-102655952D01*
X120461904Y-102632142D01*
X120485714Y-102584523D01*
X120485714Y-102489285D01*
X120461904Y-102441666D01*
X120438095Y-102417857D01*
X120390476Y-102394047D01*
D11*
%TO.C,C4*%
X106640333Y-124512342D02*
X106592714Y-124559961D01*
X106449857Y-124607580D01*
X106354619Y-124607580D01*
X106211761Y-124559961D01*
X106116523Y-124464723D01*
X106068904Y-124369485D01*
X106021285Y-124179009D01*
X106021285Y-124036152D01*
X106068904Y-123845676D01*
X106116523Y-123750438D01*
X106211761Y-123655200D01*
X106354619Y-123607580D01*
X106449857Y-123607580D01*
X106592714Y-123655200D01*
X106640333Y-123702819D01*
X107497476Y-123940914D02*
X107497476Y-124607580D01*
X107259380Y-123559961D02*
X107021285Y-124274247D01*
X107640333Y-124274247D01*
D12*
%TO.C,C16*%
X118508571Y-102068571D02*
X118484761Y-102092380D01*
X118413333Y-102116190D01*
X118365714Y-102116190D01*
X118294285Y-102092380D01*
X118246666Y-102044761D01*
X118222857Y-101997142D01*
X118199047Y-101901904D01*
X118199047Y-101830476D01*
X118222857Y-101735238D01*
X118246666Y-101687619D01*
X118294285Y-101640000D01*
X118365714Y-101616190D01*
X118413333Y-101616190D01*
X118484761Y-101640000D01*
X118508571Y-101663809D01*
X118984761Y-102116190D02*
X118699047Y-102116190D01*
X118841904Y-102116190D02*
X118841904Y-101616190D01*
X118794285Y-101687619D01*
X118746666Y-101735238D01*
X118699047Y-101759047D01*
X119413333Y-101616190D02*
X119318095Y-101616190D01*
X119270476Y-101640000D01*
X119246666Y-101663809D01*
X119199047Y-101735238D01*
X119175238Y-101830476D01*
X119175238Y-102020952D01*
X119199047Y-102068571D01*
X119222857Y-102092380D01*
X119270476Y-102116190D01*
X119365714Y-102116190D01*
X119413333Y-102092380D01*
X119437142Y-102068571D01*
X119460952Y-102020952D01*
X119460952Y-101901904D01*
X119437142Y-101854285D01*
X119413333Y-101830476D01*
X119365714Y-101806666D01*
X119270476Y-101806666D01*
X119222857Y-101830476D01*
X119199047Y-101854285D01*
X119175238Y-101901904D01*
D11*
%TO.C,C1*%
X103998733Y-122861342D02*
X103951114Y-122908961D01*
X103808257Y-122956580D01*
X103713019Y-122956580D01*
X103570161Y-122908961D01*
X103474923Y-122813723D01*
X103427304Y-122718485D01*
X103379685Y-122528009D01*
X103379685Y-122385152D01*
X103427304Y-122194676D01*
X103474923Y-122099438D01*
X103570161Y-122004200D01*
X103713019Y-121956580D01*
X103808257Y-121956580D01*
X103951114Y-122004200D01*
X103998733Y-122051819D01*
X104951114Y-122956580D02*
X104379685Y-122956580D01*
X104665400Y-122956580D02*
X104665400Y-121956580D01*
X104570161Y-122099438D01*
X104474923Y-122194676D01*
X104379685Y-122242295D01*
D12*
%TO.C,C13*%
X125438571Y-112551428D02*
X125462380Y-112575238D01*
X125486190Y-112646666D01*
X125486190Y-112694285D01*
X125462380Y-112765714D01*
X125414761Y-112813333D01*
X125367142Y-112837142D01*
X125271904Y-112860952D01*
X125200476Y-112860952D01*
X125105238Y-112837142D01*
X125057619Y-112813333D01*
X125010000Y-112765714D01*
X124986190Y-112694285D01*
X124986190Y-112646666D01*
X125010000Y-112575238D01*
X125033809Y-112551428D01*
X125486190Y-112075238D02*
X125486190Y-112360952D01*
X125486190Y-112218095D02*
X124986190Y-112218095D01*
X125057619Y-112265714D01*
X125105238Y-112313333D01*
X125129047Y-112360952D01*
X124986190Y-111908571D02*
X124986190Y-111599047D01*
X125176666Y-111765714D01*
X125176666Y-111694285D01*
X125200476Y-111646666D01*
X125224285Y-111622857D01*
X125271904Y-111599047D01*
X125390952Y-111599047D01*
X125438571Y-111622857D01*
X125462380Y-111646666D01*
X125486190Y-111694285D01*
X125486190Y-111837142D01*
X125462380Y-111884761D01*
X125438571Y-111908571D01*
D11*
%TO.C,C3*%
X144460933Y-127001542D02*
X144413314Y-127049161D01*
X144270457Y-127096780D01*
X144175219Y-127096780D01*
X144032361Y-127049161D01*
X143937123Y-126953923D01*
X143889504Y-126858685D01*
X143841885Y-126668209D01*
X143841885Y-126525352D01*
X143889504Y-126334876D01*
X143937123Y-126239638D01*
X144032361Y-126144400D01*
X144175219Y-126096780D01*
X144270457Y-126096780D01*
X144413314Y-126144400D01*
X144460933Y-126192019D01*
X144794266Y-126096780D02*
X145413314Y-126096780D01*
X145079980Y-126477733D01*
X145222838Y-126477733D01*
X145318076Y-126525352D01*
X145365695Y-126572971D01*
X145413314Y-126668209D01*
X145413314Y-126906304D01*
X145365695Y-127001542D01*
X145318076Y-127049161D01*
X145222838Y-127096780D01*
X144937123Y-127096780D01*
X144841885Y-127049161D01*
X144794266Y-127001542D01*
%TO.C,D2*%
X101366104Y-95178580D02*
X101366104Y-94178580D01*
X101604200Y-94178580D01*
X101747057Y-94226200D01*
X101842295Y-94321438D01*
X101889914Y-94416676D01*
X101937533Y-94607152D01*
X101937533Y-94750009D01*
X101889914Y-94940485D01*
X101842295Y-95035723D01*
X101747057Y-95130961D01*
X101604200Y-95178580D01*
X101366104Y-95178580D01*
X102318485Y-94273819D02*
X102366104Y-94226200D01*
X102461342Y-94178580D01*
X102699438Y-94178580D01*
X102794676Y-94226200D01*
X102842295Y-94273819D01*
X102889914Y-94369057D01*
X102889914Y-94464295D01*
X102842295Y-94607152D01*
X102270866Y-95178580D01*
X102889914Y-95178580D01*
%TO.C,D1*%
X101392354Y-91883580D02*
X101392354Y-90883580D01*
X101630450Y-90883580D01*
X101773307Y-90931200D01*
X101868545Y-91026438D01*
X101916164Y-91121676D01*
X101963783Y-91312152D01*
X101963783Y-91455009D01*
X101916164Y-91645485D01*
X101868545Y-91740723D01*
X101773307Y-91835961D01*
X101630450Y-91883580D01*
X101392354Y-91883580D01*
X102916164Y-91883580D02*
X102344735Y-91883580D01*
X102630450Y-91883580D02*
X102630450Y-90883580D01*
X102535211Y-91026438D01*
X102439973Y-91121676D01*
X102344735Y-91169295D01*
%TO.C,R5*%
X109307333Y-89657180D02*
X108974000Y-89180990D01*
X108735904Y-89657180D02*
X108735904Y-88657180D01*
X109116857Y-88657180D01*
X109212095Y-88704800D01*
X109259714Y-88752419D01*
X109307333Y-88847657D01*
X109307333Y-88990514D01*
X109259714Y-89085752D01*
X109212095Y-89133371D01*
X109116857Y-89180990D01*
X108735904Y-89180990D01*
X110212095Y-88657180D02*
X109735904Y-88657180D01*
X109688285Y-89133371D01*
X109735904Y-89085752D01*
X109831142Y-89038133D01*
X110069238Y-89038133D01*
X110164476Y-89085752D01*
X110212095Y-89133371D01*
X110259714Y-89228609D01*
X110259714Y-89466704D01*
X110212095Y-89561942D01*
X110164476Y-89609561D01*
X110069238Y-89657180D01*
X109831142Y-89657180D01*
X109735904Y-89609561D01*
X109688285Y-89561942D01*
%TO.C,J1*%
X108785066Y-100290380D02*
X108785066Y-101004666D01*
X108737447Y-101147523D01*
X108642209Y-101242761D01*
X108499352Y-101290380D01*
X108404114Y-101290380D01*
X109785066Y-101290380D02*
X109213638Y-101290380D01*
X109499352Y-101290380D02*
X109499352Y-100290380D01*
X109404114Y-100433238D01*
X109308876Y-100528476D01*
X109213638Y-100576095D01*
%TO.C,C2*%
X140142933Y-127052342D02*
X140095314Y-127099961D01*
X139952457Y-127147580D01*
X139857219Y-127147580D01*
X139714361Y-127099961D01*
X139619123Y-127004723D01*
X139571504Y-126909485D01*
X139523885Y-126719009D01*
X139523885Y-126576152D01*
X139571504Y-126385676D01*
X139619123Y-126290438D01*
X139714361Y-126195200D01*
X139857219Y-126147580D01*
X139952457Y-126147580D01*
X140095314Y-126195200D01*
X140142933Y-126242819D01*
X140523885Y-126242819D02*
X140571504Y-126195200D01*
X140666742Y-126147580D01*
X140904838Y-126147580D01*
X141000076Y-126195200D01*
X141047695Y-126242819D01*
X141095314Y-126338057D01*
X141095314Y-126433295D01*
X141047695Y-126576152D01*
X140476266Y-127147580D01*
X141095314Y-127147580D01*
D12*
%TO.C,C21*%
X117890171Y-108585771D02*
X117866361Y-108609580D01*
X117794933Y-108633390D01*
X117747314Y-108633390D01*
X117675885Y-108609580D01*
X117628266Y-108561961D01*
X117604457Y-108514342D01*
X117580647Y-108419104D01*
X117580647Y-108347676D01*
X117604457Y-108252438D01*
X117628266Y-108204819D01*
X117675885Y-108157200D01*
X117747314Y-108133390D01*
X117794933Y-108133390D01*
X117866361Y-108157200D01*
X117890171Y-108181009D01*
X118080647Y-108181009D02*
X118104457Y-108157200D01*
X118152076Y-108133390D01*
X118271123Y-108133390D01*
X118318742Y-108157200D01*
X118342552Y-108181009D01*
X118366361Y-108228628D01*
X118366361Y-108276247D01*
X118342552Y-108347676D01*
X118056838Y-108633390D01*
X118366361Y-108633390D01*
X118842552Y-108633390D02*
X118556838Y-108633390D01*
X118699695Y-108633390D02*
X118699695Y-108133390D01*
X118652076Y-108204819D01*
X118604457Y-108252438D01*
X118556838Y-108276247D01*
D11*
%TO.C,C12*%
X116435142Y-124848857D02*
X116482761Y-124896476D01*
X116530380Y-125039333D01*
X116530380Y-125134571D01*
X116482761Y-125277428D01*
X116387523Y-125372666D01*
X116292285Y-125420285D01*
X116101809Y-125467904D01*
X115958952Y-125467904D01*
X115768476Y-125420285D01*
X115673238Y-125372666D01*
X115578000Y-125277428D01*
X115530380Y-125134571D01*
X115530380Y-125039333D01*
X115578000Y-124896476D01*
X115625619Y-124848857D01*
X116530380Y-123896476D02*
X116530380Y-124467904D01*
X116530380Y-124182190D02*
X115530380Y-124182190D01*
X115673238Y-124277428D01*
X115768476Y-124372666D01*
X115816095Y-124467904D01*
X115625619Y-123515523D02*
X115578000Y-123467904D01*
X115530380Y-123372666D01*
X115530380Y-123134571D01*
X115578000Y-123039333D01*
X115625619Y-122991714D01*
X115720857Y-122944095D01*
X115816095Y-122944095D01*
X115958952Y-122991714D01*
X116530380Y-123563142D01*
X116530380Y-122944095D01*
%TO.C,R1*%
X103068380Y-107608666D02*
X102592190Y-107942000D01*
X103068380Y-108180095D02*
X102068380Y-108180095D01*
X102068380Y-107799142D01*
X102116000Y-107703904D01*
X102163619Y-107656285D01*
X102258857Y-107608666D01*
X102401714Y-107608666D01*
X102496952Y-107656285D01*
X102544571Y-107703904D01*
X102592190Y-107799142D01*
X102592190Y-108180095D01*
X103068380Y-106656285D02*
X103068380Y-107227714D01*
X103068380Y-106942000D02*
X102068380Y-106942000D01*
X102211238Y-107037238D01*
X102306476Y-107132476D01*
X102354095Y-107227714D01*
%TO.C,J2*%
X145857380Y-111608333D02*
X146571666Y-111608333D01*
X146714523Y-111655952D01*
X146809761Y-111751190D01*
X146857380Y-111894047D01*
X146857380Y-111989285D01*
X145952619Y-111179761D02*
X145905000Y-111132142D01*
X145857380Y-111036904D01*
X145857380Y-110798809D01*
X145905000Y-110703571D01*
X145952619Y-110655952D01*
X146047857Y-110608333D01*
X146143095Y-110608333D01*
X146285952Y-110655952D01*
X146857380Y-111227380D01*
X146857380Y-110608333D01*
%TO.C,X1*%
X108550476Y-109482380D02*
X109217142Y-110482380D01*
X109217142Y-109482380D02*
X108550476Y-110482380D01*
X110121904Y-110482380D02*
X109550476Y-110482380D01*
X109836190Y-110482380D02*
X109836190Y-109482380D01*
X109740952Y-109625238D01*
X109645714Y-109720476D01*
X109550476Y-109768095D01*
%TO.C,C7*%
X114387333Y-115927142D02*
X114339714Y-115974761D01*
X114196857Y-116022380D01*
X114101619Y-116022380D01*
X113958761Y-115974761D01*
X113863523Y-115879523D01*
X113815904Y-115784285D01*
X113768285Y-115593809D01*
X113768285Y-115450952D01*
X113815904Y-115260476D01*
X113863523Y-115165238D01*
X113958761Y-115070000D01*
X114101619Y-115022380D01*
X114196857Y-115022380D01*
X114339714Y-115070000D01*
X114387333Y-115117619D01*
X114720666Y-115022380D02*
X115387333Y-115022380D01*
X114958761Y-116022380D01*
%TO.C,USB1*%
X131691904Y-111492380D02*
X131691904Y-112301904D01*
X131739523Y-112397142D01*
X131787142Y-112444761D01*
X131882380Y-112492380D01*
X132072857Y-112492380D01*
X132168095Y-112444761D01*
X132215714Y-112397142D01*
X132263333Y-112301904D01*
X132263333Y-111492380D01*
X132691904Y-112444761D02*
X132834761Y-112492380D01*
X133072857Y-112492380D01*
X133168095Y-112444761D01*
X133215714Y-112397142D01*
X133263333Y-112301904D01*
X133263333Y-112206666D01*
X133215714Y-112111428D01*
X133168095Y-112063809D01*
X133072857Y-112016190D01*
X132882380Y-111968571D01*
X132787142Y-111920952D01*
X132739523Y-111873333D01*
X132691904Y-111778095D01*
X132691904Y-111682857D01*
X132739523Y-111587619D01*
X132787142Y-111540000D01*
X132882380Y-111492380D01*
X133120476Y-111492380D01*
X133263333Y-111540000D01*
X134025238Y-111968571D02*
X134168095Y-112016190D01*
X134215714Y-112063809D01*
X134263333Y-112159047D01*
X134263333Y-112301904D01*
X134215714Y-112397142D01*
X134168095Y-112444761D01*
X134072857Y-112492380D01*
X133691904Y-112492380D01*
X133691904Y-111492380D01*
X134025238Y-111492380D01*
X134120476Y-111540000D01*
X134168095Y-111587619D01*
X134215714Y-111682857D01*
X134215714Y-111778095D01*
X134168095Y-111873333D01*
X134120476Y-111920952D01*
X134025238Y-111968571D01*
X133691904Y-111968571D01*
X135215714Y-112492380D02*
X134644285Y-112492380D01*
X134930000Y-112492380D02*
X134930000Y-111492380D01*
X134834761Y-111635238D01*
X134739523Y-111730476D01*
X134644285Y-111778095D01*
%TO.C,R3*%
X111077533Y-95138580D02*
X110744200Y-94662390D01*
X110506104Y-95138580D02*
X110506104Y-94138580D01*
X110887057Y-94138580D01*
X110982295Y-94186200D01*
X111029914Y-94233819D01*
X111077533Y-94329057D01*
X111077533Y-94471914D01*
X111029914Y-94567152D01*
X110982295Y-94614771D01*
X110887057Y-94662390D01*
X110506104Y-94662390D01*
X111410866Y-94138580D02*
X112029914Y-94138580D01*
X111696580Y-94519533D01*
X111839438Y-94519533D01*
X111934676Y-94567152D01*
X111982295Y-94614771D01*
X112029914Y-94710009D01*
X112029914Y-94948104D01*
X111982295Y-95043342D01*
X111934676Y-95090961D01*
X111839438Y-95138580D01*
X111553723Y-95138580D01*
X111458485Y-95090961D01*
X111410866Y-95043342D01*
%TO.C,U2*%
X145527380Y-119736904D02*
X146336904Y-119736904D01*
X146432142Y-119689285D01*
X146479761Y-119641666D01*
X146527380Y-119546428D01*
X146527380Y-119355952D01*
X146479761Y-119260714D01*
X146432142Y-119213095D01*
X146336904Y-119165476D01*
X145527380Y-119165476D01*
X145622619Y-118736904D02*
X145575000Y-118689285D01*
X145527380Y-118594047D01*
X145527380Y-118355952D01*
X145575000Y-118260714D01*
X145622619Y-118213095D01*
X145717857Y-118165476D01*
X145813095Y-118165476D01*
X145955952Y-118213095D01*
X146527380Y-118784523D01*
X146527380Y-118165476D01*
%TO.C,R2*%
X111163783Y-91883580D02*
X110830450Y-91407390D01*
X110592354Y-91883580D02*
X110592354Y-90883580D01*
X110973307Y-90883580D01*
X111068545Y-90931200D01*
X111116164Y-90978819D01*
X111163783Y-91074057D01*
X111163783Y-91216914D01*
X111116164Y-91312152D01*
X111068545Y-91359771D01*
X110973307Y-91407390D01*
X110592354Y-91407390D01*
X111544735Y-90978819D02*
X111592354Y-90931200D01*
X111687592Y-90883580D01*
X111925688Y-90883580D01*
X112020926Y-90931200D01*
X112068545Y-90978819D01*
X112116164Y-91074057D01*
X112116164Y-91169295D01*
X112068545Y-91312152D01*
X111497116Y-91883580D01*
X112116164Y-91883580D01*
%TO.C,F1*%
X116260571Y-119879733D02*
X116260571Y-120213066D01*
X116784380Y-120213066D02*
X115784380Y-120213066D01*
X115784380Y-119736876D01*
X116784380Y-118832114D02*
X116784380Y-119403542D01*
X116784380Y-119117828D02*
X115784380Y-119117828D01*
X115927238Y-119213066D01*
X116022476Y-119308304D01*
X116070095Y-119403542D01*
D12*
%TO.C,C15*%
X127558571Y-96031428D02*
X127582380Y-96055238D01*
X127606190Y-96126666D01*
X127606190Y-96174285D01*
X127582380Y-96245714D01*
X127534761Y-96293333D01*
X127487142Y-96317142D01*
X127391904Y-96340952D01*
X127320476Y-96340952D01*
X127225238Y-96317142D01*
X127177619Y-96293333D01*
X127130000Y-96245714D01*
X127106190Y-96174285D01*
X127106190Y-96126666D01*
X127130000Y-96055238D01*
X127153809Y-96031428D01*
X127606190Y-95555238D02*
X127606190Y-95840952D01*
X127606190Y-95698095D02*
X127106190Y-95698095D01*
X127177619Y-95745714D01*
X127225238Y-95793333D01*
X127249047Y-95840952D01*
X127106190Y-95102857D02*
X127106190Y-95340952D01*
X127344285Y-95364761D01*
X127320476Y-95340952D01*
X127296666Y-95293333D01*
X127296666Y-95174285D01*
X127320476Y-95126666D01*
X127344285Y-95102857D01*
X127391904Y-95079047D01*
X127510952Y-95079047D01*
X127558571Y-95102857D01*
X127582380Y-95126666D01*
X127606190Y-95174285D01*
X127606190Y-95293333D01*
X127582380Y-95340952D01*
X127558571Y-95364761D01*
%TO.C,C22*%
X117864771Y-107798371D02*
X117840961Y-107822180D01*
X117769533Y-107845990D01*
X117721914Y-107845990D01*
X117650485Y-107822180D01*
X117602866Y-107774561D01*
X117579057Y-107726942D01*
X117555247Y-107631704D01*
X117555247Y-107560276D01*
X117579057Y-107465038D01*
X117602866Y-107417419D01*
X117650485Y-107369800D01*
X117721914Y-107345990D01*
X117769533Y-107345990D01*
X117840961Y-107369800D01*
X117864771Y-107393609D01*
X118055247Y-107393609D02*
X118079057Y-107369800D01*
X118126676Y-107345990D01*
X118245723Y-107345990D01*
X118293342Y-107369800D01*
X118317152Y-107393609D01*
X118340961Y-107441228D01*
X118340961Y-107488847D01*
X118317152Y-107560276D01*
X118031438Y-107845990D01*
X118340961Y-107845990D01*
X118531438Y-107393609D02*
X118555247Y-107369800D01*
X118602866Y-107345990D01*
X118721914Y-107345990D01*
X118769533Y-107369800D01*
X118793342Y-107393609D01*
X118817152Y-107441228D01*
X118817152Y-107488847D01*
X118793342Y-107560276D01*
X118507628Y-107845990D01*
X118817152Y-107845990D01*
D11*
%TO.C,U1*%
X108418380Y-115823904D02*
X109227904Y-115823904D01*
X109323142Y-115776285D01*
X109370761Y-115728666D01*
X109418380Y-115633428D01*
X109418380Y-115442952D01*
X109370761Y-115347714D01*
X109323142Y-115300095D01*
X109227904Y-115252476D01*
X108418380Y-115252476D01*
X109418380Y-114252476D02*
X109418380Y-114823904D01*
X109418380Y-114538190D02*
X108418380Y-114538190D01*
X108561238Y-114633428D01*
X108656476Y-114728666D01*
X108704095Y-114823904D01*
%TO.C,U4*%
X119438095Y-108322380D02*
X119438095Y-109131904D01*
X119485714Y-109227142D01*
X119533333Y-109274761D01*
X119628571Y-109322380D01*
X119819047Y-109322380D01*
X119914285Y-109274761D01*
X119961904Y-109227142D01*
X120009523Y-109131904D01*
X120009523Y-108322380D01*
X120914285Y-108655714D02*
X120914285Y-109322380D01*
X120676190Y-108274761D02*
X120438095Y-108989047D01*
X121057142Y-108989047D01*
%TO.C,C11*%
X112567542Y-124812057D02*
X112615161Y-124859676D01*
X112662780Y-125002533D01*
X112662780Y-125097771D01*
X112615161Y-125240628D01*
X112519923Y-125335866D01*
X112424685Y-125383485D01*
X112234209Y-125431104D01*
X112091352Y-125431104D01*
X111900876Y-125383485D01*
X111805638Y-125335866D01*
X111710400Y-125240628D01*
X111662780Y-125097771D01*
X111662780Y-125002533D01*
X111710400Y-124859676D01*
X111758019Y-124812057D01*
X112662780Y-123859676D02*
X112662780Y-124431104D01*
X112662780Y-124145390D02*
X111662780Y-124145390D01*
X111805638Y-124240628D01*
X111900876Y-124335866D01*
X111948495Y-124431104D01*
X112662780Y-122907295D02*
X112662780Y-123478723D01*
X112662780Y-123193009D02*
X111662780Y-123193009D01*
X111805638Y-123288247D01*
X111900876Y-123383485D01*
X111948495Y-123478723D01*
%TO.C,FB1*%
X108640571Y-121178533D02*
X108640571Y-121511866D01*
X109164380Y-121511866D02*
X108164380Y-121511866D01*
X108164380Y-121035676D01*
X108640571Y-120321390D02*
X108688190Y-120178533D01*
X108735809Y-120130914D01*
X108831047Y-120083295D01*
X108973904Y-120083295D01*
X109069142Y-120130914D01*
X109116761Y-120178533D01*
X109164380Y-120273771D01*
X109164380Y-120654723D01*
X108164380Y-120654723D01*
X108164380Y-120321390D01*
X108212000Y-120226152D01*
X108259619Y-120178533D01*
X108354857Y-120130914D01*
X108450095Y-120130914D01*
X108545333Y-120178533D01*
X108592952Y-120226152D01*
X108640571Y-120321390D01*
X108640571Y-120654723D01*
X109164380Y-119130914D02*
X109164380Y-119702342D01*
X109164380Y-119416628D02*
X108164380Y-119416628D01*
X108307238Y-119511866D01*
X108402476Y-119607104D01*
X108450095Y-119702342D01*
D13*
%TO.C,R4*%
X110668800Y-88596441D02*
X110668800Y-88289159D01*
X111428800Y-88596441D02*
X111428800Y-88289159D01*
D10*
%TO.C,CN1*%
X142410000Y-83990000D02*
X142410000Y-85790000D01*
X108860000Y-84000000D02*
X109570000Y-84000000D01*
X144510000Y-82650000D02*
X144510000Y-83560000D01*
X143270000Y-85790000D02*
X142410000Y-85790000D01*
X106750000Y-85790000D02*
X108860000Y-85790000D01*
X144510000Y-78990000D02*
X144510000Y-82130000D01*
X108830000Y-78990000D02*
X108830000Y-80800000D01*
X106750000Y-85790000D02*
X106750000Y-82740000D01*
X144510000Y-83560000D02*
X143270000Y-85790000D01*
X108860000Y-85790000D02*
X108860000Y-84000000D01*
X106750000Y-78990000D02*
X108850000Y-78990000D01*
X142410000Y-83990000D02*
X141700000Y-83990000D01*
X106750000Y-82030000D02*
X106750000Y-78990000D01*
X144510000Y-78990000D02*
X142390000Y-78990000D01*
X142390000Y-80790000D02*
X141700000Y-80790000D01*
X108830000Y-80800000D02*
X109570000Y-80800000D01*
X142390000Y-78990000D02*
X142390000Y-80790000D01*
D13*
%TO.C,C14*%
X122982400Y-112152164D02*
X122982400Y-112367836D01*
X123702400Y-112152164D02*
X123702400Y-112367836D01*
%TO.C,C19*%
X119390580Y-105080000D02*
X119109420Y-105080000D01*
X119390580Y-104060000D02*
X119109420Y-104060000D01*
%TO.C,C4*%
X107567400Y-121876452D02*
X107567400Y-121353948D01*
X106097400Y-121876452D02*
X106097400Y-121353948D01*
%TO.C,C16*%
X118320580Y-103570000D02*
X118039420Y-103570000D01*
X118320580Y-102550000D02*
X118039420Y-102550000D01*
%TO.C,C1*%
X103298748Y-119945000D02*
X103821252Y-119945000D01*
X103298748Y-121415000D02*
X103821252Y-121415000D01*
%TO.C,C13*%
X123902400Y-112152164D02*
X123902400Y-112367836D01*
X124622400Y-112152164D02*
X124622400Y-112367836D01*
%TO.C,C3*%
X144939652Y-125652200D02*
X144417148Y-125652200D01*
X144939652Y-124182200D02*
X144417148Y-124182200D01*
%TO.C,D2*%
X103509200Y-94001200D02*
X103509200Y-95471200D01*
X105794200Y-94001200D02*
X103509200Y-94001200D01*
X103509200Y-95471200D02*
X105794200Y-95471200D01*
%TO.C,D1*%
X103489200Y-92241200D02*
X105774200Y-92241200D01*
X103489200Y-90771200D02*
X103489200Y-92241200D01*
X105774200Y-90771200D02*
X103489200Y-90771200D01*
%TO.C,R5*%
X109627641Y-88314800D02*
X109320359Y-88314800D01*
X109627641Y-87554800D02*
X109320359Y-87554800D01*
%TO.C,J1*%
X113242400Y-99623800D02*
X113242400Y-100953800D01*
X113242400Y-100953800D02*
X111912400Y-100953800D01*
X110642400Y-97143800D02*
X110642400Y-95813800D01*
X110642400Y-95813800D02*
X111972400Y-95813800D01*
%TO.C,C2*%
X140048348Y-124182200D02*
X140570852Y-124182200D01*
X140048348Y-125652200D02*
X140570852Y-125652200D01*
%TO.C,C21*%
X118103764Y-106421600D02*
X118319436Y-106421600D01*
X118103764Y-107141600D02*
X118319436Y-107141600D01*
%TO.C,C12*%
X112945000Y-124481252D02*
X112945000Y-123958748D01*
X114415000Y-124481252D02*
X114415000Y-123958748D01*
%TO.C,R1*%
X104017500Y-107137742D02*
X104017500Y-107612258D01*
X105062500Y-107137742D02*
X105062500Y-107612258D01*
%TO.C,J2*%
X144075000Y-109945000D02*
X145405000Y-109945000D01*
X142805000Y-112605000D02*
X137665000Y-112605000D01*
X137665000Y-109945000D02*
X137665000Y-112605000D01*
X145405000Y-109945000D02*
X145405000Y-111275000D01*
X142805000Y-109945000D02*
X142805000Y-112605000D01*
X142805000Y-109945000D02*
X137665000Y-109945000D01*
D11*
%TO.C,X1*%
X105765000Y-103335000D02*
X113305000Y-103335000D01*
X113305000Y-109195000D02*
X105765000Y-109195000D01*
X105765000Y-109195000D02*
X105765000Y-103335000D01*
X105535000Y-109425000D02*
X107795000Y-109425000D01*
X105535000Y-107465000D02*
X105535000Y-109425000D01*
X113305000Y-103335000D02*
X113305000Y-109195000D01*
D13*
%TO.C,C7*%
X111716252Y-116217400D02*
X111193748Y-116217400D01*
X111716252Y-114747400D02*
X111193748Y-114747400D01*
D10*
%TO.C,USB1*%
X133270000Y-127730007D02*
X134270000Y-128730007D01*
X134270000Y-128730007D02*
X133430000Y-128730007D01*
X120300000Y-127730007D02*
X133300000Y-127730007D01*
X119300000Y-128730007D02*
X120140000Y-128730007D01*
X133300000Y-127730007D02*
X133300000Y-117210007D01*
X120300000Y-113550007D02*
X120300000Y-113530007D01*
X120300000Y-127730007D02*
X119300000Y-128730007D01*
X120480000Y-113550007D02*
X122220000Y-113550007D01*
X120140000Y-128730007D02*
X121140000Y-127730007D01*
X120300000Y-113550007D02*
X120320000Y-113550007D01*
X120300000Y-127730007D02*
X120300000Y-117210007D01*
X131380000Y-113550007D02*
X133120000Y-113550007D01*
X133280000Y-113550007D02*
X133300000Y-113550007D01*
X133430000Y-128730007D02*
X132430000Y-127730007D01*
D13*
%TO.C,R3*%
X108336942Y-95258700D02*
X108811458Y-95258700D01*
X108336942Y-94213700D02*
X108811458Y-94213700D01*
D11*
%TO.C,U2*%
X144764000Y-117778000D02*
X144764000Y-120518000D01*
X144764000Y-120518000D02*
X138104000Y-120518000D01*
X138104000Y-120518000D02*
X138104000Y-117778000D01*
X138104000Y-117778000D02*
X144764000Y-117778000D01*
D13*
%TO.C,R2*%
X108296942Y-90993700D02*
X108771458Y-90993700D01*
X108296942Y-92038700D02*
X108771458Y-92038700D01*
D11*
%TO.C,F1*%
X114770000Y-121666400D02*
X114770000Y-120476400D01*
X112590000Y-120476400D02*
X112590000Y-121666400D01*
X112740000Y-121816400D02*
X114620000Y-121816400D01*
X112740000Y-117276400D02*
X114620000Y-117276400D01*
X114770000Y-117426400D02*
X114770000Y-118616400D01*
X112590000Y-118616400D02*
X112590000Y-117426400D01*
D14*
X112840000Y-119546400D02*
G75*
G03*
X113682199Y-119545131I420000J730000D01*
G01*
X114520000Y-119546400D02*
G75*
G03*
X113677801Y-119547669I-420001J-729999D01*
G01*
D13*
%TO.C,C15*%
X126510000Y-96630580D02*
X126510000Y-96349420D01*
X125490000Y-96630580D02*
X125490000Y-96349420D01*
%TO.C,C22*%
X118103764Y-105405600D02*
X118319436Y-105405600D01*
X118103764Y-106125600D02*
X118319436Y-106125600D01*
D11*
%TO.C,U1*%
X101209000Y-116462000D02*
X101209000Y-113522000D01*
X101209000Y-113522000D02*
X107869000Y-113522000D01*
X107869000Y-116462000D02*
X101209000Y-116462000D01*
X107869000Y-113522000D02*
X107869000Y-116462000D01*
D15*
%TO.C,U4*%
X129802600Y-107560000D02*
X129802600Y-107130000D01*
X129802600Y-99580000D02*
X129802600Y-99160000D01*
X121402600Y-107560000D02*
X121402600Y-107130000D01*
X121402600Y-99160000D02*
X121402600Y-99580000D01*
X129802600Y-99160000D02*
X129382600Y-99160000D01*
X129382600Y-107560000D02*
X129802600Y-107560000D01*
X121832600Y-99160000D02*
X121402600Y-99160000D01*
X121832600Y-107560000D02*
X121402600Y-107560000D01*
D16*
X121602584Y-107929667D02*
G75*
G03*
X121612600Y-107930000I15J-150333D01*
G01*
D13*
%TO.C,C11*%
X109795400Y-123907948D02*
X109795400Y-124430452D01*
X111265400Y-123907948D02*
X111265400Y-124430452D01*
%TO.C,FB1*%
X109595000Y-118787158D02*
X109595000Y-120457642D01*
X111415000Y-118787158D02*
X111415000Y-120457642D01*
%TD*%
M02*
