%TF.GenerationSoftware,KiCad,Pcbnew,6.0.4-6f826c9f35~116~ubuntu20.04.1*%
%TF.CreationDate,2022-04-23T06:33:51+07:00*%
%TF.ProjectId,CH569Board,43483536-3942-46f6-9172-642e6b696361,rev?*%
%TF.SameCoordinates,Original*%
%TF.FileFunction,Copper,L3,Inr*%
%TF.FilePolarity,Positive*%
%FSLAX46Y46*%
G04 Gerber Fmt 4.6, Leading zero omitted, Abs format (unit mm)*
G04 Created by KiCad (PCBNEW 6.0.4-6f826c9f35~116~ubuntu20.04.1) date 2022-04-23 06:33:51*
%MOMM*%
%LPD*%
G01*
G04 APERTURE LIST*
%TA.AperFunction,ComponentPad*%
%ADD10C,1.300000*%
%TD*%
%TA.AperFunction,ComponentPad*%
%ADD11R,1.700000X1.700000*%
%TD*%
%TA.AperFunction,ComponentPad*%
%ADD12O,1.700000X1.700000*%
%TD*%
%TA.AperFunction,ComponentPad*%
%ADD13O,1.300000X3.200000*%
%TD*%
%TA.AperFunction,ComponentPad*%
%ADD14C,0.850000*%
%TD*%
%TA.AperFunction,ComponentPad*%
%ADD15O,0.850000X0.850000*%
%TD*%
%TA.AperFunction,ViaPad*%
%ADD16C,0.450000*%
%TD*%
%TA.AperFunction,ViaPad*%
%ADD17C,0.950000*%
%TD*%
%TA.AperFunction,ViaPad*%
%ADD18C,1.300000*%
%TD*%
%TA.AperFunction,ViaPad*%
%ADD19C,0.750000*%
%TD*%
%TA.AperFunction,Conductor*%
%ADD20C,0.600000*%
%TD*%
%TA.AperFunction,Conductor*%
%ADD21C,0.200000*%
%TD*%
%TA.AperFunction,Conductor*%
%ADD22C,1.000000*%
%TD*%
%TA.AperFunction,Conductor*%
%ADD23C,0.300000*%
%TD*%
%TA.AperFunction,Conductor*%
%ADD24C,0.205740*%
%TD*%
G04 APERTURE END LIST*
D10*
%TO.N,*%
%TO.C,CN1*%
X143710000Y-82390000D03*
X107510000Y-82390000D03*
%TD*%
D11*
%TO.N,GND*%
%TO.C,J2*%
X144075000Y-111275000D03*
D12*
%TO.N,/RXD*%
X141535000Y-111275000D03*
%TO.N,/TXD*%
X138995000Y-111275000D03*
%TD*%
D13*
%TO.N,unconnected-(USB1-Pad10)*%
%TO.C,USB1*%
X120400000Y-115390007D03*
%TO.N,unconnected-(USB1-Pad11)*%
X133200000Y-115390007D03*
%TD*%
D14*
%TO.N,Net-(J1-Pad1)*%
%TO.C,J1*%
X115798600Y-106722800D03*
D15*
%TO.N,Net-(J1-Pad2)*%
X115798600Y-105722800D03*
%TD*%
D16*
%TO.N,GND*%
X110520000Y-126730000D03*
X126810000Y-82460000D03*
D17*
X117023147Y-104516260D03*
X127711200Y-105521000D03*
D16*
X118170000Y-119510000D03*
X116240000Y-112310000D03*
D17*
X127711200Y-104454200D03*
D16*
X135850000Y-124950000D03*
X113284000Y-93522800D03*
D17*
X123444000Y-103362000D03*
D16*
X130820000Y-82450000D03*
X113680000Y-126720000D03*
X109540000Y-82520000D03*
X102580000Y-122560000D03*
X139827000Y-106553000D03*
D18*
X118790000Y-109750000D03*
D17*
X129780000Y-115940000D03*
D16*
X114071400Y-106629200D03*
D17*
X124510800Y-102295200D03*
D16*
X117620000Y-110660000D03*
D17*
X126644400Y-102320600D03*
D16*
X109510000Y-102680000D03*
X102320000Y-90180000D03*
X141986000Y-90678000D03*
X123750000Y-119540000D03*
X135330000Y-110590000D03*
D17*
X124510800Y-104428800D03*
X123444000Y-104428800D03*
D16*
X142990000Y-94170000D03*
X141986000Y-97663000D03*
D17*
X123444000Y-105495600D03*
D16*
X114800000Y-81680000D03*
D17*
X125577600Y-105495600D03*
D16*
X109540000Y-87200000D03*
X141953756Y-100853519D03*
X113893600Y-109067600D03*
X116230000Y-114580000D03*
D17*
X123444000Y-102295200D03*
D16*
X136220000Y-117640000D03*
X119608600Y-107289600D03*
D19*
X125848191Y-94020630D03*
D16*
X115544600Y-109702600D03*
X138810000Y-82390000D03*
X101370000Y-120690000D03*
D17*
X124510800Y-101203000D03*
D16*
X129840000Y-119470000D03*
X116190000Y-116320000D03*
X102220000Y-115860000D03*
X107670000Y-84820000D03*
X111610000Y-82500000D03*
X114935000Y-107492800D03*
D17*
X126820000Y-112680000D03*
D16*
X113360200Y-105816400D03*
D17*
X124510800Y-103362000D03*
X125577600Y-103362000D03*
D16*
X122810000Y-82450000D03*
X132440000Y-112320000D03*
D17*
X126644400Y-103387400D03*
X125577600Y-102295200D03*
X123444000Y-101203000D03*
D16*
X141986000Y-87376000D03*
X102250000Y-96690000D03*
X138176000Y-107950000D03*
X143040000Y-84800000D03*
D17*
X125577600Y-104428800D03*
D16*
X143040000Y-80040000D03*
X117023147Y-107893853D03*
D17*
X126644400Y-105521000D03*
D16*
X102270000Y-93470000D03*
D17*
X127711200Y-103387400D03*
D16*
X117398800Y-109677200D03*
X121080000Y-98060000D03*
X134810000Y-82380000D03*
X141986000Y-104394000D03*
D17*
X124510800Y-105495600D03*
D16*
X107610000Y-79950000D03*
D17*
X126644400Y-101228400D03*
X126644400Y-104454200D03*
D16*
X112180000Y-110660000D03*
X118810000Y-82490000D03*
D17*
X125577600Y-101203000D03*
X127711200Y-102320600D03*
X127711200Y-101228400D03*
D18*
%TO.N,+3V3*%
X104540000Y-104460000D03*
D16*
X123200000Y-106550000D03*
X117640000Y-99000000D03*
X122450000Y-106000000D03*
X122480000Y-104080000D03*
D18*
%TO.N,+5V*%
X108528000Y-118062000D03*
X145896800Y-121958000D03*
D16*
%TO.N,+1V2*%
X122500000Y-104680000D03*
X125790000Y-106510000D03*
X124400000Y-106560000D03*
D17*
X138360000Y-115910000D03*
D16*
%TO.N,/VIO*%
X126034800Y-98044000D03*
X122490000Y-103110000D03*
X118590000Y-99110000D03*
X128380000Y-106550000D03*
%TO.N,/CS*%
X114760000Y-97730000D03*
X122490000Y-101930000D03*
%TO.N,/HD2*%
X122460000Y-100810000D03*
X134420000Y-87640000D03*
%TO.N,/HD18*%
X132400000Y-82400000D03*
X131622800Y-97790000D03*
%TO.N,/HD17*%
X133225000Y-82400000D03*
X132384800Y-98196400D03*
%TO.N,/HD16*%
X133096000Y-98755200D03*
X134000000Y-82400000D03*
%TO.N,/HD15*%
X133637768Y-100128917D03*
X135625000Y-82425000D03*
%TO.N,/HD14*%
X133678099Y-100731164D03*
X136425000Y-82425000D03*
%TO.N,/HD13*%
X137225000Y-82425000D03*
X133775000Y-101325000D03*
%TO.N,/HD12*%
X138000000Y-82425000D03*
X133817712Y-101951384D03*
%TO.N,/HD11*%
X139598400Y-87884000D03*
X133993549Y-102500416D03*
%TO.N,/HD10*%
X140411200Y-87884000D03*
X133822478Y-103050952D03*
%TO.N,/HTRDY*%
X133340000Y-106640000D03*
X138770000Y-99520000D03*
%TO.N,/HD19*%
X131600000Y-82400000D03*
X130850000Y-97200000D03*
%TO.N,/HD20*%
X130250000Y-97175000D03*
X130000000Y-82500000D03*
%TO.N,/HD21*%
X129604047Y-97152549D03*
X129200000Y-82500000D03*
%TO.N,/HD23*%
X128462025Y-97301824D03*
X127600000Y-82500000D03*
%TO.N,/HD25*%
X125225000Y-82475000D03*
X127317823Y-97370467D03*
%TO.N,/HD27*%
X123950000Y-97200000D03*
X123600000Y-82500000D03*
%TO.N,/HD28*%
X123250000Y-97210000D03*
X122025000Y-82500000D03*
%TO.N,/LED1*%
X123991255Y-98830218D03*
X118010000Y-82120000D03*
X113260000Y-90930000D03*
%TO.N,/HD29*%
X122580000Y-97280000D03*
X121200000Y-82500000D03*
%TO.N,/LED2*%
X117220000Y-81690000D03*
X112945711Y-91770711D03*
X122580000Y-100220000D03*
%TO.N,/HD30*%
X121825000Y-97300000D03*
X120400000Y-82500000D03*
%TO.N,/HD31*%
X120950000Y-97250000D03*
X119600000Y-82500000D03*
%TO.N,/TXD*%
X127029324Y-108749973D03*
%TO.N,/RXD*%
X127680000Y-108760000D03*
D17*
%TO.N,/VBUS*%
X116500000Y-118120000D03*
X123780000Y-115870000D03*
D16*
%TO.N,/HD22*%
X129029532Y-97200378D03*
X128400000Y-82500000D03*
%TO.N,/HD24*%
X126000000Y-82500000D03*
X127886195Y-97273983D03*
%TO.N,/HD26*%
X124425000Y-82500000D03*
X124825000Y-97200000D03*
%TD*%
D20*
%TO.N,+3V3*%
X121000000Y-103950000D02*
X122290000Y-103950000D01*
X104540000Y-104460000D02*
X107470000Y-101530000D01*
X118580000Y-101530000D02*
X121000000Y-103950000D01*
X117640000Y-99780000D02*
X117640000Y-99000000D01*
D21*
X118620000Y-101530000D02*
X118580000Y-101530000D01*
X122480000Y-104080000D02*
X121200000Y-104110000D01*
D20*
X118580000Y-101530000D02*
X118580000Y-100720000D01*
X107470000Y-101530000D02*
X107510000Y-101530000D01*
D21*
X121200000Y-104110000D02*
X118620000Y-101530000D01*
D20*
X118580000Y-100720000D02*
X117640000Y-99780000D01*
X107510000Y-101530000D02*
X118580000Y-101530000D01*
D22*
%TO.N,+5V*%
X108528000Y-118062000D02*
X114062400Y-123596400D01*
X114062400Y-123596400D02*
X144576800Y-123596400D01*
X108528000Y-118062000D02*
X108528000Y-118788000D01*
X145896800Y-122276400D02*
X145896800Y-121958000D01*
X144576800Y-123596400D02*
X145896800Y-122276400D01*
%TO.N,+1V2*%
X125140000Y-110540000D02*
X125110000Y-110510000D01*
D21*
X122500000Y-104680000D02*
X122083497Y-104686503D01*
X121935000Y-104835000D02*
X120340000Y-106430000D01*
D22*
X138360000Y-115910000D02*
X133370000Y-110920000D01*
D20*
X121935000Y-104835000D02*
X122038489Y-104731511D01*
D23*
X125110000Y-107200000D02*
X125110000Y-107190000D01*
X124400000Y-106560000D02*
X124470000Y-106560000D01*
D22*
X133370000Y-110920000D02*
X133370000Y-110890000D01*
D23*
X124470000Y-106560000D02*
X125110000Y-107200000D01*
D20*
X120410000Y-106430000D02*
X120410000Y-106360000D01*
D22*
X133370000Y-110890000D02*
X133020000Y-110540000D01*
D23*
X125110000Y-107190000D02*
X125790000Y-106510000D01*
D22*
X133020000Y-110540000D02*
X125140000Y-110540000D01*
X125110000Y-110510000D02*
X124490000Y-110510000D01*
X125110000Y-110510000D02*
X125110000Y-107200000D01*
D21*
X122083497Y-104686503D02*
X121935000Y-104835000D01*
D20*
X120410000Y-106360000D02*
X121935000Y-104835000D01*
X122210134Y-104731511D02*
X122184311Y-104705688D01*
X122038489Y-104731511D02*
X122210134Y-104731511D01*
D22*
X120410000Y-106430000D02*
X124490000Y-110510000D01*
D20*
%TO.N,/VIO*%
X118590000Y-99110000D02*
X122080000Y-99120000D01*
X118590000Y-99110000D02*
X118730000Y-99350000D01*
X118730000Y-99350000D02*
X122490000Y-103110000D01*
X122080000Y-99120000D02*
X123156000Y-98044000D01*
X123156000Y-98044000D02*
X126034800Y-98044000D01*
D24*
%TO.N,/TXD*%
X127900000Y-109650000D02*
X137370000Y-109650000D01*
X127029324Y-108779324D02*
X127900000Y-109650000D01*
X137370000Y-109650000D02*
X138995000Y-111275000D01*
X127029324Y-108749973D02*
X127029324Y-108779324D01*
%TO.N,/RXD*%
X128425000Y-109275000D02*
X139535000Y-109275000D01*
X127680000Y-108760000D02*
X127910000Y-108760000D01*
X139535000Y-109275000D02*
X141535000Y-111275000D01*
X127910000Y-108760000D02*
X128425000Y-109275000D01*
%TD*%
%TA.AperFunction,Conductor*%
%TO.N,GND*%
G36*
X143812747Y-78519693D02*
G01*
X143816362Y-78520330D01*
X143817326Y-78520500D01*
X143828187Y-78522415D01*
X143839044Y-78520500D01*
X143849634Y-78520500D01*
X143861965Y-78521105D01*
X143991335Y-78533845D01*
X144015543Y-78538660D01*
X144160551Y-78582646D01*
X144183361Y-78592094D01*
X144316993Y-78663519D01*
X144337529Y-78677241D01*
X144454656Y-78773362D01*
X144472116Y-78790821D01*
X144568243Y-78907948D01*
X144581966Y-78928485D01*
X144653392Y-79062109D01*
X144662845Y-79084928D01*
X144670911Y-79111516D01*
X144706833Y-79229928D01*
X144711651Y-79254148D01*
X144724354Y-79383101D01*
X144724961Y-79395450D01*
X144724961Y-79406427D01*
X144723047Y-79417284D01*
X144724962Y-79428142D01*
X144725768Y-79432714D01*
X144727683Y-79454596D01*
X144727683Y-81780003D01*
X144707681Y-81848124D01*
X144654025Y-81894617D01*
X144583751Y-81904721D01*
X144519171Y-81875227D01*
X144504040Y-81859639D01*
X144391605Y-81721780D01*
X144391602Y-81721777D01*
X144387710Y-81717005D01*
X144382056Y-81712327D01*
X144315898Y-81657596D01*
X144244085Y-81598187D01*
X144080116Y-81509529D01*
X143991083Y-81481969D01*
X143907936Y-81456231D01*
X143907933Y-81456230D01*
X143902049Y-81454409D01*
X143895924Y-81453765D01*
X143895923Y-81453765D01*
X143722796Y-81435568D01*
X143722795Y-81435568D01*
X143716668Y-81434924D01*
X143638549Y-81442033D01*
X143537171Y-81451259D01*
X143537168Y-81451260D01*
X143531032Y-81451818D01*
X143525122Y-81453557D01*
X143525119Y-81453558D01*
X143358129Y-81502707D01*
X143352214Y-81504448D01*
X143187023Y-81590807D01*
X143041752Y-81707608D01*
X142921935Y-81850401D01*
X142918971Y-81855793D01*
X142918968Y-81855797D01*
X142869376Y-81946005D01*
X142832135Y-82013746D01*
X142830274Y-82019613D01*
X142830273Y-82019615D01*
X142777634Y-82185554D01*
X142775772Y-82191424D01*
X142754994Y-82376665D01*
X142755510Y-82382809D01*
X142767786Y-82528994D01*
X142770592Y-82562414D01*
X142772291Y-82568339D01*
X142800013Y-82665017D01*
X142821971Y-82741595D01*
X142824790Y-82747080D01*
X142891152Y-82876205D01*
X142907176Y-82907385D01*
X143022959Y-83053468D01*
X143164912Y-83174279D01*
X143327627Y-83265217D01*
X143504907Y-83322819D01*
X143689998Y-83344890D01*
X143696133Y-83344418D01*
X143696135Y-83344418D01*
X143869710Y-83331062D01*
X143869715Y-83331061D01*
X143875851Y-83330589D01*
X143881781Y-83328933D01*
X143881783Y-83328933D01*
X144049459Y-83282117D01*
X144049458Y-83282117D01*
X144055387Y-83280462D01*
X144221768Y-83196417D01*
X144246255Y-83177286D01*
X144363794Y-83085454D01*
X144363795Y-83085453D01*
X144368655Y-83081656D01*
X144490454Y-82940550D01*
X144493498Y-82935192D01*
X144497048Y-82930159D01*
X144498655Y-82931293D01*
X144543166Y-82888254D01*
X144612784Y-82874332D01*
X144678878Y-82900258D01*
X144720463Y-82957801D01*
X144727683Y-82999842D01*
X144727683Y-87406077D01*
X144725769Y-87427957D01*
X144723047Y-87443394D01*
X144724435Y-87451265D01*
X144739183Y-87657481D01*
X144784805Y-87867210D01*
X144786376Y-87871422D01*
X144845080Y-88028814D01*
X144859811Y-88068311D01*
X144861967Y-88072259D01*
X144861969Y-88072264D01*
X144960241Y-88252238D01*
X144962672Y-88256691D01*
X145027203Y-88342895D01*
X145080457Y-88414035D01*
X145091296Y-88428515D01*
X145243064Y-88580286D01*
X145246664Y-88582981D01*
X145246671Y-88582987D01*
X145367643Y-88673546D01*
X145414886Y-88708913D01*
X145603264Y-88811778D01*
X145607476Y-88813349D01*
X145607478Y-88813350D01*
X145800141Y-88885212D01*
X145804364Y-88886787D01*
X145808769Y-88887745D01*
X145808768Y-88887745D01*
X146009692Y-88931456D01*
X146009695Y-88931456D01*
X146014092Y-88932413D01*
X146220517Y-88947180D01*
X146228179Y-88948531D01*
X146243619Y-88945809D01*
X146265495Y-88943895D01*
X146450846Y-88943895D01*
X146472720Y-88945808D01*
X146488167Y-88948531D01*
X146499024Y-88946616D01*
X146509606Y-88946616D01*
X146521957Y-88947222D01*
X146651307Y-88959957D01*
X146675531Y-88964775D01*
X146748029Y-88986765D01*
X146820526Y-89008754D01*
X146843348Y-89018206D01*
X146976984Y-89089632D01*
X146997510Y-89103347D01*
X147114643Y-89199471D01*
X147132102Y-89216929D01*
X147228230Y-89334057D01*
X147241953Y-89354594D01*
X147313380Y-89488220D01*
X147322832Y-89511037D01*
X147366819Y-89656039D01*
X147371637Y-89680260D01*
X147384331Y-89809142D01*
X147383873Y-89821515D01*
X147384934Y-89821515D01*
X147384934Y-89832542D01*
X147383020Y-89843396D01*
X147384934Y-89854251D01*
X147385742Y-89858833D01*
X147387656Y-89880713D01*
X147387656Y-126528619D01*
X147385741Y-126550504D01*
X147383020Y-126565932D01*
X147384933Y-126576786D01*
X147384933Y-126587812D01*
X147384137Y-126587812D01*
X147384672Y-126600029D01*
X147377980Y-126676492D01*
X147374362Y-126717821D01*
X147370548Y-126739449D01*
X147333933Y-126876082D01*
X147326420Y-126896720D01*
X147296531Y-126960813D01*
X147277965Y-127000626D01*
X147266642Y-127024906D01*
X147255660Y-127043926D01*
X147174523Y-127159795D01*
X147160405Y-127176620D01*
X147060385Y-127276635D01*
X147043564Y-127290749D01*
X146927687Y-127371884D01*
X146908676Y-127382859D01*
X146780471Y-127442639D01*
X146759838Y-127450148D01*
X146691524Y-127468451D01*
X146623213Y-127486754D01*
X146601585Y-127490568D01*
X146556582Y-127494505D01*
X146483571Y-127500892D01*
X146471568Y-127500366D01*
X146471568Y-127501190D01*
X146460546Y-127501190D01*
X146449690Y-127499276D01*
X146434250Y-127501998D01*
X146412374Y-127503912D01*
X101704558Y-127503912D01*
X101682683Y-127501999D01*
X101667237Y-127499276D01*
X101656380Y-127501191D01*
X101645361Y-127501191D01*
X101645361Y-127500397D01*
X101633141Y-127500930D01*
X101515335Y-127490628D01*
X101493705Y-127486815D01*
X101357061Y-127450207D01*
X101336425Y-127442697D01*
X101208216Y-127382918D01*
X101189197Y-127371938D01*
X101073314Y-127290803D01*
X101056488Y-127276686D01*
X100956459Y-127176664D01*
X100942340Y-127159839D01*
X100861198Y-127043965D01*
X100850216Y-127024945D01*
X100790427Y-126896739D01*
X100782915Y-126876101D01*
X100746298Y-126739466D01*
X100742483Y-126717836D01*
X100732203Y-126600378D01*
X100732751Y-126587810D01*
X100732003Y-126587810D01*
X100732003Y-126576787D01*
X100733916Y-126565932D01*
X100731195Y-126550504D01*
X100729280Y-126528619D01*
X100729280Y-118048665D01*
X107572994Y-118048665D01*
X107573510Y-118054809D01*
X107580482Y-118137830D01*
X107588592Y-118234414D01*
X107590291Y-118240339D01*
X107604228Y-118288942D01*
X107639971Y-118413595D01*
X107642792Y-118419084D01*
X107713566Y-118556796D01*
X107727500Y-118614390D01*
X107727500Y-118833155D01*
X107742454Y-118966472D01*
X107801515Y-119136073D01*
X107896684Y-119288375D01*
X107960229Y-119352365D01*
X108018267Y-119410810D01*
X108018271Y-119410813D01*
X108023230Y-119415807D01*
X108174864Y-119512037D01*
X108181507Y-119514402D01*
X108181506Y-119514402D01*
X108337414Y-119569919D01*
X108337419Y-119569920D01*
X108344049Y-119572281D01*
X108351035Y-119573114D01*
X108351039Y-119573115D01*
X108478823Y-119588352D01*
X108522376Y-119593545D01*
X108529379Y-119592809D01*
X108529380Y-119592809D01*
X108693975Y-119575510D01*
X108693979Y-119575509D01*
X108700983Y-119574773D01*
X108781700Y-119547295D01*
X108852632Y-119544277D01*
X108911400Y-119577478D01*
X113489881Y-124155959D01*
X113490810Y-124156897D01*
X113553259Y-124220668D01*
X113559179Y-124224483D01*
X113559185Y-124224488D01*
X113589291Y-124243890D01*
X113599645Y-124251330D01*
X113633134Y-124278064D01*
X113639472Y-124281128D01*
X113639477Y-124281131D01*
X113662953Y-124292479D01*
X113676373Y-124300010D01*
X113698291Y-124314136D01*
X113698299Y-124314140D01*
X113704217Y-124317954D01*
X113710837Y-124320364D01*
X113710838Y-124320364D01*
X113744488Y-124332612D01*
X113756232Y-124337573D01*
X113788481Y-124353163D01*
X113788487Y-124353165D01*
X113794823Y-124356228D01*
X113801678Y-124357811D01*
X113801682Y-124357812D01*
X113827110Y-124363682D01*
X113841860Y-124368052D01*
X113866355Y-124376968D01*
X113866360Y-124376969D01*
X113872978Y-124379378D01*
X113915512Y-124384751D01*
X113928028Y-124386981D01*
X113969811Y-124396627D01*
X113976849Y-124396651D01*
X113976854Y-124396652D01*
X114009993Y-124396767D01*
X114010860Y-124396796D01*
X114011683Y-124396900D01*
X114047979Y-124396900D01*
X114048418Y-124396901D01*
X114145909Y-124397241D01*
X114145912Y-124397241D01*
X114149401Y-124397253D01*
X114150589Y-124396987D01*
X114152202Y-124396900D01*
X144567717Y-124396900D01*
X144569038Y-124396907D01*
X144658207Y-124397841D01*
X144700096Y-124388784D01*
X144712670Y-124386725D01*
X144730301Y-124384747D01*
X144748276Y-124382731D01*
X144748278Y-124382730D01*
X144755272Y-124381946D01*
X144786559Y-124371050D01*
X144801364Y-124366889D01*
X144826861Y-124361377D01*
X144826864Y-124361376D01*
X144833742Y-124359889D01*
X144872599Y-124341770D01*
X144884382Y-124336986D01*
X144924873Y-124322885D01*
X144952967Y-124305330D01*
X144966482Y-124297992D01*
X144996507Y-124283991D01*
X145030367Y-124257726D01*
X145040824Y-124250431D01*
X145071200Y-124231450D01*
X145071203Y-124231448D01*
X145077175Y-124227716D01*
X145082173Y-124222753D01*
X145105693Y-124199397D01*
X145106315Y-124198815D01*
X145106977Y-124198301D01*
X145132837Y-124172441D01*
X145204607Y-124101170D01*
X145205259Y-124100143D01*
X145206343Y-124098935D01*
X146456359Y-122848919D01*
X146457297Y-122847990D01*
X146457568Y-122847725D01*
X146521068Y-122785541D01*
X146524883Y-122779621D01*
X146524888Y-122779615D01*
X146544290Y-122749509D01*
X146551730Y-122739155D01*
X146574067Y-122711174D01*
X146578464Y-122705666D01*
X146592882Y-122675841D01*
X146600411Y-122662425D01*
X146614535Y-122640509D01*
X146618354Y-122634583D01*
X146633013Y-122594309D01*
X146637972Y-122582569D01*
X146653563Y-122550316D01*
X146656627Y-122543978D01*
X146656716Y-122543594D01*
X146670128Y-122517608D01*
X146673226Y-122513217D01*
X146677254Y-122508550D01*
X146769326Y-122346474D01*
X146828164Y-122169601D01*
X146851527Y-121984668D01*
X146851899Y-121958000D01*
X146833709Y-121772487D01*
X146831928Y-121766588D01*
X146831927Y-121766583D01*
X146781614Y-121599939D01*
X146779833Y-121594040D01*
X146692322Y-121429456D01*
X146688432Y-121424686D01*
X146688429Y-121424682D01*
X146578405Y-121289780D01*
X146578402Y-121289777D01*
X146574510Y-121285005D01*
X146568856Y-121280327D01*
X146435634Y-121170116D01*
X146430885Y-121166187D01*
X146266916Y-121077529D01*
X146177882Y-121049969D01*
X146094736Y-121024231D01*
X146094733Y-121024230D01*
X146088849Y-121022409D01*
X146082724Y-121021765D01*
X146082723Y-121021765D01*
X145909596Y-121003568D01*
X145909595Y-121003568D01*
X145903468Y-121002924D01*
X145825349Y-121010033D01*
X145723971Y-121019259D01*
X145723968Y-121019260D01*
X145717832Y-121019818D01*
X145711922Y-121021557D01*
X145711919Y-121021558D01*
X145544929Y-121070707D01*
X145539014Y-121072448D01*
X145373823Y-121158807D01*
X145228552Y-121275608D01*
X145108735Y-121418401D01*
X145105771Y-121423793D01*
X145105768Y-121423797D01*
X145031056Y-121559699D01*
X145018935Y-121581746D01*
X144962572Y-121759424D01*
X144941794Y-121944665D01*
X144942310Y-121950809D01*
X144948881Y-122029066D01*
X144934649Y-122098622D01*
X144912418Y-122128704D01*
X144282127Y-122758995D01*
X144219815Y-122793021D01*
X144193032Y-122795900D01*
X114446168Y-122795900D01*
X114378047Y-122775898D01*
X114357073Y-122758995D01*
X109707182Y-118109104D01*
X115719669Y-118109104D01*
X115736647Y-118282256D01*
X115791564Y-118447343D01*
X115795211Y-118453365D01*
X115795212Y-118453367D01*
X115812907Y-118482584D01*
X115881692Y-118596162D01*
X116002550Y-118721314D01*
X116148132Y-118816580D01*
X116192700Y-118833155D01*
X116304600Y-118874771D01*
X116304602Y-118874772D01*
X116311202Y-118877226D01*
X116318180Y-118878157D01*
X116318184Y-118878158D01*
X116386420Y-118887262D01*
X116483656Y-118900236D01*
X116490667Y-118899598D01*
X116490671Y-118899598D01*
X116627507Y-118887144D01*
X116656923Y-118884467D01*
X116663623Y-118882290D01*
X116663628Y-118882289D01*
X116815691Y-118832881D01*
X116815694Y-118832880D01*
X116822390Y-118830704D01*
X116971833Y-118741618D01*
X117097826Y-118621636D01*
X117102641Y-118614390D01*
X117190212Y-118482584D01*
X117194107Y-118476722D01*
X117255889Y-118314079D01*
X117280103Y-118141790D01*
X117280407Y-118120000D01*
X117261013Y-117947102D01*
X117203796Y-117782797D01*
X117111600Y-117635252D01*
X117098274Y-117621832D01*
X117010512Y-117533456D01*
X116989006Y-117511799D01*
X116978342Y-117505031D01*
X116932076Y-117475670D01*
X116842108Y-117418575D01*
X116721840Y-117375749D01*
X116684841Y-117362574D01*
X116684839Y-117362573D01*
X116678207Y-117360212D01*
X116671221Y-117359379D01*
X116671217Y-117359378D01*
X116548107Y-117344699D01*
X116505448Y-117339612D01*
X116498445Y-117340348D01*
X116498444Y-117340348D01*
X116452109Y-117345218D01*
X116332419Y-117357798D01*
X116325753Y-117360067D01*
X116325750Y-117360068D01*
X116174386Y-117411597D01*
X116174383Y-117411598D01*
X116167719Y-117413867D01*
X116019533Y-117505031D01*
X115895228Y-117626760D01*
X115800980Y-117773004D01*
X115798569Y-117779627D01*
X115798568Y-117779630D01*
X115743885Y-117929870D01*
X115743884Y-117929875D01*
X115741475Y-117936493D01*
X115719669Y-118109104D01*
X109707182Y-118109104D01*
X109483113Y-117885035D01*
X109451586Y-117832358D01*
X109412814Y-117703939D01*
X109411033Y-117698040D01*
X109323522Y-117533456D01*
X109319632Y-117528686D01*
X109319629Y-117528682D01*
X109209605Y-117393780D01*
X109209602Y-117393777D01*
X109205710Y-117389005D01*
X109200056Y-117384327D01*
X109133898Y-117329596D01*
X109062085Y-117270187D01*
X108898116Y-117181529D01*
X108806127Y-117153054D01*
X108725936Y-117128231D01*
X108725933Y-117128230D01*
X108720049Y-117126409D01*
X108713924Y-117125765D01*
X108713923Y-117125765D01*
X108540796Y-117107568D01*
X108540795Y-117107568D01*
X108534668Y-117106924D01*
X108456549Y-117114033D01*
X108355171Y-117123259D01*
X108355168Y-117123260D01*
X108349032Y-117123818D01*
X108343122Y-117125557D01*
X108343119Y-117125558D01*
X108249698Y-117153054D01*
X108170214Y-117176448D01*
X108005023Y-117262807D01*
X107859752Y-117379608D01*
X107739935Y-117522401D01*
X107736971Y-117527793D01*
X107736968Y-117527797D01*
X107685272Y-117621832D01*
X107650135Y-117685746D01*
X107648274Y-117691613D01*
X107648273Y-117691615D01*
X107620353Y-117779630D01*
X107593772Y-117863424D01*
X107572994Y-118048665D01*
X100729280Y-118048665D01*
X100729280Y-116388266D01*
X119449500Y-116388266D01*
X119464112Y-116532117D01*
X119521856Y-116716380D01*
X119615472Y-116885268D01*
X119741136Y-117031882D01*
X119746178Y-117035793D01*
X119746179Y-117035794D01*
X119888665Y-117146318D01*
X119888668Y-117146320D01*
X119893714Y-117150234D01*
X120066974Y-117235488D01*
X120073144Y-117237095D01*
X120073149Y-117237097D01*
X120247655Y-117282552D01*
X120247658Y-117282552D01*
X120253837Y-117284162D01*
X120337203Y-117288531D01*
X120440290Y-117293934D01*
X120440294Y-117293934D01*
X120446671Y-117294268D01*
X120637599Y-117265393D01*
X120652385Y-117259953D01*
X120812832Y-117200921D01*
X120812836Y-117200919D01*
X120818821Y-117198717D01*
X120982934Y-117096962D01*
X121123235Y-116964286D01*
X121233991Y-116806109D01*
X121310680Y-116628892D01*
X121329625Y-116538208D01*
X121349177Y-116444619D01*
X121349177Y-116444615D01*
X121350168Y-116439874D01*
X121350500Y-116433539D01*
X121350500Y-115859104D01*
X122999669Y-115859104D01*
X123016647Y-116032256D01*
X123071564Y-116197343D01*
X123075211Y-116203365D01*
X123075212Y-116203367D01*
X123092907Y-116232584D01*
X123161692Y-116346162D01*
X123282550Y-116471314D01*
X123428132Y-116566580D01*
X123483765Y-116587270D01*
X123584600Y-116624771D01*
X123584602Y-116624772D01*
X123591202Y-116627226D01*
X123598180Y-116628157D01*
X123598184Y-116628158D01*
X123666420Y-116637262D01*
X123763656Y-116650236D01*
X123770667Y-116649598D01*
X123770671Y-116649598D01*
X123907507Y-116637144D01*
X123936923Y-116634467D01*
X123943623Y-116632290D01*
X123943628Y-116632289D01*
X124095691Y-116582881D01*
X124095694Y-116582880D01*
X124102390Y-116580704D01*
X124251833Y-116491618D01*
X124360363Y-116388266D01*
X132249500Y-116388266D01*
X132264112Y-116532117D01*
X132321856Y-116716380D01*
X132415472Y-116885268D01*
X132541136Y-117031882D01*
X132546178Y-117035793D01*
X132546179Y-117035794D01*
X132688665Y-117146318D01*
X132688668Y-117146320D01*
X132693714Y-117150234D01*
X132866974Y-117235488D01*
X132873144Y-117237095D01*
X132873149Y-117237097D01*
X133047655Y-117282552D01*
X133047658Y-117282552D01*
X133053837Y-117284162D01*
X133137203Y-117288531D01*
X133240290Y-117293934D01*
X133240294Y-117293934D01*
X133246671Y-117294268D01*
X133437599Y-117265393D01*
X133452385Y-117259953D01*
X133612832Y-117200921D01*
X133612836Y-117200919D01*
X133618821Y-117198717D01*
X133782934Y-117096962D01*
X133923235Y-116964286D01*
X134033991Y-116806109D01*
X134110680Y-116628892D01*
X134129625Y-116538208D01*
X134149177Y-116444619D01*
X134149177Y-116444615D01*
X134150168Y-116439874D01*
X134150500Y-116433539D01*
X134150500Y-114391748D01*
X134135888Y-114247897D01*
X134078144Y-114063634D01*
X133984528Y-113894746D01*
X133858864Y-113748132D01*
X133770627Y-113679688D01*
X133711335Y-113633696D01*
X133711332Y-113633694D01*
X133706286Y-113629780D01*
X133533026Y-113544526D01*
X133526856Y-113542919D01*
X133526851Y-113542917D01*
X133352345Y-113497462D01*
X133352342Y-113497462D01*
X133346163Y-113495852D01*
X133262797Y-113491483D01*
X133159710Y-113486080D01*
X133159706Y-113486080D01*
X133153329Y-113485746D01*
X132962401Y-113514621D01*
X132956406Y-113516827D01*
X132956405Y-113516827D01*
X132787168Y-113579093D01*
X132787164Y-113579095D01*
X132781179Y-113581297D01*
X132617066Y-113683052D01*
X132476765Y-113815728D01*
X132366009Y-113973905D01*
X132289320Y-114151122D01*
X132288015Y-114157369D01*
X132269103Y-114247897D01*
X132249832Y-114340140D01*
X132249500Y-114346475D01*
X132249500Y-116388266D01*
X124360363Y-116388266D01*
X124377826Y-116371636D01*
X124391387Y-116351226D01*
X124470212Y-116232584D01*
X124474107Y-116226722D01*
X124535889Y-116064079D01*
X124560103Y-115891790D01*
X124560407Y-115870000D01*
X124541013Y-115697102D01*
X124483796Y-115532797D01*
X124391600Y-115385252D01*
X124378274Y-115371832D01*
X124273968Y-115266796D01*
X124269006Y-115261799D01*
X124258342Y-115255031D01*
X124212076Y-115225670D01*
X124122108Y-115168575D01*
X124020015Y-115132221D01*
X123964841Y-115112574D01*
X123964839Y-115112573D01*
X123958207Y-115110212D01*
X123951221Y-115109379D01*
X123951217Y-115109378D01*
X123828107Y-115094699D01*
X123785448Y-115089612D01*
X123778445Y-115090348D01*
X123778444Y-115090348D01*
X123732109Y-115095218D01*
X123612419Y-115107798D01*
X123605753Y-115110067D01*
X123605750Y-115110068D01*
X123454386Y-115161597D01*
X123454383Y-115161598D01*
X123447719Y-115163867D01*
X123299533Y-115255031D01*
X123175228Y-115376760D01*
X123080980Y-115523004D01*
X123078569Y-115529627D01*
X123078568Y-115529630D01*
X123023885Y-115679870D01*
X123023884Y-115679875D01*
X123021475Y-115686493D01*
X122999669Y-115859104D01*
X121350500Y-115859104D01*
X121350500Y-114391748D01*
X121335888Y-114247897D01*
X121278144Y-114063634D01*
X121184528Y-113894746D01*
X121058864Y-113748132D01*
X120970627Y-113679688D01*
X120911335Y-113633696D01*
X120911332Y-113633694D01*
X120906286Y-113629780D01*
X120733026Y-113544526D01*
X120726856Y-113542919D01*
X120726851Y-113542917D01*
X120552345Y-113497462D01*
X120552342Y-113497462D01*
X120546163Y-113495852D01*
X120462797Y-113491483D01*
X120359710Y-113486080D01*
X120359706Y-113486080D01*
X120353329Y-113485746D01*
X120162401Y-113514621D01*
X120156406Y-113516827D01*
X120156405Y-113516827D01*
X119987168Y-113579093D01*
X119987164Y-113579095D01*
X119981179Y-113581297D01*
X119817066Y-113683052D01*
X119676765Y-113815728D01*
X119566009Y-113973905D01*
X119489320Y-114151122D01*
X119488015Y-114157369D01*
X119469103Y-114247897D01*
X119449832Y-114340140D01*
X119449500Y-114346475D01*
X119449500Y-116388266D01*
X100729280Y-116388266D01*
X100729280Y-106712606D01*
X115068580Y-106712606D01*
X115084463Y-106874594D01*
X115135840Y-107029038D01*
X115139487Y-107035060D01*
X115139488Y-107035062D01*
X115209913Y-107151347D01*
X115220156Y-107168261D01*
X115333222Y-107285345D01*
X115469418Y-107374469D01*
X115476022Y-107376925D01*
X115615373Y-107428749D01*
X115615375Y-107428749D01*
X115621975Y-107431204D01*
X115628956Y-107432135D01*
X115628958Y-107432136D01*
X115776329Y-107451800D01*
X115776333Y-107451800D01*
X115783310Y-107452731D01*
X115790321Y-107452093D01*
X115790325Y-107452093D01*
X115938384Y-107438618D01*
X115945405Y-107437979D01*
X115952107Y-107435801D01*
X115952109Y-107435801D01*
X116093505Y-107389859D01*
X116093508Y-107389858D01*
X116100204Y-107387682D01*
X116240012Y-107304339D01*
X116245106Y-107299488D01*
X116245110Y-107299485D01*
X116352782Y-107196950D01*
X116352783Y-107196948D01*
X116357882Y-107192093D01*
X116370352Y-107173325D01*
X116419717Y-107099024D01*
X116447955Y-107056523D01*
X116450455Y-107049942D01*
X116503253Y-106910951D01*
X116503254Y-106910948D01*
X116505754Y-106904366D01*
X116528406Y-106743185D01*
X116528691Y-106722800D01*
X116510548Y-106561049D01*
X116457020Y-106407338D01*
X116432760Y-106368513D01*
X116382689Y-106288384D01*
X116363553Y-106220015D01*
X116384594Y-106151888D01*
X116447955Y-106056523D01*
X116451183Y-106048026D01*
X116503253Y-105910951D01*
X116503254Y-105910948D01*
X116505754Y-105904366D01*
X116528406Y-105743185D01*
X116528521Y-105734983D01*
X116528636Y-105726762D01*
X116528636Y-105726756D01*
X116528691Y-105722800D01*
X116510548Y-105561049D01*
X116502458Y-105537816D01*
X116478829Y-105469965D01*
X116457020Y-105407338D01*
X116370768Y-105269306D01*
X116256078Y-105153812D01*
X116193943Y-105114380D01*
X116124594Y-105070370D01*
X116124591Y-105070368D01*
X116118651Y-105066599D01*
X116112018Y-105064237D01*
X115971951Y-105014361D01*
X115971949Y-105014360D01*
X115965317Y-105011999D01*
X115958329Y-105011166D01*
X115958326Y-105011165D01*
X115850025Y-104998251D01*
X115803697Y-104992727D01*
X115796694Y-104993463D01*
X115796693Y-104993463D01*
X115756270Y-104997712D01*
X115641824Y-105009740D01*
X115635156Y-105012010D01*
X115494409Y-105059924D01*
X115494406Y-105059925D01*
X115487742Y-105062194D01*
X115349111Y-105147480D01*
X115289086Y-105206261D01*
X115243226Y-105251171D01*
X115232820Y-105261361D01*
X115144649Y-105398176D01*
X115142240Y-105404796D01*
X115142238Y-105404799D01*
X115111946Y-105488026D01*
X115088980Y-105551125D01*
X115068580Y-105712606D01*
X115084463Y-105874594D01*
X115135840Y-106029038D01*
X115139487Y-106035060D01*
X115139488Y-106035062D01*
X115214573Y-106159043D01*
X115232752Y-106227673D01*
X115212708Y-106292569D01*
X115176152Y-106349293D01*
X115148658Y-106391956D01*
X115144649Y-106398176D01*
X115142240Y-106404796D01*
X115142238Y-106404799D01*
X115096925Y-106529295D01*
X115088980Y-106551125D01*
X115068580Y-106712606D01*
X100729280Y-106712606D01*
X100729280Y-104446665D01*
X103584994Y-104446665D01*
X103585510Y-104452809D01*
X103599899Y-104624158D01*
X103600592Y-104632414D01*
X103602291Y-104638339D01*
X103638781Y-104765595D01*
X103651971Y-104811595D01*
X103737176Y-104977385D01*
X103852959Y-105123468D01*
X103994912Y-105244279D01*
X104000290Y-105247285D01*
X104000292Y-105247286D01*
X104034523Y-105266417D01*
X104157627Y-105335217D01*
X104334907Y-105392819D01*
X104519998Y-105414890D01*
X104526133Y-105414418D01*
X104526135Y-105414418D01*
X104699710Y-105401062D01*
X104699715Y-105401061D01*
X104705851Y-105400589D01*
X104711781Y-105398933D01*
X104711783Y-105398933D01*
X104879459Y-105352117D01*
X104879458Y-105352117D01*
X104885387Y-105350462D01*
X105051768Y-105266417D01*
X105058240Y-105261361D01*
X105193794Y-105155454D01*
X105193795Y-105155453D01*
X105198655Y-105151656D01*
X105320454Y-105010550D01*
X105412526Y-104848474D01*
X105471364Y-104671601D01*
X105484136Y-104570502D01*
X105494285Y-104490170D01*
X105494286Y-104490163D01*
X105494727Y-104486668D01*
X105495099Y-104460000D01*
X105491458Y-104422862D01*
X105504718Y-104353115D01*
X105527762Y-104321473D01*
X107681830Y-102167405D01*
X107744142Y-102133379D01*
X107770925Y-102130500D01*
X118279075Y-102130500D01*
X118347196Y-102150502D01*
X118368170Y-102167405D01*
X120541703Y-104340938D01*
X120552570Y-104353328D01*
X120571718Y-104378282D01*
X120578264Y-104383305D01*
X120626931Y-104420648D01*
X120656771Y-104443545D01*
X120697159Y-104474536D01*
X120843238Y-104535044D01*
X121000000Y-104555682D01*
X121008188Y-104554604D01*
X121031173Y-104551578D01*
X121047619Y-104550500D01*
X121066075Y-104550500D01*
X121134196Y-104570502D01*
X121180689Y-104624158D01*
X121190793Y-104694432D01*
X121161299Y-104759012D01*
X121155170Y-104765595D01*
X120308469Y-105612296D01*
X120246861Y-105646166D01*
X120147733Y-105668324D01*
X119985503Y-105745357D01*
X119979967Y-105749713D01*
X119979966Y-105749714D01*
X119849910Y-105852057D01*
X119849908Y-105852059D01*
X119844370Y-105856417D01*
X119839934Y-105861895D01*
X119839932Y-105861897D01*
X119824237Y-105881279D01*
X119731350Y-105995985D01*
X119728237Y-106002311D01*
X119728236Y-106002313D01*
X119658117Y-106144814D01*
X119652059Y-106157125D01*
X119650427Y-106163974D01*
X119650427Y-106163975D01*
X119645180Y-106186002D01*
X119610440Y-106331826D01*
X119610366Y-106338869D01*
X119610366Y-106338871D01*
X119610056Y-106368513D01*
X119608559Y-106511407D01*
X119646511Y-106686942D01*
X119722409Y-106849707D01*
X119808099Y-106960177D01*
X123917481Y-111069559D01*
X123918410Y-111070497D01*
X123980859Y-111134268D01*
X124016904Y-111157498D01*
X124027229Y-111164917D01*
X124060734Y-111191663D01*
X124067074Y-111194728D01*
X124090553Y-111206079D01*
X124103964Y-111213605D01*
X124125893Y-111227737D01*
X124125898Y-111227739D01*
X124131817Y-111231554D01*
X124172099Y-111246216D01*
X124183829Y-111251170D01*
X124222422Y-111269827D01*
X124229283Y-111271411D01*
X124229286Y-111271412D01*
X124254700Y-111277279D01*
X124269444Y-111281646D01*
X124300578Y-111292978D01*
X124343120Y-111298352D01*
X124355636Y-111300582D01*
X124397410Y-111310226D01*
X124404451Y-111310251D01*
X124404454Y-111310251D01*
X124437582Y-111310367D01*
X124438455Y-111310396D01*
X124439283Y-111310500D01*
X124475737Y-111310500D01*
X124476177Y-111310501D01*
X124573507Y-111310841D01*
X124573510Y-111310841D01*
X124577000Y-111310853D01*
X124578188Y-111310587D01*
X124579800Y-111310500D01*
X124894078Y-111310500D01*
X124937172Y-111318099D01*
X124943956Y-111320568D01*
X124943958Y-111320568D01*
X124950578Y-111322978D01*
X124993120Y-111328352D01*
X125005636Y-111330582D01*
X125047410Y-111340226D01*
X125054451Y-111340251D01*
X125054454Y-111340251D01*
X125087582Y-111340367D01*
X125088455Y-111340396D01*
X125089283Y-111340500D01*
X125125737Y-111340500D01*
X125126177Y-111340501D01*
X125223507Y-111340841D01*
X125223510Y-111340841D01*
X125227000Y-111340853D01*
X125228188Y-111340587D01*
X125229800Y-111340500D01*
X132618929Y-111340500D01*
X132687050Y-111360502D01*
X132725783Y-111399729D01*
X132738684Y-111420375D01*
X132743646Y-111425372D01*
X132743647Y-111425373D01*
X132767003Y-111448893D01*
X132767585Y-111449515D01*
X132768099Y-111450177D01*
X132793959Y-111476037D01*
X132865230Y-111547807D01*
X132866257Y-111548459D01*
X132867465Y-111549543D01*
X137825891Y-116507969D01*
X137828634Y-116510158D01*
X137828641Y-116510165D01*
X137894481Y-116562724D01*
X137930734Y-116591664D01*
X137937072Y-116594728D01*
X137937077Y-116594731D01*
X138043561Y-116646207D01*
X138092423Y-116669827D01*
X138099291Y-116671413D01*
X138099295Y-116671414D01*
X138260541Y-116708641D01*
X138267411Y-116710227D01*
X138274456Y-116710252D01*
X138274460Y-116710252D01*
X138354922Y-116710532D01*
X138447001Y-116710853D01*
X138453867Y-116709318D01*
X138453870Y-116709318D01*
X138568261Y-116683748D01*
X138622267Y-116671677D01*
X138784498Y-116594644D01*
X138802213Y-116580704D01*
X138872023Y-116525768D01*
X138925630Y-116483583D01*
X139038650Y-116344015D01*
X139041764Y-116337687D01*
X139114831Y-116189197D01*
X139114832Y-116189194D01*
X139117941Y-116182876D01*
X139159561Y-116008174D01*
X139161441Y-115828593D01*
X139123490Y-115653058D01*
X139064624Y-115526820D01*
X139050568Y-115496677D01*
X139050568Y-115496676D01*
X139047591Y-115490293D01*
X138961902Y-115379824D01*
X134074034Y-110491956D01*
X134058471Y-110472180D01*
X134057591Y-110470293D01*
X134031322Y-110436427D01*
X134024037Y-110425986D01*
X134001316Y-110389625D01*
X133972976Y-110361087D01*
X133972416Y-110360488D01*
X133971901Y-110359824D01*
X133946175Y-110334098D01*
X133880690Y-110268154D01*
X133846883Y-110205723D01*
X133852195Y-110134925D01*
X133894940Y-110078239D01*
X133961546Y-110053660D01*
X133970096Y-110053370D01*
X137150729Y-110053370D01*
X137218850Y-110073372D01*
X137239824Y-110090275D01*
X137886722Y-110737173D01*
X137920748Y-110799485D01*
X137917960Y-110863632D01*
X137917071Y-110866496D01*
X137864820Y-111034773D01*
X137839967Y-111244754D01*
X137853796Y-111455749D01*
X137855217Y-111461345D01*
X137855218Y-111461350D01*
X137876548Y-111545334D01*
X137905845Y-111660690D01*
X137994369Y-111852714D01*
X138116405Y-112025391D01*
X138267865Y-112172937D01*
X138272661Y-112176142D01*
X138272664Y-112176144D01*
X138372129Y-112242604D01*
X138443677Y-112290411D01*
X138448985Y-112292692D01*
X138448986Y-112292692D01*
X138632650Y-112371600D01*
X138632653Y-112371601D01*
X138637953Y-112373878D01*
X138643582Y-112375152D01*
X138643583Y-112375152D01*
X138838550Y-112419269D01*
X138838553Y-112419269D01*
X138844186Y-112420544D01*
X138849957Y-112420771D01*
X138849959Y-112420771D01*
X138911989Y-112423208D01*
X139055470Y-112428846D01*
X139061179Y-112428018D01*
X139061183Y-112428018D01*
X139259015Y-112399333D01*
X139259019Y-112399332D01*
X139264730Y-112398504D01*
X139369163Y-112363054D01*
X139459483Y-112332395D01*
X139459488Y-112332393D01*
X139464955Y-112330537D01*
X139469998Y-112327713D01*
X139644395Y-112230046D01*
X139644399Y-112230043D01*
X139649442Y-112227219D01*
X139812012Y-112092012D01*
X139947219Y-111929442D01*
X139950043Y-111924399D01*
X139950046Y-111924395D01*
X140047713Y-111749998D01*
X140047714Y-111749996D01*
X140050537Y-111744955D01*
X140052393Y-111739488D01*
X140052395Y-111739483D01*
X140116647Y-111550200D01*
X140118504Y-111544730D01*
X140119333Y-111539015D01*
X140140090Y-111395860D01*
X140169660Y-111331315D01*
X140229432Y-111293003D01*
X140300429Y-111293087D01*
X140360109Y-111331542D01*
X140389525Y-111396158D01*
X140390515Y-111405695D01*
X140393796Y-111455749D01*
X140395217Y-111461345D01*
X140395218Y-111461350D01*
X140416548Y-111545334D01*
X140445845Y-111660690D01*
X140534369Y-111852714D01*
X140656405Y-112025391D01*
X140807865Y-112172937D01*
X140812661Y-112176142D01*
X140812664Y-112176144D01*
X140912129Y-112242604D01*
X140983677Y-112290411D01*
X140988985Y-112292692D01*
X140988986Y-112292692D01*
X141172650Y-112371600D01*
X141172653Y-112371601D01*
X141177953Y-112373878D01*
X141183582Y-112375152D01*
X141183583Y-112375152D01*
X141378550Y-112419269D01*
X141378553Y-112419269D01*
X141384186Y-112420544D01*
X141389957Y-112420771D01*
X141389959Y-112420771D01*
X141451989Y-112423208D01*
X141595470Y-112428846D01*
X141601179Y-112428018D01*
X141601183Y-112428018D01*
X141799015Y-112399333D01*
X141799019Y-112399332D01*
X141804730Y-112398504D01*
X141909163Y-112363054D01*
X141999483Y-112332395D01*
X141999488Y-112332393D01*
X142004955Y-112330537D01*
X142009998Y-112327713D01*
X142184395Y-112230046D01*
X142184399Y-112230043D01*
X142189442Y-112227219D01*
X142352012Y-112092012D01*
X142359855Y-112082581D01*
X142483526Y-111933883D01*
X142483528Y-111933879D01*
X142487219Y-111929442D01*
X142488141Y-111927795D01*
X142542230Y-111883782D01*
X142612783Y-111875857D01*
X142676421Y-111907334D01*
X142712938Y-111968220D01*
X142717001Y-111999960D01*
X142717001Y-112169669D01*
X142717371Y-112176490D01*
X142722895Y-112227352D01*
X142726521Y-112242604D01*
X142771676Y-112363054D01*
X142780214Y-112378649D01*
X142856715Y-112480724D01*
X142869276Y-112493285D01*
X142971351Y-112569786D01*
X142986946Y-112578324D01*
X143107394Y-112623478D01*
X143122649Y-112627105D01*
X143173514Y-112632631D01*
X143180328Y-112633000D01*
X143802885Y-112633000D01*
X143818124Y-112628525D01*
X143819329Y-112627135D01*
X143821000Y-112619452D01*
X143821000Y-112614884D01*
X144329000Y-112614884D01*
X144333475Y-112630123D01*
X144334865Y-112631328D01*
X144342548Y-112632999D01*
X144969669Y-112632999D01*
X144976490Y-112632629D01*
X145027352Y-112627105D01*
X145042604Y-112623479D01*
X145163054Y-112578324D01*
X145178649Y-112569786D01*
X145280724Y-112493285D01*
X145293285Y-112480724D01*
X145369786Y-112378649D01*
X145378324Y-112363054D01*
X145423478Y-112242606D01*
X145427105Y-112227351D01*
X145432631Y-112176486D01*
X145433000Y-112169672D01*
X145433000Y-111547115D01*
X145428525Y-111531876D01*
X145427135Y-111530671D01*
X145419452Y-111529000D01*
X144347115Y-111529000D01*
X144331876Y-111533475D01*
X144330671Y-111534865D01*
X144329000Y-111542548D01*
X144329000Y-112614884D01*
X143821000Y-112614884D01*
X143821000Y-111002885D01*
X144329000Y-111002885D01*
X144333475Y-111018124D01*
X144334865Y-111019329D01*
X144342548Y-111021000D01*
X145414884Y-111021000D01*
X145430123Y-111016525D01*
X145431328Y-111015135D01*
X145432999Y-111007452D01*
X145432999Y-110380331D01*
X145432629Y-110373510D01*
X145427105Y-110322648D01*
X145423479Y-110307396D01*
X145378324Y-110186946D01*
X145369786Y-110171351D01*
X145293285Y-110069276D01*
X145280724Y-110056715D01*
X145178649Y-109980214D01*
X145163054Y-109971676D01*
X145042606Y-109926522D01*
X145027351Y-109922895D01*
X144976486Y-109917369D01*
X144969672Y-109917000D01*
X144347115Y-109917000D01*
X144331876Y-109921475D01*
X144330671Y-109922865D01*
X144329000Y-109930548D01*
X144329000Y-111002885D01*
X143821000Y-111002885D01*
X143821000Y-109935116D01*
X143816525Y-109919877D01*
X143815135Y-109918672D01*
X143807452Y-109917001D01*
X143180331Y-109917001D01*
X143173510Y-109917371D01*
X143122648Y-109922895D01*
X143107396Y-109926521D01*
X142986946Y-109971676D01*
X142971351Y-109980214D01*
X142869276Y-110056715D01*
X142856715Y-110069276D01*
X142780214Y-110171351D01*
X142771676Y-110186946D01*
X142726522Y-110307394D01*
X142722895Y-110322649D01*
X142717369Y-110373514D01*
X142717000Y-110380328D01*
X142717000Y-110555561D01*
X142696998Y-110623682D01*
X142643342Y-110670175D01*
X142573068Y-110680279D01*
X142508488Y-110650785D01*
X142490042Y-110630950D01*
X142397104Y-110506491D01*
X142397103Y-110506490D01*
X142393651Y-110501867D01*
X142272228Y-110389625D01*
X142242622Y-110362257D01*
X142242620Y-110362255D01*
X142238381Y-110358337D01*
X142059554Y-110245505D01*
X141863160Y-110167152D01*
X141857503Y-110166027D01*
X141857497Y-110166025D01*
X141661442Y-110127028D01*
X141661440Y-110127028D01*
X141655775Y-110125901D01*
X141650000Y-110125825D01*
X141649996Y-110125825D01*
X141543976Y-110124437D01*
X141444346Y-110123133D01*
X141438649Y-110124112D01*
X141438648Y-110124112D01*
X141241650Y-110157962D01*
X141241649Y-110157962D01*
X141235953Y-110158941D01*
X141131511Y-110197472D01*
X141060679Y-110202284D01*
X140998806Y-110168355D01*
X139775050Y-108944599D01*
X139755253Y-108934512D01*
X139738395Y-108924181D01*
X139728435Y-108916944D01*
X139728429Y-108916941D01*
X139720409Y-108911114D01*
X139710978Y-108908050D01*
X139710975Y-108908048D01*
X139699265Y-108904243D01*
X139681004Y-108896679D01*
X139670039Y-108891092D01*
X139670036Y-108891091D01*
X139661202Y-108886590D01*
X139651411Y-108885039D01*
X139651410Y-108885039D01*
X139645329Y-108884076D01*
X139639247Y-108883113D01*
X139620024Y-108878497D01*
X139608324Y-108874696D01*
X139608325Y-108874696D01*
X139598888Y-108871630D01*
X128644271Y-108871630D01*
X128576150Y-108851628D01*
X128555176Y-108834725D01*
X128150050Y-108429599D01*
X128130253Y-108419512D01*
X128113395Y-108409181D01*
X128103435Y-108401944D01*
X128103429Y-108401941D01*
X128095409Y-108396114D01*
X128074270Y-108389245D01*
X128056003Y-108381679D01*
X128049020Y-108378121D01*
X128029518Y-108365816D01*
X127951568Y-108306002D01*
X127945018Y-108300976D01*
X127920810Y-108290949D01*
X127824811Y-108251185D01*
X127824807Y-108251184D01*
X127817183Y-108248026D01*
X127809003Y-108246949D01*
X127808999Y-108246948D01*
X127688188Y-108231043D01*
X127680000Y-108229965D01*
X127542817Y-108248026D01*
X127414983Y-108300976D01*
X127414020Y-108298651D01*
X127357352Y-108312398D01*
X127300567Y-108295726D01*
X127294342Y-108290949D01*
X127286711Y-108287788D01*
X127286709Y-108287787D01*
X127174135Y-108241158D01*
X127174131Y-108241157D01*
X127166507Y-108237999D01*
X127158327Y-108236922D01*
X127158323Y-108236921D01*
X127037512Y-108221016D01*
X127029324Y-108219938D01*
X126892141Y-108237999D01*
X126764307Y-108290949D01*
X126654533Y-108375182D01*
X126570300Y-108484956D01*
X126517350Y-108612790D01*
X126499289Y-108749973D01*
X126517350Y-108887156D01*
X126570300Y-109014990D01*
X126612417Y-109069877D01*
X126649504Y-109118211D01*
X126649507Y-109118214D01*
X126654533Y-109124764D01*
X126764306Y-109208997D01*
X126771935Y-109212157D01*
X126884513Y-109258788D01*
X126884517Y-109258789D01*
X126892141Y-109261947D01*
X126900323Y-109263024D01*
X126900326Y-109263025D01*
X126906572Y-109263847D01*
X126971500Y-109292569D01*
X126979223Y-109299674D01*
X127203953Y-109524405D01*
X127237978Y-109586717D01*
X127232913Y-109657533D01*
X127190366Y-109714368D01*
X127123845Y-109739179D01*
X127114857Y-109739500D01*
X126036500Y-109739500D01*
X125968379Y-109719498D01*
X125921886Y-109665842D01*
X125910500Y-109613500D01*
X125910500Y-107154845D01*
X125907563Y-107128662D01*
X125919847Y-107058737D01*
X125967986Y-107006552D01*
X125984560Y-106998208D01*
X126047391Y-106972183D01*
X126055018Y-106969024D01*
X126062891Y-106962983D01*
X126158240Y-106889818D01*
X126158241Y-106889817D01*
X126164791Y-106884791D01*
X126169817Y-106878241D01*
X126169820Y-106878238D01*
X126241506Y-106784814D01*
X126249024Y-106775017D01*
X126301974Y-106647183D01*
X126314769Y-106550000D01*
X127849965Y-106550000D01*
X127868026Y-106687183D01*
X127920976Y-106815017D01*
X127961313Y-106867585D01*
X128000180Y-106918238D01*
X128000183Y-106918241D01*
X128005209Y-106924791D01*
X128011759Y-106929817D01*
X128011760Y-106929818D01*
X128108432Y-107003998D01*
X128114982Y-107009024D01*
X128122611Y-107012184D01*
X128235189Y-107058815D01*
X128235193Y-107058816D01*
X128242817Y-107061974D01*
X128250997Y-107063051D01*
X128251001Y-107063052D01*
X128371812Y-107078957D01*
X128380000Y-107080035D01*
X128388188Y-107078957D01*
X128508999Y-107063052D01*
X128509003Y-107063051D01*
X128517183Y-107061974D01*
X128524807Y-107058816D01*
X128524811Y-107058815D01*
X128637389Y-107012184D01*
X128645018Y-107009024D01*
X128651568Y-107003998D01*
X128748240Y-106929818D01*
X128748241Y-106929817D01*
X128754791Y-106924791D01*
X128759817Y-106918241D01*
X128759820Y-106918238D01*
X128798687Y-106867585D01*
X128839024Y-106815017D01*
X128891974Y-106687183D01*
X128898186Y-106640000D01*
X132809965Y-106640000D01*
X132828026Y-106777183D01*
X132880976Y-106905017D01*
X132900007Y-106929818D01*
X132960180Y-107008238D01*
X132960183Y-107008241D01*
X132965209Y-107014791D01*
X132971759Y-107019817D01*
X132971760Y-107019818D01*
X133049257Y-107079284D01*
X133074982Y-107099024D01*
X133082611Y-107102184D01*
X133195189Y-107148815D01*
X133195193Y-107148816D01*
X133202817Y-107151974D01*
X133210997Y-107153051D01*
X133211001Y-107153052D01*
X133331812Y-107168957D01*
X133340000Y-107170035D01*
X133348188Y-107168957D01*
X133468999Y-107153052D01*
X133469003Y-107153051D01*
X133477183Y-107151974D01*
X133484807Y-107148816D01*
X133484811Y-107148815D01*
X133597389Y-107102184D01*
X133605018Y-107099024D01*
X133630743Y-107079284D01*
X133708240Y-107019818D01*
X133708241Y-107019817D01*
X133714791Y-107014791D01*
X133719817Y-107008241D01*
X133719820Y-107008238D01*
X133779993Y-106929818D01*
X133799024Y-106905017D01*
X133851974Y-106777183D01*
X133870035Y-106640000D01*
X133851974Y-106502817D01*
X133799024Y-106374983D01*
X133737638Y-106294983D01*
X133719820Y-106271762D01*
X133719817Y-106271759D01*
X133714791Y-106265209D01*
X133704598Y-106257387D01*
X133611568Y-106186002D01*
X133605018Y-106180976D01*
X133578961Y-106170183D01*
X133484811Y-106131185D01*
X133484807Y-106131184D01*
X133477183Y-106128026D01*
X133469003Y-106126949D01*
X133468999Y-106126948D01*
X133348188Y-106111043D01*
X133340000Y-106109965D01*
X133202817Y-106128026D01*
X133074983Y-106180976D01*
X132965209Y-106265209D01*
X132880976Y-106374983D01*
X132828026Y-106502817D01*
X132809965Y-106640000D01*
X128898186Y-106640000D01*
X128910035Y-106550000D01*
X128891974Y-106412817D01*
X128839024Y-106284983D01*
X128795048Y-106227673D01*
X128759820Y-106181762D01*
X128759817Y-106181759D01*
X128754791Y-106175209D01*
X128745737Y-106168261D01*
X128651568Y-106096002D01*
X128645018Y-106090976D01*
X128637389Y-106087816D01*
X128524811Y-106041185D01*
X128524807Y-106041184D01*
X128517183Y-106038026D01*
X128509003Y-106036949D01*
X128508999Y-106036948D01*
X128388188Y-106021043D01*
X128380000Y-106019965D01*
X128242817Y-106038026D01*
X128114983Y-106090976D01*
X128005209Y-106175209D01*
X127920976Y-106284983D01*
X127868026Y-106412817D01*
X127849965Y-106550000D01*
X126314769Y-106550000D01*
X126320035Y-106510000D01*
X126301974Y-106372817D01*
X126249024Y-106244983D01*
X126200510Y-106181759D01*
X126169820Y-106141762D01*
X126169817Y-106141759D01*
X126164791Y-106135209D01*
X126055018Y-106050976D01*
X126031380Y-106041185D01*
X125934811Y-106001185D01*
X125934807Y-106001184D01*
X125927183Y-105998026D01*
X125919003Y-105996949D01*
X125918999Y-105996948D01*
X125798188Y-105981043D01*
X125790000Y-105979965D01*
X125652817Y-105998026D01*
X125524983Y-106050976D01*
X125415209Y-106135209D01*
X125330976Y-106244983D01*
X125327817Y-106252610D01*
X125327814Y-106252615D01*
X125298375Y-106323690D01*
X125253828Y-106378971D01*
X125186464Y-106401393D01*
X125167050Y-106400587D01*
X125115624Y-106394455D01*
X125108621Y-106395191D01*
X125108619Y-106395191D01*
X125017881Y-106404728D01*
X124948043Y-106391956D01*
X124915616Y-106368513D01*
X124888724Y-106341621D01*
X124867127Y-106309298D01*
X124866315Y-106309767D01*
X124862185Y-106302614D01*
X124859024Y-106294983D01*
X124801499Y-106220015D01*
X124779820Y-106191762D01*
X124779817Y-106191759D01*
X124774791Y-106185209D01*
X124765157Y-106177816D01*
X124671568Y-106106002D01*
X124665018Y-106100976D01*
X124653017Y-106096005D01*
X124544811Y-106051185D01*
X124544807Y-106051184D01*
X124537183Y-106048026D01*
X124529003Y-106046949D01*
X124528999Y-106046948D01*
X124408188Y-106031043D01*
X124400000Y-106029965D01*
X124262817Y-106048026D01*
X124134983Y-106100976D01*
X124025209Y-106185209D01*
X123940976Y-106294983D01*
X123937817Y-106302610D01*
X123937814Y-106302615D01*
X123918480Y-106349293D01*
X123873932Y-106404575D01*
X123806569Y-106426996D01*
X123737778Y-106409438D01*
X123689399Y-106357476D01*
X123685662Y-106349293D01*
X123662186Y-106292615D01*
X123662183Y-106292610D01*
X123659024Y-106284983D01*
X123615048Y-106227673D01*
X123579820Y-106181762D01*
X123579817Y-106181759D01*
X123574791Y-106175209D01*
X123565737Y-106168261D01*
X123471568Y-106096002D01*
X123465018Y-106090976D01*
X123457389Y-106087816D01*
X123344811Y-106041185D01*
X123344807Y-106041184D01*
X123337183Y-106038026D01*
X123329003Y-106036949D01*
X123328999Y-106036948D01*
X123208188Y-106021043D01*
X123200000Y-106019965D01*
X123191812Y-106021043D01*
X123191811Y-106021043D01*
X123111288Y-106031644D01*
X123041140Y-106020705D01*
X122988041Y-105973577D01*
X122969920Y-105923169D01*
X122964139Y-105879263D01*
X122961974Y-105862817D01*
X122909024Y-105734983D01*
X122860194Y-105671347D01*
X122829820Y-105631762D01*
X122829817Y-105631759D01*
X122824791Y-105625209D01*
X122750299Y-105568048D01*
X122721568Y-105546002D01*
X122715018Y-105540976D01*
X122707389Y-105537816D01*
X122594811Y-105491185D01*
X122594807Y-105491184D01*
X122587183Y-105488026D01*
X122579003Y-105486949D01*
X122578999Y-105486948D01*
X122565817Y-105485213D01*
X122500890Y-105456490D01*
X122461799Y-105397225D01*
X122460954Y-105326233D01*
X122498625Y-105266055D01*
X122511867Y-105256506D01*
X122512975Y-105256047D01*
X122519523Y-105251023D01*
X122519531Y-105251018D01*
X122561262Y-105218996D01*
X122621520Y-105194036D01*
X122637183Y-105191974D01*
X122765018Y-105139024D01*
X122791585Y-105118638D01*
X122868240Y-105059818D01*
X122868241Y-105059817D01*
X122874791Y-105054791D01*
X122879817Y-105048241D01*
X122879820Y-105048238D01*
X122938391Y-104971906D01*
X122959024Y-104945017D01*
X123011974Y-104817183D01*
X123030035Y-104680000D01*
X123011974Y-104542817D01*
X122959024Y-104414983D01*
X122959617Y-104414737D01*
X122944315Y-104351653D01*
X122953763Y-104309435D01*
X122988812Y-104224817D01*
X122991974Y-104217183D01*
X123010035Y-104080000D01*
X122991974Y-103942817D01*
X122939024Y-103814983D01*
X122874405Y-103730770D01*
X122848804Y-103664550D01*
X122863069Y-103595001D01*
X122897665Y-103554102D01*
X122911735Y-103543306D01*
X122911736Y-103543305D01*
X122918282Y-103538282D01*
X123014536Y-103412841D01*
X123075044Y-103266762D01*
X123095682Y-103110000D01*
X123075044Y-102953238D01*
X123014536Y-102807159D01*
X122942450Y-102713215D01*
X122779230Y-102549995D01*
X122745204Y-102487683D01*
X122750269Y-102416868D01*
X122791620Y-102360938D01*
X122858240Y-102309818D01*
X122858241Y-102309817D01*
X122864791Y-102304791D01*
X122869817Y-102298241D01*
X122869820Y-102298238D01*
X122912183Y-102243029D01*
X122949024Y-102195017D01*
X123001974Y-102067183D01*
X123020035Y-101930000D01*
X123001974Y-101792817D01*
X122949024Y-101664983D01*
X122896530Y-101596572D01*
X122869820Y-101561762D01*
X122869817Y-101561759D01*
X122864791Y-101555209D01*
X122857001Y-101549231D01*
X122761568Y-101476002D01*
X122755018Y-101470976D01*
X122749402Y-101468650D01*
X122701104Y-101418001D01*
X122687665Y-101348287D01*
X122714050Y-101282375D01*
X122736390Y-101260298D01*
X122828240Y-101189818D01*
X122828241Y-101189817D01*
X122834791Y-101184791D01*
X122839817Y-101178241D01*
X122839820Y-101178238D01*
X122892897Y-101109066D01*
X122919024Y-101075017D01*
X122971974Y-100947183D01*
X122990035Y-100810000D01*
X122971974Y-100672817D01*
X122968813Y-100665186D01*
X122967286Y-100659487D01*
X122968974Y-100588511D01*
X122989030Y-100550170D01*
X122993010Y-100544983D01*
X123039024Y-100485017D01*
X123091974Y-100357183D01*
X123110035Y-100220000D01*
X123098043Y-100128917D01*
X133107733Y-100128917D01*
X133125794Y-100266100D01*
X133178744Y-100393934D01*
X133183771Y-100400486D01*
X133187901Y-100407639D01*
X133185286Y-100409149D01*
X133205677Y-100461884D01*
X133196523Y-100520593D01*
X133166125Y-100593981D01*
X133148064Y-100731164D01*
X133166125Y-100868347D01*
X133219075Y-100996181D01*
X133224101Y-101002731D01*
X133254883Y-101042846D01*
X133280484Y-101109066D01*
X133271330Y-101167768D01*
X133266994Y-101178238D01*
X133263026Y-101187817D01*
X133244965Y-101325000D01*
X133263026Y-101462183D01*
X133315976Y-101590017D01*
X133321003Y-101596568D01*
X133321005Y-101596572D01*
X133325348Y-101602232D01*
X133350948Y-101668452D01*
X133341794Y-101727153D01*
X133305738Y-101814201D01*
X133287677Y-101951384D01*
X133305738Y-102088567D01*
X133358688Y-102216401D01*
X133430370Y-102309818D01*
X133442921Y-102326175D01*
X133441815Y-102327024D01*
X133471655Y-102381671D01*
X133473456Y-102424901D01*
X133463514Y-102500416D01*
X133464592Y-102508604D01*
X133464592Y-102508605D01*
X133474185Y-102581473D01*
X133463246Y-102651622D01*
X133446585Y-102675315D01*
X133447687Y-102676161D01*
X133363454Y-102785935D01*
X133310504Y-102913769D01*
X133292443Y-103050952D01*
X133310504Y-103188135D01*
X133363454Y-103315969D01*
X133405570Y-103370856D01*
X133442658Y-103419190D01*
X133442661Y-103419193D01*
X133447687Y-103425743D01*
X133557460Y-103509976D01*
X133565089Y-103513136D01*
X133677667Y-103559767D01*
X133677671Y-103559768D01*
X133685295Y-103562926D01*
X133693475Y-103564003D01*
X133693479Y-103564004D01*
X133814290Y-103579909D01*
X133822478Y-103580987D01*
X133830666Y-103579909D01*
X133951477Y-103564004D01*
X133951481Y-103564003D01*
X133959661Y-103562926D01*
X133967285Y-103559768D01*
X133967289Y-103559767D01*
X134079867Y-103513136D01*
X134087496Y-103509976D01*
X134197269Y-103425743D01*
X134202295Y-103419193D01*
X134202298Y-103419190D01*
X134239385Y-103370856D01*
X134281502Y-103315969D01*
X134334452Y-103188135D01*
X134352513Y-103050952D01*
X134351435Y-103042763D01*
X134341842Y-102969895D01*
X134352781Y-102899746D01*
X134369442Y-102876053D01*
X134368340Y-102875207D01*
X134452573Y-102765433D01*
X134505523Y-102637599D01*
X134523584Y-102500416D01*
X134505523Y-102363233D01*
X134452573Y-102235399D01*
X134368340Y-102125625D01*
X134369446Y-102124776D01*
X134339606Y-102070129D01*
X134337805Y-102026899D01*
X134346669Y-101959572D01*
X134347747Y-101951384D01*
X134329686Y-101814201D01*
X134276736Y-101686367D01*
X134271709Y-101679816D01*
X134271707Y-101679812D01*
X134267364Y-101674152D01*
X134241764Y-101607932D01*
X134250918Y-101549231D01*
X134283813Y-101469814D01*
X134286974Y-101462183D01*
X134305035Y-101325000D01*
X134286974Y-101187817D01*
X134234024Y-101059983D01*
X134198216Y-101013318D01*
X134172615Y-100947098D01*
X134181769Y-100888396D01*
X134186911Y-100875981D01*
X134186912Y-100875978D01*
X134190073Y-100868347D01*
X134208134Y-100731164D01*
X134190073Y-100593981D01*
X134137123Y-100466147D01*
X134132096Y-100459595D01*
X134127966Y-100452442D01*
X134130581Y-100450932D01*
X134110190Y-100398197D01*
X134119344Y-100339488D01*
X134146581Y-100273731D01*
X134149742Y-100266100D01*
X134167803Y-100128917D01*
X134149742Y-99991734D01*
X134096792Y-99863900D01*
X134030408Y-99777387D01*
X134017588Y-99760679D01*
X134017585Y-99760676D01*
X134012559Y-99754126D01*
X134005654Y-99748827D01*
X133909336Y-99674919D01*
X133902786Y-99669893D01*
X133872101Y-99657183D01*
X133782579Y-99620102D01*
X133782575Y-99620101D01*
X133774951Y-99616943D01*
X133766771Y-99615866D01*
X133766767Y-99615865D01*
X133645956Y-99599960D01*
X133637768Y-99598882D01*
X133500585Y-99616943D01*
X133372751Y-99669893D01*
X133262977Y-99754126D01*
X133178744Y-99863900D01*
X133125794Y-99991734D01*
X133107733Y-100128917D01*
X123098043Y-100128917D01*
X123091974Y-100082817D01*
X123039024Y-99954983D01*
X122992837Y-99894791D01*
X122959820Y-99851762D01*
X122959817Y-99851759D01*
X122954791Y-99845209D01*
X122876349Y-99785017D01*
X122851568Y-99766002D01*
X122845018Y-99760976D01*
X122823005Y-99751858D01*
X122724811Y-99711185D01*
X122724807Y-99711184D01*
X122717183Y-99708026D01*
X122709001Y-99706949D01*
X122708998Y-99706948D01*
X122638265Y-99697636D01*
X122573337Y-99668913D01*
X122534246Y-99609648D01*
X122533401Y-99538657D01*
X122544321Y-99520000D01*
X138239965Y-99520000D01*
X138258026Y-99657183D01*
X138310976Y-99785017D01*
X138353092Y-99839904D01*
X138390180Y-99888238D01*
X138390183Y-99888241D01*
X138395209Y-99894791D01*
X138401759Y-99899817D01*
X138401760Y-99899818D01*
X138483595Y-99962613D01*
X138504982Y-99979024D01*
X138512611Y-99982184D01*
X138625189Y-100028815D01*
X138625193Y-100028816D01*
X138632817Y-100031974D01*
X138640997Y-100033051D01*
X138641001Y-100033052D01*
X138761812Y-100048957D01*
X138770000Y-100050035D01*
X138778188Y-100048957D01*
X138898999Y-100033052D01*
X138899003Y-100033051D01*
X138907183Y-100031974D01*
X138914807Y-100028816D01*
X138914811Y-100028815D01*
X139027389Y-99982184D01*
X139035018Y-99979024D01*
X139056405Y-99962613D01*
X139138240Y-99899818D01*
X139138241Y-99899817D01*
X139144791Y-99894791D01*
X139149817Y-99888241D01*
X139149820Y-99888238D01*
X139186907Y-99839904D01*
X139229024Y-99785017D01*
X139281974Y-99657183D01*
X139300035Y-99520000D01*
X139281974Y-99382817D01*
X139229024Y-99254983D01*
X139185649Y-99198456D01*
X139149820Y-99151762D01*
X139149817Y-99151759D01*
X139144791Y-99145209D01*
X139088205Y-99101788D01*
X139041568Y-99066002D01*
X139035018Y-99060976D01*
X139027389Y-99057816D01*
X138914811Y-99011185D01*
X138914807Y-99011184D01*
X138907183Y-99008026D01*
X138899003Y-99006949D01*
X138898999Y-99006948D01*
X138778188Y-98991043D01*
X138770000Y-98989965D01*
X138632817Y-99008026D01*
X138504983Y-99060976D01*
X138395209Y-99145209D01*
X138310976Y-99254983D01*
X138258026Y-99382817D01*
X138239965Y-99520000D01*
X122544321Y-99520000D01*
X122565616Y-99483619D01*
X123252376Y-98796859D01*
X123314688Y-98762833D01*
X123385503Y-98767898D01*
X123442339Y-98810445D01*
X123466393Y-98869507D01*
X123479281Y-98967401D01*
X123532231Y-99095235D01*
X123562758Y-99135018D01*
X123611435Y-99198456D01*
X123611438Y-99198459D01*
X123616464Y-99205009D01*
X123623014Y-99210035D01*
X123623015Y-99210036D01*
X123681590Y-99254983D01*
X123726237Y-99289242D01*
X123733866Y-99292402D01*
X123846444Y-99339033D01*
X123846448Y-99339034D01*
X123854072Y-99342192D01*
X123862252Y-99343269D01*
X123862256Y-99343270D01*
X123983067Y-99359175D01*
X123991255Y-99360253D01*
X123999443Y-99359175D01*
X124120254Y-99343270D01*
X124120258Y-99343269D01*
X124128438Y-99342192D01*
X124136062Y-99339034D01*
X124136066Y-99339033D01*
X124248644Y-99292402D01*
X124256273Y-99289242D01*
X124300920Y-99254983D01*
X124359495Y-99210036D01*
X124359496Y-99210035D01*
X124366046Y-99205009D01*
X124371072Y-99198459D01*
X124371075Y-99198456D01*
X124419752Y-99135018D01*
X124450279Y-99095235D01*
X124503229Y-98967401D01*
X124521290Y-98830218D01*
X124515593Y-98786947D01*
X124526532Y-98716798D01*
X124573660Y-98663699D01*
X124640515Y-98644500D01*
X126074161Y-98644500D01*
X126154913Y-98633869D01*
X126183374Y-98630122D01*
X126191562Y-98629044D01*
X126337641Y-98568536D01*
X126463082Y-98472282D01*
X126559336Y-98346841D01*
X126619844Y-98200762D01*
X126640482Y-98044000D01*
X126619844Y-97887238D01*
X126559336Y-97741159D01*
X126463082Y-97615718D01*
X126337641Y-97519464D01*
X126191562Y-97458956D01*
X126074161Y-97443500D01*
X125466653Y-97443500D01*
X125398532Y-97423498D01*
X125352581Y-97370467D01*
X126787788Y-97370467D01*
X126805849Y-97507650D01*
X126858799Y-97635484D01*
X126892815Y-97679814D01*
X126938003Y-97738705D01*
X126938006Y-97738708D01*
X126943032Y-97745258D01*
X126949582Y-97750284D01*
X126949583Y-97750285D01*
X127032354Y-97813798D01*
X127052805Y-97829491D01*
X127060434Y-97832651D01*
X127173012Y-97879282D01*
X127173016Y-97879283D01*
X127180640Y-97882441D01*
X127188820Y-97883518D01*
X127188824Y-97883519D01*
X127309635Y-97899424D01*
X127317823Y-97900502D01*
X127326011Y-97899424D01*
X127446822Y-97883519D01*
X127446826Y-97883518D01*
X127455006Y-97882441D01*
X127462630Y-97879283D01*
X127462634Y-97879282D01*
X127575212Y-97832651D01*
X127582841Y-97829491D01*
X127614150Y-97805466D01*
X127620226Y-97800804D01*
X127686446Y-97775203D01*
X127732925Y-97782450D01*
X127733405Y-97780659D01*
X127741381Y-97782796D01*
X127749012Y-97785957D01*
X127886195Y-97804018D01*
X127894383Y-97802940D01*
X128015194Y-97787035D01*
X128015198Y-97787034D01*
X128023378Y-97785957D01*
X128093650Y-97756850D01*
X128164238Y-97749261D01*
X128196858Y-97761208D01*
X128197007Y-97760848D01*
X128317214Y-97810639D01*
X128317218Y-97810640D01*
X128324842Y-97813798D01*
X128333022Y-97814875D01*
X128333026Y-97814876D01*
X128453837Y-97830781D01*
X128462025Y-97831859D01*
X128470213Y-97830781D01*
X128591024Y-97814876D01*
X128591028Y-97814875D01*
X128599208Y-97813798D01*
X128606832Y-97810640D01*
X128606836Y-97810639D01*
X128719412Y-97764009D01*
X128719413Y-97764008D01*
X128727043Y-97760848D01*
X128768454Y-97729072D01*
X128834671Y-97703472D01*
X128877770Y-97707329D01*
X128884715Y-97709190D01*
X128892349Y-97712352D01*
X129029532Y-97730413D01*
X129037720Y-97729335D01*
X129158531Y-97713430D01*
X129158535Y-97713429D01*
X129166715Y-97712352D01*
X129174339Y-97709194D01*
X129174343Y-97709193D01*
X129286919Y-97662563D01*
X129286920Y-97662562D01*
X129294550Y-97659402D01*
X129301100Y-97654376D01*
X129306303Y-97651372D01*
X129375298Y-97634636D01*
X129417517Y-97644084D01*
X129459229Y-97661361D01*
X129459232Y-97661362D01*
X129466864Y-97664523D01*
X129604047Y-97682584D01*
X129612235Y-97681506D01*
X129733046Y-97665601D01*
X129733050Y-97665600D01*
X129741230Y-97664523D01*
X129748854Y-97661365D01*
X129748858Y-97661364D01*
X129858136Y-97616100D01*
X129928726Y-97608511D01*
X129970143Y-97626833D01*
X129971278Y-97624867D01*
X129978429Y-97628996D01*
X129984982Y-97634024D01*
X129992612Y-97637184D01*
X129992613Y-97637185D01*
X130105189Y-97683815D01*
X130105193Y-97683816D01*
X130112817Y-97686974D01*
X130120997Y-97688051D01*
X130121001Y-97688052D01*
X130241812Y-97703957D01*
X130250000Y-97705035D01*
X130258188Y-97703957D01*
X130378999Y-97688052D01*
X130379003Y-97688051D01*
X130387183Y-97686974D01*
X130474394Y-97650851D01*
X130544981Y-97643262D01*
X130582208Y-97656896D01*
X130584982Y-97659024D01*
X130592612Y-97662184D01*
X130592613Y-97662185D01*
X130705189Y-97708815D01*
X130705193Y-97708816D01*
X130712817Y-97711974D01*
X130720997Y-97713051D01*
X130721001Y-97713052D01*
X130841812Y-97728957D01*
X130850000Y-97730035D01*
X130858188Y-97728957D01*
X130858189Y-97728957D01*
X130955947Y-97716087D01*
X131026096Y-97727026D01*
X131079194Y-97774154D01*
X131097315Y-97824562D01*
X131104563Y-97879609D01*
X131110826Y-97927183D01*
X131163776Y-98055017D01*
X131196941Y-98098238D01*
X131242980Y-98158238D01*
X131242983Y-98158241D01*
X131248009Y-98164791D01*
X131254559Y-98169817D01*
X131254560Y-98169818D01*
X131348594Y-98241974D01*
X131357782Y-98249024D01*
X131365411Y-98252184D01*
X131477989Y-98298815D01*
X131477993Y-98298816D01*
X131485617Y-98301974D01*
X131493797Y-98303051D01*
X131493801Y-98303052D01*
X131614612Y-98318957D01*
X131622800Y-98320035D01*
X131630988Y-98318957D01*
X131630989Y-98318957D01*
X131758719Y-98302141D01*
X131828867Y-98313080D01*
X131881966Y-98360208D01*
X131891574Y-98378844D01*
X131925776Y-98461417D01*
X131962002Y-98508627D01*
X132004980Y-98564638D01*
X132004983Y-98564641D01*
X132010009Y-98571191D01*
X132016559Y-98576217D01*
X132016560Y-98576218D01*
X132081285Y-98625884D01*
X132119782Y-98655424D01*
X132127411Y-98658584D01*
X132239989Y-98705215D01*
X132239993Y-98705216D01*
X132247617Y-98708374D01*
X132255797Y-98709451D01*
X132255801Y-98709452D01*
X132376612Y-98725357D01*
X132384800Y-98726435D01*
X132392988Y-98725357D01*
X132392989Y-98725357D01*
X132434234Y-98719927D01*
X132504382Y-98730866D01*
X132557481Y-98777994D01*
X132575602Y-98828401D01*
X132577556Y-98843238D01*
X132584026Y-98892383D01*
X132636976Y-99020217D01*
X132665827Y-99057816D01*
X132716180Y-99123438D01*
X132716183Y-99123441D01*
X132721209Y-99129991D01*
X132830982Y-99214224D01*
X132838611Y-99217384D01*
X132951189Y-99264015D01*
X132951193Y-99264016D01*
X132958817Y-99267174D01*
X132966997Y-99268251D01*
X132967001Y-99268252D01*
X133087812Y-99284157D01*
X133096000Y-99285235D01*
X133104188Y-99284157D01*
X133224999Y-99268252D01*
X133225003Y-99268251D01*
X133233183Y-99267174D01*
X133240807Y-99264016D01*
X133240811Y-99264015D01*
X133353389Y-99217384D01*
X133361018Y-99214224D01*
X133470791Y-99129991D01*
X133475817Y-99123441D01*
X133475820Y-99123438D01*
X133526173Y-99057816D01*
X133555024Y-99020217D01*
X133607974Y-98892383D01*
X133626035Y-98755200D01*
X133607974Y-98618017D01*
X133555024Y-98490183D01*
X133496473Y-98413878D01*
X133475820Y-98386962D01*
X133475817Y-98386959D01*
X133470791Y-98380409D01*
X133417102Y-98339211D01*
X133367568Y-98301202D01*
X133361018Y-98296176D01*
X133353389Y-98293016D01*
X133240811Y-98246385D01*
X133240807Y-98246384D01*
X133233183Y-98243226D01*
X133225003Y-98242149D01*
X133224999Y-98242148D01*
X133104188Y-98226243D01*
X133096000Y-98225165D01*
X133087812Y-98226243D01*
X133087811Y-98226243D01*
X133046566Y-98231673D01*
X132976418Y-98220734D01*
X132923319Y-98173606D01*
X132905198Y-98123199D01*
X132897852Y-98067406D01*
X132896774Y-98059217D01*
X132843824Y-97931383D01*
X132768064Y-97832651D01*
X132764620Y-97828162D01*
X132764617Y-97828159D01*
X132759591Y-97821609D01*
X132748440Y-97813052D01*
X132656368Y-97742402D01*
X132649818Y-97737376D01*
X132632095Y-97730035D01*
X132529611Y-97687585D01*
X132529607Y-97687584D01*
X132521983Y-97684426D01*
X132513803Y-97683349D01*
X132513799Y-97683348D01*
X132392988Y-97667443D01*
X132384800Y-97666365D01*
X132376612Y-97667443D01*
X132376611Y-97667443D01*
X132248881Y-97684259D01*
X132178733Y-97673320D01*
X132125634Y-97626192D01*
X132116026Y-97607555D01*
X132109921Y-97592817D01*
X132081824Y-97524983D01*
X132033584Y-97462116D01*
X132002620Y-97421762D01*
X132002617Y-97421759D01*
X131997591Y-97415209D01*
X131961068Y-97387183D01*
X131894368Y-97336002D01*
X131887818Y-97330976D01*
X131815579Y-97301054D01*
X131767611Y-97281185D01*
X131767607Y-97281184D01*
X131759983Y-97278026D01*
X131751803Y-97276949D01*
X131751799Y-97276948D01*
X131630988Y-97261043D01*
X131622800Y-97259965D01*
X131614612Y-97261043D01*
X131614611Y-97261043D01*
X131516853Y-97273913D01*
X131446704Y-97262974D01*
X131393606Y-97215846D01*
X131375485Y-97165438D01*
X131363052Y-97071006D01*
X131361974Y-97062817D01*
X131309024Y-96934983D01*
X131253022Y-96862000D01*
X131229820Y-96831762D01*
X131229817Y-96831759D01*
X131224791Y-96825209D01*
X131215157Y-96817816D01*
X131121568Y-96746002D01*
X131115018Y-96740976D01*
X131066895Y-96721043D01*
X130994811Y-96691185D01*
X130994807Y-96691184D01*
X130987183Y-96688026D01*
X130979003Y-96686949D01*
X130978999Y-96686948D01*
X130858188Y-96671043D01*
X130850000Y-96669965D01*
X130712817Y-96688026D01*
X130705183Y-96691188D01*
X130625608Y-96724148D01*
X130555018Y-96731737D01*
X130517791Y-96718104D01*
X130515018Y-96715976D01*
X130466599Y-96695921D01*
X130394811Y-96666185D01*
X130394807Y-96666184D01*
X130387183Y-96663026D01*
X130379003Y-96661949D01*
X130378999Y-96661948D01*
X130258188Y-96646043D01*
X130250000Y-96644965D01*
X130112817Y-96663026D01*
X130046817Y-96690364D01*
X129995912Y-96711449D01*
X129925322Y-96719038D01*
X129883904Y-96700716D01*
X129882769Y-96702682D01*
X129875618Y-96698553D01*
X129869065Y-96693525D01*
X129856702Y-96688404D01*
X129748858Y-96643734D01*
X129748854Y-96643733D01*
X129741230Y-96640575D01*
X129733050Y-96639498D01*
X129733046Y-96639497D01*
X129612235Y-96623592D01*
X129604047Y-96622514D01*
X129466864Y-96640575D01*
X129339030Y-96693525D01*
X129332476Y-96698554D01*
X129327280Y-96701554D01*
X129258284Y-96718292D01*
X129216064Y-96708845D01*
X129166715Y-96688404D01*
X129158535Y-96687327D01*
X129158531Y-96687326D01*
X129037720Y-96671421D01*
X129029532Y-96670343D01*
X128892349Y-96688404D01*
X128764515Y-96741354D01*
X128723104Y-96773130D01*
X128656887Y-96798730D01*
X128613789Y-96794873D01*
X128606837Y-96793010D01*
X128599208Y-96789850D01*
X128591024Y-96788773D01*
X128591022Y-96788772D01*
X128470213Y-96772867D01*
X128462025Y-96771789D01*
X128324842Y-96789850D01*
X128317208Y-96793012D01*
X128254571Y-96818956D01*
X128183981Y-96826545D01*
X128151362Y-96814600D01*
X128151213Y-96814959D01*
X128031006Y-96765168D01*
X128031002Y-96765167D01*
X128023378Y-96762009D01*
X128015198Y-96760932D01*
X128015194Y-96760931D01*
X127894383Y-96745026D01*
X127886195Y-96743948D01*
X127749012Y-96762009D01*
X127621178Y-96814959D01*
X127614627Y-96819986D01*
X127614625Y-96819987D01*
X127583790Y-96843647D01*
X127517570Y-96869247D01*
X127471093Y-96862000D01*
X127470613Y-96863791D01*
X127462637Y-96861654D01*
X127455006Y-96858493D01*
X127317823Y-96840432D01*
X127180640Y-96858493D01*
X127052806Y-96911443D01*
X126943032Y-96995676D01*
X126858799Y-97105450D01*
X126805849Y-97233284D01*
X126787788Y-97370467D01*
X125352581Y-97370467D01*
X125352039Y-97369842D01*
X125341731Y-97301054D01*
X125353957Y-97208189D01*
X125353957Y-97208188D01*
X125355035Y-97200000D01*
X125336974Y-97062817D01*
X125284024Y-96934983D01*
X125228022Y-96862000D01*
X125204820Y-96831762D01*
X125204817Y-96831759D01*
X125199791Y-96825209D01*
X125190157Y-96817816D01*
X125096568Y-96746002D01*
X125090018Y-96740976D01*
X125041895Y-96721043D01*
X124969811Y-96691185D01*
X124969807Y-96691184D01*
X124962183Y-96688026D01*
X124954003Y-96686949D01*
X124953999Y-96686948D01*
X124833188Y-96671043D01*
X124825000Y-96669965D01*
X124687817Y-96688026D01*
X124559983Y-96740976D01*
X124464202Y-96814471D01*
X124397985Y-96840071D01*
X124328437Y-96825807D01*
X124310796Y-96814470D01*
X124221568Y-96746002D01*
X124215018Y-96740976D01*
X124166895Y-96721043D01*
X124094811Y-96691185D01*
X124094807Y-96691184D01*
X124087183Y-96688026D01*
X124079003Y-96686949D01*
X124078999Y-96686948D01*
X123958188Y-96671043D01*
X123950000Y-96669965D01*
X123812817Y-96688026D01*
X123684983Y-96740976D01*
X123670188Y-96752329D01*
X123603970Y-96777929D01*
X123534421Y-96763665D01*
X123528780Y-96760039D01*
X123528725Y-96760134D01*
X123521568Y-96756002D01*
X123515018Y-96750976D01*
X123503922Y-96746380D01*
X123394811Y-96701185D01*
X123394807Y-96701184D01*
X123387183Y-96698026D01*
X123379003Y-96696949D01*
X123378999Y-96696948D01*
X123258188Y-96681043D01*
X123250000Y-96679965D01*
X123112817Y-96698026D01*
X122984983Y-96750976D01*
X122934382Y-96789804D01*
X122868164Y-96815403D01*
X122809463Y-96806249D01*
X122724811Y-96771185D01*
X122724807Y-96771184D01*
X122717183Y-96768026D01*
X122709003Y-96766949D01*
X122708999Y-96766948D01*
X122588188Y-96751043D01*
X122580000Y-96749965D01*
X122442817Y-96768026D01*
X122314983Y-96820976D01*
X122266170Y-96858431D01*
X122199954Y-96884031D01*
X122130405Y-96869767D01*
X122112764Y-96858430D01*
X122096568Y-96846002D01*
X122090018Y-96840976D01*
X122053867Y-96826002D01*
X121969811Y-96791185D01*
X121969807Y-96791184D01*
X121962183Y-96788026D01*
X121954003Y-96786949D01*
X121953999Y-96786948D01*
X121833188Y-96771043D01*
X121825000Y-96769965D01*
X121687817Y-96788026D01*
X121559983Y-96840976D01*
X121494337Y-96891349D01*
X121428117Y-96916948D01*
X121358569Y-96902683D01*
X121329224Y-96880987D01*
X121324791Y-96875209D01*
X121303007Y-96858493D01*
X121221568Y-96796002D01*
X121215018Y-96790976D01*
X121171931Y-96773129D01*
X121094811Y-96741185D01*
X121094807Y-96741184D01*
X121087183Y-96738026D01*
X121079003Y-96736949D01*
X121078999Y-96736948D01*
X120958188Y-96721043D01*
X120950000Y-96719965D01*
X120812817Y-96738026D01*
X120684983Y-96790976D01*
X120575209Y-96875209D01*
X120490976Y-96984983D01*
X120438026Y-97112817D01*
X120419965Y-97250000D01*
X120438026Y-97387183D01*
X120490976Y-97515017D01*
X120504478Y-97532613D01*
X120570180Y-97618238D01*
X120570183Y-97618241D01*
X120575209Y-97624791D01*
X120581759Y-97629817D01*
X120581760Y-97629818D01*
X120657651Y-97688052D01*
X120684982Y-97709024D01*
X120692611Y-97712184D01*
X120805189Y-97758815D01*
X120805193Y-97758816D01*
X120812817Y-97761974D01*
X120820997Y-97763051D01*
X120821001Y-97763052D01*
X120941812Y-97778957D01*
X120950000Y-97780035D01*
X120958188Y-97778957D01*
X121078999Y-97763052D01*
X121079003Y-97763051D01*
X121087183Y-97761974D01*
X121094807Y-97758816D01*
X121094811Y-97758815D01*
X121207389Y-97712184D01*
X121215018Y-97709024D01*
X121280663Y-97658652D01*
X121346881Y-97633052D01*
X121416430Y-97647316D01*
X121445776Y-97669013D01*
X121450209Y-97674791D01*
X121559982Y-97759024D01*
X121567611Y-97762184D01*
X121680189Y-97808815D01*
X121680193Y-97808816D01*
X121687817Y-97811974D01*
X121695997Y-97813051D01*
X121696001Y-97813052D01*
X121816812Y-97828957D01*
X121825000Y-97830035D01*
X121833188Y-97828957D01*
X121953999Y-97813052D01*
X121954003Y-97813051D01*
X121962183Y-97811974D01*
X121969807Y-97808816D01*
X121969811Y-97808815D01*
X122082389Y-97762184D01*
X122090018Y-97759024D01*
X122138827Y-97721571D01*
X122205047Y-97695970D01*
X122274596Y-97710234D01*
X122292236Y-97721571D01*
X122308428Y-97733996D01*
X122308434Y-97733999D01*
X122314982Y-97739024D01*
X122350606Y-97753780D01*
X122405886Y-97798327D01*
X122428307Y-97865690D01*
X122410749Y-97934482D01*
X122391482Y-97959283D01*
X121869032Y-98481733D01*
X121806720Y-98515759D01*
X121779577Y-98518637D01*
X120842594Y-98515952D01*
X118636673Y-98509631D01*
X118621149Y-98508627D01*
X118595483Y-98505365D01*
X118595480Y-98505365D01*
X118587289Y-98504324D01*
X118579103Y-98505439D01*
X118511653Y-98514626D01*
X118510736Y-98514748D01*
X118464565Y-98520692D01*
X118434915Y-98524509D01*
X118432839Y-98525362D01*
X118430621Y-98525664D01*
X118360263Y-98555177D01*
X118359456Y-98555512D01*
X118288663Y-98584598D01*
X118286879Y-98585959D01*
X118284814Y-98586825D01*
X118256332Y-98608884D01*
X118190229Y-98634781D01*
X118120616Y-98620829D01*
X118079219Y-98585970D01*
X118073309Y-98578268D01*
X118073305Y-98578264D01*
X118068282Y-98571718D01*
X117942841Y-98475464D01*
X117796762Y-98414956D01*
X117640000Y-98394318D01*
X117483238Y-98414956D01*
X117337159Y-98475464D01*
X117211718Y-98571718D01*
X117206695Y-98578264D01*
X117200782Y-98585970D01*
X117115464Y-98697159D01*
X117054956Y-98843238D01*
X117053878Y-98851426D01*
X117051498Y-98869508D01*
X117039500Y-98960639D01*
X117039500Y-99732381D01*
X117038422Y-99748827D01*
X117034318Y-99780000D01*
X117039500Y-99819361D01*
X117054956Y-99936762D01*
X117115464Y-100082841D01*
X117211718Y-100208282D01*
X117218264Y-100213305D01*
X117236671Y-100227429D01*
X117249062Y-100238297D01*
X117725170Y-100714405D01*
X117759196Y-100776717D01*
X117754131Y-100847532D01*
X117711584Y-100904368D01*
X117645064Y-100929179D01*
X117636075Y-100929500D01*
X107517619Y-100929500D01*
X107501173Y-100928422D01*
X107478188Y-100925396D01*
X107470000Y-100924318D01*
X107430639Y-100929500D01*
X107313238Y-100944956D01*
X107167159Y-101005464D01*
X107041718Y-101101718D01*
X107036695Y-101108264D01*
X107022571Y-101126671D01*
X107011703Y-101139062D01*
X104678906Y-103471859D01*
X104616594Y-103505885D01*
X104576642Y-103508074D01*
X104552798Y-103505568D01*
X104552795Y-103505568D01*
X104546668Y-103504924D01*
X104468549Y-103512033D01*
X104367171Y-103521259D01*
X104367168Y-103521260D01*
X104361032Y-103521818D01*
X104355122Y-103523557D01*
X104355119Y-103523558D01*
X104217699Y-103564004D01*
X104182214Y-103574448D01*
X104017023Y-103660807D01*
X103871752Y-103777608D01*
X103751935Y-103920401D01*
X103748971Y-103925793D01*
X103748968Y-103925797D01*
X103674256Y-104061699D01*
X103662135Y-104083746D01*
X103605772Y-104261424D01*
X103584994Y-104446665D01*
X100729280Y-104446665D01*
X100729280Y-97730000D01*
X114229965Y-97730000D01*
X114248026Y-97867183D01*
X114300976Y-97995017D01*
X114332279Y-98035812D01*
X114380180Y-98098238D01*
X114380183Y-98098241D01*
X114385209Y-98104791D01*
X114494982Y-98189024D01*
X114502611Y-98192184D01*
X114615189Y-98238815D01*
X114615193Y-98238816D01*
X114622817Y-98241974D01*
X114630997Y-98243051D01*
X114631001Y-98243052D01*
X114751812Y-98258957D01*
X114760000Y-98260035D01*
X114768188Y-98258957D01*
X114888999Y-98243052D01*
X114889003Y-98243051D01*
X114897183Y-98241974D01*
X114904807Y-98238816D01*
X114904811Y-98238815D01*
X115017389Y-98192184D01*
X115025018Y-98189024D01*
X115134791Y-98104791D01*
X115139817Y-98098241D01*
X115139820Y-98098238D01*
X115187721Y-98035812D01*
X115219024Y-97995017D01*
X115271974Y-97867183D01*
X115290035Y-97730000D01*
X115271974Y-97592817D01*
X115219024Y-97464983D01*
X115146499Y-97370467D01*
X115139820Y-97361762D01*
X115139817Y-97361759D01*
X115134791Y-97355209D01*
X115111300Y-97337183D01*
X115031568Y-97276002D01*
X115025018Y-97270976D01*
X114998435Y-97259965D01*
X114904811Y-97221185D01*
X114904807Y-97221184D01*
X114897183Y-97218026D01*
X114889003Y-97216949D01*
X114888999Y-97216948D01*
X114768188Y-97201043D01*
X114760000Y-97199965D01*
X114622817Y-97218026D01*
X114494983Y-97270976D01*
X114385209Y-97355209D01*
X114300976Y-97464983D01*
X114248026Y-97592817D01*
X114229965Y-97730000D01*
X100729280Y-97730000D01*
X100729280Y-91770711D01*
X112415676Y-91770711D01*
X112433737Y-91907894D01*
X112486687Y-92035728D01*
X112528804Y-92090615D01*
X112565891Y-92138949D01*
X112565894Y-92138952D01*
X112570920Y-92145502D01*
X112680693Y-92229735D01*
X112688322Y-92232895D01*
X112800900Y-92279526D01*
X112800904Y-92279527D01*
X112808528Y-92282685D01*
X112816708Y-92283762D01*
X112816712Y-92283763D01*
X112937523Y-92299668D01*
X112945711Y-92300746D01*
X112953899Y-92299668D01*
X113074710Y-92283763D01*
X113074714Y-92283762D01*
X113082894Y-92282685D01*
X113090518Y-92279527D01*
X113090522Y-92279526D01*
X113203100Y-92232895D01*
X113210729Y-92229735D01*
X113320502Y-92145502D01*
X113325528Y-92138952D01*
X113325531Y-92138949D01*
X113362618Y-92090615D01*
X113404735Y-92035728D01*
X113457685Y-91907894D01*
X113475746Y-91770711D01*
X113457685Y-91633528D01*
X113454523Y-91625894D01*
X113429319Y-91565044D01*
X113421730Y-91494454D01*
X113453510Y-91430968D01*
X113497509Y-91400419D01*
X113517387Y-91392185D01*
X113517388Y-91392184D01*
X113525018Y-91389024D01*
X113634791Y-91304791D01*
X113639817Y-91298241D01*
X113639820Y-91298238D01*
X113710399Y-91206257D01*
X113719024Y-91195017D01*
X113771974Y-91067183D01*
X113790035Y-90930000D01*
X113771974Y-90792817D01*
X113719024Y-90664983D01*
X113676907Y-90610096D01*
X113639820Y-90561762D01*
X113639817Y-90561759D01*
X113634791Y-90555209D01*
X113525018Y-90470976D01*
X113517389Y-90467816D01*
X113404811Y-90421185D01*
X113404807Y-90421184D01*
X113397183Y-90418026D01*
X113389003Y-90416949D01*
X113388999Y-90416948D01*
X113268188Y-90401043D01*
X113260000Y-90399965D01*
X113122817Y-90418026D01*
X112994983Y-90470976D01*
X112885209Y-90555209D01*
X112800976Y-90664983D01*
X112748026Y-90792817D01*
X112729965Y-90930000D01*
X112748026Y-91067183D01*
X112751187Y-91074814D01*
X112751188Y-91074817D01*
X112776392Y-91135667D01*
X112783981Y-91206257D01*
X112752201Y-91269743D01*
X112708202Y-91300292D01*
X112688328Y-91308524D01*
X112688322Y-91308527D01*
X112680694Y-91311687D01*
X112570920Y-91395920D01*
X112486687Y-91505694D01*
X112433737Y-91633528D01*
X112415676Y-91770711D01*
X100729280Y-91770711D01*
X100729280Y-89880713D01*
X100731194Y-89858833D01*
X100732002Y-89854252D01*
X100732002Y-89854251D01*
X100733916Y-89843396D01*
X100732001Y-89832539D01*
X100732001Y-89821956D01*
X100732608Y-89809602D01*
X100745348Y-89680260D01*
X100750167Y-89656035D01*
X100794149Y-89511046D01*
X100803601Y-89488226D01*
X100875025Y-89354601D01*
X100888747Y-89334064D01*
X100984867Y-89216940D01*
X101002333Y-89199474D01*
X101119456Y-89103352D01*
X101139993Y-89089630D01*
X101139997Y-89089628D01*
X101273616Y-89018205D01*
X101296427Y-89008756D01*
X101441429Y-88964767D01*
X101465649Y-88959950D01*
X101581568Y-88948531D01*
X101594837Y-88947224D01*
X101607185Y-88946617D01*
X101617928Y-88946617D01*
X101628785Y-88948531D01*
X101644215Y-88945810D01*
X101666097Y-88943895D01*
X104791032Y-88943895D01*
X104812908Y-88945809D01*
X104817490Y-88946617D01*
X104817491Y-88946617D01*
X104828348Y-88948531D01*
X104835600Y-88947252D01*
X105042438Y-88932452D01*
X105252169Y-88886822D01*
X105256383Y-88885250D01*
X105256387Y-88885249D01*
X105449062Y-88813379D01*
X105453271Y-88811809D01*
X105457273Y-88809624D01*
X105637700Y-88711098D01*
X105637699Y-88711098D01*
X105641652Y-88708940D01*
X105728069Y-88644246D01*
X105809877Y-88583003D01*
X105809881Y-88583000D01*
X105813475Y-88580309D01*
X105965244Y-88428535D01*
X106066405Y-88293395D01*
X106091167Y-88260316D01*
X106091169Y-88260313D01*
X106093869Y-88256706D01*
X106196731Y-88068322D01*
X106219141Y-88008238D01*
X106243425Y-87943127D01*
X106271737Y-87867217D01*
X106317360Y-87657484D01*
X106318610Y-87640000D01*
X133889965Y-87640000D01*
X133908026Y-87777183D01*
X133960976Y-87905017D01*
X133990219Y-87943127D01*
X134040180Y-88008238D01*
X134040183Y-88008241D01*
X134045209Y-88014791D01*
X134051759Y-88019817D01*
X134051760Y-88019818D01*
X134129451Y-88079433D01*
X134154982Y-88099024D01*
X134162611Y-88102184D01*
X134275189Y-88148815D01*
X134275193Y-88148816D01*
X134282817Y-88151974D01*
X134290997Y-88153051D01*
X134291001Y-88153052D01*
X134411812Y-88168957D01*
X134420000Y-88170035D01*
X134428188Y-88168957D01*
X134548999Y-88153052D01*
X134549003Y-88153051D01*
X134557183Y-88151974D01*
X134564807Y-88148816D01*
X134564811Y-88148815D01*
X134677389Y-88102184D01*
X134685018Y-88099024D01*
X134710549Y-88079433D01*
X134788240Y-88019818D01*
X134788241Y-88019817D01*
X134794791Y-88014791D01*
X134799817Y-88008241D01*
X134799820Y-88008238D01*
X134849781Y-87943127D01*
X134879024Y-87905017D01*
X134887729Y-87884000D01*
X139068365Y-87884000D01*
X139086426Y-88021183D01*
X139139376Y-88149017D01*
X139154677Y-88168957D01*
X139218580Y-88252238D01*
X139218583Y-88252241D01*
X139223609Y-88258791D01*
X139333382Y-88343024D01*
X139341011Y-88346184D01*
X139453589Y-88392815D01*
X139453593Y-88392816D01*
X139461217Y-88395974D01*
X139469397Y-88397051D01*
X139469401Y-88397052D01*
X139590212Y-88412957D01*
X139598400Y-88414035D01*
X139606588Y-88412957D01*
X139727399Y-88397052D01*
X139727403Y-88397051D01*
X139735583Y-88395974D01*
X139743207Y-88392816D01*
X139743211Y-88392815D01*
X139855789Y-88346184D01*
X139863418Y-88343024D01*
X139928095Y-88293395D01*
X139994316Y-88267794D01*
X140063864Y-88282058D01*
X140081505Y-88293395D01*
X140146182Y-88343024D01*
X140153811Y-88346184D01*
X140266389Y-88392815D01*
X140266393Y-88392816D01*
X140274017Y-88395974D01*
X140282197Y-88397051D01*
X140282201Y-88397052D01*
X140403012Y-88412957D01*
X140411200Y-88414035D01*
X140419388Y-88412957D01*
X140540199Y-88397052D01*
X140540203Y-88397051D01*
X140548383Y-88395974D01*
X140556007Y-88392816D01*
X140556011Y-88392815D01*
X140668589Y-88346184D01*
X140676218Y-88343024D01*
X140785991Y-88258791D01*
X140791017Y-88252241D01*
X140791020Y-88252238D01*
X140854923Y-88168957D01*
X140870224Y-88149017D01*
X140923174Y-88021183D01*
X140941235Y-87884000D01*
X140923174Y-87746817D01*
X140870224Y-87618983D01*
X140817600Y-87550402D01*
X140791020Y-87515762D01*
X140791017Y-87515759D01*
X140785991Y-87509209D01*
X140700221Y-87443394D01*
X140682768Y-87430002D01*
X140676218Y-87424976D01*
X140630591Y-87406077D01*
X140556011Y-87375185D01*
X140556007Y-87375184D01*
X140548383Y-87372026D01*
X140540203Y-87370949D01*
X140540199Y-87370948D01*
X140419388Y-87355043D01*
X140411200Y-87353965D01*
X140274017Y-87372026D01*
X140146183Y-87424976D01*
X140081503Y-87474607D01*
X140015286Y-87500207D01*
X139945737Y-87485943D01*
X139928096Y-87474606D01*
X139907678Y-87458938D01*
X139863418Y-87424976D01*
X139817791Y-87406077D01*
X139743211Y-87375185D01*
X139743207Y-87375184D01*
X139735583Y-87372026D01*
X139727403Y-87370949D01*
X139727399Y-87370948D01*
X139606588Y-87355043D01*
X139598400Y-87353965D01*
X139461217Y-87372026D01*
X139333383Y-87424976D01*
X139223609Y-87509209D01*
X139139376Y-87618983D01*
X139086426Y-87746817D01*
X139068365Y-87884000D01*
X134887729Y-87884000D01*
X134931974Y-87777183D01*
X134950035Y-87640000D01*
X134931974Y-87502817D01*
X134879024Y-87374983D01*
X134836908Y-87320096D01*
X134799820Y-87271762D01*
X134799817Y-87271759D01*
X134794791Y-87265209D01*
X134685018Y-87180976D01*
X134677389Y-87177816D01*
X134564811Y-87131185D01*
X134564807Y-87131184D01*
X134557183Y-87128026D01*
X134549003Y-87126949D01*
X134548999Y-87126948D01*
X134428188Y-87111043D01*
X134420000Y-87109965D01*
X134282817Y-87128026D01*
X134154983Y-87180976D01*
X134045209Y-87265209D01*
X133960976Y-87374983D01*
X133908026Y-87502817D01*
X133889965Y-87640000D01*
X106318610Y-87640000D01*
X106332123Y-87451055D01*
X106333474Y-87443394D01*
X106330752Y-87427957D01*
X106328838Y-87406077D01*
X106328838Y-82615854D01*
X106348840Y-82547733D01*
X106402496Y-82501240D01*
X106472770Y-82491136D01*
X106537350Y-82520630D01*
X106575957Y-82581124D01*
X106595408Y-82648957D01*
X106621971Y-82741595D01*
X106624790Y-82747080D01*
X106691152Y-82876205D01*
X106707176Y-82907385D01*
X106822959Y-83053468D01*
X106964912Y-83174279D01*
X107127627Y-83265217D01*
X107304907Y-83322819D01*
X107489998Y-83344890D01*
X107496133Y-83344418D01*
X107496135Y-83344418D01*
X107669710Y-83331062D01*
X107669715Y-83331061D01*
X107675851Y-83330589D01*
X107681781Y-83328933D01*
X107681783Y-83328933D01*
X107849459Y-83282117D01*
X107849458Y-83282117D01*
X107855387Y-83280462D01*
X108021768Y-83196417D01*
X108046255Y-83177286D01*
X108163794Y-83085454D01*
X108163795Y-83085453D01*
X108168655Y-83081656D01*
X108290454Y-82940550D01*
X108294162Y-82934024D01*
X108339622Y-82853998D01*
X108382526Y-82778474D01*
X108441364Y-82601601D01*
X108454043Y-82501240D01*
X108464285Y-82420170D01*
X108464286Y-82420163D01*
X108464727Y-82416668D01*
X108465099Y-82390000D01*
X108446909Y-82204487D01*
X108445128Y-82198588D01*
X108445127Y-82198583D01*
X108394814Y-82031939D01*
X108393033Y-82026040D01*
X108332369Y-81911948D01*
X108308416Y-81866898D01*
X108308414Y-81866895D01*
X108305522Y-81861456D01*
X108301632Y-81856686D01*
X108301629Y-81856682D01*
X108191605Y-81721780D01*
X108191602Y-81721777D01*
X108187710Y-81717005D01*
X108182056Y-81712327D01*
X108155067Y-81690000D01*
X116689965Y-81690000D01*
X116708026Y-81827183D01*
X116760976Y-81955017D01*
X116800574Y-82006622D01*
X116840180Y-82058238D01*
X116840183Y-82058241D01*
X116845209Y-82064791D01*
X116851759Y-82069817D01*
X116851760Y-82069818D01*
X116906487Y-82111812D01*
X116954982Y-82149024D01*
X116962611Y-82152184D01*
X117075189Y-82198815D01*
X117075193Y-82198816D01*
X117082817Y-82201974D01*
X117090997Y-82203051D01*
X117091001Y-82203052D01*
X117211812Y-82218957D01*
X117220000Y-82220035D01*
X117357183Y-82201974D01*
X117359090Y-82201184D01*
X117427196Y-82202804D01*
X117485992Y-82242597D01*
X117505242Y-82274604D01*
X117550976Y-82385017D01*
X117577950Y-82420170D01*
X117630180Y-82488238D01*
X117630183Y-82488241D01*
X117635209Y-82494791D01*
X117641759Y-82499817D01*
X117641760Y-82499818D01*
X117700399Y-82544814D01*
X117744982Y-82579024D01*
X117752611Y-82582184D01*
X117865189Y-82628815D01*
X117865193Y-82628816D01*
X117872817Y-82631974D01*
X117880997Y-82633051D01*
X117881001Y-82633052D01*
X118001812Y-82648957D01*
X118010000Y-82650035D01*
X118018188Y-82648957D01*
X118138999Y-82633052D01*
X118139003Y-82633051D01*
X118147183Y-82631974D01*
X118154807Y-82628816D01*
X118154811Y-82628815D01*
X118267389Y-82582184D01*
X118275018Y-82579024D01*
X118319601Y-82544814D01*
X118378003Y-82500000D01*
X119069965Y-82500000D01*
X119088026Y-82637183D01*
X119140976Y-82765017D01*
X119159153Y-82788705D01*
X119220180Y-82868238D01*
X119220183Y-82868241D01*
X119225209Y-82874791D01*
X119231759Y-82879817D01*
X119231760Y-82879818D01*
X119316982Y-82945212D01*
X119334982Y-82959024D01*
X119342611Y-82962184D01*
X119455189Y-83008815D01*
X119455193Y-83008816D01*
X119462817Y-83011974D01*
X119470997Y-83013051D01*
X119471001Y-83013052D01*
X119591812Y-83028957D01*
X119600000Y-83030035D01*
X119608188Y-83028957D01*
X119728999Y-83013052D01*
X119729003Y-83013051D01*
X119737183Y-83011974D01*
X119744807Y-83008816D01*
X119744811Y-83008815D01*
X119857389Y-82962184D01*
X119865018Y-82959024D01*
X119871566Y-82953999D01*
X119871572Y-82953996D01*
X119923296Y-82914306D01*
X119989516Y-82888705D01*
X120059065Y-82902969D01*
X120076704Y-82914306D01*
X120128428Y-82953996D01*
X120128434Y-82953999D01*
X120134982Y-82959024D01*
X120142611Y-82962184D01*
X120255189Y-83008815D01*
X120255193Y-83008816D01*
X120262817Y-83011974D01*
X120270997Y-83013051D01*
X120271001Y-83013052D01*
X120391812Y-83028957D01*
X120400000Y-83030035D01*
X120408188Y-83028957D01*
X120528999Y-83013052D01*
X120529003Y-83013051D01*
X120537183Y-83011974D01*
X120544807Y-83008816D01*
X120544811Y-83008815D01*
X120657389Y-82962184D01*
X120665018Y-82959024D01*
X120671566Y-82953999D01*
X120671572Y-82953996D01*
X120723296Y-82914306D01*
X120789516Y-82888705D01*
X120859065Y-82902969D01*
X120876704Y-82914306D01*
X120928428Y-82953996D01*
X120928434Y-82953999D01*
X120934982Y-82959024D01*
X120942611Y-82962184D01*
X121055189Y-83008815D01*
X121055193Y-83008816D01*
X121062817Y-83011974D01*
X121070997Y-83013051D01*
X121071001Y-83013052D01*
X121191812Y-83028957D01*
X121200000Y-83030035D01*
X121208188Y-83028957D01*
X121328999Y-83013052D01*
X121329003Y-83013051D01*
X121337183Y-83011974D01*
X121344807Y-83008816D01*
X121344811Y-83008815D01*
X121457389Y-82962184D01*
X121465018Y-82959024D01*
X121535795Y-82904714D01*
X121602015Y-82879113D01*
X121671564Y-82893377D01*
X121689204Y-82904713D01*
X121759982Y-82959024D01*
X121767611Y-82962184D01*
X121880189Y-83008815D01*
X121880193Y-83008816D01*
X121887817Y-83011974D01*
X121895997Y-83013051D01*
X121896001Y-83013052D01*
X122016812Y-83028957D01*
X122025000Y-83030035D01*
X122033188Y-83028957D01*
X122153999Y-83013052D01*
X122154003Y-83013051D01*
X122162183Y-83011974D01*
X122169807Y-83008816D01*
X122169811Y-83008815D01*
X122282389Y-82962184D01*
X122290018Y-82959024D01*
X122308018Y-82945212D01*
X122393240Y-82879818D01*
X122393241Y-82879817D01*
X122399791Y-82874791D01*
X122404817Y-82868241D01*
X122404820Y-82868238D01*
X122465847Y-82788705D01*
X122484024Y-82765017D01*
X122536974Y-82637183D01*
X122555035Y-82500000D01*
X123069965Y-82500000D01*
X123088026Y-82637183D01*
X123140976Y-82765017D01*
X123159153Y-82788705D01*
X123220180Y-82868238D01*
X123220183Y-82868241D01*
X123225209Y-82874791D01*
X123231759Y-82879817D01*
X123231760Y-82879818D01*
X123316982Y-82945212D01*
X123334982Y-82959024D01*
X123342611Y-82962184D01*
X123455189Y-83008815D01*
X123455193Y-83008816D01*
X123462817Y-83011974D01*
X123470997Y-83013051D01*
X123471001Y-83013052D01*
X123591812Y-83028957D01*
X123600000Y-83030035D01*
X123608188Y-83028957D01*
X123728999Y-83013052D01*
X123729003Y-83013051D01*
X123737183Y-83011974D01*
X123744807Y-83008816D01*
X123744811Y-83008815D01*
X123857389Y-82962184D01*
X123865018Y-82959024D01*
X123935795Y-82904714D01*
X124002015Y-82879113D01*
X124071564Y-82893377D01*
X124089204Y-82904713D01*
X124159982Y-82959024D01*
X124167611Y-82962184D01*
X124280189Y-83008815D01*
X124280193Y-83008816D01*
X124287817Y-83011974D01*
X124295997Y-83013051D01*
X124296001Y-83013052D01*
X124416812Y-83028957D01*
X124425000Y-83030035D01*
X124433188Y-83028957D01*
X124553999Y-83013052D01*
X124554003Y-83013051D01*
X124562183Y-83011974D01*
X124569807Y-83008816D01*
X124569811Y-83008815D01*
X124682389Y-82962184D01*
X124690018Y-82959024D01*
X124708018Y-82945212D01*
X124764585Y-82901806D01*
X124830806Y-82876205D01*
X124900354Y-82890469D01*
X124917994Y-82901806D01*
X124953428Y-82928996D01*
X124953434Y-82928999D01*
X124959982Y-82934024D01*
X124967611Y-82937184D01*
X125080189Y-82983815D01*
X125080193Y-82983816D01*
X125087817Y-82986974D01*
X125095997Y-82988051D01*
X125096001Y-82988052D01*
X125216812Y-83003957D01*
X125225000Y-83005035D01*
X125233188Y-83003957D01*
X125353999Y-82988052D01*
X125354003Y-82988051D01*
X125362183Y-82986974D01*
X125369807Y-82983816D01*
X125369811Y-82983815D01*
X125482389Y-82937184D01*
X125490018Y-82934024D01*
X125518754Y-82911974D01*
X125519506Y-82911397D01*
X125585727Y-82885797D01*
X125655276Y-82900062D01*
X125672914Y-82911398D01*
X125728428Y-82953996D01*
X125728434Y-82953999D01*
X125734982Y-82959024D01*
X125742611Y-82962184D01*
X125855189Y-83008815D01*
X125855193Y-83008816D01*
X125862817Y-83011974D01*
X125870997Y-83013051D01*
X125871001Y-83013052D01*
X125991812Y-83028957D01*
X126000000Y-83030035D01*
X126008188Y-83028957D01*
X126128999Y-83013052D01*
X126129003Y-83013051D01*
X126137183Y-83011974D01*
X126144807Y-83008816D01*
X126144811Y-83008815D01*
X126257389Y-82962184D01*
X126265018Y-82959024D01*
X126283018Y-82945212D01*
X126368240Y-82879818D01*
X126368241Y-82879817D01*
X126374791Y-82874791D01*
X126379817Y-82868241D01*
X126379820Y-82868238D01*
X126440847Y-82788705D01*
X126459024Y-82765017D01*
X126511974Y-82637183D01*
X126530035Y-82500000D01*
X127069965Y-82500000D01*
X127088026Y-82637183D01*
X127140976Y-82765017D01*
X127159153Y-82788705D01*
X127220180Y-82868238D01*
X127220183Y-82868241D01*
X127225209Y-82874791D01*
X127231759Y-82879817D01*
X127231760Y-82879818D01*
X127316982Y-82945212D01*
X127334982Y-82959024D01*
X127342611Y-82962184D01*
X127455189Y-83008815D01*
X127455193Y-83008816D01*
X127462817Y-83011974D01*
X127470997Y-83013051D01*
X127471001Y-83013052D01*
X127591812Y-83028957D01*
X127600000Y-83030035D01*
X127608188Y-83028957D01*
X127728999Y-83013052D01*
X127729003Y-83013051D01*
X127737183Y-83011974D01*
X127744807Y-83008816D01*
X127744811Y-83008815D01*
X127857389Y-82962184D01*
X127865018Y-82959024D01*
X127871566Y-82953999D01*
X127871572Y-82953996D01*
X127923296Y-82914306D01*
X127989516Y-82888705D01*
X128059065Y-82902969D01*
X128076704Y-82914306D01*
X128128428Y-82953996D01*
X128128434Y-82953999D01*
X128134982Y-82959024D01*
X128142611Y-82962184D01*
X128255189Y-83008815D01*
X128255193Y-83008816D01*
X128262817Y-83011974D01*
X128270997Y-83013051D01*
X128271001Y-83013052D01*
X128391812Y-83028957D01*
X128400000Y-83030035D01*
X128408188Y-83028957D01*
X128528999Y-83013052D01*
X128529003Y-83013051D01*
X128537183Y-83011974D01*
X128544807Y-83008816D01*
X128544811Y-83008815D01*
X128657389Y-82962184D01*
X128665018Y-82959024D01*
X128671566Y-82953999D01*
X128671572Y-82953996D01*
X128723296Y-82914306D01*
X128789516Y-82888705D01*
X128859065Y-82902969D01*
X128876704Y-82914306D01*
X128928428Y-82953996D01*
X128928434Y-82953999D01*
X128934982Y-82959024D01*
X128942611Y-82962184D01*
X129055189Y-83008815D01*
X129055193Y-83008816D01*
X129062817Y-83011974D01*
X129070997Y-83013051D01*
X129071001Y-83013052D01*
X129191812Y-83028957D01*
X129200000Y-83030035D01*
X129208188Y-83028957D01*
X129328999Y-83013052D01*
X129329003Y-83013051D01*
X129337183Y-83011974D01*
X129344807Y-83008816D01*
X129344811Y-83008815D01*
X129457389Y-82962184D01*
X129465018Y-82959024D01*
X129471566Y-82953999D01*
X129471572Y-82953996D01*
X129523296Y-82914306D01*
X129589516Y-82888705D01*
X129659065Y-82902969D01*
X129676704Y-82914306D01*
X129728428Y-82953996D01*
X129728434Y-82953999D01*
X129734982Y-82959024D01*
X129742611Y-82962184D01*
X129855189Y-83008815D01*
X129855193Y-83008816D01*
X129862817Y-83011974D01*
X129870997Y-83013051D01*
X129871001Y-83013052D01*
X129991812Y-83028957D01*
X130000000Y-83030035D01*
X130008188Y-83028957D01*
X130128999Y-83013052D01*
X130129003Y-83013051D01*
X130137183Y-83011974D01*
X130144807Y-83008816D01*
X130144811Y-83008815D01*
X130257389Y-82962184D01*
X130265018Y-82959024D01*
X130283018Y-82945212D01*
X130368240Y-82879818D01*
X130368241Y-82879817D01*
X130374791Y-82874791D01*
X130379817Y-82868241D01*
X130379820Y-82868238D01*
X130440847Y-82788705D01*
X130459024Y-82765017D01*
X130511974Y-82637183D01*
X130530035Y-82500000D01*
X130516869Y-82400000D01*
X131069965Y-82400000D01*
X131088026Y-82537183D01*
X131140976Y-82665017D01*
X131165188Y-82696570D01*
X131220180Y-82768238D01*
X131220183Y-82768241D01*
X131225209Y-82774791D01*
X131231759Y-82779817D01*
X131231760Y-82779818D01*
X131321786Y-82848898D01*
X131334982Y-82859024D01*
X131342611Y-82862184D01*
X131455189Y-82908815D01*
X131455193Y-82908816D01*
X131462817Y-82911974D01*
X131470997Y-82913051D01*
X131471001Y-82913052D01*
X131591812Y-82928957D01*
X131600000Y-82930035D01*
X131608188Y-82928957D01*
X131728999Y-82913052D01*
X131729003Y-82913051D01*
X131737183Y-82911974D01*
X131744807Y-82908816D01*
X131744811Y-82908815D01*
X131857389Y-82862184D01*
X131865018Y-82859024D01*
X131871566Y-82853999D01*
X131871572Y-82853996D01*
X131923296Y-82814306D01*
X131989516Y-82788705D01*
X132059065Y-82802969D01*
X132076704Y-82814306D01*
X132128428Y-82853996D01*
X132128434Y-82853999D01*
X132134982Y-82859024D01*
X132142611Y-82862184D01*
X132255189Y-82908815D01*
X132255193Y-82908816D01*
X132262817Y-82911974D01*
X132270997Y-82913051D01*
X132271001Y-82913052D01*
X132391812Y-82928957D01*
X132400000Y-82930035D01*
X132408188Y-82928957D01*
X132528999Y-82913052D01*
X132529003Y-82913051D01*
X132537183Y-82911974D01*
X132544807Y-82908816D01*
X132544811Y-82908815D01*
X132657389Y-82862184D01*
X132665018Y-82859024D01*
X132735795Y-82804714D01*
X132802015Y-82779113D01*
X132871564Y-82793377D01*
X132889204Y-82804713D01*
X132959982Y-82859024D01*
X132967611Y-82862184D01*
X133080189Y-82908815D01*
X133080193Y-82908816D01*
X133087817Y-82911974D01*
X133095997Y-82913051D01*
X133096001Y-82913052D01*
X133216812Y-82928957D01*
X133225000Y-82930035D01*
X133233188Y-82928957D01*
X133353999Y-82913052D01*
X133354003Y-82913051D01*
X133362183Y-82911974D01*
X133369807Y-82908816D01*
X133369811Y-82908815D01*
X133482389Y-82862184D01*
X133490018Y-82859024D01*
X133502051Y-82849791D01*
X133535796Y-82823898D01*
X133602016Y-82798297D01*
X133671565Y-82812562D01*
X133689204Y-82823898D01*
X133722949Y-82849791D01*
X133734982Y-82859024D01*
X133742611Y-82862184D01*
X133855189Y-82908815D01*
X133855193Y-82908816D01*
X133862817Y-82911974D01*
X133870997Y-82913051D01*
X133871001Y-82913052D01*
X133991812Y-82928957D01*
X134000000Y-82930035D01*
X134008188Y-82928957D01*
X134128999Y-82913052D01*
X134129003Y-82913051D01*
X134137183Y-82911974D01*
X134144807Y-82908816D01*
X134144811Y-82908815D01*
X134257389Y-82862184D01*
X134265018Y-82859024D01*
X134278214Y-82848898D01*
X134368240Y-82779818D01*
X134368241Y-82779817D01*
X134374791Y-82774791D01*
X134379817Y-82768241D01*
X134379820Y-82768238D01*
X134434812Y-82696570D01*
X134459024Y-82665017D01*
X134511974Y-82537183D01*
X134526744Y-82425000D01*
X135094965Y-82425000D01*
X135113026Y-82562183D01*
X135165976Y-82690017D01*
X135205553Y-82741595D01*
X135245180Y-82793238D01*
X135245183Y-82793241D01*
X135250209Y-82799791D01*
X135256759Y-82804817D01*
X135256760Y-82804818D01*
X135347351Y-82874332D01*
X135359982Y-82884024D01*
X135367611Y-82887184D01*
X135480189Y-82933815D01*
X135480193Y-82933816D01*
X135487817Y-82936974D01*
X135495997Y-82938051D01*
X135496001Y-82938052D01*
X135616812Y-82953957D01*
X135625000Y-82955035D01*
X135633188Y-82953957D01*
X135753999Y-82938052D01*
X135754003Y-82938051D01*
X135762183Y-82936974D01*
X135769807Y-82933816D01*
X135769811Y-82933815D01*
X135882389Y-82887184D01*
X135890018Y-82884024D01*
X135896566Y-82878999D01*
X135896572Y-82878996D01*
X135948296Y-82839306D01*
X136014516Y-82813705D01*
X136084065Y-82827969D01*
X136101704Y-82839306D01*
X136153428Y-82878996D01*
X136153434Y-82878999D01*
X136159982Y-82884024D01*
X136167611Y-82887184D01*
X136280189Y-82933815D01*
X136280193Y-82933816D01*
X136287817Y-82936974D01*
X136295997Y-82938051D01*
X136296001Y-82938052D01*
X136416812Y-82953957D01*
X136425000Y-82955035D01*
X136433188Y-82953957D01*
X136553999Y-82938052D01*
X136554003Y-82938051D01*
X136562183Y-82936974D01*
X136569807Y-82933816D01*
X136569811Y-82933815D01*
X136682389Y-82887184D01*
X136690018Y-82884024D01*
X136696566Y-82878999D01*
X136696572Y-82878996D01*
X136748296Y-82839306D01*
X136814516Y-82813705D01*
X136884065Y-82827969D01*
X136901704Y-82839306D01*
X136953428Y-82878996D01*
X136953434Y-82878999D01*
X136959982Y-82884024D01*
X136967611Y-82887184D01*
X137080189Y-82933815D01*
X137080193Y-82933816D01*
X137087817Y-82936974D01*
X137095997Y-82938051D01*
X137096001Y-82938052D01*
X137216812Y-82953957D01*
X137225000Y-82955035D01*
X137233188Y-82953957D01*
X137353999Y-82938052D01*
X137354003Y-82938051D01*
X137362183Y-82936974D01*
X137369807Y-82933816D01*
X137369811Y-82933815D01*
X137482389Y-82887184D01*
X137490018Y-82884024D01*
X137502649Y-82874332D01*
X137535796Y-82848898D01*
X137602016Y-82823297D01*
X137671565Y-82837562D01*
X137689204Y-82848898D01*
X137722351Y-82874332D01*
X137734982Y-82884024D01*
X137742611Y-82887184D01*
X137855189Y-82933815D01*
X137855193Y-82933816D01*
X137862817Y-82936974D01*
X137870997Y-82938051D01*
X137871001Y-82938052D01*
X137991812Y-82953957D01*
X138000000Y-82955035D01*
X138008188Y-82953957D01*
X138128999Y-82938052D01*
X138129003Y-82938051D01*
X138137183Y-82936974D01*
X138144807Y-82933816D01*
X138144811Y-82933815D01*
X138257389Y-82887184D01*
X138265018Y-82884024D01*
X138277649Y-82874332D01*
X138368240Y-82804818D01*
X138368241Y-82804817D01*
X138374791Y-82799791D01*
X138379817Y-82793241D01*
X138379820Y-82793238D01*
X138419447Y-82741595D01*
X138459024Y-82690017D01*
X138511974Y-82562183D01*
X138530035Y-82425000D01*
X138511974Y-82287817D01*
X138459024Y-82159983D01*
X138400000Y-82083062D01*
X138379820Y-82056762D01*
X138379817Y-82056759D01*
X138374791Y-82050209D01*
X138362759Y-82040976D01*
X138271568Y-81971002D01*
X138265018Y-81965976D01*
X138238560Y-81955017D01*
X138144811Y-81916185D01*
X138144807Y-81916184D01*
X138137183Y-81913026D01*
X138129003Y-81911949D01*
X138128999Y-81911948D01*
X138008188Y-81896043D01*
X138000000Y-81894965D01*
X137862817Y-81913026D01*
X137734983Y-81965976D01*
X137728433Y-81971002D01*
X137728430Y-81971004D01*
X137689205Y-82001103D01*
X137622985Y-82026704D01*
X137553436Y-82012440D01*
X137535797Y-82001103D01*
X137496572Y-81971004D01*
X137496566Y-81971001D01*
X137490018Y-81965976D01*
X137463560Y-81955017D01*
X137369811Y-81916185D01*
X137369807Y-81916184D01*
X137362183Y-81913026D01*
X137354003Y-81911949D01*
X137353999Y-81911948D01*
X137233188Y-81896043D01*
X137225000Y-81894965D01*
X137087817Y-81913026D01*
X136959983Y-81965976D01*
X136901703Y-82010696D01*
X136835486Y-82036296D01*
X136765937Y-82022032D01*
X136748296Y-82010695D01*
X136696568Y-81971002D01*
X136690018Y-81965976D01*
X136663560Y-81955017D01*
X136569811Y-81916185D01*
X136569807Y-81916184D01*
X136562183Y-81913026D01*
X136554003Y-81911949D01*
X136553999Y-81911948D01*
X136433188Y-81896043D01*
X136425000Y-81894965D01*
X136287817Y-81913026D01*
X136159983Y-81965976D01*
X136101703Y-82010696D01*
X136035486Y-82036296D01*
X135965937Y-82022032D01*
X135948296Y-82010695D01*
X135896568Y-81971002D01*
X135890018Y-81965976D01*
X135863560Y-81955017D01*
X135769811Y-81916185D01*
X135769807Y-81916184D01*
X135762183Y-81913026D01*
X135754003Y-81911949D01*
X135753999Y-81911948D01*
X135633188Y-81896043D01*
X135625000Y-81894965D01*
X135487817Y-81913026D01*
X135359983Y-81965976D01*
X135250209Y-82050209D01*
X135165976Y-82159983D01*
X135113026Y-82287817D01*
X135094965Y-82425000D01*
X134526744Y-82425000D01*
X134530035Y-82400000D01*
X134511974Y-82262817D01*
X134459024Y-82134983D01*
X134406684Y-82066772D01*
X134379820Y-82031762D01*
X134379817Y-82031759D01*
X134374791Y-82025209D01*
X134362759Y-82015976D01*
X134271568Y-81946002D01*
X134265018Y-81940976D01*
X134257389Y-81937816D01*
X134144811Y-81891185D01*
X134144807Y-81891184D01*
X134137183Y-81888026D01*
X134129003Y-81886949D01*
X134128999Y-81886948D01*
X134008188Y-81871043D01*
X134000000Y-81869965D01*
X133862817Y-81888026D01*
X133734983Y-81940976D01*
X133728433Y-81946002D01*
X133728430Y-81946004D01*
X133689205Y-81976103D01*
X133622985Y-82001704D01*
X133553436Y-81987440D01*
X133535797Y-81976103D01*
X133496572Y-81946004D01*
X133496566Y-81946001D01*
X133490018Y-81940976D01*
X133482389Y-81937816D01*
X133369811Y-81891185D01*
X133369807Y-81891184D01*
X133362183Y-81888026D01*
X133354003Y-81886949D01*
X133353999Y-81886948D01*
X133233188Y-81871043D01*
X133225000Y-81869965D01*
X133087817Y-81888026D01*
X132959983Y-81940976D01*
X132927128Y-81966187D01*
X132889205Y-81995286D01*
X132822985Y-82020887D01*
X132753436Y-82006622D01*
X132735797Y-81995286D01*
X132671572Y-81946004D01*
X132671566Y-81946001D01*
X132665018Y-81940976D01*
X132657389Y-81937816D01*
X132544811Y-81891185D01*
X132544807Y-81891184D01*
X132537183Y-81888026D01*
X132529003Y-81886949D01*
X132528999Y-81886948D01*
X132408188Y-81871043D01*
X132400000Y-81869965D01*
X132262817Y-81888026D01*
X132134983Y-81940976D01*
X132076703Y-81985696D01*
X132010486Y-82011296D01*
X131940937Y-81997032D01*
X131923296Y-81985695D01*
X131904202Y-81971043D01*
X131865018Y-81940976D01*
X131857389Y-81937816D01*
X131744811Y-81891185D01*
X131744807Y-81891184D01*
X131737183Y-81888026D01*
X131729003Y-81886949D01*
X131728999Y-81886948D01*
X131608188Y-81871043D01*
X131600000Y-81869965D01*
X131462817Y-81888026D01*
X131334983Y-81940976D01*
X131225209Y-82025209D01*
X131140976Y-82134983D01*
X131088026Y-82262817D01*
X131069965Y-82400000D01*
X130516869Y-82400000D01*
X130511974Y-82362817D01*
X130459024Y-82234983D01*
X130407329Y-82167613D01*
X130379820Y-82131762D01*
X130379817Y-82131759D01*
X130374791Y-82125209D01*
X130356660Y-82111296D01*
X130271568Y-82046002D01*
X130265018Y-82040976D01*
X130253719Y-82036296D01*
X130144811Y-81991185D01*
X130144807Y-81991184D01*
X130137183Y-81988026D01*
X130129003Y-81986949D01*
X130128999Y-81986948D01*
X130008188Y-81971043D01*
X130000000Y-81969965D01*
X129862817Y-81988026D01*
X129734983Y-82040976D01*
X129676703Y-82085696D01*
X129610486Y-82111296D01*
X129540937Y-82097032D01*
X129523296Y-82085695D01*
X129471568Y-82046002D01*
X129465018Y-82040976D01*
X129453719Y-82036296D01*
X129344811Y-81991185D01*
X129344807Y-81991184D01*
X129337183Y-81988026D01*
X129329003Y-81986949D01*
X129328999Y-81986948D01*
X129208188Y-81971043D01*
X129200000Y-81969965D01*
X129062817Y-81988026D01*
X128934983Y-82040976D01*
X128876703Y-82085696D01*
X128810486Y-82111296D01*
X128740937Y-82097032D01*
X128723296Y-82085695D01*
X128671568Y-82046002D01*
X128665018Y-82040976D01*
X128653719Y-82036296D01*
X128544811Y-81991185D01*
X128544807Y-81991184D01*
X128537183Y-81988026D01*
X128529003Y-81986949D01*
X128528999Y-81986948D01*
X128408188Y-81971043D01*
X128400000Y-81969965D01*
X128262817Y-81988026D01*
X128134983Y-82040976D01*
X128076703Y-82085696D01*
X128010486Y-82111296D01*
X127940937Y-82097032D01*
X127923296Y-82085695D01*
X127871568Y-82046002D01*
X127865018Y-82040976D01*
X127853719Y-82036296D01*
X127744811Y-81991185D01*
X127744807Y-81991184D01*
X127737183Y-81988026D01*
X127729003Y-81986949D01*
X127728999Y-81986948D01*
X127608188Y-81971043D01*
X127600000Y-81969965D01*
X127462817Y-81988026D01*
X127334983Y-82040976D01*
X127225209Y-82125209D01*
X127140976Y-82234983D01*
X127088026Y-82362817D01*
X127069965Y-82500000D01*
X126530035Y-82500000D01*
X126511974Y-82362817D01*
X126459024Y-82234983D01*
X126407329Y-82167613D01*
X126379820Y-82131762D01*
X126379817Y-82131759D01*
X126374791Y-82125209D01*
X126356660Y-82111296D01*
X126271568Y-82046002D01*
X126265018Y-82040976D01*
X126253719Y-82036296D01*
X126144811Y-81991185D01*
X126144807Y-81991184D01*
X126137183Y-81988026D01*
X126129003Y-81986949D01*
X126128999Y-81986948D01*
X126008188Y-81971043D01*
X126000000Y-81969965D01*
X125862817Y-81988026D01*
X125734983Y-82040976D01*
X125712716Y-82058062D01*
X125705495Y-82063603D01*
X125639275Y-82089204D01*
X125569726Y-82074939D01*
X125552087Y-82063603D01*
X125496572Y-82021004D01*
X125496566Y-82021001D01*
X125490018Y-82015976D01*
X125454111Y-82001103D01*
X125369811Y-81966185D01*
X125369807Y-81966184D01*
X125362183Y-81963026D01*
X125354003Y-81961949D01*
X125353999Y-81961948D01*
X125233188Y-81946043D01*
X125225000Y-81944965D01*
X125087817Y-81963026D01*
X124959983Y-82015976D01*
X124885412Y-82073196D01*
X124819196Y-82098796D01*
X124749647Y-82084532D01*
X124732006Y-82073195D01*
X124696568Y-82046002D01*
X124690018Y-82040976D01*
X124678719Y-82036296D01*
X124569811Y-81991185D01*
X124569807Y-81991184D01*
X124562183Y-81988026D01*
X124554003Y-81986949D01*
X124553999Y-81986948D01*
X124433188Y-81971043D01*
X124425000Y-81969965D01*
X124287817Y-81988026D01*
X124159983Y-82040976D01*
X124122396Y-82069818D01*
X124089205Y-82095286D01*
X124022985Y-82120887D01*
X123953436Y-82106622D01*
X123935797Y-82095286D01*
X123871572Y-82046004D01*
X123871566Y-82046001D01*
X123865018Y-82040976D01*
X123853719Y-82036296D01*
X123744811Y-81991185D01*
X123744807Y-81991184D01*
X123737183Y-81988026D01*
X123729003Y-81986949D01*
X123728999Y-81986948D01*
X123608188Y-81971043D01*
X123600000Y-81969965D01*
X123462817Y-81988026D01*
X123334983Y-82040976D01*
X123225209Y-82125209D01*
X123140976Y-82234983D01*
X123088026Y-82362817D01*
X123069965Y-82500000D01*
X122555035Y-82500000D01*
X122536974Y-82362817D01*
X122484024Y-82234983D01*
X122432329Y-82167613D01*
X122404820Y-82131762D01*
X122404817Y-82131759D01*
X122399791Y-82125209D01*
X122381660Y-82111296D01*
X122296568Y-82046002D01*
X122290018Y-82040976D01*
X122278719Y-82036296D01*
X122169811Y-81991185D01*
X122169807Y-81991184D01*
X122162183Y-81988026D01*
X122154003Y-81986949D01*
X122153999Y-81986948D01*
X122033188Y-81971043D01*
X122025000Y-81969965D01*
X121887817Y-81988026D01*
X121759983Y-82040976D01*
X121722396Y-82069818D01*
X121689205Y-82095286D01*
X121622985Y-82120887D01*
X121553436Y-82106622D01*
X121535797Y-82095286D01*
X121471572Y-82046004D01*
X121471566Y-82046001D01*
X121465018Y-82040976D01*
X121453719Y-82036296D01*
X121344811Y-81991185D01*
X121344807Y-81991184D01*
X121337183Y-81988026D01*
X121329003Y-81986949D01*
X121328999Y-81986948D01*
X121208188Y-81971043D01*
X121200000Y-81969965D01*
X121062817Y-81988026D01*
X120934983Y-82040976D01*
X120876703Y-82085696D01*
X120810486Y-82111296D01*
X120740937Y-82097032D01*
X120723296Y-82085695D01*
X120671568Y-82046002D01*
X120665018Y-82040976D01*
X120653719Y-82036296D01*
X120544811Y-81991185D01*
X120544807Y-81991184D01*
X120537183Y-81988026D01*
X120529003Y-81986949D01*
X120528999Y-81986948D01*
X120408188Y-81971043D01*
X120400000Y-81969965D01*
X120262817Y-81988026D01*
X120134983Y-82040976D01*
X120076703Y-82085696D01*
X120010486Y-82111296D01*
X119940937Y-82097032D01*
X119923296Y-82085695D01*
X119871568Y-82046002D01*
X119865018Y-82040976D01*
X119853719Y-82036296D01*
X119744811Y-81991185D01*
X119744807Y-81991184D01*
X119737183Y-81988026D01*
X119729003Y-81986949D01*
X119728999Y-81986948D01*
X119608188Y-81971043D01*
X119600000Y-81969965D01*
X119462817Y-81988026D01*
X119334983Y-82040976D01*
X119225209Y-82125209D01*
X119140976Y-82234983D01*
X119088026Y-82362817D01*
X119069965Y-82500000D01*
X118378003Y-82500000D01*
X118378240Y-82499818D01*
X118378241Y-82499817D01*
X118384791Y-82494791D01*
X118389817Y-82488241D01*
X118389820Y-82488238D01*
X118442050Y-82420170D01*
X118469024Y-82385017D01*
X118521974Y-82257183D01*
X118540035Y-82120000D01*
X118521974Y-81982817D01*
X118469024Y-81854983D01*
X118411490Y-81780003D01*
X118389820Y-81751762D01*
X118389817Y-81751759D01*
X118384791Y-81745209D01*
X118348036Y-81717005D01*
X118281568Y-81666002D01*
X118275018Y-81660976D01*
X118267389Y-81657816D01*
X118154811Y-81611185D01*
X118154807Y-81611184D01*
X118147183Y-81608026D01*
X118139003Y-81606949D01*
X118138999Y-81606948D01*
X118018188Y-81591043D01*
X118010000Y-81589965D01*
X117872817Y-81608026D01*
X117870910Y-81608816D01*
X117802804Y-81607196D01*
X117744008Y-81567403D01*
X117724758Y-81535396D01*
X117691967Y-81456231D01*
X117679024Y-81424983D01*
X117636907Y-81370096D01*
X117599820Y-81321762D01*
X117599817Y-81321759D01*
X117594791Y-81315209D01*
X117485018Y-81230976D01*
X117477389Y-81227816D01*
X117364811Y-81181185D01*
X117364807Y-81181184D01*
X117357183Y-81178026D01*
X117349003Y-81176949D01*
X117348999Y-81176948D01*
X117228188Y-81161043D01*
X117220000Y-81159965D01*
X117082817Y-81178026D01*
X116954983Y-81230976D01*
X116845209Y-81315209D01*
X116760976Y-81424983D01*
X116708026Y-81552817D01*
X116689965Y-81690000D01*
X108155067Y-81690000D01*
X108115898Y-81657596D01*
X108044085Y-81598187D01*
X107880116Y-81509529D01*
X107791083Y-81481969D01*
X107707936Y-81456231D01*
X107707933Y-81456230D01*
X107702049Y-81454409D01*
X107695924Y-81453765D01*
X107695923Y-81453765D01*
X107522796Y-81435568D01*
X107522795Y-81435568D01*
X107516668Y-81434924D01*
X107438549Y-81442033D01*
X107337171Y-81451259D01*
X107337168Y-81451260D01*
X107331032Y-81451818D01*
X107325122Y-81453557D01*
X107325119Y-81453558D01*
X107158129Y-81502707D01*
X107152214Y-81504448D01*
X106987023Y-81590807D01*
X106841752Y-81707608D01*
X106721935Y-81850401D01*
X106718971Y-81855793D01*
X106718968Y-81855797D01*
X106669376Y-81946005D01*
X106632135Y-82013746D01*
X106630274Y-82019613D01*
X106630273Y-82019615D01*
X106598429Y-82120000D01*
X106575772Y-82191424D01*
X106574064Y-82190882D01*
X106544355Y-82245911D01*
X106482205Y-82280231D01*
X106411366Y-82275502D01*
X106354329Y-82233226D01*
X106329203Y-82166824D01*
X106328838Y-82157239D01*
X106328838Y-79454596D01*
X106330753Y-79432714D01*
X106331559Y-79428142D01*
X106333474Y-79417284D01*
X106331560Y-79406426D01*
X106331560Y-79395841D01*
X106332167Y-79383492D01*
X106344907Y-79254160D01*
X106349726Y-79229933D01*
X106357840Y-79203189D01*
X106393711Y-79084945D01*
X106403164Y-79062127D01*
X106474586Y-78928513D01*
X106488305Y-78907981D01*
X106584435Y-78790852D01*
X106601884Y-78773404D01*
X106719014Y-78677282D01*
X106739547Y-78663564D01*
X106873169Y-78592146D01*
X106895990Y-78582694D01*
X107040975Y-78538718D01*
X107065200Y-78533900D01*
X107067793Y-78533645D01*
X107195140Y-78521106D01*
X107207487Y-78520500D01*
X107217470Y-78520500D01*
X107228328Y-78522415D01*
X107239185Y-78520501D01*
X107239186Y-78520501D01*
X107243768Y-78519693D01*
X107265644Y-78517779D01*
X143790871Y-78517779D01*
X143812747Y-78519693D01*
G37*
%TD.AperFunction*%
%TD*%
M02*
