%TF.GenerationSoftware,KiCad,Pcbnew,6.0.4-6f826c9f35~116~ubuntu20.04.1*%
%TF.CreationDate,2022-04-13T09:56:37+07:00*%
%TF.ProjectId,CH569Board,43483536-3942-46f6-9172-642e6b696361,rev?*%
%TF.SameCoordinates,Original*%
%TF.FileFunction,Paste,Top*%
%TF.FilePolarity,Positive*%
%FSLAX46Y46*%
G04 Gerber Fmt 4.6, Leading zero omitted, Abs format (unit mm)*
G04 Created by KiCad (PCBNEW 6.0.4-6f826c9f35~116~ubuntu20.04.1) date 2022-04-13 09:56:37*
%MOMM*%
%LPD*%
G01*
G04 APERTURE LIST*
G04 Aperture macros list*
%AMRoundRect*
0 Rectangle with rounded corners*
0 $1 Rounding radius*
0 $2 $3 $4 $5 $6 $7 $8 $9 X,Y pos of 4 corners*
0 Add a 4 corners polygon primitive as box body*
4,1,4,$2,$3,$4,$5,$6,$7,$8,$9,$2,$3,0*
0 Add four circle primitives for the rounded corners*
1,1,$1+$1,$2,$3*
1,1,$1+$1,$4,$5*
1,1,$1+$1,$6,$7*
1,1,$1+$1,$8,$9*
0 Add four rect primitives between the rounded corners*
20,1,$1+$1,$2,$3,$4,$5,0*
20,1,$1+$1,$4,$5,$6,$7,0*
20,1,$1+$1,$6,$7,$8,$9,0*
20,1,$1+$1,$8,$9,$2,$3,0*%
G04 Aperture macros list end*
%ADD10R,0.500000X2.400000*%
%ADD11RoundRect,0.140000X-0.170000X0.140000X-0.170000X-0.140000X0.170000X-0.140000X0.170000X0.140000X0*%
%ADD12RoundRect,0.225000X0.225000X0.250000X-0.225000X0.250000X-0.225000X-0.250000X0.225000X-0.250000X0*%
%ADD13RoundRect,0.250000X0.250000X0.475000X-0.250000X0.475000X-0.250000X-0.475000X0.250000X-0.475000X0*%
%ADD14RoundRect,0.250000X-0.250000X-0.475000X0.250000X-0.475000X0.250000X0.475000X-0.250000X0.475000X0*%
%ADD15RoundRect,0.250000X0.475000X-0.250000X0.475000X0.250000X-0.475000X0.250000X-0.475000X-0.250000X0*%
%ADD16RoundRect,0.218750X-0.218750X-0.256250X0.218750X-0.256250X0.218750X0.256250X-0.218750X0.256250X0*%
%ADD17RoundRect,0.200000X-0.275000X0.200000X-0.275000X-0.200000X0.275000X-0.200000X0.275000X0.200000X0*%
%ADD18R,1.800000X1.500000*%
%ADD19R,0.700000X1.600000*%
%ADD20O,1.300000X3.200000*%
%ADD21RoundRect,0.200000X-0.200000X-0.275000X0.200000X-0.275000X0.200000X0.275000X-0.200000X0.275000X0*%
%ADD22R,0.980000X2.470000*%
%ADD23R,3.600000X2.470000*%
%ADD24R,1.730000X1.190000*%
%ADD25RoundRect,0.225000X0.250000X-0.225000X0.250000X0.225000X-0.250000X0.225000X-0.250000X-0.225000X0*%
%ADD26O,2.250000X0.630000*%
%ADD27R,1.100000X2.500000*%
%ADD28R,3.600000X2.340000*%
%ADD29O,0.200000X0.900000*%
%ADD30O,0.900000X0.200000*%
%ADD31R,5.500000X5.500000*%
%ADD32RoundRect,0.250000X-0.475000X0.250000X-0.475000X-0.250000X0.475000X-0.250000X0.475000X0.250000X0*%
%ADD33RoundRect,0.250000X-0.700000X0.275000X-0.700000X-0.275000X0.700000X-0.275000X0.700000X0.275000X0*%
G04 APERTURE END LIST*
D10*
%TO.C,CN1*%
X141210000Y-79990000D03*
X141210000Y-84790000D03*
X140410000Y-79990000D03*
X140410000Y-84790000D03*
X139610000Y-79990000D03*
X139610000Y-84790000D03*
X138810000Y-79990000D03*
X138810000Y-84790000D03*
X138010000Y-79990000D03*
X138010000Y-84790000D03*
X137210000Y-79990000D03*
X137210000Y-84790000D03*
X136410000Y-79990000D03*
X136410000Y-84790000D03*
X135610000Y-79990000D03*
X135610000Y-84790000D03*
X134810000Y-79990000D03*
X134810000Y-84790000D03*
X134010000Y-79990000D03*
X134010000Y-84790000D03*
X133210000Y-79990000D03*
X133210000Y-84790000D03*
X132410000Y-79990000D03*
X132410000Y-84790000D03*
X131610000Y-79990000D03*
X131610000Y-84790000D03*
X130810000Y-79990000D03*
X130810000Y-84790000D03*
X130010000Y-79990000D03*
X130010000Y-84790000D03*
X129210000Y-79990000D03*
X129210000Y-84790000D03*
X128410000Y-79990000D03*
X128410000Y-84790000D03*
X127610000Y-79990000D03*
X127610000Y-84790000D03*
X126810000Y-79990000D03*
X126810000Y-84790000D03*
X126010000Y-79990000D03*
X126010000Y-84790000D03*
X125210000Y-79990000D03*
X125210000Y-84790000D03*
X124410000Y-79990000D03*
X124410000Y-84790000D03*
X123610000Y-79990000D03*
X123610000Y-84790000D03*
X122810000Y-79990000D03*
X122810000Y-84790000D03*
X122010000Y-79990000D03*
X122010000Y-84790000D03*
X121210000Y-79990000D03*
X121210000Y-84790000D03*
X120410000Y-79990000D03*
X120410000Y-84790000D03*
X119610000Y-79990000D03*
X119610000Y-84790000D03*
X118810000Y-79990000D03*
X118810000Y-84790000D03*
X118010000Y-79990000D03*
X118010000Y-84790000D03*
X117210000Y-79990000D03*
X117210000Y-84790000D03*
X116410000Y-79990000D03*
X116410000Y-84790000D03*
X115610000Y-79990000D03*
X115610000Y-84790000D03*
X114810000Y-79990000D03*
X114810000Y-84790000D03*
X114010000Y-79990000D03*
X114010000Y-84790000D03*
X113210000Y-79990000D03*
X113210000Y-84790000D03*
X112410000Y-79990000D03*
X112410000Y-84790000D03*
X111610000Y-79990000D03*
X111610000Y-84790000D03*
X110810000Y-79990000D03*
X110810000Y-84790000D03*
X110010000Y-79990000D03*
X110010000Y-84790000D03*
%TD*%
D11*
%TO.C,C14*%
X123342400Y-111780000D03*
X123342400Y-112740000D03*
%TD*%
D12*
%TO.C,C19*%
X120025000Y-104570000D03*
X118475000Y-104570000D03*
%TD*%
D13*
%TO.C,C4*%
X112405000Y-113069400D03*
X110505000Y-113069400D03*
%TD*%
D12*
%TO.C,C16*%
X118955000Y-103060000D03*
X117405000Y-103060000D03*
%TD*%
D14*
%TO.C,C1*%
X102610000Y-120680000D03*
X104510000Y-120680000D03*
%TD*%
D11*
%TO.C,C13*%
X124262400Y-111780000D03*
X124262400Y-112740000D03*
%TD*%
D14*
%TO.C,C3*%
X137220000Y-124980000D03*
X139120000Y-124980000D03*
%TD*%
D15*
%TO.C,C5*%
X114840000Y-95420000D03*
X114840000Y-93520000D03*
%TD*%
D16*
%TO.C,D2*%
X104847500Y-93500000D03*
X106422500Y-93500000D03*
%TD*%
%TO.C,D1*%
X104827500Y-90270000D03*
X106402500Y-90270000D03*
%TD*%
D13*
%TO.C,C2*%
X143350000Y-124980000D03*
X141450000Y-124980000D03*
%TD*%
D15*
%TO.C,C12*%
X113680000Y-125170000D03*
X113680000Y-123270000D03*
%TD*%
D17*
%TO.C,R1*%
X104540000Y-106550000D03*
X104540000Y-108200000D03*
%TD*%
D18*
%TO.C,X1*%
X106895000Y-108215000D03*
X112175000Y-108215000D03*
X112175000Y-104315000D03*
X106895000Y-104315000D03*
%TD*%
D13*
%TO.C,C7*%
X112405000Y-115482400D03*
X110505000Y-115482400D03*
%TD*%
D19*
%TO.C,USB1*%
X123800000Y-114230007D03*
X125800000Y-114230007D03*
X127800000Y-114230007D03*
X129800000Y-114230007D03*
X130800000Y-114230007D03*
X128800000Y-114230007D03*
X126800000Y-114230007D03*
X124800000Y-114230007D03*
X122800000Y-114230007D03*
D20*
X120400000Y-115390007D03*
X133200000Y-115390007D03*
%TD*%
D21*
%TO.C,R3*%
X108390000Y-93500000D03*
X110040000Y-93500000D03*
%TD*%
D22*
%TO.C,U2*%
X139134000Y-121978000D03*
X141434000Y-121978000D03*
X143734000Y-121978000D03*
D23*
X141434000Y-116318000D03*
%TD*%
D21*
%TO.C,R2*%
X108350000Y-90280000D03*
X110000000Y-90280000D03*
%TD*%
D24*
%TO.C,F1*%
X113680000Y-120996400D03*
X113680000Y-118096400D03*
%TD*%
D25*
%TO.C,C15*%
X126000000Y-97265000D03*
X126000000Y-95715000D03*
%TD*%
D26*
%TO.C,U3*%
X109510000Y-97737500D03*
X109510000Y-99017500D03*
X109510000Y-100277500D03*
X109510000Y-101547500D03*
X116570000Y-101547500D03*
X116570000Y-100277500D03*
X116570000Y-99017500D03*
X116570000Y-97737500D03*
%TD*%
D27*
%TO.C,U1*%
X102239000Y-118062000D03*
X104539000Y-118062000D03*
X106839000Y-118062000D03*
D28*
X104539000Y-112122000D03*
%TD*%
D29*
%TO.C,U4*%
X122402600Y-107310000D03*
X122802600Y-107310000D03*
X123202600Y-107310000D03*
X123602600Y-107310000D03*
X124002600Y-107310000D03*
X124402600Y-107310000D03*
X124802600Y-107310000D03*
X125202600Y-107310000D03*
X125602600Y-107310000D03*
X126002600Y-107310000D03*
X126402600Y-107310000D03*
X126802600Y-107310000D03*
X127202600Y-107310000D03*
X127602600Y-107310000D03*
X128002600Y-107310000D03*
X128402600Y-107310000D03*
X128802600Y-107310000D03*
D30*
X129552600Y-106560000D03*
X129552600Y-106160000D03*
X129552600Y-105760000D03*
X129552600Y-105360000D03*
X129552600Y-104960000D03*
X129552600Y-104560000D03*
X129552600Y-104160000D03*
X129552600Y-103760000D03*
X129552600Y-103360000D03*
X129552600Y-102960000D03*
X129552600Y-102560000D03*
X129552600Y-102160000D03*
X129552600Y-101760000D03*
X129552600Y-101360000D03*
X129552600Y-100960000D03*
X129552600Y-100560000D03*
X129552600Y-100160000D03*
D29*
X128802600Y-99410000D03*
X128402600Y-99410000D03*
X128002600Y-99410000D03*
X127602600Y-99410000D03*
X127202600Y-99410000D03*
X126802600Y-99410000D03*
X126402600Y-99410000D03*
X126002600Y-99410000D03*
X125602600Y-99410000D03*
X125202600Y-99410000D03*
X124802600Y-99410000D03*
X124402600Y-99410000D03*
X124002600Y-99410000D03*
X123602600Y-99410000D03*
X123202600Y-99410000D03*
X122802600Y-99410000D03*
X122402600Y-99410000D03*
D30*
X121652600Y-100160000D03*
X121652600Y-100560000D03*
X121652600Y-100960000D03*
X121652600Y-101360000D03*
X121652600Y-101760000D03*
X121652600Y-102160000D03*
X121652600Y-102560000D03*
X121652600Y-102960000D03*
X121652600Y-103360000D03*
X121652600Y-103760000D03*
X121652600Y-104160000D03*
X121652600Y-104560000D03*
X121652600Y-104960000D03*
X121652600Y-105360000D03*
X121652600Y-105760000D03*
X121652600Y-106160000D03*
X121652600Y-106560000D03*
D31*
X125602600Y-103360000D03*
%TD*%
D32*
%TO.C,C11*%
X110530400Y-123219200D03*
X110530400Y-125119200D03*
%TD*%
D33*
%TO.C,FB1*%
X110505000Y-118047400D03*
X110505000Y-121197400D03*
%TD*%
M02*
