%TF.GenerationSoftware,KiCad,Pcbnew,6.0.4-6f826c9f35~116~ubuntu20.04.1*%
%TF.CreationDate,2022-04-09T13:04:21+07:00*%
%TF.ProjectId,CH569Board,43483536-3942-46f6-9172-642e6b696361,rev?*%
%TF.SameCoordinates,Original*%
%TF.FileFunction,Copper,L2,Inr*%
%TF.FilePolarity,Positive*%
%FSLAX46Y46*%
G04 Gerber Fmt 4.6, Leading zero omitted, Abs format (unit mm)*
G04 Created by KiCad (PCBNEW 6.0.4-6f826c9f35~116~ubuntu20.04.1) date 2022-04-09 13:04:21*
%MOMM*%
%LPD*%
G01*
G04 APERTURE LIST*
%TA.AperFunction,ComponentPad*%
%ADD10C,1.300000*%
%TD*%
%TA.AperFunction,ComponentPad*%
%ADD11R,1.700000X1.700000*%
%TD*%
%TA.AperFunction,ComponentPad*%
%ADD12O,1.700000X1.700000*%
%TD*%
%TA.AperFunction,ComponentPad*%
%ADD13O,1.300000X3.200000*%
%TD*%
%TA.AperFunction,ComponentPad*%
%ADD14C,0.850000*%
%TD*%
%TA.AperFunction,ComponentPad*%
%ADD15O,0.850000X0.850000*%
%TD*%
%TA.AperFunction,ViaPad*%
%ADD16C,0.450000*%
%TD*%
%TA.AperFunction,ViaPad*%
%ADD17C,0.950000*%
%TD*%
%TA.AperFunction,ViaPad*%
%ADD18C,1.300000*%
%TD*%
G04 APERTURE END LIST*
D10*
%TO.N,*%
%TO.C,CN1*%
X107510000Y-82390000D03*
X143710000Y-82390000D03*
%TD*%
D11*
%TO.N,GND*%
%TO.C,J2*%
X144075000Y-111275000D03*
D12*
%TO.N,/RXD*%
X141535000Y-111275000D03*
%TO.N,/TXD*%
X138995000Y-111275000D03*
%TD*%
D13*
%TO.N,unconnected-(USB1-Pad10)*%
%TO.C,USB1*%
X120400000Y-115390007D03*
%TO.N,unconnected-(USB1-Pad11)*%
X133200000Y-115390007D03*
%TD*%
D14*
%TO.N,/GX+*%
%TO.C,J1*%
X115275000Y-106625000D03*
D15*
%TO.N,/GX-*%
X115275000Y-105625000D03*
%TD*%
D16*
%TO.N,GND*%
X135330000Y-110590000D03*
X143040000Y-84800000D03*
X143040000Y-80040000D03*
X109540000Y-87200000D03*
X107670000Y-84820000D03*
X107610000Y-79950000D03*
X109540000Y-82520000D03*
X102270000Y-93470000D03*
X102320000Y-90180000D03*
X102320000Y-87010000D03*
X102250000Y-96690000D03*
X109510000Y-102680000D03*
X112180000Y-110660000D03*
X102220000Y-115860000D03*
X101370000Y-120690000D03*
X102580000Y-122560000D03*
X113680000Y-126720000D03*
X110520000Y-126730000D03*
X145340000Y-121950000D03*
X145050000Y-124990000D03*
X135390000Y-125000000D03*
X129840000Y-119470000D03*
X123750000Y-119540000D03*
X118170000Y-119510000D03*
X116190000Y-116320000D03*
X116230000Y-114580000D03*
X116240000Y-112310000D03*
X117620000Y-110660000D03*
X136220000Y-117640000D03*
X132440000Y-112320000D03*
X114840000Y-78450000D03*
%TO.N,/LED0*%
X116410000Y-81660000D03*
%TO.N,/LED1*%
X117220000Y-81690000D03*
%TO.N,/LED2*%
X118010000Y-82120000D03*
%TO.N,/HD2*%
X134420000Y-87640000D03*
%TO.N,/HD10*%
X140411200Y-87884000D03*
%TO.N,/HD11*%
X139598400Y-87884000D03*
%TO.N,GND*%
X138176000Y-107950000D03*
X139827000Y-106553000D03*
X141986000Y-97663000D03*
X141953756Y-100853519D03*
X141986000Y-104394000D03*
X142990000Y-94170000D03*
X141986000Y-90678000D03*
X141986000Y-87376000D03*
X126810000Y-82460000D03*
D17*
X117023147Y-104516260D03*
X127711200Y-105521000D03*
X127711200Y-104454200D03*
X123444000Y-103362000D03*
D16*
X130820000Y-82450000D03*
D18*
X118790000Y-109750000D03*
D17*
X129780000Y-115940000D03*
X124510800Y-102295200D03*
X126644400Y-102320600D03*
X124510800Y-104428800D03*
X123444000Y-104428800D03*
X123444000Y-105495600D03*
X125577600Y-105495600D03*
X123444000Y-102295200D03*
D18*
X125848191Y-94020630D03*
D16*
X138810000Y-82390000D03*
D17*
X124510800Y-101203000D03*
D16*
X111610000Y-82500000D03*
D17*
X126820000Y-112680000D03*
X124510800Y-103362000D03*
X125577600Y-103362000D03*
D16*
X122810000Y-82450000D03*
D17*
X126644400Y-103387400D03*
X125577600Y-102295200D03*
X123444000Y-101203000D03*
X125577600Y-104428800D03*
X126644400Y-105521000D03*
X127711200Y-103387400D03*
D16*
X134810000Y-82380000D03*
D17*
X124510800Y-105495600D03*
X126644400Y-101228400D03*
X126644400Y-104454200D03*
D16*
X118810000Y-82490000D03*
D17*
X125577600Y-101203000D03*
X127711200Y-102320600D03*
X127711200Y-101228400D03*
D18*
%TO.N,+3V3*%
X108370000Y-112090000D03*
D16*
X114710000Y-99080000D03*
D18*
X104540000Y-104460000D03*
D16*
X123200000Y-106550000D03*
X122450000Y-106000000D03*
X122480000Y-104080000D03*
D18*
%TO.N,+5V*%
X108528000Y-118062000D03*
X137040000Y-121940000D03*
D16*
%TO.N,+1V2*%
X122500000Y-104680000D03*
X125790000Y-106510000D03*
X124400000Y-106560000D03*
D17*
X138360000Y-115910000D03*
D16*
%TO.N,/VIO*%
X126030000Y-98230000D03*
X122490000Y-103110000D03*
X118370000Y-98570000D03*
X128380000Y-106550000D03*
%TO.N,/CS*%
X114760000Y-97730000D03*
X122490000Y-101930000D03*
%TO.N,/HD2*%
X122675000Y-100275000D03*
%TO.N,/HD18*%
X132400000Y-82400000D03*
X131930000Y-98030000D03*
%TO.N,/HD17*%
X133169029Y-98595816D03*
X133225000Y-82400000D03*
%TO.N,/HD16*%
X133219262Y-99188160D03*
X134000000Y-82400000D03*
%TO.N,/HD15*%
X133637768Y-100128917D03*
X135625000Y-82425000D03*
%TO.N,/HD14*%
X133678099Y-100731164D03*
X136425000Y-82425000D03*
%TO.N,/HD13*%
X137225000Y-82425000D03*
X133775000Y-101325000D03*
%TO.N,/HD12*%
X138000000Y-82425000D03*
X133817712Y-101951384D03*
%TO.N,/HD11*%
X133993549Y-102500416D03*
%TO.N,/HD10*%
X133822478Y-103050952D03*
%TO.N,/HTRDY*%
X133340000Y-106640000D03*
X138920000Y-99200000D03*
%TO.N,/HD19*%
X131600000Y-82400000D03*
X130850000Y-97200000D03*
%TO.N,/HD20*%
X130250000Y-97175000D03*
X130000000Y-82500000D03*
%TO.N,/HD21*%
X129604047Y-97152549D03*
X129200000Y-82500000D03*
%TO.N,/HD23*%
X128462025Y-97301824D03*
X127600000Y-82500000D03*
%TO.N,/HD25*%
X125225000Y-82475000D03*
X127317823Y-97370467D03*
%TO.N,/HD27*%
X123950000Y-97200000D03*
X123600000Y-82500000D03*
%TO.N,/LED0*%
X112975000Y-94875000D03*
X124810000Y-98790000D03*
%TO.N,/HD28*%
X123250000Y-97210000D03*
X122025000Y-82500000D03*
%TO.N,/LED1*%
X112945711Y-91770711D03*
X123903686Y-98486251D03*
%TO.N,/HD29*%
X122580000Y-97280000D03*
X121200000Y-82500000D03*
%TO.N,/LED2*%
X122994945Y-98521196D03*
X113260000Y-90930000D03*
%TO.N,/HD30*%
X121825000Y-97300000D03*
X120400000Y-82500000D03*
%TO.N,/HD31*%
X120950000Y-97250000D03*
X119600000Y-82500000D03*
%TO.N,/TXD*%
X127029324Y-108749973D03*
%TO.N,/RXD*%
X127680000Y-108760000D03*
D17*
%TO.N,/VBUS*%
X116500000Y-118120000D03*
X123780000Y-115870000D03*
D16*
%TO.N,/HD22*%
X129029532Y-97200378D03*
X128400000Y-82500000D03*
%TO.N,/HD24*%
X126000000Y-82500000D03*
X127886195Y-97273983D03*
%TO.N,/HD26*%
X124425000Y-82500000D03*
X124825000Y-97200000D03*
%TD*%
%TA.AperFunction,Conductor*%
%TO.N,GND*%
G36*
X147351621Y-77820502D02*
G01*
X147398114Y-77874158D01*
X147409500Y-77926500D01*
X147409500Y-127308500D01*
X147389498Y-127376621D01*
X147335842Y-127423114D01*
X147283500Y-127434500D01*
X100846500Y-127434500D01*
X100778379Y-127414498D01*
X100731886Y-127360842D01*
X100720500Y-127308500D01*
X100720500Y-121926665D01*
X136084994Y-121926665D01*
X136100592Y-122112414D01*
X136151971Y-122291595D01*
X136237176Y-122457385D01*
X136352959Y-122603468D01*
X136494912Y-122724279D01*
X136657627Y-122815217D01*
X136834907Y-122872819D01*
X137019998Y-122894890D01*
X137026133Y-122894418D01*
X137026135Y-122894418D01*
X137199710Y-122881062D01*
X137199715Y-122881061D01*
X137205851Y-122880589D01*
X137211781Y-122878933D01*
X137211783Y-122878933D01*
X137379459Y-122832117D01*
X137379458Y-122832117D01*
X137385387Y-122830462D01*
X137551768Y-122746417D01*
X137576255Y-122727286D01*
X137693794Y-122635454D01*
X137693795Y-122635453D01*
X137698655Y-122631656D01*
X137820454Y-122490550D01*
X137912526Y-122328474D01*
X137971364Y-122151601D01*
X137994727Y-121966668D01*
X137995099Y-121940000D01*
X137976909Y-121754487D01*
X137975128Y-121748588D01*
X137975127Y-121748583D01*
X137924814Y-121581939D01*
X137923033Y-121576040D01*
X137835522Y-121411456D01*
X137831632Y-121406686D01*
X137831629Y-121406682D01*
X137721605Y-121271780D01*
X137721602Y-121271777D01*
X137717710Y-121267005D01*
X137712056Y-121262327D01*
X137578834Y-121152116D01*
X137574085Y-121148187D01*
X137410116Y-121059529D01*
X137321083Y-121031969D01*
X137237936Y-121006231D01*
X137237933Y-121006230D01*
X137232049Y-121004409D01*
X137225924Y-121003765D01*
X137225923Y-121003765D01*
X137052796Y-120985568D01*
X137052795Y-120985568D01*
X137046668Y-120984924D01*
X136968549Y-120992033D01*
X136867171Y-121001259D01*
X136867168Y-121001260D01*
X136861032Y-121001818D01*
X136855122Y-121003557D01*
X136855119Y-121003558D01*
X136688129Y-121052707D01*
X136682214Y-121054448D01*
X136517023Y-121140807D01*
X136371752Y-121257608D01*
X136251935Y-121400401D01*
X136248971Y-121405793D01*
X136248968Y-121405797D01*
X136174256Y-121541699D01*
X136162135Y-121563746D01*
X136105772Y-121741424D01*
X136084994Y-121926665D01*
X100720500Y-121926665D01*
X100720500Y-118048665D01*
X107572994Y-118048665D01*
X107573510Y-118054809D01*
X107580482Y-118137830D01*
X107588592Y-118234414D01*
X107590291Y-118240339D01*
X107604228Y-118288942D01*
X107639971Y-118413595D01*
X107725176Y-118579385D01*
X107840959Y-118725468D01*
X107982912Y-118846279D01*
X107988290Y-118849285D01*
X107988292Y-118849286D01*
X108051242Y-118884467D01*
X108145627Y-118937217D01*
X108322907Y-118994819D01*
X108507998Y-119016890D01*
X108514133Y-119016418D01*
X108514135Y-119016418D01*
X108687710Y-119003062D01*
X108687715Y-119003061D01*
X108693851Y-119002589D01*
X108699781Y-119000933D01*
X108699783Y-119000933D01*
X108867459Y-118954117D01*
X108867458Y-118954117D01*
X108873387Y-118952462D01*
X109039768Y-118868417D01*
X109064255Y-118849286D01*
X109181794Y-118757454D01*
X109181795Y-118757453D01*
X109186655Y-118753656D01*
X109308454Y-118612550D01*
X109400526Y-118450474D01*
X109459364Y-118273601D01*
X109476016Y-118141790D01*
X109480146Y-118109104D01*
X115719669Y-118109104D01*
X115736647Y-118282256D01*
X115791564Y-118447343D01*
X115795211Y-118453365D01*
X115795212Y-118453367D01*
X115874455Y-118584212D01*
X115881692Y-118596162D01*
X116002550Y-118721314D01*
X116148132Y-118816580D01*
X116211355Y-118840093D01*
X116304600Y-118874771D01*
X116304602Y-118874772D01*
X116311202Y-118877226D01*
X116318180Y-118878157D01*
X116318184Y-118878158D01*
X116386420Y-118887262D01*
X116483656Y-118900236D01*
X116490667Y-118899598D01*
X116490671Y-118899598D01*
X116627507Y-118887144D01*
X116656923Y-118884467D01*
X116663623Y-118882290D01*
X116663628Y-118882289D01*
X116815691Y-118832881D01*
X116815694Y-118832880D01*
X116822390Y-118830704D01*
X116971833Y-118741618D01*
X117097826Y-118621636D01*
X117111387Y-118601226D01*
X117190212Y-118482584D01*
X117194107Y-118476722D01*
X117202041Y-118455837D01*
X117253387Y-118320665D01*
X117255889Y-118314079D01*
X117280103Y-118141790D01*
X117280407Y-118120000D01*
X117261013Y-117947102D01*
X117203796Y-117782797D01*
X117111600Y-117635252D01*
X117098274Y-117621832D01*
X117010512Y-117533456D01*
X116989006Y-117511799D01*
X116978342Y-117505031D01*
X116932076Y-117475670D01*
X116842108Y-117418575D01*
X116721840Y-117375749D01*
X116684841Y-117362574D01*
X116684839Y-117362573D01*
X116678207Y-117360212D01*
X116671221Y-117359379D01*
X116671217Y-117359378D01*
X116548107Y-117344699D01*
X116505448Y-117339612D01*
X116498445Y-117340348D01*
X116498444Y-117340348D01*
X116452109Y-117345218D01*
X116332419Y-117357798D01*
X116325753Y-117360067D01*
X116325750Y-117360068D01*
X116174386Y-117411597D01*
X116174383Y-117411598D01*
X116167719Y-117413867D01*
X116019533Y-117505031D01*
X115895228Y-117626760D01*
X115800980Y-117773004D01*
X115798569Y-117779627D01*
X115798568Y-117779630D01*
X115743885Y-117929870D01*
X115743884Y-117929875D01*
X115741475Y-117936493D01*
X115719669Y-118109104D01*
X109480146Y-118109104D01*
X109482285Y-118092170D01*
X109482286Y-118092163D01*
X109482727Y-118088668D01*
X109483099Y-118062000D01*
X109464909Y-117876487D01*
X109463128Y-117870588D01*
X109463127Y-117870583D01*
X109412814Y-117703939D01*
X109411033Y-117698040D01*
X109323522Y-117533456D01*
X109319632Y-117528686D01*
X109319629Y-117528682D01*
X109209605Y-117393780D01*
X109209602Y-117393777D01*
X109205710Y-117389005D01*
X109200056Y-117384327D01*
X109133898Y-117329596D01*
X109062085Y-117270187D01*
X108898116Y-117181529D01*
X108806127Y-117153054D01*
X108725936Y-117128231D01*
X108725933Y-117128230D01*
X108720049Y-117126409D01*
X108713924Y-117125765D01*
X108713923Y-117125765D01*
X108540796Y-117107568D01*
X108540795Y-117107568D01*
X108534668Y-117106924D01*
X108456549Y-117114033D01*
X108355171Y-117123259D01*
X108355168Y-117123260D01*
X108349032Y-117123818D01*
X108343122Y-117125557D01*
X108343119Y-117125558D01*
X108249698Y-117153054D01*
X108170214Y-117176448D01*
X108005023Y-117262807D01*
X107859752Y-117379608D01*
X107739935Y-117522401D01*
X107736971Y-117527793D01*
X107736968Y-117527797D01*
X107685272Y-117621832D01*
X107650135Y-117685746D01*
X107648274Y-117691613D01*
X107648273Y-117691615D01*
X107620353Y-117779630D01*
X107593772Y-117863424D01*
X107572994Y-118048665D01*
X100720500Y-118048665D01*
X100720500Y-116388266D01*
X119449500Y-116388266D01*
X119464112Y-116532117D01*
X119521856Y-116716380D01*
X119615472Y-116885268D01*
X119741136Y-117031882D01*
X119746178Y-117035793D01*
X119746179Y-117035794D01*
X119888665Y-117146318D01*
X119888668Y-117146320D01*
X119893714Y-117150234D01*
X120066974Y-117235488D01*
X120073144Y-117237095D01*
X120073149Y-117237097D01*
X120247655Y-117282552D01*
X120247658Y-117282552D01*
X120253837Y-117284162D01*
X120337203Y-117288531D01*
X120440290Y-117293934D01*
X120440294Y-117293934D01*
X120446671Y-117294268D01*
X120637599Y-117265393D01*
X120652385Y-117259953D01*
X120812832Y-117200921D01*
X120812836Y-117200919D01*
X120818821Y-117198717D01*
X120982934Y-117096962D01*
X121123235Y-116964286D01*
X121233991Y-116806109D01*
X121310680Y-116628892D01*
X121329625Y-116538208D01*
X121349177Y-116444619D01*
X121349177Y-116444615D01*
X121350168Y-116439874D01*
X121350500Y-116433539D01*
X121350500Y-115859104D01*
X122999669Y-115859104D01*
X123016647Y-116032256D01*
X123071564Y-116197343D01*
X123075211Y-116203365D01*
X123075212Y-116203367D01*
X123117132Y-116272584D01*
X123161692Y-116346162D01*
X123282550Y-116471314D01*
X123428132Y-116566580D01*
X123491355Y-116590093D01*
X123584600Y-116624771D01*
X123584602Y-116624772D01*
X123591202Y-116627226D01*
X123598180Y-116628157D01*
X123598184Y-116628158D01*
X123666420Y-116637262D01*
X123763656Y-116650236D01*
X123770667Y-116649598D01*
X123770671Y-116649598D01*
X123907507Y-116637144D01*
X123936923Y-116634467D01*
X123943623Y-116632290D01*
X123943628Y-116632289D01*
X124095691Y-116582881D01*
X124095694Y-116582880D01*
X124102390Y-116580704D01*
X124251833Y-116491618D01*
X124360363Y-116388266D01*
X132249500Y-116388266D01*
X132264112Y-116532117D01*
X132321856Y-116716380D01*
X132415472Y-116885268D01*
X132541136Y-117031882D01*
X132546178Y-117035793D01*
X132546179Y-117035794D01*
X132688665Y-117146318D01*
X132688668Y-117146320D01*
X132693714Y-117150234D01*
X132866974Y-117235488D01*
X132873144Y-117237095D01*
X132873149Y-117237097D01*
X133047655Y-117282552D01*
X133047658Y-117282552D01*
X133053837Y-117284162D01*
X133137203Y-117288531D01*
X133240290Y-117293934D01*
X133240294Y-117293934D01*
X133246671Y-117294268D01*
X133437599Y-117265393D01*
X133452385Y-117259953D01*
X133612832Y-117200921D01*
X133612836Y-117200919D01*
X133618821Y-117198717D01*
X133782934Y-117096962D01*
X133923235Y-116964286D01*
X134033991Y-116806109D01*
X134110680Y-116628892D01*
X134129625Y-116538208D01*
X134149177Y-116444619D01*
X134149177Y-116444615D01*
X134150168Y-116439874D01*
X134150500Y-116433539D01*
X134150500Y-115899104D01*
X137579669Y-115899104D01*
X137596647Y-116072256D01*
X137651564Y-116237343D01*
X137655211Y-116243365D01*
X137655212Y-116243367D01*
X137732895Y-116371636D01*
X137741692Y-116386162D01*
X137862550Y-116511314D01*
X138008132Y-116606580D01*
X138063647Y-116627226D01*
X138164600Y-116664771D01*
X138164602Y-116664772D01*
X138171202Y-116667226D01*
X138178180Y-116668157D01*
X138178184Y-116668158D01*
X138246420Y-116677262D01*
X138343656Y-116690236D01*
X138350667Y-116689598D01*
X138350671Y-116689598D01*
X138487507Y-116677144D01*
X138516923Y-116674467D01*
X138523623Y-116672290D01*
X138523628Y-116672289D01*
X138675691Y-116622881D01*
X138675694Y-116622880D01*
X138682390Y-116620704D01*
X138831833Y-116531618D01*
X138957826Y-116411636D01*
X138971387Y-116391226D01*
X139050212Y-116272584D01*
X139054107Y-116266722D01*
X139115889Y-116104079D01*
X139140103Y-115931790D01*
X139140407Y-115910000D01*
X139121013Y-115737102D01*
X139063796Y-115572797D01*
X138971600Y-115425252D01*
X138958274Y-115411832D01*
X138853968Y-115306796D01*
X138849006Y-115301799D01*
X138838342Y-115295031D01*
X138775311Y-115255031D01*
X138702108Y-115208575D01*
X138583134Y-115166210D01*
X138544841Y-115152574D01*
X138544839Y-115152573D01*
X138538207Y-115150212D01*
X138531221Y-115149379D01*
X138531217Y-115149378D01*
X138408107Y-115134699D01*
X138365448Y-115129612D01*
X138358445Y-115130348D01*
X138358444Y-115130348D01*
X138312109Y-115135218D01*
X138192419Y-115147798D01*
X138185753Y-115150067D01*
X138185750Y-115150068D01*
X138034386Y-115201597D01*
X138034383Y-115201598D01*
X138027719Y-115203867D01*
X137879533Y-115295031D01*
X137874500Y-115299960D01*
X137792508Y-115380253D01*
X137755228Y-115416760D01*
X137660980Y-115563004D01*
X137658569Y-115569627D01*
X137658568Y-115569630D01*
X137603885Y-115719870D01*
X137603884Y-115719875D01*
X137601475Y-115726493D01*
X137579669Y-115899104D01*
X134150500Y-115899104D01*
X134150500Y-114391748D01*
X134135888Y-114247897D01*
X134078144Y-114063634D01*
X133984528Y-113894746D01*
X133858864Y-113748132D01*
X133770627Y-113679688D01*
X133711335Y-113633696D01*
X133711332Y-113633694D01*
X133706286Y-113629780D01*
X133533026Y-113544526D01*
X133526856Y-113542919D01*
X133526851Y-113542917D01*
X133352345Y-113497462D01*
X133352342Y-113497462D01*
X133346163Y-113495852D01*
X133262797Y-113491483D01*
X133159710Y-113486080D01*
X133159706Y-113486080D01*
X133153329Y-113485746D01*
X132962401Y-113514621D01*
X132956406Y-113516827D01*
X132956405Y-113516827D01*
X132787168Y-113579093D01*
X132787164Y-113579095D01*
X132781179Y-113581297D01*
X132617066Y-113683052D01*
X132476765Y-113815728D01*
X132366009Y-113973905D01*
X132289320Y-114151122D01*
X132288015Y-114157369D01*
X132269103Y-114247897D01*
X132249832Y-114340140D01*
X132249500Y-114346475D01*
X132249500Y-116388266D01*
X124360363Y-116388266D01*
X124377826Y-116371636D01*
X124391387Y-116351226D01*
X124470212Y-116232584D01*
X124474107Y-116226722D01*
X124535889Y-116064079D01*
X124560103Y-115891790D01*
X124560407Y-115870000D01*
X124541013Y-115697102D01*
X124483796Y-115532797D01*
X124391600Y-115385252D01*
X124378274Y-115371832D01*
X124273968Y-115266796D01*
X124269006Y-115261799D01*
X124258342Y-115255031D01*
X124185138Y-115208575D01*
X124122108Y-115168575D01*
X124012688Y-115129612D01*
X123964841Y-115112574D01*
X123964839Y-115112573D01*
X123958207Y-115110212D01*
X123951221Y-115109379D01*
X123951217Y-115109378D01*
X123828107Y-115094699D01*
X123785448Y-115089612D01*
X123778445Y-115090348D01*
X123778444Y-115090348D01*
X123732109Y-115095218D01*
X123612419Y-115107798D01*
X123605753Y-115110067D01*
X123605750Y-115110068D01*
X123454386Y-115161597D01*
X123454383Y-115161598D01*
X123447719Y-115163867D01*
X123299533Y-115255031D01*
X123175228Y-115376760D01*
X123080980Y-115523004D01*
X123078569Y-115529627D01*
X123078568Y-115529630D01*
X123023885Y-115679870D01*
X123023884Y-115679875D01*
X123021475Y-115686493D01*
X122999669Y-115859104D01*
X121350500Y-115859104D01*
X121350500Y-114391748D01*
X121335888Y-114247897D01*
X121278144Y-114063634D01*
X121184528Y-113894746D01*
X121058864Y-113748132D01*
X120970627Y-113679688D01*
X120911335Y-113633696D01*
X120911332Y-113633694D01*
X120906286Y-113629780D01*
X120733026Y-113544526D01*
X120726856Y-113542919D01*
X120726851Y-113542917D01*
X120552345Y-113497462D01*
X120552342Y-113497462D01*
X120546163Y-113495852D01*
X120462797Y-113491483D01*
X120359710Y-113486080D01*
X120359706Y-113486080D01*
X120353329Y-113485746D01*
X120162401Y-113514621D01*
X120156406Y-113516827D01*
X120156405Y-113516827D01*
X119987168Y-113579093D01*
X119987164Y-113579095D01*
X119981179Y-113581297D01*
X119817066Y-113683052D01*
X119676765Y-113815728D01*
X119566009Y-113973905D01*
X119489320Y-114151122D01*
X119488015Y-114157369D01*
X119469103Y-114247897D01*
X119449832Y-114340140D01*
X119449500Y-114346475D01*
X119449500Y-116388266D01*
X100720500Y-116388266D01*
X100720500Y-112076665D01*
X107414994Y-112076665D01*
X107415510Y-112082809D01*
X107428929Y-112242606D01*
X107430592Y-112262414D01*
X107432291Y-112268339D01*
X107478078Y-112428018D01*
X107481971Y-112441595D01*
X107484790Y-112447080D01*
X107552241Y-112578324D01*
X107567176Y-112607385D01*
X107682959Y-112753468D01*
X107824912Y-112874279D01*
X107987627Y-112965217D01*
X108164907Y-113022819D01*
X108349998Y-113044890D01*
X108356133Y-113044418D01*
X108356135Y-113044418D01*
X108529710Y-113031062D01*
X108529715Y-113031061D01*
X108535851Y-113030589D01*
X108541781Y-113028933D01*
X108541783Y-113028933D01*
X108709459Y-112982117D01*
X108709458Y-112982117D01*
X108715387Y-112980462D01*
X108881768Y-112896417D01*
X108906255Y-112877286D01*
X109023794Y-112785454D01*
X109023795Y-112785453D01*
X109028655Y-112781656D01*
X109150454Y-112640550D01*
X109156378Y-112630123D01*
X109239479Y-112483837D01*
X109242526Y-112478474D01*
X109301364Y-112301601D01*
X109317213Y-112176144D01*
X109324285Y-112120170D01*
X109324286Y-112120163D01*
X109324727Y-112116668D01*
X109325099Y-112090000D01*
X109306909Y-111904487D01*
X109305128Y-111898588D01*
X109305127Y-111898583D01*
X109254814Y-111731939D01*
X109253033Y-111726040D01*
X109165522Y-111561456D01*
X109161632Y-111556686D01*
X109161629Y-111556682D01*
X109051605Y-111421780D01*
X109051602Y-111421777D01*
X109047710Y-111417005D01*
X109042056Y-111412327D01*
X108944404Y-111331542D01*
X108904085Y-111298187D01*
X108805263Y-111244754D01*
X137839967Y-111244754D01*
X137853796Y-111455749D01*
X137855217Y-111461345D01*
X137855218Y-111461350D01*
X137904424Y-111655095D01*
X137905845Y-111660690D01*
X137994369Y-111852714D01*
X138116405Y-112025391D01*
X138267865Y-112172937D01*
X138272661Y-112176142D01*
X138272664Y-112176144D01*
X138372129Y-112242604D01*
X138443677Y-112290411D01*
X138448985Y-112292692D01*
X138448986Y-112292692D01*
X138632650Y-112371600D01*
X138632653Y-112371601D01*
X138637953Y-112373878D01*
X138643582Y-112375152D01*
X138643583Y-112375152D01*
X138838550Y-112419269D01*
X138838553Y-112419269D01*
X138844186Y-112420544D01*
X138849957Y-112420771D01*
X138849959Y-112420771D01*
X138911989Y-112423208D01*
X139055470Y-112428846D01*
X139061179Y-112428018D01*
X139061183Y-112428018D01*
X139259015Y-112399333D01*
X139259019Y-112399332D01*
X139264730Y-112398504D01*
X139369163Y-112363054D01*
X139459483Y-112332395D01*
X139459488Y-112332393D01*
X139464955Y-112330537D01*
X139469998Y-112327713D01*
X139644395Y-112230046D01*
X139644399Y-112230043D01*
X139649442Y-112227219D01*
X139812012Y-112092012D01*
X139947219Y-111929442D01*
X139950043Y-111924399D01*
X139950046Y-111924395D01*
X140047713Y-111749998D01*
X140047714Y-111749996D01*
X140050537Y-111744955D01*
X140052393Y-111739488D01*
X140052395Y-111739483D01*
X140116647Y-111550200D01*
X140118504Y-111544730D01*
X140119333Y-111539015D01*
X140140090Y-111395860D01*
X140169660Y-111331315D01*
X140229432Y-111293003D01*
X140300429Y-111293087D01*
X140360109Y-111331542D01*
X140389525Y-111396158D01*
X140390515Y-111405695D01*
X140393796Y-111455749D01*
X140395217Y-111461345D01*
X140395218Y-111461350D01*
X140444424Y-111655095D01*
X140445845Y-111660690D01*
X140534369Y-111852714D01*
X140656405Y-112025391D01*
X140807865Y-112172937D01*
X140812661Y-112176142D01*
X140812664Y-112176144D01*
X140912129Y-112242604D01*
X140983677Y-112290411D01*
X140988985Y-112292692D01*
X140988986Y-112292692D01*
X141172650Y-112371600D01*
X141172653Y-112371601D01*
X141177953Y-112373878D01*
X141183582Y-112375152D01*
X141183583Y-112375152D01*
X141378550Y-112419269D01*
X141378553Y-112419269D01*
X141384186Y-112420544D01*
X141389957Y-112420771D01*
X141389959Y-112420771D01*
X141451989Y-112423208D01*
X141595470Y-112428846D01*
X141601179Y-112428018D01*
X141601183Y-112428018D01*
X141799015Y-112399333D01*
X141799019Y-112399332D01*
X141804730Y-112398504D01*
X141909163Y-112363054D01*
X141999483Y-112332395D01*
X141999488Y-112332393D01*
X142004955Y-112330537D01*
X142009998Y-112327713D01*
X142184395Y-112230046D01*
X142184399Y-112230043D01*
X142189442Y-112227219D01*
X142352012Y-112092012D01*
X142369870Y-112070540D01*
X142483526Y-111933883D01*
X142483528Y-111933879D01*
X142487219Y-111929442D01*
X142488141Y-111927795D01*
X142542230Y-111883782D01*
X142612783Y-111875857D01*
X142676421Y-111907334D01*
X142712938Y-111968220D01*
X142717001Y-111999960D01*
X142717001Y-112169669D01*
X142717371Y-112176490D01*
X142722895Y-112227352D01*
X142726521Y-112242604D01*
X142771676Y-112363054D01*
X142780214Y-112378649D01*
X142856715Y-112480724D01*
X142869276Y-112493285D01*
X142971351Y-112569786D01*
X142986946Y-112578324D01*
X143107394Y-112623478D01*
X143122649Y-112627105D01*
X143173514Y-112632631D01*
X143180328Y-112633000D01*
X143802885Y-112633000D01*
X143818124Y-112628525D01*
X143819329Y-112627135D01*
X143821000Y-112619452D01*
X143821000Y-112614884D01*
X144329000Y-112614884D01*
X144333475Y-112630123D01*
X144334865Y-112631328D01*
X144342548Y-112632999D01*
X144969669Y-112632999D01*
X144976490Y-112632629D01*
X145027352Y-112627105D01*
X145042604Y-112623479D01*
X145163054Y-112578324D01*
X145178649Y-112569786D01*
X145280724Y-112493285D01*
X145293285Y-112480724D01*
X145369786Y-112378649D01*
X145378324Y-112363054D01*
X145423478Y-112242606D01*
X145427105Y-112227351D01*
X145432631Y-112176486D01*
X145433000Y-112169672D01*
X145433000Y-111547115D01*
X145428525Y-111531876D01*
X145427135Y-111530671D01*
X145419452Y-111529000D01*
X144347115Y-111529000D01*
X144331876Y-111533475D01*
X144330671Y-111534865D01*
X144329000Y-111542548D01*
X144329000Y-112614884D01*
X143821000Y-112614884D01*
X143821000Y-111002885D01*
X144329000Y-111002885D01*
X144333475Y-111018124D01*
X144334865Y-111019329D01*
X144342548Y-111021000D01*
X145414884Y-111021000D01*
X145430123Y-111016525D01*
X145431328Y-111015135D01*
X145432999Y-111007452D01*
X145432999Y-110380331D01*
X145432629Y-110373510D01*
X145427105Y-110322648D01*
X145423479Y-110307396D01*
X145378324Y-110186946D01*
X145369786Y-110171351D01*
X145293285Y-110069276D01*
X145280724Y-110056715D01*
X145178649Y-109980214D01*
X145163054Y-109971676D01*
X145042606Y-109926522D01*
X145027351Y-109922895D01*
X144976486Y-109917369D01*
X144969672Y-109917000D01*
X144347115Y-109917000D01*
X144331876Y-109921475D01*
X144330671Y-109922865D01*
X144329000Y-109930548D01*
X144329000Y-111002885D01*
X143821000Y-111002885D01*
X143821000Y-109935116D01*
X143816525Y-109919877D01*
X143815135Y-109918672D01*
X143807452Y-109917001D01*
X143180331Y-109917001D01*
X143173510Y-109917371D01*
X143122648Y-109922895D01*
X143107396Y-109926521D01*
X142986946Y-109971676D01*
X142971351Y-109980214D01*
X142869276Y-110056715D01*
X142856715Y-110069276D01*
X142780214Y-110171351D01*
X142771676Y-110186946D01*
X142726522Y-110307394D01*
X142722895Y-110322649D01*
X142717369Y-110373514D01*
X142717000Y-110380328D01*
X142717000Y-110555561D01*
X142696998Y-110623682D01*
X142643342Y-110670175D01*
X142573068Y-110680279D01*
X142508488Y-110650785D01*
X142490042Y-110630950D01*
X142397104Y-110506491D01*
X142397103Y-110506490D01*
X142393651Y-110501867D01*
X142262171Y-110380328D01*
X142242622Y-110362257D01*
X142242620Y-110362255D01*
X142238381Y-110358337D01*
X142059554Y-110245505D01*
X141863160Y-110167152D01*
X141857503Y-110166027D01*
X141857497Y-110166025D01*
X141661442Y-110127028D01*
X141661440Y-110127028D01*
X141655775Y-110125901D01*
X141650000Y-110125825D01*
X141649996Y-110125825D01*
X141543976Y-110124437D01*
X141444346Y-110123133D01*
X141438649Y-110124112D01*
X141438648Y-110124112D01*
X141241650Y-110157962D01*
X141241649Y-110157962D01*
X141235953Y-110158941D01*
X141037575Y-110232127D01*
X141032614Y-110235079D01*
X141032613Y-110235079D01*
X140885421Y-110322649D01*
X140855856Y-110340238D01*
X140696881Y-110479655D01*
X140565976Y-110645708D01*
X140563287Y-110650819D01*
X140563285Y-110650822D01*
X140549792Y-110676469D01*
X140467523Y-110832836D01*
X140404820Y-111034773D01*
X140404141Y-111040510D01*
X140390088Y-111159239D01*
X140362217Y-111224537D01*
X140303469Y-111264401D01*
X140232494Y-111266174D01*
X140171828Y-111229295D01*
X140140730Y-111165471D01*
X140139490Y-111155958D01*
X140139270Y-111153558D01*
X140131081Y-111064440D01*
X140118359Y-111019329D01*
X140075255Y-110866496D01*
X140073686Y-110860931D01*
X140062553Y-110838354D01*
X139982719Y-110676469D01*
X139980165Y-110671290D01*
X139853651Y-110501867D01*
X139722171Y-110380328D01*
X139702622Y-110362257D01*
X139702620Y-110362255D01*
X139698381Y-110358337D01*
X139519554Y-110245505D01*
X139323160Y-110167152D01*
X139317503Y-110166027D01*
X139317497Y-110166025D01*
X139121442Y-110127028D01*
X139121440Y-110127028D01*
X139115775Y-110125901D01*
X139110000Y-110125825D01*
X139109996Y-110125825D01*
X139003976Y-110124437D01*
X138904346Y-110123133D01*
X138898649Y-110124112D01*
X138898648Y-110124112D01*
X138701650Y-110157962D01*
X138701649Y-110157962D01*
X138695953Y-110158941D01*
X138497575Y-110232127D01*
X138492614Y-110235079D01*
X138492613Y-110235079D01*
X138345421Y-110322649D01*
X138315856Y-110340238D01*
X138156881Y-110479655D01*
X138025976Y-110645708D01*
X138023287Y-110650819D01*
X138023285Y-110650822D01*
X138009792Y-110676469D01*
X137927523Y-110832836D01*
X137864820Y-111034773D01*
X137839967Y-111244754D01*
X108805263Y-111244754D01*
X108740116Y-111209529D01*
X108651082Y-111181969D01*
X108567936Y-111156231D01*
X108567933Y-111156230D01*
X108562049Y-111154409D01*
X108555924Y-111153765D01*
X108555923Y-111153765D01*
X108382796Y-111135568D01*
X108382795Y-111135568D01*
X108376668Y-111134924D01*
X108298549Y-111142033D01*
X108197171Y-111151259D01*
X108197168Y-111151260D01*
X108191032Y-111151818D01*
X108185122Y-111153557D01*
X108185119Y-111153558D01*
X108018129Y-111202707D01*
X108012214Y-111204448D01*
X107847023Y-111290807D01*
X107701752Y-111407608D01*
X107581935Y-111550401D01*
X107578971Y-111555793D01*
X107578968Y-111555797D01*
X107504256Y-111691699D01*
X107492135Y-111713746D01*
X107490274Y-111719613D01*
X107490273Y-111719615D01*
X107440710Y-111875857D01*
X107435772Y-111891424D01*
X107414994Y-112076665D01*
X100720500Y-112076665D01*
X100720500Y-108749973D01*
X126499289Y-108749973D01*
X126517350Y-108887156D01*
X126570300Y-109014990D01*
X126612417Y-109069877D01*
X126649504Y-109118211D01*
X126649507Y-109118214D01*
X126654533Y-109124764D01*
X126764306Y-109208997D01*
X126771935Y-109212157D01*
X126884513Y-109258788D01*
X126884517Y-109258789D01*
X126892141Y-109261947D01*
X126900321Y-109263024D01*
X126900325Y-109263025D01*
X127021136Y-109278930D01*
X127029324Y-109280008D01*
X127037512Y-109278930D01*
X127158323Y-109263025D01*
X127158327Y-109263024D01*
X127166507Y-109261947D01*
X127174131Y-109258789D01*
X127174135Y-109258788D01*
X127294342Y-109208997D01*
X127295305Y-109211322D01*
X127351972Y-109197575D01*
X127408757Y-109214247D01*
X127414982Y-109219024D01*
X127422613Y-109222185D01*
X127422615Y-109222186D01*
X127535189Y-109268815D01*
X127535193Y-109268816D01*
X127542817Y-109271974D01*
X127550997Y-109273051D01*
X127551001Y-109273052D01*
X127671812Y-109288957D01*
X127680000Y-109290035D01*
X127688188Y-109288957D01*
X127808999Y-109273052D01*
X127809003Y-109273051D01*
X127817183Y-109271974D01*
X127824807Y-109268816D01*
X127824811Y-109268815D01*
X127937389Y-109222184D01*
X127945018Y-109219024D01*
X127964635Y-109203971D01*
X128048240Y-109139818D01*
X128048241Y-109139817D01*
X128054791Y-109134791D01*
X128059817Y-109128241D01*
X128059820Y-109128238D01*
X128096908Y-109079904D01*
X128139024Y-109025017D01*
X128191974Y-108897183D01*
X128210035Y-108760000D01*
X128191974Y-108622817D01*
X128139024Y-108494983D01*
X128096908Y-108440096D01*
X128059820Y-108391762D01*
X128059817Y-108391759D01*
X128054791Y-108385209D01*
X127945018Y-108300976D01*
X127920810Y-108290949D01*
X127824811Y-108251185D01*
X127824807Y-108251184D01*
X127817183Y-108248026D01*
X127809003Y-108246949D01*
X127808999Y-108246948D01*
X127688188Y-108231043D01*
X127680000Y-108229965D01*
X127542817Y-108248026D01*
X127414983Y-108300976D01*
X127414020Y-108298651D01*
X127357352Y-108312398D01*
X127300567Y-108295726D01*
X127294342Y-108290949D01*
X127286711Y-108287788D01*
X127286709Y-108287787D01*
X127174135Y-108241158D01*
X127174131Y-108241157D01*
X127166507Y-108237999D01*
X127158327Y-108236922D01*
X127158323Y-108236921D01*
X127037512Y-108221016D01*
X127029324Y-108219938D01*
X126892141Y-108237999D01*
X126764307Y-108290949D01*
X126654533Y-108375182D01*
X126570300Y-108484956D01*
X126517350Y-108612790D01*
X126499289Y-108749973D01*
X100720500Y-108749973D01*
X100720500Y-106614806D01*
X114544980Y-106614806D01*
X114560863Y-106776794D01*
X114612240Y-106931238D01*
X114615887Y-106937260D01*
X114615888Y-106937262D01*
X114677477Y-107038957D01*
X114696556Y-107070461D01*
X114809622Y-107187545D01*
X114945818Y-107276669D01*
X114952422Y-107279125D01*
X115091773Y-107330949D01*
X115091775Y-107330949D01*
X115098375Y-107333404D01*
X115105356Y-107334335D01*
X115105358Y-107334336D01*
X115252729Y-107354000D01*
X115252733Y-107354000D01*
X115259710Y-107354931D01*
X115266721Y-107354293D01*
X115266725Y-107354293D01*
X115414784Y-107340818D01*
X115421805Y-107340179D01*
X115428507Y-107338001D01*
X115428509Y-107338001D01*
X115569905Y-107292059D01*
X115569908Y-107292058D01*
X115576604Y-107289882D01*
X115716412Y-107206539D01*
X115721506Y-107201688D01*
X115721510Y-107201685D01*
X115829182Y-107099150D01*
X115829183Y-107099148D01*
X115834282Y-107094293D01*
X115844472Y-107078957D01*
X115920460Y-106964585D01*
X115924355Y-106958723D01*
X115944756Y-106905017D01*
X115979653Y-106813151D01*
X115979654Y-106813148D01*
X115982154Y-106806566D01*
X116004806Y-106645385D01*
X116005091Y-106625000D01*
X115986948Y-106463249D01*
X115983727Y-106453998D01*
X115953928Y-106368430D01*
X115933420Y-106309538D01*
X115922846Y-106292615D01*
X115859089Y-106190584D01*
X115839953Y-106122215D01*
X115860994Y-106054088D01*
X115896930Y-106000000D01*
X121919965Y-106000000D01*
X121938026Y-106137183D01*
X121990976Y-106265017D01*
X122033093Y-106319904D01*
X122070180Y-106368238D01*
X122070183Y-106368241D01*
X122075209Y-106374791D01*
X122081759Y-106379817D01*
X122081760Y-106379818D01*
X122114024Y-106404575D01*
X122184982Y-106459024D01*
X122192611Y-106462184D01*
X122305189Y-106508815D01*
X122305193Y-106508816D01*
X122312817Y-106511974D01*
X122320997Y-106513051D01*
X122321001Y-106513052D01*
X122441812Y-106528957D01*
X122450000Y-106530035D01*
X122458188Y-106528957D01*
X122458189Y-106528957D01*
X122538712Y-106518356D01*
X122608860Y-106529295D01*
X122661959Y-106576423D01*
X122680080Y-106626831D01*
X122681814Y-106640000D01*
X122688026Y-106687183D01*
X122740976Y-106815017D01*
X122753678Y-106831570D01*
X122820180Y-106918238D01*
X122820183Y-106918241D01*
X122825209Y-106924791D01*
X122934982Y-107009024D01*
X122942611Y-107012184D01*
X123055189Y-107058815D01*
X123055193Y-107058816D01*
X123062817Y-107061974D01*
X123070997Y-107063051D01*
X123071001Y-107063052D01*
X123191812Y-107078957D01*
X123200000Y-107080035D01*
X123208188Y-107078957D01*
X123328999Y-107063052D01*
X123329003Y-107063051D01*
X123337183Y-107061974D01*
X123344807Y-107058816D01*
X123344811Y-107058815D01*
X123457389Y-107012184D01*
X123465018Y-107009024D01*
X123574791Y-106924791D01*
X123579817Y-106918241D01*
X123579820Y-106918238D01*
X123646322Y-106831570D01*
X123659024Y-106815017D01*
X123662183Y-106807390D01*
X123662186Y-106807385D01*
X123681520Y-106760707D01*
X123726068Y-106705425D01*
X123793431Y-106683004D01*
X123862222Y-106700562D01*
X123910601Y-106752524D01*
X123914338Y-106760707D01*
X123937814Y-106817385D01*
X123937817Y-106817390D01*
X123940976Y-106825017D01*
X123981814Y-106878238D01*
X124020180Y-106928238D01*
X124020183Y-106928241D01*
X124025209Y-106934791D01*
X124134982Y-107019024D01*
X124142611Y-107022184D01*
X124255189Y-107068815D01*
X124255193Y-107068816D01*
X124262817Y-107071974D01*
X124270997Y-107073051D01*
X124271001Y-107073052D01*
X124391812Y-107088957D01*
X124400000Y-107090035D01*
X124408188Y-107088957D01*
X124528999Y-107073052D01*
X124529003Y-107073051D01*
X124537183Y-107071974D01*
X124544807Y-107068816D01*
X124544811Y-107068815D01*
X124657389Y-107022184D01*
X124665018Y-107019024D01*
X124774791Y-106934791D01*
X124779817Y-106928241D01*
X124779820Y-106928238D01*
X124818186Y-106878238D01*
X124859024Y-106825017D01*
X124911974Y-106697183D01*
X124930035Y-106560000D01*
X124923452Y-106510000D01*
X125259965Y-106510000D01*
X125278026Y-106647183D01*
X125330976Y-106775017D01*
X125361669Y-106815017D01*
X125410180Y-106878238D01*
X125410183Y-106878241D01*
X125415209Y-106884791D01*
X125421759Y-106889817D01*
X125421760Y-106889818D01*
X125502981Y-106952142D01*
X125524982Y-106969024D01*
X125532611Y-106972184D01*
X125645189Y-107018815D01*
X125645193Y-107018816D01*
X125652817Y-107021974D01*
X125660997Y-107023051D01*
X125661001Y-107023052D01*
X125781812Y-107038957D01*
X125790000Y-107040035D01*
X125798188Y-107038957D01*
X125918999Y-107023052D01*
X125919003Y-107023051D01*
X125927183Y-107021974D01*
X125934807Y-107018816D01*
X125934811Y-107018815D01*
X126047389Y-106972184D01*
X126055018Y-106969024D01*
X126077019Y-106952142D01*
X126158240Y-106889818D01*
X126158241Y-106889817D01*
X126164791Y-106884791D01*
X126169817Y-106878241D01*
X126169820Y-106878238D01*
X126218331Y-106815017D01*
X126249024Y-106775017D01*
X126301974Y-106647183D01*
X126314769Y-106550000D01*
X127849965Y-106550000D01*
X127868026Y-106687183D01*
X127920976Y-106815017D01*
X127933678Y-106831570D01*
X128000180Y-106918238D01*
X128000183Y-106918241D01*
X128005209Y-106924791D01*
X128114982Y-107009024D01*
X128122611Y-107012184D01*
X128235189Y-107058815D01*
X128235193Y-107058816D01*
X128242817Y-107061974D01*
X128250997Y-107063051D01*
X128251001Y-107063052D01*
X128371812Y-107078957D01*
X128380000Y-107080035D01*
X128388188Y-107078957D01*
X128508999Y-107063052D01*
X128509003Y-107063051D01*
X128517183Y-107061974D01*
X128524807Y-107058816D01*
X128524811Y-107058815D01*
X128637389Y-107012184D01*
X128645018Y-107009024D01*
X128754791Y-106924791D01*
X128759817Y-106918241D01*
X128759820Y-106918238D01*
X128826322Y-106831570D01*
X128839024Y-106815017D01*
X128891974Y-106687183D01*
X128898186Y-106640000D01*
X132809965Y-106640000D01*
X132828026Y-106777183D01*
X132880976Y-106905017D01*
X132922186Y-106958723D01*
X132960180Y-107008238D01*
X132960183Y-107008241D01*
X132965209Y-107014791D01*
X132971759Y-107019817D01*
X132971760Y-107019818D01*
X133050235Y-107080035D01*
X133074982Y-107099024D01*
X133082611Y-107102184D01*
X133195189Y-107148815D01*
X133195193Y-107148816D01*
X133202817Y-107151974D01*
X133210997Y-107153051D01*
X133211001Y-107153052D01*
X133331812Y-107168957D01*
X133340000Y-107170035D01*
X133348188Y-107168957D01*
X133468999Y-107153052D01*
X133469003Y-107153051D01*
X133477183Y-107151974D01*
X133484807Y-107148816D01*
X133484811Y-107148815D01*
X133597389Y-107102184D01*
X133605018Y-107099024D01*
X133629765Y-107080035D01*
X133708240Y-107019818D01*
X133708241Y-107019817D01*
X133714791Y-107014791D01*
X133719817Y-107008241D01*
X133719820Y-107008238D01*
X133757814Y-106958723D01*
X133799024Y-106905017D01*
X133851974Y-106777183D01*
X133870035Y-106640000D01*
X133851974Y-106502817D01*
X133799024Y-106374983D01*
X133746858Y-106306999D01*
X133719820Y-106271762D01*
X133719817Y-106271759D01*
X133714791Y-106265209D01*
X133704598Y-106257387D01*
X133611568Y-106186002D01*
X133605018Y-106180976D01*
X133578961Y-106170183D01*
X133484811Y-106131185D01*
X133484807Y-106131184D01*
X133477183Y-106128026D01*
X133469003Y-106126949D01*
X133468999Y-106126948D01*
X133348188Y-106111043D01*
X133340000Y-106109965D01*
X133202817Y-106128026D01*
X133074983Y-106180976D01*
X132965209Y-106265209D01*
X132880976Y-106374983D01*
X132828026Y-106502817D01*
X132809965Y-106640000D01*
X128898186Y-106640000D01*
X128910035Y-106550000D01*
X128891974Y-106412817D01*
X128839024Y-106284983D01*
X128767493Y-106191762D01*
X128759820Y-106181762D01*
X128759817Y-106181759D01*
X128754791Y-106175209D01*
X128671170Y-106111043D01*
X128651568Y-106096002D01*
X128645018Y-106090976D01*
X128637389Y-106087816D01*
X128524811Y-106041185D01*
X128524807Y-106041184D01*
X128517183Y-106038026D01*
X128509003Y-106036949D01*
X128508999Y-106036948D01*
X128388188Y-106021043D01*
X128380000Y-106019965D01*
X128242817Y-106038026D01*
X128114983Y-106090976D01*
X128005209Y-106175209D01*
X127920976Y-106284983D01*
X127868026Y-106412817D01*
X127849965Y-106550000D01*
X126314769Y-106550000D01*
X126320035Y-106510000D01*
X126301974Y-106372817D01*
X126249024Y-106244983D01*
X126200510Y-106181759D01*
X126169820Y-106141762D01*
X126169817Y-106141759D01*
X126164791Y-106135209D01*
X126152157Y-106125514D01*
X126061568Y-106056002D01*
X126055018Y-106050976D01*
X126031380Y-106041185D01*
X125934811Y-106001185D01*
X125934807Y-106001184D01*
X125927183Y-105998026D01*
X125919003Y-105996949D01*
X125918999Y-105996948D01*
X125798188Y-105981043D01*
X125790000Y-105979965D01*
X125652817Y-105998026D01*
X125524983Y-106050976D01*
X125415209Y-106135209D01*
X125330976Y-106244983D01*
X125278026Y-106372817D01*
X125259965Y-106510000D01*
X124923452Y-106510000D01*
X124911974Y-106422817D01*
X124859024Y-106294983D01*
X124782127Y-106194769D01*
X124779820Y-106191762D01*
X124779817Y-106191759D01*
X124774791Y-106185209D01*
X124765157Y-106177816D01*
X124671568Y-106106002D01*
X124665018Y-106100976D01*
X124653017Y-106096005D01*
X124544811Y-106051185D01*
X124544807Y-106051184D01*
X124537183Y-106048026D01*
X124529003Y-106046949D01*
X124528999Y-106046948D01*
X124408188Y-106031043D01*
X124400000Y-106029965D01*
X124262817Y-106048026D01*
X124134983Y-106100976D01*
X124025209Y-106185209D01*
X123940976Y-106294983D01*
X123937817Y-106302610D01*
X123937814Y-106302615D01*
X123918480Y-106349293D01*
X123873932Y-106404575D01*
X123806569Y-106426996D01*
X123737778Y-106409438D01*
X123689399Y-106357476D01*
X123685662Y-106349293D01*
X123662186Y-106292615D01*
X123662183Y-106292610D01*
X123659024Y-106284983D01*
X123587493Y-106191762D01*
X123579820Y-106181762D01*
X123579817Y-106181759D01*
X123574791Y-106175209D01*
X123491170Y-106111043D01*
X123471568Y-106096002D01*
X123465018Y-106090976D01*
X123457389Y-106087816D01*
X123344811Y-106041185D01*
X123344807Y-106041184D01*
X123337183Y-106038026D01*
X123329003Y-106036949D01*
X123328999Y-106036948D01*
X123208188Y-106021043D01*
X123200000Y-106019965D01*
X123191812Y-106021043D01*
X123191811Y-106021043D01*
X123111288Y-106031644D01*
X123041140Y-106020705D01*
X122988041Y-105973577D01*
X122969920Y-105923169D01*
X122963052Y-105871006D01*
X122961974Y-105862817D01*
X122909024Y-105734983D01*
X122840273Y-105645385D01*
X122829820Y-105631762D01*
X122829817Y-105631759D01*
X122824791Y-105625209D01*
X122715018Y-105540976D01*
X122707389Y-105537816D01*
X122594811Y-105491185D01*
X122594807Y-105491184D01*
X122587183Y-105488026D01*
X122579003Y-105486949D01*
X122578999Y-105486948D01*
X122458188Y-105471043D01*
X122450000Y-105469965D01*
X122312817Y-105488026D01*
X122184983Y-105540976D01*
X122075209Y-105625209D01*
X121990976Y-105734983D01*
X121938026Y-105862817D01*
X121919965Y-106000000D01*
X115896930Y-106000000D01*
X115924355Y-105958723D01*
X115957676Y-105871006D01*
X115979653Y-105813151D01*
X115979654Y-105813148D01*
X115982154Y-105806566D01*
X116004806Y-105645385D01*
X116004917Y-105637476D01*
X116005036Y-105628962D01*
X116005036Y-105628956D01*
X116005091Y-105625000D01*
X115986948Y-105463249D01*
X115933420Y-105309538D01*
X115847168Y-105171506D01*
X115732478Y-105056012D01*
X115616187Y-104982212D01*
X115600994Y-104972570D01*
X115600991Y-104972568D01*
X115595051Y-104968799D01*
X115588418Y-104966437D01*
X115448351Y-104916561D01*
X115448349Y-104916560D01*
X115441717Y-104914199D01*
X115434729Y-104913366D01*
X115434726Y-104913365D01*
X115326425Y-104900451D01*
X115280097Y-104894927D01*
X115273094Y-104895663D01*
X115273093Y-104895663D01*
X115232670Y-104899912D01*
X115118224Y-104911940D01*
X115111556Y-104914210D01*
X114970809Y-104962124D01*
X114970806Y-104962125D01*
X114964142Y-104964394D01*
X114825511Y-105049680D01*
X114765486Y-105108461D01*
X114717499Y-105155454D01*
X114709220Y-105163561D01*
X114621049Y-105300376D01*
X114618640Y-105306996D01*
X114618638Y-105306999D01*
X114579541Y-105414418D01*
X114565380Y-105453325D01*
X114544980Y-105614806D01*
X114560863Y-105776794D01*
X114612240Y-105931238D01*
X114615887Y-105937260D01*
X114615888Y-105937262D01*
X114690973Y-106061243D01*
X114709152Y-106129873D01*
X114689108Y-106194769D01*
X114621049Y-106300376D01*
X114618640Y-106306996D01*
X114618638Y-106306999D01*
X114580124Y-106412817D01*
X114565380Y-106453325D01*
X114544980Y-106614806D01*
X100720500Y-106614806D01*
X100720500Y-104446665D01*
X103584994Y-104446665D01*
X103600592Y-104632414D01*
X103651971Y-104811595D01*
X103654790Y-104817080D01*
X103705917Y-104916561D01*
X103737176Y-104977385D01*
X103852959Y-105123468D01*
X103994912Y-105244279D01*
X104157627Y-105335217D01*
X104334907Y-105392819D01*
X104519998Y-105414890D01*
X104526133Y-105414418D01*
X104526135Y-105414418D01*
X104699710Y-105401062D01*
X104699715Y-105401061D01*
X104705851Y-105400589D01*
X104711781Y-105398933D01*
X104711783Y-105398933D01*
X104879459Y-105352117D01*
X104879458Y-105352117D01*
X104885387Y-105350462D01*
X105051768Y-105266417D01*
X105076255Y-105247286D01*
X105193794Y-105155454D01*
X105193795Y-105155453D01*
X105198655Y-105151656D01*
X105320454Y-105010550D01*
X105344578Y-104968085D01*
X105409479Y-104853837D01*
X105412526Y-104848474D01*
X105471364Y-104671601D01*
X105494727Y-104486668D01*
X105495099Y-104460000D01*
X105476909Y-104274487D01*
X105475128Y-104268588D01*
X105475127Y-104268583D01*
X105424814Y-104101939D01*
X105423033Y-104096040D01*
X105414504Y-104080000D01*
X121949965Y-104080000D01*
X121968026Y-104217183D01*
X122020976Y-104345017D01*
X122020383Y-104345263D01*
X122035685Y-104408347D01*
X122026237Y-104450565D01*
X122011283Y-104486668D01*
X121988026Y-104542817D01*
X121969965Y-104680000D01*
X121988026Y-104817183D01*
X122040976Y-104945017D01*
X122065813Y-104977385D01*
X122120180Y-105048238D01*
X122120183Y-105048241D01*
X122125209Y-105054791D01*
X122131759Y-105059817D01*
X122131760Y-105059818D01*
X122208415Y-105118638D01*
X122234982Y-105139024D01*
X122242611Y-105142184D01*
X122355189Y-105188815D01*
X122355193Y-105188816D01*
X122362817Y-105191974D01*
X122370997Y-105193051D01*
X122371001Y-105193052D01*
X122491812Y-105208957D01*
X122500000Y-105210035D01*
X122508188Y-105208957D01*
X122628999Y-105193052D01*
X122629003Y-105193051D01*
X122637183Y-105191974D01*
X122644807Y-105188816D01*
X122644811Y-105188815D01*
X122757389Y-105142184D01*
X122765018Y-105139024D01*
X122791585Y-105118638D01*
X122868240Y-105059818D01*
X122868241Y-105059817D01*
X122874791Y-105054791D01*
X122879817Y-105048241D01*
X122879820Y-105048238D01*
X122934187Y-104977385D01*
X122959024Y-104945017D01*
X123011974Y-104817183D01*
X123030035Y-104680000D01*
X123011974Y-104542817D01*
X122959024Y-104414983D01*
X122959617Y-104414737D01*
X122944315Y-104351653D01*
X122953763Y-104309435D01*
X122988812Y-104224817D01*
X122988813Y-104224814D01*
X122991974Y-104217183D01*
X123010035Y-104080000D01*
X122991974Y-103942817D01*
X122939024Y-103814983D01*
X122896908Y-103760096D01*
X122859820Y-103711762D01*
X122859817Y-103711759D01*
X122854791Y-103705209D01*
X122846440Y-103698801D01*
X122845306Y-103697248D01*
X122842399Y-103694341D01*
X122842852Y-103693888D01*
X122804572Y-103641464D01*
X122800348Y-103570593D01*
X122835111Y-103508689D01*
X122846436Y-103498876D01*
X122858238Y-103489820D01*
X122858241Y-103489817D01*
X122864791Y-103484791D01*
X122869817Y-103478241D01*
X122869820Y-103478238D01*
X122915129Y-103419190D01*
X122949024Y-103375017D01*
X123001974Y-103247183D01*
X123020035Y-103110000D01*
X123001974Y-102972817D01*
X122949024Y-102844983D01*
X122887983Y-102765433D01*
X122869820Y-102741762D01*
X122869817Y-102741759D01*
X122864791Y-102735209D01*
X122755018Y-102650976D01*
X122719848Y-102636409D01*
X122664568Y-102591862D01*
X122642146Y-102524499D01*
X122659703Y-102455707D01*
X122711665Y-102407328D01*
X122719849Y-102403591D01*
X122747389Y-102392184D01*
X122747391Y-102392183D01*
X122755018Y-102389024D01*
X122761568Y-102383998D01*
X122858240Y-102309818D01*
X122858241Y-102309817D01*
X122864791Y-102304791D01*
X122869817Y-102298241D01*
X122869820Y-102298238D01*
X122912183Y-102243029D01*
X122949024Y-102195017D01*
X123001974Y-102067183D01*
X123020035Y-101930000D01*
X123001974Y-101792817D01*
X122949024Y-101664983D01*
X122896530Y-101596572D01*
X122869820Y-101561762D01*
X122869817Y-101561759D01*
X122864791Y-101555209D01*
X122857001Y-101549231D01*
X122761568Y-101476002D01*
X122755018Y-101470976D01*
X122747389Y-101467816D01*
X122634811Y-101421185D01*
X122634807Y-101421184D01*
X122627183Y-101418026D01*
X122619003Y-101416949D01*
X122618999Y-101416948D01*
X122498188Y-101401043D01*
X122490000Y-101399965D01*
X122352817Y-101418026D01*
X122224983Y-101470976D01*
X122115209Y-101555209D01*
X122030976Y-101664983D01*
X121978026Y-101792817D01*
X121959965Y-101930000D01*
X121978026Y-102067183D01*
X122030976Y-102195017D01*
X122067817Y-102243029D01*
X122110180Y-102298238D01*
X122110183Y-102298241D01*
X122115209Y-102304791D01*
X122121759Y-102309817D01*
X122121760Y-102309818D01*
X122218432Y-102383998D01*
X122224982Y-102389024D01*
X122232609Y-102392183D01*
X122260151Y-102403591D01*
X122315432Y-102448139D01*
X122337853Y-102515503D01*
X122320295Y-102584294D01*
X122268333Y-102632672D01*
X122260151Y-102636409D01*
X122224983Y-102650976D01*
X122115209Y-102735209D01*
X122030976Y-102844983D01*
X121978026Y-102972817D01*
X121959965Y-103110000D01*
X121978026Y-103247183D01*
X122030976Y-103375017D01*
X122064871Y-103419190D01*
X122110180Y-103478238D01*
X122110183Y-103478241D01*
X122115209Y-103484791D01*
X122121759Y-103489817D01*
X122123563Y-103491201D01*
X122124699Y-103492757D01*
X122127601Y-103495659D01*
X122127149Y-103496111D01*
X122165430Y-103548539D01*
X122169652Y-103619410D01*
X122134888Y-103681313D01*
X122123572Y-103691119D01*
X122105209Y-103705209D01*
X122020976Y-103814983D01*
X121968026Y-103942817D01*
X121949965Y-104080000D01*
X105414504Y-104080000D01*
X105335522Y-103931456D01*
X105331632Y-103926686D01*
X105331629Y-103926682D01*
X105221605Y-103791780D01*
X105221602Y-103791777D01*
X105217710Y-103787005D01*
X105212056Y-103782327D01*
X105126754Y-103711759D01*
X105074085Y-103668187D01*
X104910116Y-103579529D01*
X104810002Y-103548539D01*
X104737936Y-103526231D01*
X104737933Y-103526230D01*
X104732049Y-103524409D01*
X104725924Y-103523765D01*
X104725923Y-103523765D01*
X104552796Y-103505568D01*
X104552795Y-103505568D01*
X104546668Y-103504924D01*
X104468549Y-103512033D01*
X104367171Y-103521259D01*
X104367168Y-103521260D01*
X104361032Y-103521818D01*
X104355122Y-103523557D01*
X104355119Y-103523558D01*
X104195312Y-103570593D01*
X104182214Y-103574448D01*
X104017023Y-103660807D01*
X103871752Y-103777608D01*
X103751935Y-103920401D01*
X103748971Y-103925793D01*
X103748968Y-103925797D01*
X103674256Y-104061699D01*
X103662135Y-104083746D01*
X103605772Y-104261424D01*
X103584994Y-104446665D01*
X100720500Y-104446665D01*
X100720500Y-100275000D01*
X122144965Y-100275000D01*
X122163026Y-100412183D01*
X122215976Y-100540017D01*
X122251529Y-100586350D01*
X122295180Y-100643238D01*
X122295183Y-100643241D01*
X122300209Y-100649791D01*
X122409982Y-100734024D01*
X122417611Y-100737184D01*
X122530189Y-100783815D01*
X122530193Y-100783816D01*
X122537817Y-100786974D01*
X122545997Y-100788051D01*
X122546001Y-100788052D01*
X122666812Y-100803957D01*
X122675000Y-100805035D01*
X122683188Y-100803957D01*
X122803999Y-100788052D01*
X122804003Y-100788051D01*
X122812183Y-100786974D01*
X122819807Y-100783816D01*
X122819811Y-100783815D01*
X122932389Y-100737184D01*
X122940018Y-100734024D01*
X123049791Y-100649791D01*
X123054817Y-100643241D01*
X123054820Y-100643238D01*
X123098471Y-100586350D01*
X123134024Y-100540017D01*
X123186974Y-100412183D01*
X123205035Y-100275000D01*
X123186974Y-100137817D01*
X123134024Y-100009983D01*
X123091907Y-99955096D01*
X123054820Y-99906762D01*
X123054817Y-99906759D01*
X123049791Y-99900209D01*
X123012417Y-99871530D01*
X122946568Y-99821002D01*
X122940018Y-99815976D01*
X122907312Y-99802429D01*
X122819811Y-99766185D01*
X122819807Y-99766184D01*
X122812183Y-99763026D01*
X122804003Y-99761949D01*
X122803999Y-99761948D01*
X122683188Y-99746043D01*
X122675000Y-99744965D01*
X122537817Y-99763026D01*
X122409983Y-99815976D01*
X122300209Y-99900209D01*
X122215976Y-100009983D01*
X122163026Y-100137817D01*
X122144965Y-100275000D01*
X100720500Y-100275000D01*
X100720500Y-99080000D01*
X114179965Y-99080000D01*
X114198026Y-99217183D01*
X114250976Y-99345017D01*
X114293092Y-99399904D01*
X114330180Y-99448238D01*
X114330183Y-99448241D01*
X114335209Y-99454791D01*
X114341759Y-99459817D01*
X114341760Y-99459818D01*
X114413215Y-99514648D01*
X114444982Y-99539024D01*
X114452611Y-99542184D01*
X114565189Y-99588815D01*
X114565193Y-99588816D01*
X114572817Y-99591974D01*
X114580997Y-99593051D01*
X114581001Y-99593052D01*
X114701812Y-99608957D01*
X114710000Y-99610035D01*
X114718188Y-99608957D01*
X114838999Y-99593052D01*
X114839003Y-99593051D01*
X114847183Y-99591974D01*
X114854807Y-99588816D01*
X114854811Y-99588815D01*
X114967389Y-99542184D01*
X114975018Y-99539024D01*
X115006785Y-99514648D01*
X115078240Y-99459818D01*
X115078241Y-99459817D01*
X115084791Y-99454791D01*
X115089817Y-99448241D01*
X115089820Y-99448238D01*
X115126908Y-99399904D01*
X115169024Y-99345017D01*
X115221974Y-99217183D01*
X115240035Y-99080000D01*
X115221974Y-98942817D01*
X115169024Y-98814983D01*
X115111971Y-98740630D01*
X115089820Y-98711762D01*
X115089817Y-98711759D01*
X115084791Y-98705209D01*
X115066518Y-98691187D01*
X114981568Y-98626002D01*
X114975018Y-98620976D01*
X114948080Y-98609818D01*
X114854811Y-98571185D01*
X114854807Y-98571184D01*
X114851949Y-98570000D01*
X117839965Y-98570000D01*
X117858026Y-98707183D01*
X117910976Y-98835017D01*
X117941302Y-98874538D01*
X117990180Y-98938238D01*
X117990183Y-98938241D01*
X117995209Y-98944791D01*
X118001759Y-98949817D01*
X118001760Y-98949818D01*
X118066249Y-98999303D01*
X118104982Y-99029024D01*
X118112611Y-99032184D01*
X118225189Y-99078815D01*
X118225193Y-99078816D01*
X118232817Y-99081974D01*
X118240997Y-99083051D01*
X118241001Y-99083052D01*
X118361812Y-99098957D01*
X118370000Y-99100035D01*
X118378188Y-99098957D01*
X118498999Y-99083052D01*
X118499003Y-99083051D01*
X118507183Y-99081974D01*
X118514807Y-99078816D01*
X118514811Y-99078815D01*
X118627389Y-99032184D01*
X118635018Y-99029024D01*
X118673751Y-98999303D01*
X118738240Y-98949818D01*
X118738241Y-98949817D01*
X118744791Y-98944791D01*
X118749817Y-98938241D01*
X118749820Y-98938238D01*
X118798698Y-98874538D01*
X118829024Y-98835017D01*
X118881974Y-98707183D01*
X118900035Y-98570000D01*
X118893610Y-98521196D01*
X122464910Y-98521196D01*
X122482971Y-98658379D01*
X122535921Y-98786213D01*
X122563852Y-98822613D01*
X122615125Y-98889434D01*
X122615128Y-98889437D01*
X122620154Y-98895987D01*
X122626704Y-98901013D01*
X122626705Y-98901014D01*
X122690307Y-98949818D01*
X122729927Y-98980220D01*
X122737556Y-98983380D01*
X122850134Y-99030011D01*
X122850138Y-99030012D01*
X122857762Y-99033170D01*
X122865942Y-99034247D01*
X122865946Y-99034248D01*
X122986757Y-99050153D01*
X122994945Y-99051231D01*
X123003133Y-99050153D01*
X123123944Y-99034248D01*
X123123948Y-99034247D01*
X123132128Y-99033170D01*
X123139752Y-99030012D01*
X123139756Y-99030011D01*
X123252334Y-98983380D01*
X123259963Y-98980220D01*
X123299583Y-98949818D01*
X123363189Y-98901011D01*
X123363190Y-98901010D01*
X123369736Y-98895987D01*
X123374761Y-98889438D01*
X123379612Y-98884587D01*
X123441923Y-98850560D01*
X123512739Y-98855623D01*
X123545413Y-98873718D01*
X123632114Y-98940247D01*
X123632120Y-98940250D01*
X123638668Y-98945275D01*
X123646297Y-98948435D01*
X123758875Y-98995066D01*
X123758879Y-98995067D01*
X123766503Y-98998225D01*
X123774683Y-98999302D01*
X123774687Y-98999303D01*
X123895498Y-99015208D01*
X123903686Y-99016286D01*
X123911874Y-99015208D01*
X124032685Y-98999303D01*
X124032689Y-98999302D01*
X124040869Y-98998225D01*
X124048493Y-98995067D01*
X124048497Y-98995066D01*
X124168704Y-98945275D01*
X124170059Y-98948547D01*
X124223173Y-98935619D01*
X124290282Y-98958790D01*
X124333681Y-99013263D01*
X124350976Y-99055017D01*
X124376429Y-99088188D01*
X124430180Y-99158238D01*
X124430183Y-99158241D01*
X124435209Y-99164791D01*
X124441759Y-99169817D01*
X124441760Y-99169818D01*
X124513431Y-99224814D01*
X124544982Y-99249024D01*
X124552611Y-99252184D01*
X124665189Y-99298815D01*
X124665193Y-99298816D01*
X124672817Y-99301974D01*
X124680997Y-99303051D01*
X124681001Y-99303052D01*
X124801812Y-99318957D01*
X124810000Y-99320035D01*
X124818188Y-99318957D01*
X124938999Y-99303052D01*
X124939003Y-99303051D01*
X124947183Y-99301974D01*
X124954807Y-99298816D01*
X124954811Y-99298815D01*
X125067389Y-99252184D01*
X125075018Y-99249024D01*
X125106569Y-99224814D01*
X125178240Y-99169818D01*
X125178241Y-99169817D01*
X125184791Y-99164791D01*
X125189817Y-99158241D01*
X125189820Y-99158238D01*
X125243571Y-99088188D01*
X125269024Y-99055017D01*
X125321974Y-98927183D01*
X125340035Y-98790000D01*
X125321974Y-98652817D01*
X125269024Y-98524983D01*
X125204586Y-98441006D01*
X125189820Y-98421762D01*
X125189817Y-98421759D01*
X125184791Y-98415209D01*
X125177766Y-98409818D01*
X125081568Y-98336002D01*
X125075018Y-98330976D01*
X125058770Y-98324246D01*
X124954811Y-98281185D01*
X124954807Y-98281184D01*
X124947183Y-98278026D01*
X124939003Y-98276949D01*
X124938999Y-98276948D01*
X124818188Y-98261043D01*
X124810000Y-98259965D01*
X124672817Y-98278026D01*
X124544983Y-98330976D01*
X124543628Y-98327704D01*
X124490513Y-98340632D01*
X124423404Y-98317461D01*
X124380005Y-98262988D01*
X124371747Y-98243052D01*
X124366341Y-98230000D01*
X125499965Y-98230000D01*
X125518026Y-98367183D01*
X125570976Y-98495017D01*
X125588942Y-98518430D01*
X125650180Y-98598238D01*
X125650183Y-98598241D01*
X125655209Y-98604791D01*
X125764982Y-98689024D01*
X125772611Y-98692184D01*
X125885189Y-98738815D01*
X125885193Y-98738816D01*
X125892817Y-98741974D01*
X125900997Y-98743051D01*
X125901001Y-98743052D01*
X126021812Y-98758957D01*
X126030000Y-98760035D01*
X126038188Y-98758957D01*
X126158999Y-98743052D01*
X126159003Y-98743051D01*
X126167183Y-98741974D01*
X126174807Y-98738816D01*
X126174811Y-98738815D01*
X126287389Y-98692184D01*
X126295018Y-98689024D01*
X126404791Y-98604791D01*
X126409817Y-98598241D01*
X126409820Y-98598238D01*
X126411678Y-98595816D01*
X132638994Y-98595816D01*
X132657055Y-98732999D01*
X132710005Y-98860833D01*
X132715032Y-98867385D01*
X132715033Y-98867386D01*
X132715102Y-98867476D01*
X132715137Y-98867566D01*
X132719162Y-98874538D01*
X132718075Y-98875166D01*
X132740705Y-98933695D01*
X132731551Y-98992400D01*
X132710447Y-99043349D01*
X132710446Y-99043353D01*
X132707288Y-99050977D01*
X132706211Y-99059157D01*
X132706210Y-99059161D01*
X132703623Y-99078815D01*
X132689227Y-99188160D01*
X132707288Y-99325343D01*
X132760238Y-99453177D01*
X132774352Y-99471570D01*
X132839442Y-99556398D01*
X132839445Y-99556401D01*
X132844471Y-99562951D01*
X132851021Y-99567977D01*
X132851022Y-99567978D01*
X132904426Y-99608957D01*
X132954244Y-99647184D01*
X133082079Y-99700134D01*
X133090270Y-99701212D01*
X133091780Y-99701617D01*
X133152403Y-99738569D01*
X133183424Y-99802429D01*
X133175578Y-99871541D01*
X133128956Y-99984100D01*
X133125794Y-99991734D01*
X133107733Y-100128917D01*
X133125794Y-100266100D01*
X133178744Y-100393934D01*
X133183771Y-100400486D01*
X133187901Y-100407639D01*
X133185286Y-100409149D01*
X133205677Y-100461884D01*
X133196523Y-100520593D01*
X133166125Y-100593981D01*
X133148064Y-100731164D01*
X133166125Y-100868347D01*
X133219075Y-100996181D01*
X133224101Y-101002731D01*
X133254883Y-101042846D01*
X133280484Y-101109066D01*
X133271330Y-101167768D01*
X133266188Y-101180183D01*
X133263026Y-101187817D01*
X133244965Y-101325000D01*
X133263026Y-101462183D01*
X133315976Y-101590017D01*
X133321003Y-101596568D01*
X133321005Y-101596572D01*
X133325348Y-101602232D01*
X133350948Y-101668452D01*
X133341794Y-101727153D01*
X133305738Y-101814201D01*
X133287677Y-101951384D01*
X133305738Y-102088567D01*
X133358688Y-102216401D01*
X133430370Y-102309818D01*
X133442921Y-102326175D01*
X133441815Y-102327024D01*
X133471655Y-102381671D01*
X133473456Y-102424901D01*
X133463514Y-102500416D01*
X133464592Y-102508604D01*
X133464592Y-102508605D01*
X133474185Y-102581473D01*
X133463246Y-102651622D01*
X133446585Y-102675315D01*
X133447687Y-102676161D01*
X133363454Y-102785935D01*
X133310504Y-102913769D01*
X133292443Y-103050952D01*
X133310504Y-103188135D01*
X133363454Y-103315969D01*
X133402909Y-103367387D01*
X133442658Y-103419190D01*
X133442661Y-103419193D01*
X133447687Y-103425743D01*
X133454237Y-103430769D01*
X133454238Y-103430770D01*
X133532992Y-103491201D01*
X133557460Y-103509976D01*
X133565089Y-103513136D01*
X133677667Y-103559767D01*
X133677671Y-103559768D01*
X133685295Y-103562926D01*
X133693475Y-103564003D01*
X133693479Y-103564004D01*
X133814290Y-103579909D01*
X133822478Y-103580987D01*
X133830666Y-103579909D01*
X133951477Y-103564004D01*
X133951481Y-103564003D01*
X133959661Y-103562926D01*
X133967285Y-103559768D01*
X133967289Y-103559767D01*
X134079867Y-103513136D01*
X134087496Y-103509976D01*
X134111964Y-103491201D01*
X134190718Y-103430770D01*
X134190719Y-103430769D01*
X134197269Y-103425743D01*
X134202295Y-103419193D01*
X134202298Y-103419190D01*
X134242047Y-103367387D01*
X134281502Y-103315969D01*
X134334452Y-103188135D01*
X134352513Y-103050952D01*
X134351435Y-103042763D01*
X134341842Y-102969895D01*
X134352781Y-102899746D01*
X134369442Y-102876053D01*
X134368340Y-102875207D01*
X134441869Y-102779382D01*
X134452573Y-102765433D01*
X134505523Y-102637599D01*
X134523584Y-102500416D01*
X134505523Y-102363233D01*
X134452573Y-102235399D01*
X134368340Y-102125625D01*
X134369446Y-102124776D01*
X134339606Y-102070129D01*
X134337805Y-102026899D01*
X134346669Y-101959572D01*
X134347747Y-101951384D01*
X134329686Y-101814201D01*
X134276736Y-101686367D01*
X134271709Y-101679816D01*
X134271707Y-101679812D01*
X134267364Y-101674152D01*
X134241764Y-101607932D01*
X134250918Y-101549231D01*
X134283813Y-101469814D01*
X134286974Y-101462183D01*
X134305035Y-101325000D01*
X134286974Y-101187817D01*
X134234024Y-101059983D01*
X134198216Y-101013318D01*
X134172615Y-100947098D01*
X134181769Y-100888396D01*
X134186911Y-100875981D01*
X134186912Y-100875978D01*
X134190073Y-100868347D01*
X134208134Y-100731164D01*
X134190073Y-100593981D01*
X134137123Y-100466147D01*
X134132096Y-100459595D01*
X134127966Y-100452442D01*
X134130581Y-100450932D01*
X134110190Y-100398197D01*
X134119344Y-100339488D01*
X134142664Y-100283188D01*
X134149742Y-100266100D01*
X134167803Y-100128917D01*
X134149742Y-99991734D01*
X134096792Y-99863900D01*
X134021814Y-99766187D01*
X134017588Y-99760679D01*
X134017585Y-99760676D01*
X134012559Y-99754126D01*
X134000621Y-99744965D01*
X133909336Y-99674919D01*
X133902786Y-99669893D01*
X133774951Y-99616943D01*
X133766760Y-99615865D01*
X133765250Y-99615460D01*
X133704627Y-99578508D01*
X133673606Y-99514648D01*
X133681452Y-99445536D01*
X133728074Y-99332977D01*
X133728075Y-99332974D01*
X133731236Y-99325343D01*
X133747738Y-99200000D01*
X138389965Y-99200000D01*
X138408026Y-99337183D01*
X138460976Y-99465017D01*
X138499059Y-99514648D01*
X138540180Y-99568238D01*
X138540183Y-99568241D01*
X138545209Y-99574791D01*
X138551759Y-99579817D01*
X138551760Y-99579818D01*
X138633002Y-99642158D01*
X138654982Y-99659024D01*
X138662611Y-99662184D01*
X138775189Y-99708815D01*
X138775193Y-99708816D01*
X138782817Y-99711974D01*
X138790997Y-99713051D01*
X138791001Y-99713052D01*
X138911812Y-99728957D01*
X138920000Y-99730035D01*
X138928188Y-99728957D01*
X139048999Y-99713052D01*
X139049003Y-99713051D01*
X139057183Y-99711974D01*
X139064807Y-99708816D01*
X139064811Y-99708815D01*
X139177389Y-99662184D01*
X139185018Y-99659024D01*
X139206998Y-99642158D01*
X139288240Y-99579818D01*
X139288241Y-99579817D01*
X139294791Y-99574791D01*
X139299817Y-99568241D01*
X139299820Y-99568238D01*
X139340941Y-99514648D01*
X139379024Y-99465017D01*
X139431974Y-99337183D01*
X139450035Y-99200000D01*
X139431974Y-99062817D01*
X139379024Y-98934983D01*
X139332643Y-98874538D01*
X139299820Y-98831762D01*
X139299817Y-98831759D01*
X139294791Y-98825209D01*
X139281465Y-98814983D01*
X139191568Y-98746002D01*
X139185018Y-98740976D01*
X139177389Y-98737816D01*
X139064811Y-98691185D01*
X139064807Y-98691184D01*
X139057183Y-98688026D01*
X139049003Y-98686949D01*
X139048999Y-98686948D01*
X138928188Y-98671043D01*
X138920000Y-98669965D01*
X138782817Y-98688026D01*
X138654983Y-98740976D01*
X138545209Y-98825209D01*
X138460976Y-98934983D01*
X138408026Y-99062817D01*
X138389965Y-99200000D01*
X133747738Y-99200000D01*
X133749297Y-99188160D01*
X133731236Y-99050977D01*
X133678286Y-98923143D01*
X133673189Y-98916500D01*
X133673154Y-98916410D01*
X133669129Y-98909438D01*
X133670216Y-98908810D01*
X133647586Y-98850281D01*
X133656740Y-98791576D01*
X133677844Y-98740627D01*
X133677845Y-98740623D01*
X133681003Y-98732999D01*
X133682080Y-98724819D01*
X133682081Y-98724815D01*
X133697986Y-98604004D01*
X133699064Y-98595816D01*
X133681003Y-98458633D01*
X133628053Y-98330799D01*
X133585937Y-98275912D01*
X133548849Y-98227578D01*
X133548846Y-98227575D01*
X133543820Y-98221025D01*
X133535553Y-98214681D01*
X133440597Y-98141818D01*
X133434047Y-98136792D01*
X133426418Y-98133632D01*
X133313840Y-98087001D01*
X133313836Y-98087000D01*
X133306212Y-98083842D01*
X133298032Y-98082765D01*
X133298028Y-98082764D01*
X133177217Y-98066859D01*
X133169029Y-98065781D01*
X133031846Y-98083842D01*
X132904012Y-98136792D01*
X132794238Y-98221025D01*
X132710005Y-98330799D01*
X132657055Y-98458633D01*
X132638994Y-98595816D01*
X126411678Y-98595816D01*
X126471058Y-98518430D01*
X126489024Y-98495017D01*
X126541974Y-98367183D01*
X126560035Y-98230000D01*
X126541974Y-98092817D01*
X126515955Y-98030000D01*
X131399965Y-98030000D01*
X131418026Y-98167183D01*
X131470976Y-98295017D01*
X131505978Y-98340632D01*
X131550180Y-98398238D01*
X131550183Y-98398241D01*
X131555209Y-98404791D01*
X131561759Y-98409817D01*
X131561760Y-98409818D01*
X131615431Y-98451002D01*
X131664982Y-98489024D01*
X131672611Y-98492184D01*
X131785189Y-98538815D01*
X131785193Y-98538816D01*
X131792817Y-98541974D01*
X131800997Y-98543051D01*
X131801001Y-98543052D01*
X131921812Y-98558957D01*
X131930000Y-98560035D01*
X131938188Y-98558957D01*
X132058999Y-98543052D01*
X132059003Y-98543051D01*
X132067183Y-98541974D01*
X132074807Y-98538816D01*
X132074811Y-98538815D01*
X132187389Y-98492184D01*
X132195018Y-98489024D01*
X132244569Y-98451002D01*
X132298240Y-98409818D01*
X132298241Y-98409817D01*
X132304791Y-98404791D01*
X132309817Y-98398241D01*
X132309820Y-98398238D01*
X132354022Y-98340632D01*
X132389024Y-98295017D01*
X132441974Y-98167183D01*
X132460035Y-98030000D01*
X132441974Y-97892817D01*
X132389024Y-97764983D01*
X132339961Y-97701043D01*
X132309820Y-97661762D01*
X132309817Y-97661759D01*
X132304791Y-97655209D01*
X132296919Y-97649168D01*
X132201568Y-97576002D01*
X132195018Y-97570976D01*
X132168350Y-97559930D01*
X132074811Y-97521185D01*
X132074807Y-97521184D01*
X132067183Y-97518026D01*
X132059003Y-97516949D01*
X132058999Y-97516948D01*
X131938188Y-97501043D01*
X131930000Y-97499965D01*
X131792817Y-97518026D01*
X131664983Y-97570976D01*
X131555209Y-97655209D01*
X131470976Y-97764983D01*
X131418026Y-97892817D01*
X131399965Y-98030000D01*
X126515955Y-98030000D01*
X126489024Y-97964983D01*
X126446907Y-97910096D01*
X126409820Y-97861762D01*
X126409817Y-97861759D01*
X126404791Y-97855209D01*
X126295018Y-97770976D01*
X126278198Y-97764009D01*
X126174811Y-97721185D01*
X126174807Y-97721184D01*
X126167183Y-97718026D01*
X126159003Y-97716949D01*
X126158999Y-97716948D01*
X126038188Y-97701043D01*
X126030000Y-97699965D01*
X125892817Y-97718026D01*
X125764983Y-97770976D01*
X125655209Y-97855209D01*
X125570976Y-97964983D01*
X125518026Y-98092817D01*
X125499965Y-98230000D01*
X124366341Y-98230000D01*
X124362710Y-98221234D01*
X124313335Y-98156888D01*
X124283506Y-98118013D01*
X124283503Y-98118010D01*
X124278477Y-98111460D01*
X124254182Y-98092817D01*
X124175254Y-98032253D01*
X124168704Y-98027227D01*
X124132862Y-98012381D01*
X124048497Y-97977436D01*
X124048493Y-97977435D01*
X124040869Y-97974277D01*
X124021187Y-97971686D01*
X124016709Y-97971096D01*
X123951782Y-97942372D01*
X123924764Y-97901410D01*
X123904167Y-97934314D01*
X123836975Y-97964999D01*
X123766503Y-97974277D01*
X123638669Y-98027227D01*
X123528895Y-98111460D01*
X123523869Y-98118010D01*
X123519017Y-98122862D01*
X123456705Y-98156888D01*
X123385890Y-98151823D01*
X123353218Y-98133729D01*
X123266517Y-98067200D01*
X123266511Y-98067197D01*
X123259963Y-98062172D01*
X123252334Y-98059012D01*
X123139756Y-98012381D01*
X123139752Y-98012380D01*
X123132128Y-98009222D01*
X123123948Y-98008145D01*
X123123944Y-98008144D01*
X123003133Y-97992239D01*
X122994945Y-97991161D01*
X122857762Y-98009222D01*
X122729928Y-98062172D01*
X122620154Y-98146405D01*
X122535921Y-98256179D01*
X122482971Y-98384013D01*
X122464910Y-98521196D01*
X118893610Y-98521196D01*
X118881974Y-98432817D01*
X118829024Y-98304983D01*
X118786547Y-98249626D01*
X118749820Y-98201762D01*
X118749817Y-98201759D01*
X118744791Y-98195209D01*
X118708268Y-98167183D01*
X118641568Y-98116002D01*
X118635018Y-98110976D01*
X118627389Y-98107816D01*
X118514811Y-98061185D01*
X118514807Y-98061184D01*
X118507183Y-98058026D01*
X118499003Y-98056949D01*
X118498999Y-98056948D01*
X118378188Y-98041043D01*
X118370000Y-98039965D01*
X118232817Y-98058026D01*
X118104983Y-98110976D01*
X117995209Y-98195209D01*
X117910976Y-98304983D01*
X117858026Y-98432817D01*
X117839965Y-98570000D01*
X114851949Y-98570000D01*
X114847183Y-98568026D01*
X114839003Y-98566949D01*
X114838999Y-98566948D01*
X114718188Y-98551043D01*
X114710000Y-98549965D01*
X114572817Y-98568026D01*
X114444983Y-98620976D01*
X114335209Y-98705209D01*
X114250976Y-98814983D01*
X114198026Y-98942817D01*
X114179965Y-99080000D01*
X100720500Y-99080000D01*
X100720500Y-97730000D01*
X114229965Y-97730000D01*
X114248026Y-97867183D01*
X114300976Y-97995017D01*
X114335466Y-98039965D01*
X114380180Y-98098238D01*
X114380183Y-98098241D01*
X114385209Y-98104791D01*
X114391759Y-98109817D01*
X114391760Y-98109818D01*
X114446501Y-98151823D01*
X114494982Y-98189024D01*
X114502611Y-98192184D01*
X114615189Y-98238815D01*
X114615193Y-98238816D01*
X114622817Y-98241974D01*
X114630997Y-98243051D01*
X114631001Y-98243052D01*
X114751812Y-98258957D01*
X114760000Y-98260035D01*
X114768188Y-98258957D01*
X114888999Y-98243052D01*
X114889003Y-98243051D01*
X114897183Y-98241974D01*
X114904807Y-98238816D01*
X114904811Y-98238815D01*
X115017389Y-98192184D01*
X115025018Y-98189024D01*
X115073499Y-98151823D01*
X115128240Y-98109818D01*
X115128241Y-98109817D01*
X115134791Y-98104791D01*
X115139817Y-98098241D01*
X115139820Y-98098238D01*
X115184534Y-98039965D01*
X115219024Y-97995017D01*
X115271974Y-97867183D01*
X115290035Y-97730000D01*
X115271974Y-97592817D01*
X115219024Y-97464983D01*
X115146499Y-97370467D01*
X115139820Y-97361762D01*
X115139817Y-97361759D01*
X115134791Y-97355209D01*
X115111300Y-97337183D01*
X115031568Y-97276002D01*
X115025018Y-97270976D01*
X115017389Y-97267816D01*
X114974377Y-97250000D01*
X120419965Y-97250000D01*
X120438026Y-97387183D01*
X120490976Y-97515017D01*
X120525439Y-97559930D01*
X120570180Y-97618238D01*
X120570183Y-97618241D01*
X120575209Y-97624791D01*
X120581759Y-97629817D01*
X120581760Y-97629818D01*
X120640369Y-97674791D01*
X120684982Y-97709024D01*
X120692611Y-97712184D01*
X120805189Y-97758815D01*
X120805193Y-97758816D01*
X120812817Y-97761974D01*
X120820997Y-97763051D01*
X120821001Y-97763052D01*
X120941812Y-97778957D01*
X120950000Y-97780035D01*
X120958188Y-97778957D01*
X121078999Y-97763052D01*
X121079003Y-97763051D01*
X121087183Y-97761974D01*
X121094807Y-97758816D01*
X121094811Y-97758815D01*
X121207389Y-97712184D01*
X121215018Y-97709024D01*
X121280663Y-97658652D01*
X121346881Y-97633052D01*
X121416430Y-97647316D01*
X121445776Y-97669013D01*
X121450209Y-97674791D01*
X121456755Y-97679814D01*
X121533831Y-97738957D01*
X121559982Y-97759024D01*
X121567611Y-97762184D01*
X121680189Y-97808815D01*
X121680193Y-97808816D01*
X121687817Y-97811974D01*
X121695997Y-97813051D01*
X121696001Y-97813052D01*
X121816812Y-97828957D01*
X121825000Y-97830035D01*
X121833188Y-97828957D01*
X121953999Y-97813052D01*
X121954003Y-97813051D01*
X121962183Y-97811974D01*
X121969807Y-97808816D01*
X121969811Y-97808815D01*
X122082389Y-97762184D01*
X122090018Y-97759024D01*
X122138827Y-97721571D01*
X122205047Y-97695970D01*
X122274596Y-97710234D01*
X122292236Y-97721571D01*
X122308428Y-97733996D01*
X122308434Y-97733999D01*
X122314982Y-97739024D01*
X122322611Y-97742184D01*
X122435189Y-97788815D01*
X122435193Y-97788816D01*
X122442817Y-97791974D01*
X122450997Y-97793051D01*
X122451001Y-97793052D01*
X122571812Y-97808957D01*
X122580000Y-97810035D01*
X122588188Y-97808957D01*
X122708999Y-97793052D01*
X122709003Y-97793051D01*
X122717183Y-97791974D01*
X122724807Y-97788816D01*
X122724811Y-97788815D01*
X122837389Y-97742184D01*
X122845018Y-97739024D01*
X122895617Y-97700198D01*
X122961836Y-97674597D01*
X123020535Y-97683750D01*
X123112817Y-97721974D01*
X123120997Y-97723051D01*
X123121001Y-97723052D01*
X123241812Y-97738957D01*
X123250000Y-97740035D01*
X123258188Y-97738957D01*
X123378999Y-97723052D01*
X123379003Y-97723051D01*
X123387183Y-97721974D01*
X123394807Y-97718816D01*
X123394811Y-97718815D01*
X123507389Y-97672184D01*
X123515018Y-97669024D01*
X123529812Y-97657672D01*
X123596033Y-97632072D01*
X123665581Y-97646337D01*
X123671220Y-97649961D01*
X123671275Y-97649866D01*
X123678429Y-97653996D01*
X123684982Y-97659024D01*
X123692611Y-97662184D01*
X123805189Y-97708815D01*
X123805193Y-97708816D01*
X123812817Y-97711974D01*
X123832499Y-97714565D01*
X123836977Y-97715155D01*
X123901904Y-97743879D01*
X123928922Y-97784841D01*
X123949519Y-97751937D01*
X124016711Y-97721252D01*
X124035222Y-97718815D01*
X124078998Y-97713052D01*
X124079001Y-97713051D01*
X124087183Y-97711974D01*
X124094807Y-97708816D01*
X124094811Y-97708815D01*
X124207389Y-97662184D01*
X124215018Y-97659024D01*
X124221566Y-97653999D01*
X124221572Y-97653996D01*
X124310796Y-97585531D01*
X124377016Y-97559930D01*
X124446565Y-97574194D01*
X124464204Y-97585531D01*
X124553428Y-97653996D01*
X124553434Y-97653999D01*
X124559982Y-97659024D01*
X124567611Y-97662184D01*
X124680189Y-97708815D01*
X124680193Y-97708816D01*
X124687817Y-97711974D01*
X124695997Y-97713051D01*
X124696001Y-97713052D01*
X124816812Y-97728957D01*
X124825000Y-97730035D01*
X124833188Y-97728957D01*
X124953999Y-97713052D01*
X124954003Y-97713051D01*
X124962183Y-97711974D01*
X124969807Y-97708816D01*
X124969811Y-97708815D01*
X125082389Y-97662184D01*
X125090018Y-97659024D01*
X125118479Y-97637185D01*
X125193240Y-97579818D01*
X125193241Y-97579817D01*
X125199791Y-97574791D01*
X125204817Y-97568241D01*
X125204820Y-97568238D01*
X125278195Y-97472613D01*
X125284024Y-97465017D01*
X125323187Y-97370467D01*
X126787788Y-97370467D01*
X126805849Y-97507650D01*
X126858799Y-97635484D01*
X126892815Y-97679814D01*
X126938003Y-97738705D01*
X126938006Y-97738708D01*
X126943032Y-97745258D01*
X126949582Y-97750284D01*
X126949583Y-97750285D01*
X127032354Y-97813798D01*
X127052805Y-97829491D01*
X127060434Y-97832651D01*
X127173012Y-97879282D01*
X127173016Y-97879283D01*
X127180640Y-97882441D01*
X127188820Y-97883518D01*
X127188824Y-97883519D01*
X127309635Y-97899424D01*
X127317823Y-97900502D01*
X127326011Y-97899424D01*
X127446822Y-97883519D01*
X127446826Y-97883518D01*
X127455006Y-97882441D01*
X127462630Y-97879283D01*
X127462634Y-97879282D01*
X127575212Y-97832651D01*
X127582841Y-97829491D01*
X127609786Y-97808815D01*
X127620226Y-97800804D01*
X127686446Y-97775203D01*
X127732925Y-97782450D01*
X127733405Y-97780659D01*
X127741381Y-97782796D01*
X127749012Y-97785957D01*
X127886195Y-97804018D01*
X127894383Y-97802940D01*
X128015194Y-97787035D01*
X128015198Y-97787034D01*
X128023378Y-97785957D01*
X128093650Y-97756850D01*
X128164238Y-97749261D01*
X128196858Y-97761208D01*
X128197007Y-97760848D01*
X128317214Y-97810639D01*
X128317218Y-97810640D01*
X128324842Y-97813798D01*
X128333022Y-97814875D01*
X128333026Y-97814876D01*
X128453837Y-97830781D01*
X128462025Y-97831859D01*
X128470213Y-97830781D01*
X128591024Y-97814876D01*
X128591028Y-97814875D01*
X128599208Y-97813798D01*
X128606832Y-97810640D01*
X128606836Y-97810639D01*
X128719412Y-97764009D01*
X128719413Y-97764008D01*
X128727043Y-97760848D01*
X128768454Y-97729072D01*
X128834671Y-97703472D01*
X128877770Y-97707329D01*
X128884715Y-97709190D01*
X128892349Y-97712352D01*
X129029532Y-97730413D01*
X129037720Y-97729335D01*
X129158531Y-97713430D01*
X129158535Y-97713429D01*
X129166715Y-97712352D01*
X129174339Y-97709194D01*
X129174343Y-97709193D01*
X129286919Y-97662563D01*
X129286920Y-97662562D01*
X129294550Y-97659402D01*
X129301100Y-97654376D01*
X129306303Y-97651372D01*
X129375298Y-97634636D01*
X129417517Y-97644084D01*
X129459229Y-97661361D01*
X129459232Y-97661362D01*
X129466864Y-97664523D01*
X129604047Y-97682584D01*
X129612235Y-97681506D01*
X129733046Y-97665601D01*
X129733050Y-97665600D01*
X129741230Y-97664523D01*
X129748854Y-97661365D01*
X129748858Y-97661364D01*
X129858136Y-97616100D01*
X129928726Y-97608511D01*
X129970143Y-97626833D01*
X129971278Y-97624867D01*
X129978429Y-97628996D01*
X129984982Y-97634024D01*
X129992612Y-97637184D01*
X129992613Y-97637185D01*
X130105189Y-97683815D01*
X130105193Y-97683816D01*
X130112817Y-97686974D01*
X130120997Y-97688051D01*
X130121001Y-97688052D01*
X130241812Y-97703957D01*
X130250000Y-97705035D01*
X130258188Y-97703957D01*
X130378999Y-97688052D01*
X130379003Y-97688051D01*
X130387183Y-97686974D01*
X130474394Y-97650851D01*
X130544981Y-97643262D01*
X130582208Y-97656896D01*
X130584982Y-97659024D01*
X130592612Y-97662184D01*
X130592613Y-97662185D01*
X130705189Y-97708815D01*
X130705193Y-97708816D01*
X130712817Y-97711974D01*
X130720997Y-97713051D01*
X130721001Y-97713052D01*
X130841812Y-97728957D01*
X130850000Y-97730035D01*
X130858188Y-97728957D01*
X130978999Y-97713052D01*
X130979003Y-97713051D01*
X130987183Y-97711974D01*
X130994807Y-97708816D01*
X130994811Y-97708815D01*
X131107389Y-97662184D01*
X131115018Y-97659024D01*
X131143479Y-97637185D01*
X131218240Y-97579818D01*
X131218241Y-97579817D01*
X131224791Y-97574791D01*
X131229817Y-97568241D01*
X131229820Y-97568238D01*
X131303195Y-97472613D01*
X131309024Y-97465017D01*
X131361974Y-97337183D01*
X131380035Y-97200000D01*
X131361974Y-97062817D01*
X131309024Y-96934983D01*
X131253022Y-96862000D01*
X131229820Y-96831762D01*
X131229817Y-96831759D01*
X131224791Y-96825209D01*
X131215157Y-96817816D01*
X131121568Y-96746002D01*
X131115018Y-96740976D01*
X131066895Y-96721043D01*
X130994811Y-96691185D01*
X130994807Y-96691184D01*
X130987183Y-96688026D01*
X130979003Y-96686949D01*
X130978999Y-96686948D01*
X130858188Y-96671043D01*
X130850000Y-96669965D01*
X130712817Y-96688026D01*
X130705183Y-96691188D01*
X130625608Y-96724148D01*
X130555018Y-96731737D01*
X130517791Y-96718104D01*
X130515018Y-96715976D01*
X130466599Y-96695921D01*
X130394811Y-96666185D01*
X130394807Y-96666184D01*
X130387183Y-96663026D01*
X130379003Y-96661949D01*
X130378999Y-96661948D01*
X130258188Y-96646043D01*
X130250000Y-96644965D01*
X130112817Y-96663026D01*
X130046817Y-96690364D01*
X129995912Y-96711449D01*
X129925322Y-96719038D01*
X129883904Y-96700716D01*
X129882769Y-96702682D01*
X129875618Y-96698553D01*
X129869065Y-96693525D01*
X129856702Y-96688404D01*
X129748858Y-96643734D01*
X129748854Y-96643733D01*
X129741230Y-96640575D01*
X129733050Y-96639498D01*
X129733046Y-96639497D01*
X129612235Y-96623592D01*
X129604047Y-96622514D01*
X129466864Y-96640575D01*
X129339030Y-96693525D01*
X129332476Y-96698554D01*
X129327280Y-96701554D01*
X129258284Y-96718292D01*
X129216064Y-96708845D01*
X129166715Y-96688404D01*
X129158535Y-96687327D01*
X129158531Y-96687326D01*
X129037720Y-96671421D01*
X129029532Y-96670343D01*
X128892349Y-96688404D01*
X128764515Y-96741354D01*
X128723104Y-96773130D01*
X128656887Y-96798730D01*
X128613789Y-96794873D01*
X128606837Y-96793010D01*
X128599208Y-96789850D01*
X128591024Y-96788773D01*
X128591022Y-96788772D01*
X128470213Y-96772867D01*
X128462025Y-96771789D01*
X128324842Y-96789850D01*
X128317208Y-96793012D01*
X128254571Y-96818956D01*
X128183981Y-96826545D01*
X128151362Y-96814600D01*
X128151213Y-96814959D01*
X128031006Y-96765168D01*
X128031002Y-96765167D01*
X128023378Y-96762009D01*
X128015198Y-96760932D01*
X128015194Y-96760931D01*
X127894383Y-96745026D01*
X127886195Y-96743948D01*
X127749012Y-96762009D01*
X127621178Y-96814959D01*
X127614627Y-96819986D01*
X127614625Y-96819987D01*
X127583790Y-96843647D01*
X127517570Y-96869247D01*
X127471093Y-96862000D01*
X127470613Y-96863791D01*
X127462637Y-96861654D01*
X127455006Y-96858493D01*
X127317823Y-96840432D01*
X127180640Y-96858493D01*
X127052806Y-96911443D01*
X126943032Y-96995676D01*
X126858799Y-97105450D01*
X126805849Y-97233284D01*
X126787788Y-97370467D01*
X125323187Y-97370467D01*
X125336974Y-97337183D01*
X125355035Y-97200000D01*
X125336974Y-97062817D01*
X125284024Y-96934983D01*
X125228022Y-96862000D01*
X125204820Y-96831762D01*
X125204817Y-96831759D01*
X125199791Y-96825209D01*
X125190157Y-96817816D01*
X125096568Y-96746002D01*
X125090018Y-96740976D01*
X125041895Y-96721043D01*
X124969811Y-96691185D01*
X124969807Y-96691184D01*
X124962183Y-96688026D01*
X124954003Y-96686949D01*
X124953999Y-96686948D01*
X124833188Y-96671043D01*
X124825000Y-96669965D01*
X124687817Y-96688026D01*
X124559983Y-96740976D01*
X124464202Y-96814471D01*
X124397985Y-96840071D01*
X124328437Y-96825807D01*
X124310796Y-96814470D01*
X124221568Y-96746002D01*
X124215018Y-96740976D01*
X124166895Y-96721043D01*
X124094811Y-96691185D01*
X124094807Y-96691184D01*
X124087183Y-96688026D01*
X124079003Y-96686949D01*
X124078999Y-96686948D01*
X123958188Y-96671043D01*
X123950000Y-96669965D01*
X123812817Y-96688026D01*
X123684983Y-96740976D01*
X123670188Y-96752329D01*
X123603970Y-96777929D01*
X123534421Y-96763665D01*
X123528780Y-96760039D01*
X123528725Y-96760134D01*
X123521568Y-96756002D01*
X123515018Y-96750976D01*
X123503922Y-96746380D01*
X123394811Y-96701185D01*
X123394807Y-96701184D01*
X123387183Y-96698026D01*
X123379003Y-96696949D01*
X123378999Y-96696948D01*
X123258188Y-96681043D01*
X123250000Y-96679965D01*
X123112817Y-96698026D01*
X122984983Y-96750976D01*
X122934382Y-96789804D01*
X122868164Y-96815403D01*
X122809463Y-96806249D01*
X122724811Y-96771185D01*
X122724807Y-96771184D01*
X122717183Y-96768026D01*
X122709003Y-96766949D01*
X122708999Y-96766948D01*
X122588188Y-96751043D01*
X122580000Y-96749965D01*
X122442817Y-96768026D01*
X122314983Y-96820976D01*
X122266170Y-96858431D01*
X122199954Y-96884031D01*
X122130405Y-96869767D01*
X122112764Y-96858430D01*
X122096568Y-96846002D01*
X122090018Y-96840976D01*
X122053867Y-96826002D01*
X121969811Y-96791185D01*
X121969807Y-96791184D01*
X121962183Y-96788026D01*
X121954003Y-96786949D01*
X121953999Y-96786948D01*
X121833188Y-96771043D01*
X121825000Y-96769965D01*
X121687817Y-96788026D01*
X121559983Y-96840976D01*
X121494337Y-96891349D01*
X121428117Y-96916948D01*
X121358569Y-96902683D01*
X121329224Y-96880987D01*
X121324791Y-96875209D01*
X121303007Y-96858493D01*
X121221568Y-96796002D01*
X121215018Y-96790976D01*
X121171931Y-96773129D01*
X121094811Y-96741185D01*
X121094807Y-96741184D01*
X121087183Y-96738026D01*
X121079003Y-96736949D01*
X121078999Y-96736948D01*
X120958188Y-96721043D01*
X120950000Y-96719965D01*
X120812817Y-96738026D01*
X120684983Y-96790976D01*
X120575209Y-96875209D01*
X120490976Y-96984983D01*
X120438026Y-97112817D01*
X120419965Y-97250000D01*
X114974377Y-97250000D01*
X114904811Y-97221185D01*
X114904807Y-97221184D01*
X114897183Y-97218026D01*
X114889003Y-97216949D01*
X114888999Y-97216948D01*
X114768188Y-97201043D01*
X114760000Y-97199965D01*
X114622817Y-97218026D01*
X114494983Y-97270976D01*
X114385209Y-97355209D01*
X114300976Y-97464983D01*
X114248026Y-97592817D01*
X114229965Y-97730000D01*
X100720500Y-97730000D01*
X100720500Y-94875000D01*
X112444965Y-94875000D01*
X112463026Y-95012183D01*
X112515976Y-95140017D01*
X112558093Y-95194904D01*
X112595180Y-95243238D01*
X112595183Y-95243241D01*
X112600209Y-95249791D01*
X112709982Y-95334024D01*
X112717611Y-95337184D01*
X112830189Y-95383815D01*
X112830193Y-95383816D01*
X112837817Y-95386974D01*
X112845997Y-95388051D01*
X112846001Y-95388052D01*
X112966812Y-95403957D01*
X112975000Y-95405035D01*
X112983188Y-95403957D01*
X113103999Y-95388052D01*
X113104003Y-95388051D01*
X113112183Y-95386974D01*
X113119807Y-95383816D01*
X113119811Y-95383815D01*
X113232389Y-95337184D01*
X113240018Y-95334024D01*
X113349791Y-95249791D01*
X113354817Y-95243241D01*
X113354820Y-95243238D01*
X113391907Y-95194904D01*
X113434024Y-95140017D01*
X113486974Y-95012183D01*
X113505035Y-94875000D01*
X113486974Y-94737817D01*
X113434024Y-94609983D01*
X113391907Y-94555096D01*
X113354820Y-94506762D01*
X113354817Y-94506759D01*
X113349791Y-94500209D01*
X113240018Y-94415976D01*
X113232389Y-94412816D01*
X113119811Y-94366185D01*
X113119807Y-94366184D01*
X113112183Y-94363026D01*
X113104003Y-94361949D01*
X113103999Y-94361948D01*
X112983188Y-94346043D01*
X112975000Y-94344965D01*
X112837817Y-94363026D01*
X112709983Y-94415976D01*
X112600209Y-94500209D01*
X112515976Y-94609983D01*
X112463026Y-94737817D01*
X112444965Y-94875000D01*
X100720500Y-94875000D01*
X100720500Y-91770711D01*
X112415676Y-91770711D01*
X112433737Y-91907894D01*
X112486687Y-92035728D01*
X112528804Y-92090615D01*
X112565891Y-92138949D01*
X112565894Y-92138952D01*
X112570920Y-92145502D01*
X112680693Y-92229735D01*
X112688322Y-92232895D01*
X112800900Y-92279526D01*
X112800904Y-92279527D01*
X112808528Y-92282685D01*
X112816708Y-92283762D01*
X112816712Y-92283763D01*
X112937523Y-92299668D01*
X112945711Y-92300746D01*
X112953899Y-92299668D01*
X113074710Y-92283763D01*
X113074714Y-92283762D01*
X113082894Y-92282685D01*
X113090518Y-92279527D01*
X113090522Y-92279526D01*
X113203100Y-92232895D01*
X113210729Y-92229735D01*
X113320502Y-92145502D01*
X113325528Y-92138952D01*
X113325531Y-92138949D01*
X113362618Y-92090615D01*
X113404735Y-92035728D01*
X113457685Y-91907894D01*
X113475746Y-91770711D01*
X113457685Y-91633528D01*
X113454523Y-91625894D01*
X113429319Y-91565044D01*
X113421730Y-91494454D01*
X113453510Y-91430968D01*
X113497509Y-91400419D01*
X113517387Y-91392185D01*
X113517388Y-91392184D01*
X113525018Y-91389024D01*
X113634791Y-91304791D01*
X113639817Y-91298241D01*
X113639820Y-91298238D01*
X113710399Y-91206257D01*
X113719024Y-91195017D01*
X113771974Y-91067183D01*
X113790035Y-90930000D01*
X113771974Y-90792817D01*
X113719024Y-90664983D01*
X113676907Y-90610096D01*
X113639820Y-90561762D01*
X113639817Y-90561759D01*
X113634791Y-90555209D01*
X113525018Y-90470976D01*
X113517389Y-90467816D01*
X113404811Y-90421185D01*
X113404807Y-90421184D01*
X113397183Y-90418026D01*
X113389003Y-90416949D01*
X113388999Y-90416948D01*
X113268188Y-90401043D01*
X113260000Y-90399965D01*
X113122817Y-90418026D01*
X112994983Y-90470976D01*
X112885209Y-90555209D01*
X112800976Y-90664983D01*
X112748026Y-90792817D01*
X112729965Y-90930000D01*
X112748026Y-91067183D01*
X112751187Y-91074814D01*
X112751188Y-91074817D01*
X112776392Y-91135667D01*
X112783981Y-91206257D01*
X112752201Y-91269743D01*
X112708202Y-91300292D01*
X112688328Y-91308524D01*
X112688322Y-91308527D01*
X112680694Y-91311687D01*
X112570920Y-91395920D01*
X112486687Y-91505694D01*
X112433737Y-91633528D01*
X112415676Y-91770711D01*
X100720500Y-91770711D01*
X100720500Y-87640000D01*
X133889965Y-87640000D01*
X133908026Y-87777183D01*
X133960976Y-87905017D01*
X134003092Y-87959904D01*
X134040180Y-88008238D01*
X134040183Y-88008241D01*
X134045209Y-88014791D01*
X134154982Y-88099024D01*
X134162611Y-88102184D01*
X134275189Y-88148815D01*
X134275193Y-88148816D01*
X134282817Y-88151974D01*
X134290997Y-88153051D01*
X134291001Y-88153052D01*
X134411812Y-88168957D01*
X134420000Y-88170035D01*
X134428188Y-88168957D01*
X134548999Y-88153052D01*
X134549003Y-88153051D01*
X134557183Y-88151974D01*
X134564807Y-88148816D01*
X134564811Y-88148815D01*
X134677389Y-88102184D01*
X134685018Y-88099024D01*
X134794791Y-88014791D01*
X134799817Y-88008241D01*
X134799820Y-88008238D01*
X134836908Y-87959904D01*
X134879024Y-87905017D01*
X134887729Y-87884000D01*
X139068365Y-87884000D01*
X139086426Y-88021183D01*
X139139376Y-88149017D01*
X139154677Y-88168957D01*
X139218580Y-88252238D01*
X139218583Y-88252241D01*
X139223609Y-88258791D01*
X139333382Y-88343024D01*
X139341011Y-88346184D01*
X139453589Y-88392815D01*
X139453593Y-88392816D01*
X139461217Y-88395974D01*
X139469397Y-88397051D01*
X139469401Y-88397052D01*
X139590212Y-88412957D01*
X139598400Y-88414035D01*
X139606588Y-88412957D01*
X139727399Y-88397052D01*
X139727403Y-88397051D01*
X139735583Y-88395974D01*
X139743207Y-88392816D01*
X139743211Y-88392815D01*
X139855789Y-88346184D01*
X139863418Y-88343024D01*
X139928095Y-88293395D01*
X139994316Y-88267794D01*
X140063864Y-88282058D01*
X140081505Y-88293395D01*
X140146182Y-88343024D01*
X140153811Y-88346184D01*
X140266389Y-88392815D01*
X140266393Y-88392816D01*
X140274017Y-88395974D01*
X140282197Y-88397051D01*
X140282201Y-88397052D01*
X140403012Y-88412957D01*
X140411200Y-88414035D01*
X140419388Y-88412957D01*
X140540199Y-88397052D01*
X140540203Y-88397051D01*
X140548383Y-88395974D01*
X140556007Y-88392816D01*
X140556011Y-88392815D01*
X140668589Y-88346184D01*
X140676218Y-88343024D01*
X140785991Y-88258791D01*
X140791017Y-88252241D01*
X140791020Y-88252238D01*
X140854923Y-88168957D01*
X140870224Y-88149017D01*
X140923174Y-88021183D01*
X140941235Y-87884000D01*
X140923174Y-87746817D01*
X140870224Y-87618983D01*
X140817600Y-87550402D01*
X140791020Y-87515762D01*
X140791017Y-87515759D01*
X140785991Y-87509209D01*
X140676218Y-87424976D01*
X140668589Y-87421816D01*
X140556011Y-87375185D01*
X140556007Y-87375184D01*
X140548383Y-87372026D01*
X140540203Y-87370949D01*
X140540199Y-87370948D01*
X140419388Y-87355043D01*
X140411200Y-87353965D01*
X140274017Y-87372026D01*
X140146183Y-87424976D01*
X140081503Y-87474607D01*
X140015286Y-87500207D01*
X139945737Y-87485943D01*
X139928096Y-87474606D01*
X139869968Y-87430002D01*
X139863418Y-87424976D01*
X139855789Y-87421816D01*
X139743211Y-87375185D01*
X139743207Y-87375184D01*
X139735583Y-87372026D01*
X139727403Y-87370949D01*
X139727399Y-87370948D01*
X139606588Y-87355043D01*
X139598400Y-87353965D01*
X139461217Y-87372026D01*
X139333383Y-87424976D01*
X139223609Y-87509209D01*
X139139376Y-87618983D01*
X139086426Y-87746817D01*
X139068365Y-87884000D01*
X134887729Y-87884000D01*
X134931974Y-87777183D01*
X134950035Y-87640000D01*
X134931974Y-87502817D01*
X134879024Y-87374983D01*
X134836908Y-87320096D01*
X134799820Y-87271762D01*
X134799817Y-87271759D01*
X134794791Y-87265209D01*
X134685018Y-87180976D01*
X134677389Y-87177816D01*
X134564811Y-87131185D01*
X134564807Y-87131184D01*
X134557183Y-87128026D01*
X134549003Y-87126949D01*
X134548999Y-87126948D01*
X134428188Y-87111043D01*
X134420000Y-87109965D01*
X134282817Y-87128026D01*
X134154983Y-87180976D01*
X134045209Y-87265209D01*
X133960976Y-87374983D01*
X133908026Y-87502817D01*
X133889965Y-87640000D01*
X100720500Y-87640000D01*
X100720500Y-82376665D01*
X106554994Y-82376665D01*
X106555510Y-82382809D01*
X106567786Y-82528994D01*
X106570592Y-82562414D01*
X106572291Y-82568339D01*
X106600013Y-82665017D01*
X106621971Y-82741595D01*
X106624790Y-82747080D01*
X106691152Y-82876205D01*
X106707176Y-82907385D01*
X106822959Y-83053468D01*
X106964912Y-83174279D01*
X107127627Y-83265217D01*
X107304907Y-83322819D01*
X107489998Y-83344890D01*
X107496133Y-83344418D01*
X107496135Y-83344418D01*
X107669710Y-83331062D01*
X107669715Y-83331061D01*
X107675851Y-83330589D01*
X107681781Y-83328933D01*
X107681783Y-83328933D01*
X107849459Y-83282117D01*
X107849458Y-83282117D01*
X107855387Y-83280462D01*
X108021768Y-83196417D01*
X108046255Y-83177286D01*
X108163794Y-83085454D01*
X108163795Y-83085453D01*
X108168655Y-83081656D01*
X108290454Y-82940550D01*
X108294162Y-82934024D01*
X108339622Y-82853998D01*
X108382526Y-82778474D01*
X108441364Y-82601601D01*
X108453165Y-82508188D01*
X108464285Y-82420170D01*
X108464286Y-82420163D01*
X108464727Y-82416668D01*
X108465099Y-82390000D01*
X108446909Y-82204487D01*
X108445128Y-82198588D01*
X108445127Y-82198583D01*
X108394814Y-82031939D01*
X108393033Y-82026040D01*
X108332369Y-81911948D01*
X108308416Y-81866898D01*
X108308414Y-81866895D01*
X108305522Y-81861456D01*
X108301632Y-81856686D01*
X108301629Y-81856682D01*
X108191605Y-81721780D01*
X108191602Y-81721777D01*
X108187710Y-81717005D01*
X108182056Y-81712327D01*
X108118804Y-81660000D01*
X115879965Y-81660000D01*
X115898026Y-81797183D01*
X115950976Y-81925017D01*
X115982567Y-81966187D01*
X116030180Y-82028238D01*
X116030183Y-82028241D01*
X116035209Y-82034791D01*
X116041759Y-82039817D01*
X116041760Y-82039818D01*
X116072757Y-82063603D01*
X116144982Y-82119024D01*
X116152611Y-82122184D01*
X116265189Y-82168815D01*
X116265193Y-82168816D01*
X116272817Y-82171974D01*
X116280997Y-82173051D01*
X116281001Y-82173052D01*
X116401812Y-82188957D01*
X116410000Y-82190035D01*
X116418188Y-82188957D01*
X116538999Y-82173052D01*
X116539003Y-82173051D01*
X116547183Y-82171974D01*
X116554807Y-82168816D01*
X116554811Y-82168815D01*
X116667389Y-82122184D01*
X116675018Y-82119024D01*
X116718747Y-82085469D01*
X116784967Y-82059868D01*
X116854516Y-82074132D01*
X116872155Y-82085468D01*
X116954982Y-82149024D01*
X116962611Y-82152184D01*
X117075189Y-82198815D01*
X117075193Y-82198816D01*
X117082817Y-82201974D01*
X117090997Y-82203051D01*
X117091001Y-82203052D01*
X117211812Y-82218957D01*
X117220000Y-82220035D01*
X117357183Y-82201974D01*
X117359090Y-82201184D01*
X117427196Y-82202804D01*
X117485992Y-82242597D01*
X117505242Y-82274604D01*
X117550976Y-82385017D01*
X117577950Y-82420170D01*
X117630180Y-82488238D01*
X117630183Y-82488241D01*
X117635209Y-82494791D01*
X117641759Y-82499817D01*
X117641760Y-82499818D01*
X117700399Y-82544814D01*
X117744982Y-82579024D01*
X117752611Y-82582184D01*
X117865189Y-82628815D01*
X117865193Y-82628816D01*
X117872817Y-82631974D01*
X117880997Y-82633051D01*
X117881001Y-82633052D01*
X118001812Y-82648957D01*
X118010000Y-82650035D01*
X118018188Y-82648957D01*
X118138999Y-82633052D01*
X118139003Y-82633051D01*
X118147183Y-82631974D01*
X118154807Y-82628816D01*
X118154811Y-82628815D01*
X118267389Y-82582184D01*
X118275018Y-82579024D01*
X118319601Y-82544814D01*
X118378003Y-82500000D01*
X119069965Y-82500000D01*
X119088026Y-82637183D01*
X119140976Y-82765017D01*
X119159153Y-82788705D01*
X119220180Y-82868238D01*
X119220183Y-82868241D01*
X119225209Y-82874791D01*
X119231759Y-82879817D01*
X119231760Y-82879818D01*
X119316982Y-82945212D01*
X119334982Y-82959024D01*
X119342611Y-82962184D01*
X119455189Y-83008815D01*
X119455193Y-83008816D01*
X119462817Y-83011974D01*
X119470997Y-83013051D01*
X119471001Y-83013052D01*
X119591812Y-83028957D01*
X119600000Y-83030035D01*
X119608188Y-83028957D01*
X119728999Y-83013052D01*
X119729003Y-83013051D01*
X119737183Y-83011974D01*
X119744807Y-83008816D01*
X119744811Y-83008815D01*
X119857389Y-82962184D01*
X119865018Y-82959024D01*
X119871566Y-82953999D01*
X119871572Y-82953996D01*
X119923296Y-82914306D01*
X119989516Y-82888705D01*
X120059065Y-82902969D01*
X120076704Y-82914306D01*
X120128428Y-82953996D01*
X120128434Y-82953999D01*
X120134982Y-82959024D01*
X120142611Y-82962184D01*
X120255189Y-83008815D01*
X120255193Y-83008816D01*
X120262817Y-83011974D01*
X120270997Y-83013051D01*
X120271001Y-83013052D01*
X120391812Y-83028957D01*
X120400000Y-83030035D01*
X120408188Y-83028957D01*
X120528999Y-83013052D01*
X120529003Y-83013051D01*
X120537183Y-83011974D01*
X120544807Y-83008816D01*
X120544811Y-83008815D01*
X120657389Y-82962184D01*
X120665018Y-82959024D01*
X120671566Y-82953999D01*
X120671572Y-82953996D01*
X120723296Y-82914306D01*
X120789516Y-82888705D01*
X120859065Y-82902969D01*
X120876704Y-82914306D01*
X120928428Y-82953996D01*
X120928434Y-82953999D01*
X120934982Y-82959024D01*
X120942611Y-82962184D01*
X121055189Y-83008815D01*
X121055193Y-83008816D01*
X121062817Y-83011974D01*
X121070997Y-83013051D01*
X121071001Y-83013052D01*
X121191812Y-83028957D01*
X121200000Y-83030035D01*
X121208188Y-83028957D01*
X121328999Y-83013052D01*
X121329003Y-83013051D01*
X121337183Y-83011974D01*
X121344807Y-83008816D01*
X121344811Y-83008815D01*
X121457389Y-82962184D01*
X121465018Y-82959024D01*
X121535795Y-82904714D01*
X121602015Y-82879113D01*
X121671564Y-82893377D01*
X121689204Y-82904713D01*
X121759982Y-82959024D01*
X121767611Y-82962184D01*
X121880189Y-83008815D01*
X121880193Y-83008816D01*
X121887817Y-83011974D01*
X121895997Y-83013051D01*
X121896001Y-83013052D01*
X122016812Y-83028957D01*
X122025000Y-83030035D01*
X122033188Y-83028957D01*
X122153999Y-83013052D01*
X122154003Y-83013051D01*
X122162183Y-83011974D01*
X122169807Y-83008816D01*
X122169811Y-83008815D01*
X122282389Y-82962184D01*
X122290018Y-82959024D01*
X122308018Y-82945212D01*
X122393240Y-82879818D01*
X122393241Y-82879817D01*
X122399791Y-82874791D01*
X122404817Y-82868241D01*
X122404820Y-82868238D01*
X122465847Y-82788705D01*
X122484024Y-82765017D01*
X122536974Y-82637183D01*
X122555035Y-82500000D01*
X123069965Y-82500000D01*
X123088026Y-82637183D01*
X123140976Y-82765017D01*
X123159153Y-82788705D01*
X123220180Y-82868238D01*
X123220183Y-82868241D01*
X123225209Y-82874791D01*
X123231759Y-82879817D01*
X123231760Y-82879818D01*
X123316982Y-82945212D01*
X123334982Y-82959024D01*
X123342611Y-82962184D01*
X123455189Y-83008815D01*
X123455193Y-83008816D01*
X123462817Y-83011974D01*
X123470997Y-83013051D01*
X123471001Y-83013052D01*
X123591812Y-83028957D01*
X123600000Y-83030035D01*
X123608188Y-83028957D01*
X123728999Y-83013052D01*
X123729003Y-83013051D01*
X123737183Y-83011974D01*
X123744807Y-83008816D01*
X123744811Y-83008815D01*
X123857389Y-82962184D01*
X123865018Y-82959024D01*
X123935795Y-82904714D01*
X124002015Y-82879113D01*
X124071564Y-82893377D01*
X124089204Y-82904713D01*
X124159982Y-82959024D01*
X124167611Y-82962184D01*
X124280189Y-83008815D01*
X124280193Y-83008816D01*
X124287817Y-83011974D01*
X124295997Y-83013051D01*
X124296001Y-83013052D01*
X124416812Y-83028957D01*
X124425000Y-83030035D01*
X124433188Y-83028957D01*
X124553999Y-83013052D01*
X124554003Y-83013051D01*
X124562183Y-83011974D01*
X124569807Y-83008816D01*
X124569811Y-83008815D01*
X124682389Y-82962184D01*
X124690018Y-82959024D01*
X124708018Y-82945212D01*
X124764585Y-82901806D01*
X124830806Y-82876205D01*
X124900354Y-82890469D01*
X124917994Y-82901806D01*
X124953428Y-82928996D01*
X124953434Y-82928999D01*
X124959982Y-82934024D01*
X124967611Y-82937184D01*
X125080189Y-82983815D01*
X125080193Y-82983816D01*
X125087817Y-82986974D01*
X125095997Y-82988051D01*
X125096001Y-82988052D01*
X125216812Y-83003957D01*
X125225000Y-83005035D01*
X125233188Y-83003957D01*
X125353999Y-82988052D01*
X125354003Y-82988051D01*
X125362183Y-82986974D01*
X125369807Y-82983816D01*
X125369811Y-82983815D01*
X125482389Y-82937184D01*
X125490018Y-82934024D01*
X125518754Y-82911974D01*
X125519506Y-82911397D01*
X125585727Y-82885797D01*
X125655276Y-82900062D01*
X125672914Y-82911398D01*
X125728428Y-82953996D01*
X125728434Y-82953999D01*
X125734982Y-82959024D01*
X125742611Y-82962184D01*
X125855189Y-83008815D01*
X125855193Y-83008816D01*
X125862817Y-83011974D01*
X125870997Y-83013051D01*
X125871001Y-83013052D01*
X125991812Y-83028957D01*
X126000000Y-83030035D01*
X126008188Y-83028957D01*
X126128999Y-83013052D01*
X126129003Y-83013051D01*
X126137183Y-83011974D01*
X126144807Y-83008816D01*
X126144811Y-83008815D01*
X126257389Y-82962184D01*
X126265018Y-82959024D01*
X126283018Y-82945212D01*
X126368240Y-82879818D01*
X126368241Y-82879817D01*
X126374791Y-82874791D01*
X126379817Y-82868241D01*
X126379820Y-82868238D01*
X126440847Y-82788705D01*
X126459024Y-82765017D01*
X126511974Y-82637183D01*
X126530035Y-82500000D01*
X127069965Y-82500000D01*
X127088026Y-82637183D01*
X127140976Y-82765017D01*
X127159153Y-82788705D01*
X127220180Y-82868238D01*
X127220183Y-82868241D01*
X127225209Y-82874791D01*
X127231759Y-82879817D01*
X127231760Y-82879818D01*
X127316982Y-82945212D01*
X127334982Y-82959024D01*
X127342611Y-82962184D01*
X127455189Y-83008815D01*
X127455193Y-83008816D01*
X127462817Y-83011974D01*
X127470997Y-83013051D01*
X127471001Y-83013052D01*
X127591812Y-83028957D01*
X127600000Y-83030035D01*
X127608188Y-83028957D01*
X127728999Y-83013052D01*
X127729003Y-83013051D01*
X127737183Y-83011974D01*
X127744807Y-83008816D01*
X127744811Y-83008815D01*
X127857389Y-82962184D01*
X127865018Y-82959024D01*
X127871566Y-82953999D01*
X127871572Y-82953996D01*
X127923296Y-82914306D01*
X127989516Y-82888705D01*
X128059065Y-82902969D01*
X128076704Y-82914306D01*
X128128428Y-82953996D01*
X128128434Y-82953999D01*
X128134982Y-82959024D01*
X128142611Y-82962184D01*
X128255189Y-83008815D01*
X128255193Y-83008816D01*
X128262817Y-83011974D01*
X128270997Y-83013051D01*
X128271001Y-83013052D01*
X128391812Y-83028957D01*
X128400000Y-83030035D01*
X128408188Y-83028957D01*
X128528999Y-83013052D01*
X128529003Y-83013051D01*
X128537183Y-83011974D01*
X128544807Y-83008816D01*
X128544811Y-83008815D01*
X128657389Y-82962184D01*
X128665018Y-82959024D01*
X128671566Y-82953999D01*
X128671572Y-82953996D01*
X128723296Y-82914306D01*
X128789516Y-82888705D01*
X128859065Y-82902969D01*
X128876704Y-82914306D01*
X128928428Y-82953996D01*
X128928434Y-82953999D01*
X128934982Y-82959024D01*
X128942611Y-82962184D01*
X129055189Y-83008815D01*
X129055193Y-83008816D01*
X129062817Y-83011974D01*
X129070997Y-83013051D01*
X129071001Y-83013052D01*
X129191812Y-83028957D01*
X129200000Y-83030035D01*
X129208188Y-83028957D01*
X129328999Y-83013052D01*
X129329003Y-83013051D01*
X129337183Y-83011974D01*
X129344807Y-83008816D01*
X129344811Y-83008815D01*
X129457389Y-82962184D01*
X129465018Y-82959024D01*
X129471566Y-82953999D01*
X129471572Y-82953996D01*
X129523296Y-82914306D01*
X129589516Y-82888705D01*
X129659065Y-82902969D01*
X129676704Y-82914306D01*
X129728428Y-82953996D01*
X129728434Y-82953999D01*
X129734982Y-82959024D01*
X129742611Y-82962184D01*
X129855189Y-83008815D01*
X129855193Y-83008816D01*
X129862817Y-83011974D01*
X129870997Y-83013051D01*
X129871001Y-83013052D01*
X129991812Y-83028957D01*
X130000000Y-83030035D01*
X130008188Y-83028957D01*
X130128999Y-83013052D01*
X130129003Y-83013051D01*
X130137183Y-83011974D01*
X130144807Y-83008816D01*
X130144811Y-83008815D01*
X130257389Y-82962184D01*
X130265018Y-82959024D01*
X130283018Y-82945212D01*
X130368240Y-82879818D01*
X130368241Y-82879817D01*
X130374791Y-82874791D01*
X130379817Y-82868241D01*
X130379820Y-82868238D01*
X130440847Y-82788705D01*
X130459024Y-82765017D01*
X130511974Y-82637183D01*
X130530035Y-82500000D01*
X130516869Y-82400000D01*
X131069965Y-82400000D01*
X131088026Y-82537183D01*
X131140976Y-82665017D01*
X131165188Y-82696570D01*
X131220180Y-82768238D01*
X131220183Y-82768241D01*
X131225209Y-82774791D01*
X131231759Y-82779817D01*
X131231760Y-82779818D01*
X131321786Y-82848898D01*
X131334982Y-82859024D01*
X131342611Y-82862184D01*
X131455189Y-82908815D01*
X131455193Y-82908816D01*
X131462817Y-82911974D01*
X131470997Y-82913051D01*
X131471001Y-82913052D01*
X131591812Y-82928957D01*
X131600000Y-82930035D01*
X131608188Y-82928957D01*
X131728999Y-82913052D01*
X131729003Y-82913051D01*
X131737183Y-82911974D01*
X131744807Y-82908816D01*
X131744811Y-82908815D01*
X131857389Y-82862184D01*
X131865018Y-82859024D01*
X131871566Y-82853999D01*
X131871572Y-82853996D01*
X131923296Y-82814306D01*
X131989516Y-82788705D01*
X132059065Y-82802969D01*
X132076704Y-82814306D01*
X132128428Y-82853996D01*
X132128434Y-82853999D01*
X132134982Y-82859024D01*
X132142611Y-82862184D01*
X132255189Y-82908815D01*
X132255193Y-82908816D01*
X132262817Y-82911974D01*
X132270997Y-82913051D01*
X132271001Y-82913052D01*
X132391812Y-82928957D01*
X132400000Y-82930035D01*
X132408188Y-82928957D01*
X132528999Y-82913052D01*
X132529003Y-82913051D01*
X132537183Y-82911974D01*
X132544807Y-82908816D01*
X132544811Y-82908815D01*
X132657389Y-82862184D01*
X132665018Y-82859024D01*
X132735795Y-82804714D01*
X132802015Y-82779113D01*
X132871564Y-82793377D01*
X132889204Y-82804713D01*
X132959982Y-82859024D01*
X132967611Y-82862184D01*
X133080189Y-82908815D01*
X133080193Y-82908816D01*
X133087817Y-82911974D01*
X133095997Y-82913051D01*
X133096001Y-82913052D01*
X133216812Y-82928957D01*
X133225000Y-82930035D01*
X133233188Y-82928957D01*
X133353999Y-82913052D01*
X133354003Y-82913051D01*
X133362183Y-82911974D01*
X133369807Y-82908816D01*
X133369811Y-82908815D01*
X133482389Y-82862184D01*
X133490018Y-82859024D01*
X133502051Y-82849791D01*
X133535796Y-82823898D01*
X133602016Y-82798297D01*
X133671565Y-82812562D01*
X133689204Y-82823898D01*
X133722949Y-82849791D01*
X133734982Y-82859024D01*
X133742611Y-82862184D01*
X133855189Y-82908815D01*
X133855193Y-82908816D01*
X133862817Y-82911974D01*
X133870997Y-82913051D01*
X133871001Y-82913052D01*
X133991812Y-82928957D01*
X134000000Y-82930035D01*
X134008188Y-82928957D01*
X134128999Y-82913052D01*
X134129003Y-82913051D01*
X134137183Y-82911974D01*
X134144807Y-82908816D01*
X134144811Y-82908815D01*
X134257389Y-82862184D01*
X134265018Y-82859024D01*
X134278214Y-82848898D01*
X134368240Y-82779818D01*
X134368241Y-82779817D01*
X134374791Y-82774791D01*
X134379817Y-82768241D01*
X134379820Y-82768238D01*
X134434812Y-82696570D01*
X134459024Y-82665017D01*
X134511974Y-82537183D01*
X134526744Y-82425000D01*
X135094965Y-82425000D01*
X135113026Y-82562183D01*
X135165976Y-82690017D01*
X135205553Y-82741595D01*
X135245180Y-82793238D01*
X135245183Y-82793241D01*
X135250209Y-82799791D01*
X135256759Y-82804817D01*
X135256760Y-82804818D01*
X135347949Y-82874791D01*
X135359982Y-82884024D01*
X135367611Y-82887184D01*
X135480189Y-82933815D01*
X135480193Y-82933816D01*
X135487817Y-82936974D01*
X135495997Y-82938051D01*
X135496001Y-82938052D01*
X135616812Y-82953957D01*
X135625000Y-82955035D01*
X135633188Y-82953957D01*
X135753999Y-82938052D01*
X135754003Y-82938051D01*
X135762183Y-82936974D01*
X135769807Y-82933816D01*
X135769811Y-82933815D01*
X135882389Y-82887184D01*
X135890018Y-82884024D01*
X135896566Y-82878999D01*
X135896572Y-82878996D01*
X135948296Y-82839306D01*
X136014516Y-82813705D01*
X136084065Y-82827969D01*
X136101704Y-82839306D01*
X136153428Y-82878996D01*
X136153434Y-82878999D01*
X136159982Y-82884024D01*
X136167611Y-82887184D01*
X136280189Y-82933815D01*
X136280193Y-82933816D01*
X136287817Y-82936974D01*
X136295997Y-82938051D01*
X136296001Y-82938052D01*
X136416812Y-82953957D01*
X136425000Y-82955035D01*
X136433188Y-82953957D01*
X136553999Y-82938052D01*
X136554003Y-82938051D01*
X136562183Y-82936974D01*
X136569807Y-82933816D01*
X136569811Y-82933815D01*
X136682389Y-82887184D01*
X136690018Y-82884024D01*
X136696566Y-82878999D01*
X136696572Y-82878996D01*
X136748296Y-82839306D01*
X136814516Y-82813705D01*
X136884065Y-82827969D01*
X136901704Y-82839306D01*
X136953428Y-82878996D01*
X136953434Y-82878999D01*
X136959982Y-82884024D01*
X136967611Y-82887184D01*
X137080189Y-82933815D01*
X137080193Y-82933816D01*
X137087817Y-82936974D01*
X137095997Y-82938051D01*
X137096001Y-82938052D01*
X137216812Y-82953957D01*
X137225000Y-82955035D01*
X137233188Y-82953957D01*
X137353999Y-82938052D01*
X137354003Y-82938051D01*
X137362183Y-82936974D01*
X137369807Y-82933816D01*
X137369811Y-82933815D01*
X137482389Y-82887184D01*
X137490018Y-82884024D01*
X137502051Y-82874791D01*
X137535796Y-82848898D01*
X137602016Y-82823297D01*
X137671565Y-82837562D01*
X137689204Y-82848898D01*
X137722949Y-82874791D01*
X137734982Y-82884024D01*
X137742611Y-82887184D01*
X137855189Y-82933815D01*
X137855193Y-82933816D01*
X137862817Y-82936974D01*
X137870997Y-82938051D01*
X137871001Y-82938052D01*
X137991812Y-82953957D01*
X138000000Y-82955035D01*
X138008188Y-82953957D01*
X138128999Y-82938052D01*
X138129003Y-82938051D01*
X138137183Y-82936974D01*
X138144807Y-82933816D01*
X138144811Y-82933815D01*
X138257389Y-82887184D01*
X138265018Y-82884024D01*
X138277051Y-82874791D01*
X138368240Y-82804818D01*
X138368241Y-82804817D01*
X138374791Y-82799791D01*
X138379817Y-82793241D01*
X138379820Y-82793238D01*
X138419447Y-82741595D01*
X138459024Y-82690017D01*
X138511974Y-82562183D01*
X138530035Y-82425000D01*
X138523671Y-82376665D01*
X142754994Y-82376665D01*
X142755510Y-82382809D01*
X142767786Y-82528994D01*
X142770592Y-82562414D01*
X142772291Y-82568339D01*
X142800013Y-82665017D01*
X142821971Y-82741595D01*
X142824790Y-82747080D01*
X142891152Y-82876205D01*
X142907176Y-82907385D01*
X143022959Y-83053468D01*
X143164912Y-83174279D01*
X143327627Y-83265217D01*
X143504907Y-83322819D01*
X143689998Y-83344890D01*
X143696133Y-83344418D01*
X143696135Y-83344418D01*
X143869710Y-83331062D01*
X143869715Y-83331061D01*
X143875851Y-83330589D01*
X143881781Y-83328933D01*
X143881783Y-83328933D01*
X144049459Y-83282117D01*
X144049458Y-83282117D01*
X144055387Y-83280462D01*
X144221768Y-83196417D01*
X144246255Y-83177286D01*
X144363794Y-83085454D01*
X144363795Y-83085453D01*
X144368655Y-83081656D01*
X144490454Y-82940550D01*
X144494162Y-82934024D01*
X144539622Y-82853998D01*
X144582526Y-82778474D01*
X144641364Y-82601601D01*
X144653165Y-82508188D01*
X144664285Y-82420170D01*
X144664286Y-82420163D01*
X144664727Y-82416668D01*
X144665099Y-82390000D01*
X144646909Y-82204487D01*
X144645128Y-82198588D01*
X144645127Y-82198583D01*
X144594814Y-82031939D01*
X144593033Y-82026040D01*
X144532369Y-81911948D01*
X144508416Y-81866898D01*
X144508414Y-81866895D01*
X144505522Y-81861456D01*
X144501632Y-81856686D01*
X144501629Y-81856682D01*
X144391605Y-81721780D01*
X144391602Y-81721777D01*
X144387710Y-81717005D01*
X144382056Y-81712327D01*
X144308906Y-81651812D01*
X144244085Y-81598187D01*
X144080116Y-81509529D01*
X143991083Y-81481969D01*
X143907936Y-81456231D01*
X143907933Y-81456230D01*
X143902049Y-81454409D01*
X143895924Y-81453765D01*
X143895923Y-81453765D01*
X143722796Y-81435568D01*
X143722795Y-81435568D01*
X143716668Y-81434924D01*
X143638549Y-81442033D01*
X143537171Y-81451259D01*
X143537168Y-81451260D01*
X143531032Y-81451818D01*
X143525122Y-81453557D01*
X143525119Y-81453558D01*
X143358129Y-81502707D01*
X143352214Y-81504448D01*
X143187023Y-81590807D01*
X143041752Y-81707608D01*
X142921935Y-81850401D01*
X142918971Y-81855793D01*
X142918968Y-81855797D01*
X142869376Y-81946005D01*
X142832135Y-82013746D01*
X142830274Y-82019613D01*
X142830273Y-82019615D01*
X142777634Y-82185554D01*
X142775772Y-82191424D01*
X142754994Y-82376665D01*
X138523671Y-82376665D01*
X138511974Y-82287817D01*
X138459024Y-82159983D01*
X138400000Y-82083062D01*
X138379820Y-82056762D01*
X138379817Y-82056759D01*
X138374791Y-82050209D01*
X138362759Y-82040976D01*
X138271568Y-81971002D01*
X138265018Y-81965976D01*
X138216803Y-81946005D01*
X138144811Y-81916185D01*
X138144807Y-81916184D01*
X138137183Y-81913026D01*
X138129003Y-81911949D01*
X138128999Y-81911948D01*
X138008188Y-81896043D01*
X138000000Y-81894965D01*
X137862817Y-81913026D01*
X137734983Y-81965976D01*
X137728433Y-81971002D01*
X137728430Y-81971004D01*
X137689205Y-82001103D01*
X137622985Y-82026704D01*
X137553436Y-82012440D01*
X137535797Y-82001103D01*
X137496572Y-81971004D01*
X137496566Y-81971001D01*
X137490018Y-81965976D01*
X137441803Y-81946005D01*
X137369811Y-81916185D01*
X137369807Y-81916184D01*
X137362183Y-81913026D01*
X137354003Y-81911949D01*
X137353999Y-81911948D01*
X137233188Y-81896043D01*
X137225000Y-81894965D01*
X137087817Y-81913026D01*
X136959983Y-81965976D01*
X136901703Y-82010696D01*
X136835486Y-82036296D01*
X136765937Y-82022032D01*
X136748296Y-82010695D01*
X136696568Y-81971002D01*
X136690018Y-81965976D01*
X136641803Y-81946005D01*
X136569811Y-81916185D01*
X136569807Y-81916184D01*
X136562183Y-81913026D01*
X136554003Y-81911949D01*
X136553999Y-81911948D01*
X136433188Y-81896043D01*
X136425000Y-81894965D01*
X136287817Y-81913026D01*
X136159983Y-81965976D01*
X136101703Y-82010696D01*
X136035486Y-82036296D01*
X135965937Y-82022032D01*
X135948296Y-82010695D01*
X135896568Y-81971002D01*
X135890018Y-81965976D01*
X135841803Y-81946005D01*
X135769811Y-81916185D01*
X135769807Y-81916184D01*
X135762183Y-81913026D01*
X135754003Y-81911949D01*
X135753999Y-81911948D01*
X135633188Y-81896043D01*
X135625000Y-81894965D01*
X135487817Y-81913026D01*
X135359983Y-81965976D01*
X135250209Y-82050209D01*
X135165976Y-82159983D01*
X135113026Y-82287817D01*
X135094965Y-82425000D01*
X134526744Y-82425000D01*
X134530035Y-82400000D01*
X134511974Y-82262817D01*
X134459024Y-82134983D01*
X134406684Y-82066772D01*
X134379820Y-82031762D01*
X134379817Y-82031759D01*
X134374791Y-82025209D01*
X134362759Y-82015976D01*
X134271568Y-81946002D01*
X134265018Y-81940976D01*
X134257389Y-81937816D01*
X134144811Y-81891185D01*
X134144807Y-81891184D01*
X134137183Y-81888026D01*
X134129003Y-81886949D01*
X134128999Y-81886948D01*
X134008188Y-81871043D01*
X134000000Y-81869965D01*
X133862817Y-81888026D01*
X133734983Y-81940976D01*
X133728433Y-81946002D01*
X133728430Y-81946004D01*
X133689205Y-81976103D01*
X133622985Y-82001704D01*
X133553436Y-81987440D01*
X133535797Y-81976103D01*
X133496572Y-81946004D01*
X133496566Y-81946001D01*
X133490018Y-81940976D01*
X133482389Y-81937816D01*
X133369811Y-81891185D01*
X133369807Y-81891184D01*
X133362183Y-81888026D01*
X133354003Y-81886949D01*
X133353999Y-81886948D01*
X133233188Y-81871043D01*
X133225000Y-81869965D01*
X133087817Y-81888026D01*
X132959983Y-81940976D01*
X132927128Y-81966187D01*
X132889205Y-81995286D01*
X132822985Y-82020887D01*
X132753436Y-82006622D01*
X132735797Y-81995286D01*
X132671572Y-81946004D01*
X132671566Y-81946001D01*
X132665018Y-81940976D01*
X132657389Y-81937816D01*
X132544811Y-81891185D01*
X132544807Y-81891184D01*
X132537183Y-81888026D01*
X132529003Y-81886949D01*
X132528999Y-81886948D01*
X132408188Y-81871043D01*
X132400000Y-81869965D01*
X132262817Y-81888026D01*
X132134983Y-81940976D01*
X132076703Y-81985696D01*
X132010486Y-82011296D01*
X131940937Y-81997032D01*
X131923296Y-81985695D01*
X131904202Y-81971043D01*
X131865018Y-81940976D01*
X131857389Y-81937816D01*
X131744811Y-81891185D01*
X131744807Y-81891184D01*
X131737183Y-81888026D01*
X131729003Y-81886949D01*
X131728999Y-81886948D01*
X131608188Y-81871043D01*
X131600000Y-81869965D01*
X131462817Y-81888026D01*
X131334983Y-81940976D01*
X131225209Y-82025209D01*
X131140976Y-82134983D01*
X131088026Y-82262817D01*
X131069965Y-82400000D01*
X130516869Y-82400000D01*
X130511974Y-82362817D01*
X130459024Y-82234983D01*
X130412500Y-82174352D01*
X130379820Y-82131762D01*
X130379817Y-82131759D01*
X130374791Y-82125209D01*
X130356660Y-82111296D01*
X130271568Y-82046002D01*
X130265018Y-82040976D01*
X130250086Y-82034791D01*
X130144811Y-81991185D01*
X130144807Y-81991184D01*
X130137183Y-81988026D01*
X130129003Y-81986949D01*
X130128999Y-81986948D01*
X130008188Y-81971043D01*
X130000000Y-81969965D01*
X129862817Y-81988026D01*
X129734983Y-82040976D01*
X129676703Y-82085696D01*
X129610486Y-82111296D01*
X129540937Y-82097032D01*
X129523296Y-82085695D01*
X129523002Y-82085469D01*
X129465018Y-82040976D01*
X129450086Y-82034791D01*
X129344811Y-81991185D01*
X129344807Y-81991184D01*
X129337183Y-81988026D01*
X129329003Y-81986949D01*
X129328999Y-81986948D01*
X129208188Y-81971043D01*
X129200000Y-81969965D01*
X129062817Y-81988026D01*
X128934983Y-82040976D01*
X128876703Y-82085696D01*
X128810486Y-82111296D01*
X128740937Y-82097032D01*
X128723296Y-82085695D01*
X128723002Y-82085469D01*
X128665018Y-82040976D01*
X128650086Y-82034791D01*
X128544811Y-81991185D01*
X128544807Y-81991184D01*
X128537183Y-81988026D01*
X128529003Y-81986949D01*
X128528999Y-81986948D01*
X128408188Y-81971043D01*
X128400000Y-81969965D01*
X128262817Y-81988026D01*
X128134983Y-82040976D01*
X128076703Y-82085696D01*
X128010486Y-82111296D01*
X127940937Y-82097032D01*
X127923296Y-82085695D01*
X127923002Y-82085469D01*
X127865018Y-82040976D01*
X127850086Y-82034791D01*
X127744811Y-81991185D01*
X127744807Y-81991184D01*
X127737183Y-81988026D01*
X127729003Y-81986949D01*
X127728999Y-81986948D01*
X127608188Y-81971043D01*
X127600000Y-81969965D01*
X127462817Y-81988026D01*
X127334983Y-82040976D01*
X127225209Y-82125209D01*
X127140976Y-82234983D01*
X127088026Y-82362817D01*
X127069965Y-82500000D01*
X126530035Y-82500000D01*
X126511974Y-82362817D01*
X126459024Y-82234983D01*
X126412500Y-82174352D01*
X126379820Y-82131762D01*
X126379817Y-82131759D01*
X126374791Y-82125209D01*
X126356660Y-82111296D01*
X126271568Y-82046002D01*
X126265018Y-82040976D01*
X126250086Y-82034791D01*
X126144811Y-81991185D01*
X126144807Y-81991184D01*
X126137183Y-81988026D01*
X126129003Y-81986949D01*
X126128999Y-81986948D01*
X126008188Y-81971043D01*
X126000000Y-81969965D01*
X125862817Y-81988026D01*
X125734983Y-82040976D01*
X125712716Y-82058062D01*
X125705495Y-82063603D01*
X125639275Y-82089204D01*
X125569726Y-82074939D01*
X125552087Y-82063603D01*
X125496572Y-82021004D01*
X125496566Y-82021001D01*
X125490018Y-82015976D01*
X125454111Y-82001103D01*
X125369811Y-81966185D01*
X125369807Y-81966184D01*
X125362183Y-81963026D01*
X125354003Y-81961949D01*
X125353999Y-81961948D01*
X125233188Y-81946043D01*
X125225000Y-81944965D01*
X125087817Y-81963026D01*
X124959983Y-82015976D01*
X124885412Y-82073196D01*
X124819196Y-82098796D01*
X124749647Y-82084532D01*
X124732006Y-82073195D01*
X124696568Y-82046002D01*
X124690018Y-82040976D01*
X124675086Y-82034791D01*
X124569811Y-81991185D01*
X124569807Y-81991184D01*
X124562183Y-81988026D01*
X124554003Y-81986949D01*
X124553999Y-81986948D01*
X124433188Y-81971043D01*
X124425000Y-81969965D01*
X124287817Y-81988026D01*
X124159983Y-82040976D01*
X124116487Y-82074352D01*
X124089205Y-82095286D01*
X124022985Y-82120887D01*
X123953436Y-82106622D01*
X123935797Y-82095286D01*
X123871572Y-82046004D01*
X123871566Y-82046001D01*
X123865018Y-82040976D01*
X123850086Y-82034791D01*
X123744811Y-81991185D01*
X123744807Y-81991184D01*
X123737183Y-81988026D01*
X123729003Y-81986949D01*
X123728999Y-81986948D01*
X123608188Y-81971043D01*
X123600000Y-81969965D01*
X123462817Y-81988026D01*
X123334983Y-82040976D01*
X123225209Y-82125209D01*
X123140976Y-82234983D01*
X123088026Y-82362817D01*
X123069965Y-82500000D01*
X122555035Y-82500000D01*
X122536974Y-82362817D01*
X122484024Y-82234983D01*
X122437500Y-82174352D01*
X122404820Y-82131762D01*
X122404817Y-82131759D01*
X122399791Y-82125209D01*
X122381660Y-82111296D01*
X122296568Y-82046002D01*
X122290018Y-82040976D01*
X122275086Y-82034791D01*
X122169811Y-81991185D01*
X122169807Y-81991184D01*
X122162183Y-81988026D01*
X122154003Y-81986949D01*
X122153999Y-81986948D01*
X122033188Y-81971043D01*
X122025000Y-81969965D01*
X121887817Y-81988026D01*
X121759983Y-82040976D01*
X121716487Y-82074352D01*
X121689205Y-82095286D01*
X121622985Y-82120887D01*
X121553436Y-82106622D01*
X121535797Y-82095286D01*
X121471572Y-82046004D01*
X121471566Y-82046001D01*
X121465018Y-82040976D01*
X121450086Y-82034791D01*
X121344811Y-81991185D01*
X121344807Y-81991184D01*
X121337183Y-81988026D01*
X121329003Y-81986949D01*
X121328999Y-81986948D01*
X121208188Y-81971043D01*
X121200000Y-81969965D01*
X121062817Y-81988026D01*
X120934983Y-82040976D01*
X120876703Y-82085696D01*
X120810486Y-82111296D01*
X120740937Y-82097032D01*
X120723296Y-82085695D01*
X120723002Y-82085469D01*
X120665018Y-82040976D01*
X120650086Y-82034791D01*
X120544811Y-81991185D01*
X120544807Y-81991184D01*
X120537183Y-81988026D01*
X120529003Y-81986949D01*
X120528999Y-81986948D01*
X120408188Y-81971043D01*
X120400000Y-81969965D01*
X120262817Y-81988026D01*
X120134983Y-82040976D01*
X120076703Y-82085696D01*
X120010486Y-82111296D01*
X119940937Y-82097032D01*
X119923296Y-82085695D01*
X119923002Y-82085469D01*
X119865018Y-82040976D01*
X119850086Y-82034791D01*
X119744811Y-81991185D01*
X119744807Y-81991184D01*
X119737183Y-81988026D01*
X119729003Y-81986949D01*
X119728999Y-81986948D01*
X119608188Y-81971043D01*
X119600000Y-81969965D01*
X119462817Y-81988026D01*
X119334983Y-82040976D01*
X119225209Y-82125209D01*
X119140976Y-82234983D01*
X119088026Y-82362817D01*
X119069965Y-82500000D01*
X118378003Y-82500000D01*
X118378240Y-82499818D01*
X118378241Y-82499817D01*
X118384791Y-82494791D01*
X118389817Y-82488241D01*
X118389820Y-82488238D01*
X118442050Y-82420170D01*
X118469024Y-82385017D01*
X118521974Y-82257183D01*
X118540035Y-82120000D01*
X118521974Y-81982817D01*
X118469024Y-81854983D01*
X118418389Y-81788994D01*
X118389820Y-81751762D01*
X118389817Y-81751759D01*
X118384791Y-81745209D01*
X118348036Y-81717005D01*
X118281568Y-81666002D01*
X118275018Y-81660976D01*
X118252894Y-81651812D01*
X118154811Y-81611185D01*
X118154807Y-81611184D01*
X118147183Y-81608026D01*
X118139003Y-81606949D01*
X118138999Y-81606948D01*
X118018188Y-81591043D01*
X118010000Y-81589965D01*
X117872817Y-81608026D01*
X117870910Y-81608816D01*
X117802804Y-81607196D01*
X117744008Y-81567403D01*
X117724758Y-81535396D01*
X117691967Y-81456231D01*
X117679024Y-81424983D01*
X117636907Y-81370096D01*
X117599820Y-81321762D01*
X117599817Y-81321759D01*
X117594791Y-81315209D01*
X117562111Y-81290132D01*
X117491568Y-81236002D01*
X117485018Y-81230976D01*
X117424732Y-81206005D01*
X117364811Y-81181185D01*
X117364807Y-81181184D01*
X117357183Y-81178026D01*
X117349003Y-81176949D01*
X117348999Y-81176948D01*
X117228188Y-81161043D01*
X117220000Y-81159965D01*
X117082817Y-81178026D01*
X116954983Y-81230976D01*
X116911251Y-81264533D01*
X116845032Y-81290132D01*
X116775484Y-81275867D01*
X116757845Y-81264531D01*
X116681572Y-81206004D01*
X116681566Y-81206001D01*
X116675018Y-81200976D01*
X116667389Y-81197816D01*
X116554811Y-81151185D01*
X116554807Y-81151184D01*
X116547183Y-81148026D01*
X116539003Y-81146949D01*
X116538999Y-81146948D01*
X116418188Y-81131043D01*
X116410000Y-81129965D01*
X116272817Y-81148026D01*
X116144983Y-81200976D01*
X116035209Y-81285209D01*
X115950976Y-81394983D01*
X115898026Y-81522817D01*
X115879965Y-81660000D01*
X108118804Y-81660000D01*
X108108906Y-81651812D01*
X108044085Y-81598187D01*
X107880116Y-81509529D01*
X107791083Y-81481969D01*
X107707936Y-81456231D01*
X107707933Y-81456230D01*
X107702049Y-81454409D01*
X107695924Y-81453765D01*
X107695923Y-81453765D01*
X107522796Y-81435568D01*
X107522795Y-81435568D01*
X107516668Y-81434924D01*
X107438549Y-81442033D01*
X107337171Y-81451259D01*
X107337168Y-81451260D01*
X107331032Y-81451818D01*
X107325122Y-81453557D01*
X107325119Y-81453558D01*
X107158129Y-81502707D01*
X107152214Y-81504448D01*
X106987023Y-81590807D01*
X106841752Y-81707608D01*
X106721935Y-81850401D01*
X106718971Y-81855793D01*
X106718968Y-81855797D01*
X106669376Y-81946005D01*
X106632135Y-82013746D01*
X106630274Y-82019613D01*
X106630273Y-82019615D01*
X106577634Y-82185554D01*
X106575772Y-82191424D01*
X106554994Y-82376665D01*
X100720500Y-82376665D01*
X100720500Y-77926500D01*
X100740502Y-77858379D01*
X100794158Y-77811886D01*
X100846500Y-77800500D01*
X147283500Y-77800500D01*
X147351621Y-77820502D01*
G37*
%TD.AperFunction*%
%TD*%
M02*
