%TF.GenerationSoftware,KiCad,Pcbnew,6.0.4-6f826c9f35~116~ubuntu20.04.1*%
%TF.CreationDate,2022-04-09T13:04:21+07:00*%
%TF.ProjectId,CH569Board,43483536-3942-46f6-9172-642e6b696361,rev?*%
%TF.SameCoordinates,Original*%
%TF.FileFunction,Legend,Top*%
%TF.FilePolarity,Positive*%
%FSLAX46Y46*%
G04 Gerber Fmt 4.6, Leading zero omitted, Abs format (unit mm)*
G04 Created by KiCad (PCBNEW 6.0.4-6f826c9f35~116~ubuntu20.04.1) date 2022-04-09 13:04:21*
%MOMM*%
%LPD*%
G01*
G04 APERTURE LIST*
%ADD10C,0.150000*%
%ADD11C,0.125000*%
%ADD12C,0.200000*%
%ADD13C,0.300000*%
%ADD14C,0.250000*%
%ADD15C,0.120000*%
%ADD16C,0.010000*%
%ADD17C,0.080000*%
G04 APERTURE END LIST*
D10*
X143518095Y-113030000D02*
X143422857Y-112982380D01*
X143280000Y-112982380D01*
X143137142Y-113030000D01*
X143041904Y-113125238D01*
X142994285Y-113220476D01*
X142946666Y-113410952D01*
X142946666Y-113553809D01*
X142994285Y-113744285D01*
X143041904Y-113839523D01*
X143137142Y-113934761D01*
X143280000Y-113982380D01*
X143375238Y-113982380D01*
X143518095Y-113934761D01*
X143565714Y-113887142D01*
X143565714Y-113553809D01*
X143375238Y-113553809D01*
X143994285Y-113982380D02*
X143994285Y-112982380D01*
X144565714Y-113982380D01*
X144565714Y-112982380D01*
X145041904Y-113982380D02*
X145041904Y-112982380D01*
X145280000Y-112982380D01*
X145422857Y-113030000D01*
X145518095Y-113125238D01*
X145565714Y-113220476D01*
X145613333Y-113410952D01*
X145613333Y-113553809D01*
X145565714Y-113744285D01*
X145518095Y-113839523D01*
X145422857Y-113934761D01*
X145280000Y-113982380D01*
X145041904Y-113982380D01*
X141363333Y-113962380D02*
X141030000Y-113486190D01*
X140791904Y-113962380D02*
X140791904Y-112962380D01*
X141172857Y-112962380D01*
X141268095Y-113010000D01*
X141315714Y-113057619D01*
X141363333Y-113152857D01*
X141363333Y-113295714D01*
X141315714Y-113390952D01*
X141268095Y-113438571D01*
X141172857Y-113486190D01*
X140791904Y-113486190D01*
X141696666Y-112962380D02*
X142363333Y-113962380D01*
X142363333Y-112962380D02*
X141696666Y-113962380D01*
X138178095Y-112982380D02*
X138749523Y-112982380D01*
X138463809Y-113982380D02*
X138463809Y-112982380D01*
X138987619Y-112982380D02*
X139654285Y-113982380D01*
X139654285Y-112982380D02*
X138987619Y-113982380D01*
X143757380Y-98954761D02*
X142757380Y-98954761D01*
X143233571Y-98954761D02*
X143233571Y-98383333D01*
X143757380Y-98383333D02*
X142757380Y-98383333D01*
X143757380Y-97478571D02*
X143233571Y-97478571D01*
X143138333Y-97526190D01*
X143090714Y-97621428D01*
X143090714Y-97811904D01*
X143138333Y-97907142D01*
X143709761Y-97478571D02*
X143757380Y-97573809D01*
X143757380Y-97811904D01*
X143709761Y-97907142D01*
X143614523Y-97954761D01*
X143519285Y-97954761D01*
X143424047Y-97907142D01*
X143376428Y-97811904D01*
X143376428Y-97573809D01*
X143328809Y-97478571D01*
X143090714Y-97002380D02*
X143757380Y-97002380D01*
X143185952Y-97002380D02*
X143138333Y-96954761D01*
X143090714Y-96859523D01*
X143090714Y-96716666D01*
X143138333Y-96621428D01*
X143233571Y-96573809D01*
X143757380Y-96573809D01*
X143709761Y-96145238D02*
X143757380Y-96050000D01*
X143757380Y-95859523D01*
X143709761Y-95764285D01*
X143614523Y-95716666D01*
X143566904Y-95716666D01*
X143471666Y-95764285D01*
X143424047Y-95859523D01*
X143424047Y-96002380D01*
X143376428Y-96097619D01*
X143281190Y-96145238D01*
X143233571Y-96145238D01*
X143138333Y-96097619D01*
X143090714Y-96002380D01*
X143090714Y-95859523D01*
X143138333Y-95764285D01*
X143233571Y-94192857D02*
X143281190Y-94050000D01*
X143328809Y-94002380D01*
X143424047Y-93954761D01*
X143566904Y-93954761D01*
X143662142Y-94002380D01*
X143709761Y-94050000D01*
X143757380Y-94145238D01*
X143757380Y-94526190D01*
X142757380Y-94526190D01*
X142757380Y-94192857D01*
X142805000Y-94097619D01*
X142852619Y-94050000D01*
X142947857Y-94002380D01*
X143043095Y-94002380D01*
X143138333Y-94050000D01*
X143185952Y-94097619D01*
X143233571Y-94192857D01*
X143233571Y-94526190D01*
X143757380Y-93097619D02*
X143233571Y-93097619D01*
X143138333Y-93145238D01*
X143090714Y-93240476D01*
X143090714Y-93430952D01*
X143138333Y-93526190D01*
X143709761Y-93097619D02*
X143757380Y-93192857D01*
X143757380Y-93430952D01*
X143709761Y-93526190D01*
X143614523Y-93573809D01*
X143519285Y-93573809D01*
X143424047Y-93526190D01*
X143376428Y-93430952D01*
X143376428Y-93192857D01*
X143328809Y-93097619D01*
X143757380Y-92621428D02*
X143090714Y-92621428D01*
X142757380Y-92621428D02*
X142805000Y-92669047D01*
X142852619Y-92621428D01*
X142805000Y-92573809D01*
X142757380Y-92621428D01*
X142852619Y-92621428D01*
X143709761Y-91764285D02*
X143757380Y-91859523D01*
X143757380Y-92050000D01*
X143709761Y-92145238D01*
X143614523Y-92192857D01*
X143233571Y-92192857D01*
X143138333Y-92145238D01*
X143090714Y-92050000D01*
X143090714Y-91859523D01*
X143138333Y-91764285D01*
X143233571Y-91716666D01*
X143328809Y-91716666D01*
X143424047Y-92192857D01*
X143757380Y-91288095D02*
X143090714Y-91288095D01*
X143281190Y-91288095D02*
X143185952Y-91240476D01*
X143138333Y-91192857D01*
X143090714Y-91097619D01*
X143090714Y-91002380D01*
X144462619Y-99907142D02*
X144415000Y-99859523D01*
X144367380Y-99764285D01*
X144367380Y-99526190D01*
X144415000Y-99430952D01*
X144462619Y-99383333D01*
X144557857Y-99335714D01*
X144653095Y-99335714D01*
X144795952Y-99383333D01*
X145367380Y-99954761D01*
X145367380Y-99335714D01*
X144367380Y-98716666D02*
X144367380Y-98621428D01*
X144415000Y-98526190D01*
X144462619Y-98478571D01*
X144557857Y-98430952D01*
X144748333Y-98383333D01*
X144986428Y-98383333D01*
X145176904Y-98430952D01*
X145272142Y-98478571D01*
X145319761Y-98526190D01*
X145367380Y-98621428D01*
X145367380Y-98716666D01*
X145319761Y-98811904D01*
X145272142Y-98859523D01*
X145176904Y-98907142D01*
X144986428Y-98954761D01*
X144748333Y-98954761D01*
X144557857Y-98907142D01*
X144462619Y-98859523D01*
X144415000Y-98811904D01*
X144367380Y-98716666D01*
X144462619Y-98002380D02*
X144415000Y-97954761D01*
X144367380Y-97859523D01*
X144367380Y-97621428D01*
X144415000Y-97526190D01*
X144462619Y-97478571D01*
X144557857Y-97430952D01*
X144653095Y-97430952D01*
X144795952Y-97478571D01*
X145367380Y-98050000D01*
X145367380Y-97430952D01*
X144462619Y-97050000D02*
X144415000Y-97002380D01*
X144367380Y-96907142D01*
X144367380Y-96669047D01*
X144415000Y-96573809D01*
X144462619Y-96526190D01*
X144557857Y-96478571D01*
X144653095Y-96478571D01*
X144795952Y-96526190D01*
X145367380Y-97097619D01*
X145367380Y-96478571D01*
X144986428Y-96050000D02*
X144986428Y-95288095D01*
X144367380Y-94621428D02*
X144367380Y-94526190D01*
X144415000Y-94430952D01*
X144462619Y-94383333D01*
X144557857Y-94335714D01*
X144748333Y-94288095D01*
X144986428Y-94288095D01*
X145176904Y-94335714D01*
X145272142Y-94383333D01*
X145319761Y-94430952D01*
X145367380Y-94526190D01*
X145367380Y-94621428D01*
X145319761Y-94716666D01*
X145272142Y-94764285D01*
X145176904Y-94811904D01*
X144986428Y-94859523D01*
X144748333Y-94859523D01*
X144557857Y-94811904D01*
X144462619Y-94764285D01*
X144415000Y-94716666D01*
X144367380Y-94621428D01*
X144700714Y-93430952D02*
X145367380Y-93430952D01*
X144319761Y-93669047D02*
X145034047Y-93907142D01*
X145034047Y-93288095D01*
X144986428Y-92907142D02*
X144986428Y-92145238D01*
X144367380Y-91478571D02*
X144367380Y-91383333D01*
X144415000Y-91288095D01*
X144462619Y-91240476D01*
X144557857Y-91192857D01*
X144748333Y-91145238D01*
X144986428Y-91145238D01*
X145176904Y-91192857D01*
X145272142Y-91240476D01*
X145319761Y-91288095D01*
X145367380Y-91383333D01*
X145367380Y-91478571D01*
X145319761Y-91573809D01*
X145272142Y-91621428D01*
X145176904Y-91669047D01*
X144986428Y-91716666D01*
X144748333Y-91716666D01*
X144557857Y-91669047D01*
X144462619Y-91621428D01*
X144415000Y-91573809D01*
X144367380Y-91478571D01*
X145367380Y-90669047D02*
X145367380Y-90478571D01*
X145319761Y-90383333D01*
X145272142Y-90335714D01*
X145129285Y-90240476D01*
X144938809Y-90192857D01*
X144557857Y-90192857D01*
X144462619Y-90240476D01*
X144415000Y-90288095D01*
X144367380Y-90383333D01*
X144367380Y-90573809D01*
X144415000Y-90669047D01*
X144462619Y-90716666D01*
X144557857Y-90764285D01*
X144795952Y-90764285D01*
X144891190Y-90716666D01*
X144938809Y-90669047D01*
X144986428Y-90573809D01*
X144986428Y-90383333D01*
X144938809Y-90288095D01*
X144891190Y-90240476D01*
X144795952Y-90192857D01*
X141215714Y-106402142D02*
X141168095Y-106449761D01*
X141025238Y-106497380D01*
X140930000Y-106497380D01*
X140787142Y-106449761D01*
X140691904Y-106354523D01*
X140644285Y-106259285D01*
X140596666Y-106068809D01*
X140596666Y-105925952D01*
X140644285Y-105735476D01*
X140691904Y-105640238D01*
X140787142Y-105545000D01*
X140930000Y-105497380D01*
X141025238Y-105497380D01*
X141168095Y-105545000D01*
X141215714Y-105592619D01*
X141644285Y-106497380D02*
X141644285Y-105497380D01*
X141644285Y-105973571D02*
X142215714Y-105973571D01*
X142215714Y-106497380D02*
X142215714Y-105497380D01*
X143168095Y-105497380D02*
X142691904Y-105497380D01*
X142644285Y-105973571D01*
X142691904Y-105925952D01*
X142787142Y-105878333D01*
X143025238Y-105878333D01*
X143120476Y-105925952D01*
X143168095Y-105973571D01*
X143215714Y-106068809D01*
X143215714Y-106306904D01*
X143168095Y-106402142D01*
X143120476Y-106449761D01*
X143025238Y-106497380D01*
X142787142Y-106497380D01*
X142691904Y-106449761D01*
X142644285Y-106402142D01*
X144072857Y-105497380D02*
X143882380Y-105497380D01*
X143787142Y-105545000D01*
X143739523Y-105592619D01*
X143644285Y-105735476D01*
X143596666Y-105925952D01*
X143596666Y-106306904D01*
X143644285Y-106402142D01*
X143691904Y-106449761D01*
X143787142Y-106497380D01*
X143977619Y-106497380D01*
X144072857Y-106449761D01*
X144120476Y-106402142D01*
X144168095Y-106306904D01*
X144168095Y-106068809D01*
X144120476Y-105973571D01*
X144072857Y-105925952D01*
X143977619Y-105878333D01*
X143787142Y-105878333D01*
X143691904Y-105925952D01*
X143644285Y-105973571D01*
X143596666Y-106068809D01*
X144644285Y-106497380D02*
X144834761Y-106497380D01*
X144930000Y-106449761D01*
X144977619Y-106402142D01*
X145072857Y-106259285D01*
X145120476Y-106068809D01*
X145120476Y-105687857D01*
X145072857Y-105592619D01*
X145025238Y-105545000D01*
X144930000Y-105497380D01*
X144739523Y-105497380D01*
X144644285Y-105545000D01*
X144596666Y-105592619D01*
X144549047Y-105687857D01*
X144549047Y-105925952D01*
X144596666Y-106021190D01*
X144644285Y-106068809D01*
X144739523Y-106116428D01*
X144930000Y-106116428D01*
X145025238Y-106068809D01*
X145072857Y-106021190D01*
X145120476Y-105925952D01*
X145453809Y-105497380D02*
X145691904Y-106497380D01*
X145882380Y-105783095D01*
X146072857Y-106497380D01*
X146310952Y-105497380D01*
X140977619Y-107107380D02*
X140977619Y-107916904D01*
X141025238Y-108012142D01*
X141072857Y-108059761D01*
X141168095Y-108107380D01*
X141358571Y-108107380D01*
X141453809Y-108059761D01*
X141501428Y-108012142D01*
X141549047Y-107916904D01*
X141549047Y-107107380D01*
X141977619Y-108059761D02*
X142120476Y-108107380D01*
X142358571Y-108107380D01*
X142453809Y-108059761D01*
X142501428Y-108012142D01*
X142549047Y-107916904D01*
X142549047Y-107821666D01*
X142501428Y-107726428D01*
X142453809Y-107678809D01*
X142358571Y-107631190D01*
X142168095Y-107583571D01*
X142072857Y-107535952D01*
X142025238Y-107488333D01*
X141977619Y-107393095D01*
X141977619Y-107297857D01*
X142025238Y-107202619D01*
X142072857Y-107155000D01*
X142168095Y-107107380D01*
X142406190Y-107107380D01*
X142549047Y-107155000D01*
X143310952Y-107583571D02*
X143453809Y-107631190D01*
X143501428Y-107678809D01*
X143549047Y-107774047D01*
X143549047Y-107916904D01*
X143501428Y-108012142D01*
X143453809Y-108059761D01*
X143358571Y-108107380D01*
X142977619Y-108107380D01*
X142977619Y-107107380D01*
X143310952Y-107107380D01*
X143406190Y-107155000D01*
X143453809Y-107202619D01*
X143501428Y-107297857D01*
X143501428Y-107393095D01*
X143453809Y-107488333D01*
X143406190Y-107535952D01*
X143310952Y-107583571D01*
X142977619Y-107583571D01*
X143882380Y-107107380D02*
X144501428Y-107107380D01*
X144168095Y-107488333D01*
X144310952Y-107488333D01*
X144406190Y-107535952D01*
X144453809Y-107583571D01*
X144501428Y-107678809D01*
X144501428Y-107916904D01*
X144453809Y-108012142D01*
X144406190Y-108059761D01*
X144310952Y-108107380D01*
X144025238Y-108107380D01*
X143930000Y-108059761D01*
X143882380Y-108012142D01*
X144930000Y-108012142D02*
X144977619Y-108059761D01*
X144930000Y-108107380D01*
X144882380Y-108059761D01*
X144930000Y-108012142D01*
X144930000Y-108107380D01*
X145596666Y-107107380D02*
X145691904Y-107107380D01*
X145787142Y-107155000D01*
X145834761Y-107202619D01*
X145882380Y-107297857D01*
X145930000Y-107488333D01*
X145930000Y-107726428D01*
X145882380Y-107916904D01*
X145834761Y-108012142D01*
X145787142Y-108059761D01*
X145691904Y-108107380D01*
X145596666Y-108107380D01*
X145501428Y-108059761D01*
X145453809Y-108012142D01*
X145406190Y-107916904D01*
X145358571Y-107726428D01*
X145358571Y-107488333D01*
X145406190Y-107297857D01*
X145453809Y-107202619D01*
X145501428Y-107155000D01*
X145596666Y-107107380D01*
%TO.C,U2*%
X119438095Y-108322380D02*
X119438095Y-109131904D01*
X119485714Y-109227142D01*
X119533333Y-109274761D01*
X119628571Y-109322380D01*
X119819047Y-109322380D01*
X119914285Y-109274761D01*
X119961904Y-109227142D01*
X120009523Y-109131904D01*
X120009523Y-108322380D01*
X120438095Y-108417619D02*
X120485714Y-108370000D01*
X120580952Y-108322380D01*
X120819047Y-108322380D01*
X120914285Y-108370000D01*
X120961904Y-108417619D01*
X121009523Y-108512857D01*
X121009523Y-108608095D01*
X120961904Y-108750952D01*
X120390476Y-109322380D01*
X121009523Y-109322380D01*
%TO.C,CN1*%
X103589523Y-82887142D02*
X103541904Y-82934761D01*
X103399047Y-82982380D01*
X103303809Y-82982380D01*
X103160952Y-82934761D01*
X103065714Y-82839523D01*
X103018095Y-82744285D01*
X102970476Y-82553809D01*
X102970476Y-82410952D01*
X103018095Y-82220476D01*
X103065714Y-82125238D01*
X103160952Y-82030000D01*
X103303809Y-81982380D01*
X103399047Y-81982380D01*
X103541904Y-82030000D01*
X103589523Y-82077619D01*
X104018095Y-82982380D02*
X104018095Y-81982380D01*
X104589523Y-82982380D01*
X104589523Y-81982380D01*
X105589523Y-82982380D02*
X105018095Y-82982380D01*
X105303809Y-82982380D02*
X105303809Y-81982380D01*
X105208571Y-82125238D01*
X105113333Y-82220476D01*
X105018095Y-82268095D01*
D11*
%TO.C,C13*%
X122398571Y-112621428D02*
X122422380Y-112645238D01*
X122446190Y-112716666D01*
X122446190Y-112764285D01*
X122422380Y-112835714D01*
X122374761Y-112883333D01*
X122327142Y-112907142D01*
X122231904Y-112930952D01*
X122160476Y-112930952D01*
X122065238Y-112907142D01*
X122017619Y-112883333D01*
X121970000Y-112835714D01*
X121946190Y-112764285D01*
X121946190Y-112716666D01*
X121970000Y-112645238D01*
X121993809Y-112621428D01*
X122446190Y-112145238D02*
X122446190Y-112430952D01*
X122446190Y-112288095D02*
X121946190Y-112288095D01*
X122017619Y-112335714D01*
X122065238Y-112383333D01*
X122089047Y-112430952D01*
X121946190Y-111978571D02*
X121946190Y-111669047D01*
X122136666Y-111835714D01*
X122136666Y-111764285D01*
X122160476Y-111716666D01*
X122184285Y-111692857D01*
X122231904Y-111669047D01*
X122350952Y-111669047D01*
X122398571Y-111692857D01*
X122422380Y-111716666D01*
X122446190Y-111764285D01*
X122446190Y-111907142D01*
X122422380Y-111954761D01*
X122398571Y-111978571D01*
%TO.C,C19*%
X118908571Y-105648571D02*
X118884761Y-105672380D01*
X118813333Y-105696190D01*
X118765714Y-105696190D01*
X118694285Y-105672380D01*
X118646666Y-105624761D01*
X118622857Y-105577142D01*
X118599047Y-105481904D01*
X118599047Y-105410476D01*
X118622857Y-105315238D01*
X118646666Y-105267619D01*
X118694285Y-105220000D01*
X118765714Y-105196190D01*
X118813333Y-105196190D01*
X118884761Y-105220000D01*
X118908571Y-105243809D01*
X119384761Y-105696190D02*
X119099047Y-105696190D01*
X119241904Y-105696190D02*
X119241904Y-105196190D01*
X119194285Y-105267619D01*
X119146666Y-105315238D01*
X119099047Y-105339047D01*
X119622857Y-105696190D02*
X119718095Y-105696190D01*
X119765714Y-105672380D01*
X119789523Y-105648571D01*
X119837142Y-105577142D01*
X119860952Y-105481904D01*
X119860952Y-105291428D01*
X119837142Y-105243809D01*
X119813333Y-105220000D01*
X119765714Y-105196190D01*
X119670476Y-105196190D01*
X119622857Y-105220000D01*
X119599047Y-105243809D01*
X119575238Y-105291428D01*
X119575238Y-105410476D01*
X119599047Y-105458095D01*
X119622857Y-105481904D01*
X119670476Y-105505714D01*
X119765714Y-105505714D01*
X119813333Y-105481904D01*
X119837142Y-105458095D01*
X119860952Y-105410476D01*
D10*
%TO.C,C2*%
X111288333Y-111355142D02*
X111240714Y-111402761D01*
X111097857Y-111450380D01*
X111002619Y-111450380D01*
X110859761Y-111402761D01*
X110764523Y-111307523D01*
X110716904Y-111212285D01*
X110669285Y-111021809D01*
X110669285Y-110878952D01*
X110716904Y-110688476D01*
X110764523Y-110593238D01*
X110859761Y-110498000D01*
X111002619Y-110450380D01*
X111097857Y-110450380D01*
X111240714Y-110498000D01*
X111288333Y-110545619D01*
X111669285Y-110545619D02*
X111716904Y-110498000D01*
X111812142Y-110450380D01*
X112050238Y-110450380D01*
X112145476Y-110498000D01*
X112193095Y-110545619D01*
X112240714Y-110640857D01*
X112240714Y-110736095D01*
X112193095Y-110878952D01*
X111621666Y-111450380D01*
X112240714Y-111450380D01*
D11*
%TO.C,C16*%
X118508571Y-102068571D02*
X118484761Y-102092380D01*
X118413333Y-102116190D01*
X118365714Y-102116190D01*
X118294285Y-102092380D01*
X118246666Y-102044761D01*
X118222857Y-101997142D01*
X118199047Y-101901904D01*
X118199047Y-101830476D01*
X118222857Y-101735238D01*
X118246666Y-101687619D01*
X118294285Y-101640000D01*
X118365714Y-101616190D01*
X118413333Y-101616190D01*
X118484761Y-101640000D01*
X118508571Y-101663809D01*
X118984761Y-102116190D02*
X118699047Y-102116190D01*
X118841904Y-102116190D02*
X118841904Y-101616190D01*
X118794285Y-101687619D01*
X118746666Y-101735238D01*
X118699047Y-101759047D01*
X119413333Y-101616190D02*
X119318095Y-101616190D01*
X119270476Y-101640000D01*
X119246666Y-101663809D01*
X119199047Y-101735238D01*
X119175238Y-101830476D01*
X119175238Y-102020952D01*
X119199047Y-102068571D01*
X119222857Y-102092380D01*
X119270476Y-102116190D01*
X119365714Y-102116190D01*
X119413333Y-102092380D01*
X119437142Y-102068571D01*
X119460952Y-102020952D01*
X119460952Y-101901904D01*
X119437142Y-101854285D01*
X119413333Y-101830476D01*
X119365714Y-101806666D01*
X119270476Y-101806666D01*
X119222857Y-101830476D01*
X119199047Y-101854285D01*
X119175238Y-101901904D01*
D10*
%TO.C,R4*%
X111358333Y-95227380D02*
X111025000Y-94751190D01*
X110786904Y-95227380D02*
X110786904Y-94227380D01*
X111167857Y-94227380D01*
X111263095Y-94275000D01*
X111310714Y-94322619D01*
X111358333Y-94417857D01*
X111358333Y-94560714D01*
X111310714Y-94655952D01*
X111263095Y-94703571D01*
X111167857Y-94751190D01*
X110786904Y-94751190D01*
X112215476Y-94560714D02*
X112215476Y-95227380D01*
X111977380Y-94179761D02*
X111739285Y-94894047D01*
X112358333Y-94894047D01*
%TO.C,C1*%
X103845333Y-123339142D02*
X103797714Y-123386761D01*
X103654857Y-123434380D01*
X103559619Y-123434380D01*
X103416761Y-123386761D01*
X103321523Y-123291523D01*
X103273904Y-123196285D01*
X103226285Y-123005809D01*
X103226285Y-122862952D01*
X103273904Y-122672476D01*
X103321523Y-122577238D01*
X103416761Y-122482000D01*
X103559619Y-122434380D01*
X103654857Y-122434380D01*
X103797714Y-122482000D01*
X103845333Y-122529619D01*
X104797714Y-123434380D02*
X104226285Y-123434380D01*
X104512000Y-123434380D02*
X104512000Y-122434380D01*
X104416761Y-122577238D01*
X104321523Y-122672476D01*
X104226285Y-122720095D01*
D11*
%TO.C,C12*%
X125438571Y-112551428D02*
X125462380Y-112575238D01*
X125486190Y-112646666D01*
X125486190Y-112694285D01*
X125462380Y-112765714D01*
X125414761Y-112813333D01*
X125367142Y-112837142D01*
X125271904Y-112860952D01*
X125200476Y-112860952D01*
X125105238Y-112837142D01*
X125057619Y-112813333D01*
X125010000Y-112765714D01*
X124986190Y-112694285D01*
X124986190Y-112646666D01*
X125010000Y-112575238D01*
X125033809Y-112551428D01*
X125486190Y-112075238D02*
X125486190Y-112360952D01*
X125486190Y-112218095D02*
X124986190Y-112218095D01*
X125057619Y-112265714D01*
X125105238Y-112313333D01*
X125129047Y-112360952D01*
X125033809Y-111884761D02*
X125010000Y-111860952D01*
X124986190Y-111813333D01*
X124986190Y-111694285D01*
X125010000Y-111646666D01*
X125033809Y-111622857D01*
X125081428Y-111599047D01*
X125129047Y-111599047D01*
X125200476Y-111622857D01*
X125486190Y-111908571D01*
X125486190Y-111599047D01*
D10*
%TO.C,C7*%
X134707333Y-125325142D02*
X134659714Y-125372761D01*
X134516857Y-125420380D01*
X134421619Y-125420380D01*
X134278761Y-125372761D01*
X134183523Y-125277523D01*
X134135904Y-125182285D01*
X134088285Y-124991809D01*
X134088285Y-124848952D01*
X134135904Y-124658476D01*
X134183523Y-124563238D01*
X134278761Y-124468000D01*
X134421619Y-124420380D01*
X134516857Y-124420380D01*
X134659714Y-124468000D01*
X134707333Y-124515619D01*
X135040666Y-124420380D02*
X135707333Y-124420380D01*
X135278761Y-125420380D01*
%TO.C,C14*%
X115277142Y-91807857D02*
X115324761Y-91855476D01*
X115372380Y-91998333D01*
X115372380Y-92093571D01*
X115324761Y-92236428D01*
X115229523Y-92331666D01*
X115134285Y-92379285D01*
X114943809Y-92426904D01*
X114800952Y-92426904D01*
X114610476Y-92379285D01*
X114515238Y-92331666D01*
X114420000Y-92236428D01*
X114372380Y-92093571D01*
X114372380Y-91998333D01*
X114420000Y-91855476D01*
X114467619Y-91807857D01*
X115372380Y-90855476D02*
X115372380Y-91426904D01*
X115372380Y-91141190D02*
X114372380Y-91141190D01*
X114515238Y-91236428D01*
X114610476Y-91331666D01*
X114658095Y-91426904D01*
X114705714Y-89998333D02*
X115372380Y-89998333D01*
X114324761Y-90236428D02*
X115039047Y-90474523D01*
X115039047Y-89855476D01*
%TO.C,D2*%
X101621904Y-92192380D02*
X101621904Y-91192380D01*
X101860000Y-91192380D01*
X102002857Y-91240000D01*
X102098095Y-91335238D01*
X102145714Y-91430476D01*
X102193333Y-91620952D01*
X102193333Y-91763809D01*
X102145714Y-91954285D01*
X102098095Y-92049523D01*
X102002857Y-92144761D01*
X101860000Y-92192380D01*
X101621904Y-92192380D01*
X102574285Y-91287619D02*
X102621904Y-91240000D01*
X102717142Y-91192380D01*
X102955238Y-91192380D01*
X103050476Y-91240000D01*
X103098095Y-91287619D01*
X103145714Y-91382857D01*
X103145714Y-91478095D01*
X103098095Y-91620952D01*
X102526666Y-92192380D01*
X103145714Y-92192380D01*
%TO.C,D1*%
X101661904Y-89127380D02*
X101661904Y-88127380D01*
X101900000Y-88127380D01*
X102042857Y-88175000D01*
X102138095Y-88270238D01*
X102185714Y-88365476D01*
X102233333Y-88555952D01*
X102233333Y-88698809D01*
X102185714Y-88889285D01*
X102138095Y-88984523D01*
X102042857Y-89079761D01*
X101900000Y-89127380D01*
X101661904Y-89127380D01*
X103185714Y-89127380D02*
X102614285Y-89127380D01*
X102900000Y-89127380D02*
X102900000Y-88127380D01*
X102804761Y-88270238D01*
X102709523Y-88365476D01*
X102614285Y-88413095D01*
%TO.C,C6*%
X145629333Y-125325142D02*
X145581714Y-125372761D01*
X145438857Y-125420380D01*
X145343619Y-125420380D01*
X145200761Y-125372761D01*
X145105523Y-125277523D01*
X145057904Y-125182285D01*
X145010285Y-124991809D01*
X145010285Y-124848952D01*
X145057904Y-124658476D01*
X145105523Y-124563238D01*
X145200761Y-124468000D01*
X145343619Y-124420380D01*
X145438857Y-124420380D01*
X145581714Y-124468000D01*
X145629333Y-124515619D01*
X146486476Y-124420380D02*
X146296000Y-124420380D01*
X146200761Y-124468000D01*
X146153142Y-124515619D01*
X146057904Y-124658476D01*
X146010285Y-124848952D01*
X146010285Y-125229904D01*
X146057904Y-125325142D01*
X146105523Y-125372761D01*
X146200761Y-125420380D01*
X146391238Y-125420380D01*
X146486476Y-125372761D01*
X146534095Y-125325142D01*
X146581714Y-125229904D01*
X146581714Y-124991809D01*
X146534095Y-124896571D01*
X146486476Y-124848952D01*
X146391238Y-124801333D01*
X146200761Y-124801333D01*
X146105523Y-124848952D01*
X146057904Y-124896571D01*
X146010285Y-124991809D01*
%TO.C,C5*%
X116435142Y-124372666D02*
X116482761Y-124420285D01*
X116530380Y-124563142D01*
X116530380Y-124658380D01*
X116482761Y-124801238D01*
X116387523Y-124896476D01*
X116292285Y-124944095D01*
X116101809Y-124991714D01*
X115958952Y-124991714D01*
X115768476Y-124944095D01*
X115673238Y-124896476D01*
X115578000Y-124801238D01*
X115530380Y-124658380D01*
X115530380Y-124563142D01*
X115578000Y-124420285D01*
X115625619Y-124372666D01*
X115530380Y-123467904D02*
X115530380Y-123944095D01*
X116006571Y-123991714D01*
X115958952Y-123944095D01*
X115911333Y-123848857D01*
X115911333Y-123610761D01*
X115958952Y-123515523D01*
X116006571Y-123467904D01*
X116101809Y-123420285D01*
X116339904Y-123420285D01*
X116435142Y-123467904D01*
X116482761Y-123515523D01*
X116530380Y-123610761D01*
X116530380Y-123848857D01*
X116482761Y-123944095D01*
X116435142Y-123991714D01*
%TO.C,R1*%
X103068380Y-107608666D02*
X102592190Y-107942000D01*
X103068380Y-108180095D02*
X102068380Y-108180095D01*
X102068380Y-107799142D01*
X102116000Y-107703904D01*
X102163619Y-107656285D01*
X102258857Y-107608666D01*
X102401714Y-107608666D01*
X102496952Y-107656285D01*
X102544571Y-107703904D01*
X102592190Y-107799142D01*
X102592190Y-108180095D01*
X103068380Y-106656285D02*
X103068380Y-107227714D01*
X103068380Y-106942000D02*
X102068380Y-106942000D01*
X102211238Y-107037238D01*
X102306476Y-107132476D01*
X102354095Y-107227714D01*
%TO.C,J2*%
X145857380Y-111608333D02*
X146571666Y-111608333D01*
X146714523Y-111655952D01*
X146809761Y-111751190D01*
X146857380Y-111894047D01*
X146857380Y-111989285D01*
X145952619Y-111179761D02*
X145905000Y-111132142D01*
X145857380Y-111036904D01*
X145857380Y-110798809D01*
X145905000Y-110703571D01*
X145952619Y-110655952D01*
X146047857Y-110608333D01*
X146143095Y-110608333D01*
X146285952Y-110655952D01*
X146857380Y-111227380D01*
X146857380Y-110608333D01*
%TO.C,X1*%
X108550476Y-109482380D02*
X109217142Y-110482380D01*
X109217142Y-109482380D02*
X108550476Y-110482380D01*
X110121904Y-110482380D02*
X109550476Y-110482380D01*
X109836190Y-110482380D02*
X109836190Y-109482380D01*
X109740952Y-109625238D01*
X109645714Y-109720476D01*
X109550476Y-109768095D01*
%TO.C,C3*%
X114387333Y-115927142D02*
X114339714Y-115974761D01*
X114196857Y-116022380D01*
X114101619Y-116022380D01*
X113958761Y-115974761D01*
X113863523Y-115879523D01*
X113815904Y-115784285D01*
X113768285Y-115593809D01*
X113768285Y-115450952D01*
X113815904Y-115260476D01*
X113863523Y-115165238D01*
X113958761Y-115070000D01*
X114101619Y-115022380D01*
X114196857Y-115022380D01*
X114339714Y-115070000D01*
X114387333Y-115117619D01*
X114720666Y-115022380D02*
X115339714Y-115022380D01*
X115006380Y-115403333D01*
X115149238Y-115403333D01*
X115244476Y-115450952D01*
X115292095Y-115498571D01*
X115339714Y-115593809D01*
X115339714Y-115831904D01*
X115292095Y-115927142D01*
X115244476Y-115974761D01*
X115149238Y-116022380D01*
X114863523Y-116022380D01*
X114768285Y-115974761D01*
X114720666Y-115927142D01*
%TO.C,USB1*%
X131691904Y-111492380D02*
X131691904Y-112301904D01*
X131739523Y-112397142D01*
X131787142Y-112444761D01*
X131882380Y-112492380D01*
X132072857Y-112492380D01*
X132168095Y-112444761D01*
X132215714Y-112397142D01*
X132263333Y-112301904D01*
X132263333Y-111492380D01*
X132691904Y-112444761D02*
X132834761Y-112492380D01*
X133072857Y-112492380D01*
X133168095Y-112444761D01*
X133215714Y-112397142D01*
X133263333Y-112301904D01*
X133263333Y-112206666D01*
X133215714Y-112111428D01*
X133168095Y-112063809D01*
X133072857Y-112016190D01*
X132882380Y-111968571D01*
X132787142Y-111920952D01*
X132739523Y-111873333D01*
X132691904Y-111778095D01*
X132691904Y-111682857D01*
X132739523Y-111587619D01*
X132787142Y-111540000D01*
X132882380Y-111492380D01*
X133120476Y-111492380D01*
X133263333Y-111540000D01*
X134025238Y-111968571D02*
X134168095Y-112016190D01*
X134215714Y-112063809D01*
X134263333Y-112159047D01*
X134263333Y-112301904D01*
X134215714Y-112397142D01*
X134168095Y-112444761D01*
X134072857Y-112492380D01*
X133691904Y-112492380D01*
X133691904Y-111492380D01*
X134025238Y-111492380D01*
X134120476Y-111540000D01*
X134168095Y-111587619D01*
X134215714Y-111682857D01*
X134215714Y-111778095D01*
X134168095Y-111873333D01*
X134120476Y-111920952D01*
X134025238Y-111968571D01*
X133691904Y-111968571D01*
X135215714Y-112492380D02*
X134644285Y-112492380D01*
X134930000Y-112492380D02*
X134930000Y-111492380D01*
X134834761Y-111635238D01*
X134739523Y-111730476D01*
X134644285Y-111778095D01*
%TO.C,R3*%
X111333333Y-92152380D02*
X111000000Y-91676190D01*
X110761904Y-92152380D02*
X110761904Y-91152380D01*
X111142857Y-91152380D01*
X111238095Y-91200000D01*
X111285714Y-91247619D01*
X111333333Y-91342857D01*
X111333333Y-91485714D01*
X111285714Y-91580952D01*
X111238095Y-91628571D01*
X111142857Y-91676190D01*
X110761904Y-91676190D01*
X111666666Y-91152380D02*
X112285714Y-91152380D01*
X111952380Y-91533333D01*
X112095238Y-91533333D01*
X112190476Y-91580952D01*
X112238095Y-91628571D01*
X112285714Y-91723809D01*
X112285714Y-91961904D01*
X112238095Y-92057142D01*
X112190476Y-92104761D01*
X112095238Y-92152380D01*
X111809523Y-92152380D01*
X111714285Y-92104761D01*
X111666666Y-92057142D01*
%TO.C,D3*%
X101611904Y-95342380D02*
X101611904Y-94342380D01*
X101850000Y-94342380D01*
X101992857Y-94390000D01*
X102088095Y-94485238D01*
X102135714Y-94580476D01*
X102183333Y-94770952D01*
X102183333Y-94913809D01*
X102135714Y-95104285D01*
X102088095Y-95199523D01*
X101992857Y-95294761D01*
X101850000Y-95342380D01*
X101611904Y-95342380D01*
X102516666Y-94342380D02*
X103135714Y-94342380D01*
X102802380Y-94723333D01*
X102945238Y-94723333D01*
X103040476Y-94770952D01*
X103088095Y-94818571D01*
X103135714Y-94913809D01*
X103135714Y-95151904D01*
X103088095Y-95247142D01*
X103040476Y-95294761D01*
X102945238Y-95342380D01*
X102659523Y-95342380D01*
X102564285Y-95294761D01*
X102516666Y-95247142D01*
%TO.C,U3*%
X145462380Y-119821904D02*
X146271904Y-119821904D01*
X146367142Y-119774285D01*
X146414761Y-119726666D01*
X146462380Y-119631428D01*
X146462380Y-119440952D01*
X146414761Y-119345714D01*
X146367142Y-119298095D01*
X146271904Y-119250476D01*
X145462380Y-119250476D01*
X145462380Y-118869523D02*
X145462380Y-118250476D01*
X145843333Y-118583809D01*
X145843333Y-118440952D01*
X145890952Y-118345714D01*
X145938571Y-118298095D01*
X146033809Y-118250476D01*
X146271904Y-118250476D01*
X146367142Y-118298095D01*
X146414761Y-118345714D01*
X146462380Y-118440952D01*
X146462380Y-118726666D01*
X146414761Y-118821904D01*
X146367142Y-118869523D01*
%TO.C,R2*%
X111433333Y-89127380D02*
X111100000Y-88651190D01*
X110861904Y-89127380D02*
X110861904Y-88127380D01*
X111242857Y-88127380D01*
X111338095Y-88175000D01*
X111385714Y-88222619D01*
X111433333Y-88317857D01*
X111433333Y-88460714D01*
X111385714Y-88555952D01*
X111338095Y-88603571D01*
X111242857Y-88651190D01*
X110861904Y-88651190D01*
X111814285Y-88222619D02*
X111861904Y-88175000D01*
X111957142Y-88127380D01*
X112195238Y-88127380D01*
X112290476Y-88175000D01*
X112338095Y-88222619D01*
X112385714Y-88317857D01*
X112385714Y-88413095D01*
X112338095Y-88555952D01*
X111766666Y-89127380D01*
X112385714Y-89127380D01*
%TO.C,F1*%
X116260571Y-119879733D02*
X116260571Y-120213066D01*
X116784380Y-120213066D02*
X115784380Y-120213066D01*
X115784380Y-119736876D01*
X116784380Y-118832114D02*
X116784380Y-119403542D01*
X116784380Y-119117828D02*
X115784380Y-119117828D01*
X115927238Y-119213066D01*
X116022476Y-119308304D01*
X116070095Y-119403542D01*
D11*
%TO.C,C15*%
X127558571Y-96031428D02*
X127582380Y-96055238D01*
X127606190Y-96126666D01*
X127606190Y-96174285D01*
X127582380Y-96245714D01*
X127534761Y-96293333D01*
X127487142Y-96317142D01*
X127391904Y-96340952D01*
X127320476Y-96340952D01*
X127225238Y-96317142D01*
X127177619Y-96293333D01*
X127130000Y-96245714D01*
X127106190Y-96174285D01*
X127106190Y-96126666D01*
X127130000Y-96055238D01*
X127153809Y-96031428D01*
X127606190Y-95555238D02*
X127606190Y-95840952D01*
X127606190Y-95698095D02*
X127106190Y-95698095D01*
X127177619Y-95745714D01*
X127225238Y-95793333D01*
X127249047Y-95840952D01*
X127106190Y-95102857D02*
X127106190Y-95340952D01*
X127344285Y-95364761D01*
X127320476Y-95340952D01*
X127296666Y-95293333D01*
X127296666Y-95174285D01*
X127320476Y-95126666D01*
X127344285Y-95102857D01*
X127391904Y-95079047D01*
X127510952Y-95079047D01*
X127558571Y-95102857D01*
X127582380Y-95126666D01*
X127606190Y-95174285D01*
X127606190Y-95293333D01*
X127582380Y-95340952D01*
X127558571Y-95364761D01*
D10*
%TO.C,U4*%
X112028095Y-95812380D02*
X112028095Y-96621904D01*
X112075714Y-96717142D01*
X112123333Y-96764761D01*
X112218571Y-96812380D01*
X112409047Y-96812380D01*
X112504285Y-96764761D01*
X112551904Y-96717142D01*
X112599523Y-96621904D01*
X112599523Y-95812380D01*
X113504285Y-96145714D02*
X113504285Y-96812380D01*
X113266190Y-95764761D02*
X113028095Y-96479047D01*
X113647142Y-96479047D01*
%TO.C,J1*%
X114941666Y-107637380D02*
X114941666Y-108351666D01*
X114894047Y-108494523D01*
X114798809Y-108589761D01*
X114655952Y-108637380D01*
X114560714Y-108637380D01*
X115941666Y-108637380D02*
X115370238Y-108637380D01*
X115655952Y-108637380D02*
X115655952Y-107637380D01*
X115560714Y-107780238D01*
X115465476Y-107875476D01*
X115370238Y-107923095D01*
%TO.C,U1*%
X108418380Y-115823904D02*
X109227904Y-115823904D01*
X109323142Y-115776285D01*
X109370761Y-115728666D01*
X109418380Y-115633428D01*
X109418380Y-115442952D01*
X109370761Y-115347714D01*
X109323142Y-115300095D01*
X109227904Y-115252476D01*
X108418380Y-115252476D01*
X109418380Y-114252476D02*
X109418380Y-114823904D01*
X109418380Y-114538190D02*
X108418380Y-114538190D01*
X108561238Y-114633428D01*
X108656476Y-114728666D01*
X108704095Y-114823904D01*
%TO.C,C4*%
X112567542Y-124335866D02*
X112615161Y-124383485D01*
X112662780Y-124526342D01*
X112662780Y-124621580D01*
X112615161Y-124764438D01*
X112519923Y-124859676D01*
X112424685Y-124907295D01*
X112234209Y-124954914D01*
X112091352Y-124954914D01*
X111900876Y-124907295D01*
X111805638Y-124859676D01*
X111710400Y-124764438D01*
X111662780Y-124621580D01*
X111662780Y-124526342D01*
X111710400Y-124383485D01*
X111758019Y-124335866D01*
X111996114Y-123478723D02*
X112662780Y-123478723D01*
X111615161Y-123716819D02*
X112329447Y-123954914D01*
X112329447Y-123335866D01*
%TO.C,FB1*%
X107878571Y-121483333D02*
X107878571Y-121816666D01*
X108402380Y-121816666D02*
X107402380Y-121816666D01*
X107402380Y-121340476D01*
X107878571Y-120626190D02*
X107926190Y-120483333D01*
X107973809Y-120435714D01*
X108069047Y-120388095D01*
X108211904Y-120388095D01*
X108307142Y-120435714D01*
X108354761Y-120483333D01*
X108402380Y-120578571D01*
X108402380Y-120959523D01*
X107402380Y-120959523D01*
X107402380Y-120626190D01*
X107450000Y-120530952D01*
X107497619Y-120483333D01*
X107592857Y-120435714D01*
X107688095Y-120435714D01*
X107783333Y-120483333D01*
X107830952Y-120530952D01*
X107878571Y-120626190D01*
X107878571Y-120959523D01*
X108402380Y-119435714D02*
X108402380Y-120007142D01*
X108402380Y-119721428D02*
X107402380Y-119721428D01*
X107545238Y-119816666D01*
X107640476Y-119911904D01*
X107688095Y-120007142D01*
D12*
%TO.C,U2*%
X121832600Y-107560000D02*
X121402600Y-107560000D01*
X121402600Y-107560000D02*
X121402600Y-107130000D01*
X121832600Y-99160000D02*
X121402600Y-99160000D01*
X121402600Y-99160000D02*
X121402600Y-99580000D01*
X129802600Y-99580000D02*
X129802600Y-99160000D01*
X129802600Y-99160000D02*
X129382600Y-99160000D01*
X129382600Y-107560000D02*
X129802600Y-107560000D01*
X129802600Y-107560000D02*
X129802600Y-107130000D01*
D13*
X121602584Y-107929667D02*
G75*
G03*
X121612600Y-107930000I16J-150333D01*
G01*
D14*
%TO.C,CN1*%
X142390000Y-78990000D02*
X142390000Y-80790000D01*
X108830000Y-80800000D02*
X109570000Y-80800000D01*
X142390000Y-80790000D02*
X141700000Y-80790000D01*
X144510000Y-78990000D02*
X142390000Y-78990000D01*
X106750000Y-82030000D02*
X106750000Y-78990000D01*
X142410000Y-83990000D02*
X141700000Y-83990000D01*
X106750000Y-78990000D02*
X108850000Y-78990000D01*
X108860000Y-85790000D02*
X108860000Y-84000000D01*
X144510000Y-83560000D02*
X143270000Y-85790000D01*
X106750000Y-85790000D02*
X106750000Y-82740000D01*
X108830000Y-78990000D02*
X108830000Y-80800000D01*
X144510000Y-78990000D02*
X144510000Y-82130000D01*
X106750000Y-85790000D02*
X108860000Y-85790000D01*
X143270000Y-85790000D02*
X142410000Y-85790000D01*
X144510000Y-82650000D02*
X144510000Y-83560000D01*
X108860000Y-84000000D02*
X109570000Y-84000000D01*
X142410000Y-83990000D02*
X142410000Y-85790000D01*
D15*
%TO.C,C13*%
X122982400Y-112152164D02*
X122982400Y-112367836D01*
X123702400Y-112152164D02*
X123702400Y-112367836D01*
%TO.C,C19*%
X119390580Y-105080000D02*
X119109420Y-105080000D01*
X119390580Y-104060000D02*
X119109420Y-104060000D01*
%TO.C,C2*%
X111716252Y-112334400D02*
X111193748Y-112334400D01*
X111716252Y-113804400D02*
X111193748Y-113804400D01*
%TO.C,C16*%
X118320580Y-103570000D02*
X118039420Y-103570000D01*
X118320580Y-102550000D02*
X118039420Y-102550000D01*
%TO.C,R4*%
X108702742Y-94347500D02*
X109177258Y-94347500D01*
X108702742Y-95392500D02*
X109177258Y-95392500D01*
%TO.C,C1*%
X103298748Y-121415000D02*
X103821252Y-121415000D01*
X103298748Y-119945000D02*
X103821252Y-119945000D01*
%TO.C,C12*%
X123902400Y-112152164D02*
X123902400Y-112367836D01*
X124622400Y-112152164D02*
X124622400Y-112367836D01*
%TO.C,N1*%
G36*
X105216563Y-97072836D02*
G01*
X105300384Y-97517460D01*
X105609669Y-97644958D01*
X105918955Y-97772456D01*
X106289995Y-97520151D01*
X106393906Y-97449901D01*
X106487836Y-97387177D01*
X106567401Y-97334843D01*
X106628219Y-97295762D01*
X106665906Y-97272798D01*
X106676170Y-97267847D01*
X106694659Y-97280581D01*
X106734169Y-97315787D01*
X106790271Y-97368967D01*
X106858536Y-97435623D01*
X106934535Y-97511259D01*
X107013841Y-97591377D01*
X107092024Y-97671479D01*
X107164656Y-97747069D01*
X107227308Y-97813650D01*
X107275552Y-97866723D01*
X107304959Y-97901792D01*
X107311990Y-97913528D01*
X107301872Y-97935165D01*
X107273508Y-97982567D01*
X107229878Y-98051098D01*
X107173967Y-98136120D01*
X107108755Y-98232998D01*
X107070968Y-98288255D01*
X107002092Y-98389153D01*
X106940889Y-98480204D01*
X106890327Y-98556875D01*
X106853377Y-98614633D01*
X106833007Y-98648948D01*
X106829946Y-98656159D01*
X106836885Y-98676653D01*
X106855800Y-98724418D01*
X106883836Y-98792737D01*
X106918140Y-98874894D01*
X106955858Y-98964175D01*
X106994136Y-99053863D01*
X107030119Y-99137243D01*
X107060955Y-99207599D01*
X107083788Y-99258215D01*
X107095766Y-99282376D01*
X107096473Y-99283327D01*
X107115280Y-99287941D01*
X107165367Y-99298233D01*
X107241542Y-99313192D01*
X107338614Y-99331806D01*
X107451392Y-99353064D01*
X107517191Y-99365323D01*
X107637699Y-99388267D01*
X107746546Y-99410100D01*
X107838225Y-99429627D01*
X107907230Y-99445653D01*
X107948053Y-99456984D01*
X107956260Y-99460579D01*
X107964297Y-99484911D01*
X107970782Y-99539864D01*
X107975719Y-99619013D01*
X107979113Y-99715931D01*
X107980967Y-99824192D01*
X107981287Y-99937370D01*
X107980076Y-100049040D01*
X107977339Y-100152773D01*
X107973080Y-100242146D01*
X107967304Y-100310731D01*
X107960016Y-100352102D01*
X107955644Y-100360715D01*
X107929513Y-100371038D01*
X107874142Y-100385797D01*
X107796856Y-100403257D01*
X107704979Y-100421685D01*
X107672907Y-100427646D01*
X107518273Y-100455971D01*
X107396124Y-100478781D01*
X107302422Y-100496985D01*
X107233133Y-100511488D01*
X107184220Y-100523197D01*
X107151646Y-100533020D01*
X107131377Y-100541861D01*
X107119375Y-100550629D01*
X107117696Y-100552362D01*
X107100933Y-100580276D01*
X107075363Y-100634600D01*
X107043537Y-100708682D01*
X107008009Y-100795870D01*
X106971332Y-100889513D01*
X106936060Y-100982957D01*
X106904745Y-101069552D01*
X106879942Y-101142645D01*
X106864203Y-101195583D01*
X106860081Y-101221716D01*
X106860425Y-101222631D01*
X106874390Y-101243991D01*
X106906071Y-101290989D01*
X106952140Y-101358732D01*
X107009267Y-101442328D01*
X107074122Y-101536887D01*
X107092592Y-101563759D01*
X107158448Y-101661180D01*
X107216399Y-101750068D01*
X107263287Y-101825317D01*
X107295956Y-101881825D01*
X107311249Y-101914486D01*
X107311990Y-101918498D01*
X107299141Y-101939589D01*
X107263637Y-101981369D01*
X107210042Y-102039350D01*
X107142920Y-102109040D01*
X107066836Y-102185950D01*
X106986353Y-102265588D01*
X106906036Y-102343466D01*
X106830448Y-102415091D01*
X106764154Y-102475975D01*
X106711718Y-102521626D01*
X106677704Y-102547555D01*
X106668294Y-102551788D01*
X106646392Y-102541817D01*
X106601549Y-102514925D01*
X106541070Y-102475641D01*
X106494538Y-102444022D01*
X106410224Y-102386003D01*
X106310375Y-102317689D01*
X106210222Y-102249484D01*
X106156376Y-102212980D01*
X105974120Y-102089705D01*
X105821130Y-102172425D01*
X105751431Y-102208664D01*
X105692163Y-102236831D01*
X105652060Y-102252896D01*
X105641852Y-102255131D01*
X105629578Y-102238627D01*
X105605362Y-102191987D01*
X105571012Y-102119514D01*
X105528337Y-102025511D01*
X105479143Y-101914279D01*
X105425239Y-101790120D01*
X105368433Y-101657337D01*
X105310531Y-101520232D01*
X105253342Y-101383107D01*
X105198673Y-101250263D01*
X105148333Y-101126003D01*
X105104129Y-101014630D01*
X105067868Y-100920444D01*
X105041358Y-100847749D01*
X105026407Y-100800846D01*
X105024003Y-100784738D01*
X105043060Y-100764191D01*
X105084785Y-100730838D01*
X105140455Y-100691607D01*
X105145127Y-100688504D01*
X105289013Y-100573328D01*
X105405032Y-100438958D01*
X105492179Y-100289689D01*
X105549448Y-100129818D01*
X105575835Y-99963642D01*
X105570334Y-99795457D01*
X105531939Y-99629560D01*
X105459644Y-99470247D01*
X105438375Y-99435392D01*
X105327745Y-99294642D01*
X105197051Y-99181619D01*
X105050813Y-99096908D01*
X104893557Y-99041099D01*
X104729806Y-99014779D01*
X104564082Y-99018535D01*
X104400911Y-99052955D01*
X104244814Y-99118628D01*
X104100316Y-99216140D01*
X104055618Y-99255718D01*
X103941861Y-99379608D01*
X103858967Y-99510029D01*
X103802105Y-99656220D01*
X103770436Y-99800993D01*
X103762618Y-99963765D01*
X103788687Y-100127345D01*
X103845994Y-100286203D01*
X103931893Y-100434811D01*
X104043735Y-100567640D01*
X104178872Y-100679161D01*
X104196632Y-100690916D01*
X104252899Y-100729413D01*
X104295672Y-100762768D01*
X104316121Y-100784065D01*
X104316418Y-100784738D01*
X104312028Y-100807776D01*
X104294625Y-100860062D01*
X104266017Y-100937295D01*
X104228014Y-101035173D01*
X104182423Y-101149396D01*
X104131052Y-101275663D01*
X104075711Y-101409672D01*
X104018207Y-101547123D01*
X103960350Y-101683713D01*
X103903947Y-101815142D01*
X103850807Y-101937110D01*
X103802739Y-102045314D01*
X103761550Y-102135454D01*
X103729050Y-102203228D01*
X103707046Y-102244335D01*
X103698185Y-102255131D01*
X103671109Y-102246724D01*
X103620446Y-102224177D01*
X103554932Y-102191518D01*
X103518908Y-102172425D01*
X103365917Y-102089705D01*
X103183661Y-102212980D01*
X103090624Y-102276133D01*
X102988764Y-102345632D01*
X102893311Y-102411070D01*
X102845499Y-102444022D01*
X102778254Y-102489178D01*
X102721313Y-102524962D01*
X102682103Y-102546843D01*
X102669368Y-102551468D01*
X102650832Y-102538990D01*
X102609808Y-102504157D01*
X102550274Y-102450583D01*
X102476207Y-102381888D01*
X102391584Y-102301686D01*
X102338064Y-102250191D01*
X102244430Y-102158191D01*
X102163508Y-102075904D01*
X102098572Y-102006850D01*
X102052891Y-101954549D01*
X102029738Y-101922521D01*
X102027517Y-101916021D01*
X102037825Y-101891299D01*
X102066310Y-101841310D01*
X102109812Y-101771117D01*
X102165172Y-101685780D01*
X102229229Y-101590361D01*
X102247446Y-101563759D01*
X102313822Y-101467072D01*
X102373371Y-101380022D01*
X102422765Y-101307500D01*
X102458674Y-101254398D01*
X102477768Y-101225608D01*
X102479613Y-101222631D01*
X102476854Y-101199687D01*
X102462211Y-101149241D01*
X102438236Y-101077946D01*
X102407483Y-100992452D01*
X102372505Y-100899412D01*
X102335856Y-100805479D01*
X102300088Y-100717304D01*
X102267755Y-100641539D01*
X102241411Y-100584836D01*
X102223607Y-100553848D01*
X102222342Y-100552362D01*
X102211455Y-100543506D01*
X102193067Y-100534748D01*
X102163143Y-100525182D01*
X102117646Y-100513901D01*
X102052540Y-100499998D01*
X101963788Y-100482568D01*
X101847356Y-100460703D01*
X101699207Y-100433496D01*
X101667131Y-100427646D01*
X101572063Y-100409279D01*
X101489184Y-100391310D01*
X101425819Y-100375474D01*
X101389291Y-100363505D01*
X101384393Y-100360715D01*
X101376322Y-100335977D01*
X101369762Y-100280695D01*
X101364716Y-100201294D01*
X101361190Y-100104201D01*
X101359188Y-99995843D01*
X101358713Y-99882645D01*
X101359772Y-99771033D01*
X101362367Y-99667434D01*
X101366503Y-99578273D01*
X101372186Y-99509977D01*
X101379418Y-99468971D01*
X101383778Y-99460579D01*
X101408051Y-99452113D01*
X101463323Y-99438340D01*
X101544087Y-99420455D01*
X101644837Y-99399653D01*
X101760066Y-99377128D01*
X101822847Y-99365323D01*
X101941962Y-99343056D01*
X102048184Y-99322884D01*
X102136322Y-99305820D01*
X102201183Y-99292874D01*
X102237575Y-99285060D01*
X102243565Y-99283327D01*
X102253688Y-99263795D01*
X102275087Y-99216748D01*
X102304910Y-99148908D01*
X102340304Y-99066996D01*
X102378417Y-98977733D01*
X102416396Y-98887840D01*
X102451389Y-98804040D01*
X102480543Y-98733052D01*
X102501006Y-98681599D01*
X102509926Y-98656402D01*
X102510092Y-98655301D01*
X102499980Y-98635424D01*
X102471632Y-98589682D01*
X102428026Y-98522622D01*
X102372143Y-98438789D01*
X102306962Y-98342731D01*
X102269070Y-98287555D01*
X102200024Y-98186386D01*
X102138699Y-98094535D01*
X102088086Y-98016649D01*
X102051178Y-97957374D01*
X102030967Y-97921356D01*
X102028048Y-97913282D01*
X102040596Y-97894489D01*
X102075286Y-97854362D01*
X102127686Y-97797398D01*
X102193365Y-97728090D01*
X102267893Y-97650936D01*
X102346836Y-97570430D01*
X102425766Y-97491068D01*
X102500249Y-97417345D01*
X102565855Y-97353757D01*
X102618153Y-97304799D01*
X102652710Y-97274966D01*
X102664271Y-97267847D01*
X102683095Y-97277858D01*
X102728118Y-97305983D01*
X102794962Y-97349359D01*
X102879250Y-97405123D01*
X102976605Y-97470411D01*
X103050042Y-97520151D01*
X103421082Y-97772456D01*
X104039654Y-97517460D01*
X104123474Y-97072836D01*
X104207295Y-96628212D01*
X105132743Y-96628212D01*
X105216563Y-97072836D01*
G37*
D16*
X105216563Y-97072836D02*
X105300384Y-97517460D01*
X105609669Y-97644958D01*
X105918955Y-97772456D01*
X106289995Y-97520151D01*
X106393906Y-97449901D01*
X106487836Y-97387177D01*
X106567401Y-97334843D01*
X106628219Y-97295762D01*
X106665906Y-97272798D01*
X106676170Y-97267847D01*
X106694659Y-97280581D01*
X106734169Y-97315787D01*
X106790271Y-97368967D01*
X106858536Y-97435623D01*
X106934535Y-97511259D01*
X107013841Y-97591377D01*
X107092024Y-97671479D01*
X107164656Y-97747069D01*
X107227308Y-97813650D01*
X107275552Y-97866723D01*
X107304959Y-97901792D01*
X107311990Y-97913528D01*
X107301872Y-97935165D01*
X107273508Y-97982567D01*
X107229878Y-98051098D01*
X107173967Y-98136120D01*
X107108755Y-98232998D01*
X107070968Y-98288255D01*
X107002092Y-98389153D01*
X106940889Y-98480204D01*
X106890327Y-98556875D01*
X106853377Y-98614633D01*
X106833007Y-98648948D01*
X106829946Y-98656159D01*
X106836885Y-98676653D01*
X106855800Y-98724418D01*
X106883836Y-98792737D01*
X106918140Y-98874894D01*
X106955858Y-98964175D01*
X106994136Y-99053863D01*
X107030119Y-99137243D01*
X107060955Y-99207599D01*
X107083788Y-99258215D01*
X107095766Y-99282376D01*
X107096473Y-99283327D01*
X107115280Y-99287941D01*
X107165367Y-99298233D01*
X107241542Y-99313192D01*
X107338614Y-99331806D01*
X107451392Y-99353064D01*
X107517191Y-99365323D01*
X107637699Y-99388267D01*
X107746546Y-99410100D01*
X107838225Y-99429627D01*
X107907230Y-99445653D01*
X107948053Y-99456984D01*
X107956260Y-99460579D01*
X107964297Y-99484911D01*
X107970782Y-99539864D01*
X107975719Y-99619013D01*
X107979113Y-99715931D01*
X107980967Y-99824192D01*
X107981287Y-99937370D01*
X107980076Y-100049040D01*
X107977339Y-100152773D01*
X107973080Y-100242146D01*
X107967304Y-100310731D01*
X107960016Y-100352102D01*
X107955644Y-100360715D01*
X107929513Y-100371038D01*
X107874142Y-100385797D01*
X107796856Y-100403257D01*
X107704979Y-100421685D01*
X107672907Y-100427646D01*
X107518273Y-100455971D01*
X107396124Y-100478781D01*
X107302422Y-100496985D01*
X107233133Y-100511488D01*
X107184220Y-100523197D01*
X107151646Y-100533020D01*
X107131377Y-100541861D01*
X107119375Y-100550629D01*
X107117696Y-100552362D01*
X107100933Y-100580276D01*
X107075363Y-100634600D01*
X107043537Y-100708682D01*
X107008009Y-100795870D01*
X106971332Y-100889513D01*
X106936060Y-100982957D01*
X106904745Y-101069552D01*
X106879942Y-101142645D01*
X106864203Y-101195583D01*
X106860081Y-101221716D01*
X106860425Y-101222631D01*
X106874390Y-101243991D01*
X106906071Y-101290989D01*
X106952140Y-101358732D01*
X107009267Y-101442328D01*
X107074122Y-101536887D01*
X107092592Y-101563759D01*
X107158448Y-101661180D01*
X107216399Y-101750068D01*
X107263287Y-101825317D01*
X107295956Y-101881825D01*
X107311249Y-101914486D01*
X107311990Y-101918498D01*
X107299141Y-101939589D01*
X107263637Y-101981369D01*
X107210042Y-102039350D01*
X107142920Y-102109040D01*
X107066836Y-102185950D01*
X106986353Y-102265588D01*
X106906036Y-102343466D01*
X106830448Y-102415091D01*
X106764154Y-102475975D01*
X106711718Y-102521626D01*
X106677704Y-102547555D01*
X106668294Y-102551788D01*
X106646392Y-102541817D01*
X106601549Y-102514925D01*
X106541070Y-102475641D01*
X106494538Y-102444022D01*
X106410224Y-102386003D01*
X106310375Y-102317689D01*
X106210222Y-102249484D01*
X106156376Y-102212980D01*
X105974120Y-102089705D01*
X105821130Y-102172425D01*
X105751431Y-102208664D01*
X105692163Y-102236831D01*
X105652060Y-102252896D01*
X105641852Y-102255131D01*
X105629578Y-102238627D01*
X105605362Y-102191987D01*
X105571012Y-102119514D01*
X105528337Y-102025511D01*
X105479143Y-101914279D01*
X105425239Y-101790120D01*
X105368433Y-101657337D01*
X105310531Y-101520232D01*
X105253342Y-101383107D01*
X105198673Y-101250263D01*
X105148333Y-101126003D01*
X105104129Y-101014630D01*
X105067868Y-100920444D01*
X105041358Y-100847749D01*
X105026407Y-100800846D01*
X105024003Y-100784738D01*
X105043060Y-100764191D01*
X105084785Y-100730838D01*
X105140455Y-100691607D01*
X105145127Y-100688504D01*
X105289013Y-100573328D01*
X105405032Y-100438958D01*
X105492179Y-100289689D01*
X105549448Y-100129818D01*
X105575835Y-99963642D01*
X105570334Y-99795457D01*
X105531939Y-99629560D01*
X105459644Y-99470247D01*
X105438375Y-99435392D01*
X105327745Y-99294642D01*
X105197051Y-99181619D01*
X105050813Y-99096908D01*
X104893557Y-99041099D01*
X104729806Y-99014779D01*
X104564082Y-99018535D01*
X104400911Y-99052955D01*
X104244814Y-99118628D01*
X104100316Y-99216140D01*
X104055618Y-99255718D01*
X103941861Y-99379608D01*
X103858967Y-99510029D01*
X103802105Y-99656220D01*
X103770436Y-99800993D01*
X103762618Y-99963765D01*
X103788687Y-100127345D01*
X103845994Y-100286203D01*
X103931893Y-100434811D01*
X104043735Y-100567640D01*
X104178872Y-100679161D01*
X104196632Y-100690916D01*
X104252899Y-100729413D01*
X104295672Y-100762768D01*
X104316121Y-100784065D01*
X104316418Y-100784738D01*
X104312028Y-100807776D01*
X104294625Y-100860062D01*
X104266017Y-100937295D01*
X104228014Y-101035173D01*
X104182423Y-101149396D01*
X104131052Y-101275663D01*
X104075711Y-101409672D01*
X104018207Y-101547123D01*
X103960350Y-101683713D01*
X103903947Y-101815142D01*
X103850807Y-101937110D01*
X103802739Y-102045314D01*
X103761550Y-102135454D01*
X103729050Y-102203228D01*
X103707046Y-102244335D01*
X103698185Y-102255131D01*
X103671109Y-102246724D01*
X103620446Y-102224177D01*
X103554932Y-102191518D01*
X103518908Y-102172425D01*
X103365917Y-102089705D01*
X103183661Y-102212980D01*
X103090624Y-102276133D01*
X102988764Y-102345632D01*
X102893311Y-102411070D01*
X102845499Y-102444022D01*
X102778254Y-102489178D01*
X102721313Y-102524962D01*
X102682103Y-102546843D01*
X102669368Y-102551468D01*
X102650832Y-102538990D01*
X102609808Y-102504157D01*
X102550274Y-102450583D01*
X102476207Y-102381888D01*
X102391584Y-102301686D01*
X102338064Y-102250191D01*
X102244430Y-102158191D01*
X102163508Y-102075904D01*
X102098572Y-102006850D01*
X102052891Y-101954549D01*
X102029738Y-101922521D01*
X102027517Y-101916021D01*
X102037825Y-101891299D01*
X102066310Y-101841310D01*
X102109812Y-101771117D01*
X102165172Y-101685780D01*
X102229229Y-101590361D01*
X102247446Y-101563759D01*
X102313822Y-101467072D01*
X102373371Y-101380022D01*
X102422765Y-101307500D01*
X102458674Y-101254398D01*
X102477768Y-101225608D01*
X102479613Y-101222631D01*
X102476854Y-101199687D01*
X102462211Y-101149241D01*
X102438236Y-101077946D01*
X102407483Y-100992452D01*
X102372505Y-100899412D01*
X102335856Y-100805479D01*
X102300088Y-100717304D01*
X102267755Y-100641539D01*
X102241411Y-100584836D01*
X102223607Y-100553848D01*
X102222342Y-100552362D01*
X102211455Y-100543506D01*
X102193067Y-100534748D01*
X102163143Y-100525182D01*
X102117646Y-100513901D01*
X102052540Y-100499998D01*
X101963788Y-100482568D01*
X101847356Y-100460703D01*
X101699207Y-100433496D01*
X101667131Y-100427646D01*
X101572063Y-100409279D01*
X101489184Y-100391310D01*
X101425819Y-100375474D01*
X101389291Y-100363505D01*
X101384393Y-100360715D01*
X101376322Y-100335977D01*
X101369762Y-100280695D01*
X101364716Y-100201294D01*
X101361190Y-100104201D01*
X101359188Y-99995843D01*
X101358713Y-99882645D01*
X101359772Y-99771033D01*
X101362367Y-99667434D01*
X101366503Y-99578273D01*
X101372186Y-99509977D01*
X101379418Y-99468971D01*
X101383778Y-99460579D01*
X101408051Y-99452113D01*
X101463323Y-99438340D01*
X101544087Y-99420455D01*
X101644837Y-99399653D01*
X101760066Y-99377128D01*
X101822847Y-99365323D01*
X101941962Y-99343056D01*
X102048184Y-99322884D01*
X102136322Y-99305820D01*
X102201183Y-99292874D01*
X102237575Y-99285060D01*
X102243565Y-99283327D01*
X102253688Y-99263795D01*
X102275087Y-99216748D01*
X102304910Y-99148908D01*
X102340304Y-99066996D01*
X102378417Y-98977733D01*
X102416396Y-98887840D01*
X102451389Y-98804040D01*
X102480543Y-98733052D01*
X102501006Y-98681599D01*
X102509926Y-98656402D01*
X102510092Y-98655301D01*
X102499980Y-98635424D01*
X102471632Y-98589682D01*
X102428026Y-98522622D01*
X102372143Y-98438789D01*
X102306962Y-98342731D01*
X102269070Y-98287555D01*
X102200024Y-98186386D01*
X102138699Y-98094535D01*
X102088086Y-98016649D01*
X102051178Y-97957374D01*
X102030967Y-97921356D01*
X102028048Y-97913282D01*
X102040596Y-97894489D01*
X102075286Y-97854362D01*
X102127686Y-97797398D01*
X102193365Y-97728090D01*
X102267893Y-97650936D01*
X102346836Y-97570430D01*
X102425766Y-97491068D01*
X102500249Y-97417345D01*
X102565855Y-97353757D01*
X102618153Y-97304799D01*
X102652710Y-97274966D01*
X102664271Y-97267847D01*
X102683095Y-97277858D01*
X102728118Y-97305983D01*
X102794962Y-97349359D01*
X102879250Y-97405123D01*
X102976605Y-97470411D01*
X103050042Y-97520151D01*
X103421082Y-97772456D01*
X104039654Y-97517460D01*
X104123474Y-97072836D01*
X104207295Y-96628212D01*
X105132743Y-96628212D01*
X105216563Y-97072836D01*
D15*
%TO.C,C7*%
X137908748Y-124245000D02*
X138431252Y-124245000D01*
X137908748Y-125715000D02*
X138431252Y-125715000D01*
%TO.C,C14*%
X115575000Y-94731252D02*
X115575000Y-94208748D01*
X114105000Y-94731252D02*
X114105000Y-94208748D01*
%TO.C,D2*%
X103765000Y-91015000D02*
X103765000Y-92485000D01*
X106050000Y-91015000D02*
X103765000Y-91015000D01*
X103765000Y-92485000D02*
X106050000Y-92485000D01*
%TO.C,D1*%
X103758750Y-89485000D02*
X106043750Y-89485000D01*
X103758750Y-88015000D02*
X103758750Y-89485000D01*
X106043750Y-88015000D02*
X103758750Y-88015000D01*
%TO.C,C6*%
X142661252Y-125715000D02*
X142138748Y-125715000D01*
X142661252Y-124245000D02*
X142138748Y-124245000D01*
%TO.C,C5*%
X112945000Y-124481252D02*
X112945000Y-123958748D01*
X114415000Y-124481252D02*
X114415000Y-123958748D01*
%TO.C,R1*%
X104017500Y-107137742D02*
X104017500Y-107612258D01*
X105062500Y-107137742D02*
X105062500Y-107612258D01*
%TO.C,J2*%
X144075000Y-109945000D02*
X145405000Y-109945000D01*
X142805000Y-112605000D02*
X137665000Y-112605000D01*
X137665000Y-109945000D02*
X137665000Y-112605000D01*
X145405000Y-109945000D02*
X145405000Y-111275000D01*
X142805000Y-109945000D02*
X142805000Y-112605000D01*
X142805000Y-109945000D02*
X137665000Y-109945000D01*
D10*
%TO.C,X1*%
X105765000Y-103335000D02*
X113305000Y-103335000D01*
X113305000Y-109195000D02*
X105765000Y-109195000D01*
X105765000Y-109195000D02*
X105765000Y-103335000D01*
X105535000Y-109425000D02*
X107795000Y-109425000D01*
X105535000Y-107465000D02*
X105535000Y-109425000D01*
X113305000Y-103335000D02*
X113305000Y-109195000D01*
D15*
%TO.C,C3*%
X111716252Y-116217400D02*
X111193748Y-116217400D01*
X111716252Y-114747400D02*
X111193748Y-114747400D01*
D14*
%TO.C,USB1*%
X133270000Y-127730007D02*
X134270000Y-128730007D01*
X134270000Y-128730007D02*
X133430000Y-128730007D01*
X120300000Y-127730007D02*
X133300000Y-127730007D01*
X119300000Y-128730007D02*
X120140000Y-128730007D01*
X133300000Y-127730007D02*
X133300000Y-117210007D01*
X120300000Y-113550007D02*
X120300000Y-113530007D01*
X120300000Y-127730007D02*
X119300000Y-128730007D01*
X120480000Y-113550007D02*
X122220000Y-113550007D01*
X120140000Y-128730007D02*
X121140000Y-127730007D01*
X120300000Y-113550007D02*
X120320000Y-113550007D01*
X120300000Y-127730007D02*
X120300000Y-117210007D01*
X131380000Y-113550007D02*
X133120000Y-113550007D01*
X133280000Y-113550007D02*
X133300000Y-113550007D01*
X133430000Y-128730007D02*
X132430000Y-127730007D01*
D15*
%TO.C,R3*%
X108592742Y-92272500D02*
X109067258Y-92272500D01*
X108592742Y-91227500D02*
X109067258Y-91227500D01*
%TO.C,D3*%
X103765000Y-94135000D02*
X103765000Y-95605000D01*
X106050000Y-94135000D02*
X103765000Y-94135000D01*
X103765000Y-95605000D02*
X106050000Y-95605000D01*
D10*
%TO.C,U3*%
X138104000Y-120518000D02*
X138104000Y-117778000D01*
X138104000Y-117778000D02*
X144764000Y-117778000D01*
X144764000Y-117778000D02*
X144764000Y-120518000D01*
X144764000Y-120518000D02*
X138104000Y-120518000D01*
D15*
%TO.C,R2*%
X108566492Y-88237500D02*
X109041008Y-88237500D01*
X108566492Y-89282500D02*
X109041008Y-89282500D01*
D10*
%TO.C,F1*%
X114770000Y-121666400D02*
X114770000Y-120476400D01*
X112590000Y-120476400D02*
X112590000Y-121666400D01*
X112740000Y-121816400D02*
X114620000Y-121816400D01*
X112740000Y-117276400D02*
X114620000Y-117276400D01*
X114770000Y-117426400D02*
X114770000Y-118616400D01*
X112590000Y-118616400D02*
X112590000Y-117426400D01*
D17*
X112840000Y-119546400D02*
G75*
G03*
X113682199Y-119545131I420000J730000D01*
G01*
X114520000Y-119546400D02*
G75*
G03*
X113677801Y-119547669I-420001J-729999D01*
G01*
D15*
%TO.C,C15*%
X126510000Y-96630580D02*
X126510000Y-96349420D01*
X125490000Y-96630580D02*
X125490000Y-96349420D01*
D10*
%TO.C,U4*%
X115220000Y-102287500D02*
X110860000Y-102287500D01*
X110860000Y-102287500D02*
X110860000Y-97007500D01*
X110860000Y-97007500D02*
X115220000Y-97007500D01*
X115220000Y-97007500D02*
X115220000Y-102287500D01*
D13*
X109660000Y-96977500D02*
G75*
G03*
X109660000Y-96977500I-150000J0D01*
G01*
X111770000Y-97737500D02*
G75*
G03*
X111770000Y-97737500I-150000J0D01*
G01*
D15*
%TO.C,J1*%
X115970000Y-106625000D02*
X115970000Y-107310000D01*
X115970000Y-105940000D02*
X115883276Y-105940000D01*
X115970000Y-105065000D02*
X115669493Y-105065000D01*
X115970000Y-107310000D02*
X115275000Y-107310000D01*
X114580000Y-105940000D02*
X114580000Y-105065000D01*
X114666724Y-105940000D02*
X114580000Y-105940000D01*
X115970000Y-105940000D02*
X115970000Y-105065000D01*
X114880507Y-105065000D02*
X114580000Y-105065000D01*
D10*
%TO.C,U1*%
X101209000Y-116462000D02*
X101209000Y-113522000D01*
X101209000Y-113522000D02*
X107869000Y-113522000D01*
X107869000Y-116462000D02*
X101209000Y-116462000D01*
X107869000Y-113522000D02*
X107869000Y-116462000D01*
D15*
%TO.C,C4*%
X109795400Y-123907948D02*
X109795400Y-124430452D01*
X111265400Y-123907948D02*
X111265400Y-124430452D01*
%TO.C,FB1*%
X109595000Y-118787158D02*
X109595000Y-120457642D01*
X111415000Y-118787158D02*
X111415000Y-120457642D01*
%TD*%
M02*
