%TF.GenerationSoftware,KiCad,Pcbnew,6.0.4-6f826c9f35~116~ubuntu20.04.1*%
%TF.CreationDate,2022-04-13T09:56:37+07:00*%
%TF.ProjectId,CH569Board,43483536-3942-46f6-9172-642e6b696361,rev?*%
%TF.SameCoordinates,Original*%
%TF.FileFunction,Legend,Bot*%
%TF.FilePolarity,Positive*%
%FSLAX46Y46*%
G04 Gerber Fmt 4.6, Leading zero omitted, Abs format (unit mm)*
G04 Created by KiCad (PCBNEW 6.0.4-6f826c9f35~116~ubuntu20.04.1) date 2022-04-13 09:56:37*
%MOMM*%
%LPD*%
G01*
G04 APERTURE LIST*
%ADD10C,0.150000*%
%ADD11C,0.120000*%
G04 APERTURE END LIST*
D10*
%TO.C,C6*%
X127103142Y-111085333D02*
X127150761Y-111037714D01*
X127198380Y-110894857D01*
X127198380Y-110799619D01*
X127150761Y-110656761D01*
X127055523Y-110561523D01*
X126960285Y-110513904D01*
X126769809Y-110466285D01*
X126626952Y-110466285D01*
X126436476Y-110513904D01*
X126341238Y-110561523D01*
X126246000Y-110656761D01*
X126198380Y-110799619D01*
X126198380Y-110894857D01*
X126246000Y-111037714D01*
X126293619Y-111085333D01*
X126198380Y-111942476D02*
X126198380Y-111752000D01*
X126246000Y-111656761D01*
X126293619Y-111609142D01*
X126436476Y-111513904D01*
X126626952Y-111466285D01*
X127007904Y-111466285D01*
X127103142Y-111513904D01*
X127150761Y-111561523D01*
X127198380Y-111656761D01*
X127198380Y-111847238D01*
X127150761Y-111942476D01*
X127103142Y-111990095D01*
X127007904Y-112037714D01*
X126769809Y-112037714D01*
X126674571Y-111990095D01*
X126626952Y-111942476D01*
X126579333Y-111847238D01*
X126579333Y-111656761D01*
X126626952Y-111561523D01*
X126674571Y-111513904D01*
X126769809Y-111466285D01*
%TO.C,C8*%
X128881142Y-111085333D02*
X128928761Y-111037714D01*
X128976380Y-110894857D01*
X128976380Y-110799619D01*
X128928761Y-110656761D01*
X128833523Y-110561523D01*
X128738285Y-110513904D01*
X128547809Y-110466285D01*
X128404952Y-110466285D01*
X128214476Y-110513904D01*
X128119238Y-110561523D01*
X128024000Y-110656761D01*
X127976380Y-110799619D01*
X127976380Y-110894857D01*
X128024000Y-111037714D01*
X128071619Y-111085333D01*
X128404952Y-111656761D02*
X128357333Y-111561523D01*
X128309714Y-111513904D01*
X128214476Y-111466285D01*
X128166857Y-111466285D01*
X128071619Y-111513904D01*
X128024000Y-111561523D01*
X127976380Y-111656761D01*
X127976380Y-111847238D01*
X128024000Y-111942476D01*
X128071619Y-111990095D01*
X128166857Y-112037714D01*
X128214476Y-112037714D01*
X128309714Y-111990095D01*
X128357333Y-111942476D01*
X128404952Y-111847238D01*
X128404952Y-111656761D01*
X128452571Y-111561523D01*
X128500190Y-111513904D01*
X128595428Y-111466285D01*
X128785904Y-111466285D01*
X128881142Y-111513904D01*
X128928761Y-111561523D01*
X128976380Y-111656761D01*
X128976380Y-111847238D01*
X128928761Y-111942476D01*
X128881142Y-111990095D01*
X128785904Y-112037714D01*
X128595428Y-112037714D01*
X128500190Y-111990095D01*
X128452571Y-111942476D01*
X128404952Y-111847238D01*
%TO.C,C18*%
X115612857Y-103047142D02*
X115660476Y-103094761D01*
X115803333Y-103142380D01*
X115898571Y-103142380D01*
X116041428Y-103094761D01*
X116136666Y-102999523D01*
X116184285Y-102904285D01*
X116231904Y-102713809D01*
X116231904Y-102570952D01*
X116184285Y-102380476D01*
X116136666Y-102285238D01*
X116041428Y-102190000D01*
X115898571Y-102142380D01*
X115803333Y-102142380D01*
X115660476Y-102190000D01*
X115612857Y-102237619D01*
X114660476Y-103142380D02*
X115231904Y-103142380D01*
X114946190Y-103142380D02*
X114946190Y-102142380D01*
X115041428Y-102285238D01*
X115136666Y-102380476D01*
X115231904Y-102428095D01*
X114089047Y-102570952D02*
X114184285Y-102523333D01*
X114231904Y-102475714D01*
X114279523Y-102380476D01*
X114279523Y-102332857D01*
X114231904Y-102237619D01*
X114184285Y-102190000D01*
X114089047Y-102142380D01*
X113898571Y-102142380D01*
X113803333Y-102190000D01*
X113755714Y-102237619D01*
X113708095Y-102332857D01*
X113708095Y-102380476D01*
X113755714Y-102475714D01*
X113803333Y-102523333D01*
X113898571Y-102570952D01*
X114089047Y-102570952D01*
X114184285Y-102618571D01*
X114231904Y-102666190D01*
X114279523Y-102761428D01*
X114279523Y-102951904D01*
X114231904Y-103047142D01*
X114184285Y-103094761D01*
X114089047Y-103142380D01*
X113898571Y-103142380D01*
X113803333Y-103094761D01*
X113755714Y-103047142D01*
X113708095Y-102951904D01*
X113708095Y-102761428D01*
X113755714Y-102666190D01*
X113803333Y-102618571D01*
X113898571Y-102570952D01*
%TO.C,C10*%
X124817142Y-111117142D02*
X124864761Y-111069523D01*
X124912380Y-110926666D01*
X124912380Y-110831428D01*
X124864761Y-110688571D01*
X124769523Y-110593333D01*
X124674285Y-110545714D01*
X124483809Y-110498095D01*
X124340952Y-110498095D01*
X124150476Y-110545714D01*
X124055238Y-110593333D01*
X123960000Y-110688571D01*
X123912380Y-110831428D01*
X123912380Y-110926666D01*
X123960000Y-111069523D01*
X124007619Y-111117142D01*
X124912380Y-112069523D02*
X124912380Y-111498095D01*
X124912380Y-111783809D02*
X123912380Y-111783809D01*
X124055238Y-111688571D01*
X124150476Y-111593333D01*
X124198095Y-111498095D01*
X123912380Y-112688571D02*
X123912380Y-112783809D01*
X123960000Y-112879047D01*
X124007619Y-112926666D01*
X124102857Y-112974285D01*
X124293333Y-113021904D01*
X124531428Y-113021904D01*
X124721904Y-112974285D01*
X124817142Y-112926666D01*
X124864761Y-112879047D01*
X124912380Y-112783809D01*
X124912380Y-112688571D01*
X124864761Y-112593333D01*
X124817142Y-112545714D01*
X124721904Y-112498095D01*
X124531428Y-112450476D01*
X124293333Y-112450476D01*
X124102857Y-112498095D01*
X124007619Y-112545714D01*
X123960000Y-112593333D01*
X123912380Y-112688571D01*
%TO.C,C17*%
X120422857Y-108707142D02*
X120470476Y-108754761D01*
X120613333Y-108802380D01*
X120708571Y-108802380D01*
X120851428Y-108754761D01*
X120946666Y-108659523D01*
X120994285Y-108564285D01*
X121041904Y-108373809D01*
X121041904Y-108230952D01*
X120994285Y-108040476D01*
X120946666Y-107945238D01*
X120851428Y-107850000D01*
X120708571Y-107802380D01*
X120613333Y-107802380D01*
X120470476Y-107850000D01*
X120422857Y-107897619D01*
X119470476Y-108802380D02*
X120041904Y-108802380D01*
X119756190Y-108802380D02*
X119756190Y-107802380D01*
X119851428Y-107945238D01*
X119946666Y-108040476D01*
X120041904Y-108088095D01*
X119137142Y-107802380D02*
X118470476Y-107802380D01*
X118899047Y-108802380D01*
%TO.C,C9*%
X122785142Y-111593333D02*
X122832761Y-111545714D01*
X122880380Y-111402857D01*
X122880380Y-111307619D01*
X122832761Y-111164761D01*
X122737523Y-111069523D01*
X122642285Y-111021904D01*
X122451809Y-110974285D01*
X122308952Y-110974285D01*
X122118476Y-111021904D01*
X122023238Y-111069523D01*
X121928000Y-111164761D01*
X121880380Y-111307619D01*
X121880380Y-111402857D01*
X121928000Y-111545714D01*
X121975619Y-111593333D01*
X122880380Y-112069523D02*
X122880380Y-112260000D01*
X122832761Y-112355238D01*
X122785142Y-112402857D01*
X122642285Y-112498095D01*
X122451809Y-112545714D01*
X122070857Y-112545714D01*
X121975619Y-112498095D01*
X121928000Y-112450476D01*
X121880380Y-112355238D01*
X121880380Y-112164761D01*
X121928000Y-112069523D01*
X121975619Y-112021904D01*
X122070857Y-111974285D01*
X122308952Y-111974285D01*
X122404190Y-112021904D01*
X122451809Y-112069523D01*
X122499428Y-112164761D01*
X122499428Y-112355238D01*
X122451809Y-112450476D01*
X122404190Y-112498095D01*
X122308952Y-112545714D01*
%TO.C,C20*%
X115612857Y-104607142D02*
X115660476Y-104654761D01*
X115803333Y-104702380D01*
X115898571Y-104702380D01*
X116041428Y-104654761D01*
X116136666Y-104559523D01*
X116184285Y-104464285D01*
X116231904Y-104273809D01*
X116231904Y-104130952D01*
X116184285Y-103940476D01*
X116136666Y-103845238D01*
X116041428Y-103750000D01*
X115898571Y-103702380D01*
X115803333Y-103702380D01*
X115660476Y-103750000D01*
X115612857Y-103797619D01*
X115231904Y-103797619D02*
X115184285Y-103750000D01*
X115089047Y-103702380D01*
X114850952Y-103702380D01*
X114755714Y-103750000D01*
X114708095Y-103797619D01*
X114660476Y-103892857D01*
X114660476Y-103988095D01*
X114708095Y-104130952D01*
X115279523Y-104702380D01*
X114660476Y-104702380D01*
X114041428Y-103702380D02*
X113946190Y-103702380D01*
X113850952Y-103750000D01*
X113803333Y-103797619D01*
X113755714Y-103892857D01*
X113708095Y-104083333D01*
X113708095Y-104321428D01*
X113755714Y-104511904D01*
X113803333Y-104607142D01*
X113850952Y-104654761D01*
X113946190Y-104702380D01*
X114041428Y-104702380D01*
X114136666Y-104654761D01*
X114184285Y-104607142D01*
X114231904Y-104511904D01*
X114279523Y-104321428D01*
X114279523Y-104083333D01*
X114231904Y-103892857D01*
X114184285Y-103797619D01*
X114136666Y-103750000D01*
X114041428Y-103702380D01*
D11*
%TO.C,C6*%
X125675000Y-108508748D02*
X125675000Y-109031252D01*
X127145000Y-108508748D02*
X127145000Y-109031252D01*
%TO.C,C8*%
X127665000Y-108508748D02*
X127665000Y-109031252D01*
X129135000Y-108508748D02*
X129135000Y-109031252D01*
%TO.C,C18*%
X119981252Y-103315000D02*
X119458748Y-103315000D01*
X119981252Y-101845000D02*
X119458748Y-101845000D01*
%TO.C,C10*%
X125165000Y-108508748D02*
X125165000Y-109031252D01*
X123695000Y-108508748D02*
X123695000Y-109031252D01*
%TO.C,C17*%
X119991252Y-107355000D02*
X119468748Y-107355000D01*
X119991252Y-105885000D02*
X119468748Y-105885000D01*
%TO.C,C9*%
X123195000Y-108498748D02*
X123195000Y-109021252D01*
X121725000Y-108498748D02*
X121725000Y-109021252D01*
%TO.C,C20*%
X119981252Y-105335000D02*
X119458748Y-105335000D01*
X119981252Y-103865000D02*
X119458748Y-103865000D01*
%TD*%
M02*
