M48
; DRILL file {KiCad 6.0.4-6f826c9f35~116~ubuntu20.04.1} date Sab 09 Apr 2022 01:04:21 
; FORMAT={-:-/ absolute / inch / decimal}
; #@! TF.CreationDate,2022-04-09T13:04:21+07:00
; #@! TF.GenerationSoftware,Kicad,Pcbnew,6.0.4-6f826c9f35~116~ubuntu20.04.1
; #@! TF.FileFunction,Plated,1,4,PTH
FMAT,2
INCH
; #@! TA.AperFunction,Plated,PTH,ViaDrill
T1C0.0079
; #@! TA.AperFunction,Plated,PTH,ComponentDrill
T2C0.0197
; #@! TA.AperFunction,Plated,PTH,ComponentDrill
T3C0.0276
; #@! TA.AperFunction,Plated,PTH,ViaDrill
T4C0.0315
; #@! TA.AperFunction,Plated,PTH,ViaDrill
T5C0.0394
; #@! TA.AperFunction,Plated,PTH,ComponentDrill
T6C0.0394
; #@! TA.AperFunction,Plated,PTH,ComponentDrill
T7C0.0512
%
G90
G05
T1
X3.9909Y-4.7516
X4.0244Y-4.5614
X4.0256Y-3.8067
X4.0264Y-3.6799
X4.0283Y-3.4256
X4.0283Y-3.5504
X4.0386Y-4.8252
X4.2366Y-3.1476
X4.239Y-3.3394
X4.3114Y-4.0425
X4.3126Y-3.2488
X4.3126Y-3.4331
X4.3512Y-4.9894
X4.3941Y-3.248
X4.4165Y-4.3567
X4.4467Y-3.613
X4.4478Y-3.7352
X4.4591Y-3.5799
X4.4756Y-4.989
X4.5161Y-3.9008
X4.5181Y-3.8476
X4.5213Y-3.0886
X4.5744Y-4.5795
X4.576Y-4.511
X4.5764Y-4.4217
X4.5831Y-3.215
X4.615Y-3.2161
X4.6307Y-4.3567
X4.6461Y-3.2331
X4.6524Y-4.7051
X4.6602Y-3.8807
X4.6776Y-3.2476
X4.7087Y-3.248
X4.7402Y-3.248
X4.7618Y-3.8287
X4.7717Y-3.248
X4.7963Y-3.8307
X4.8041Y-3.248
X4.8209Y-4.1732
X4.822Y-4.0976
X4.8224Y-4.013
X4.8224Y-4.0594
X4.8228Y-4.1213
X4.826Y-3.8299
X4.8297Y-3.9478
X4.835Y-3.2461
X4.8423Y-3.8788
X4.8504Y-4.1949
X4.8524Y-3.8272
X4.8661Y-3.248
X4.872Y-4.7063
X4.8781Y-3.8774
X4.8799Y-3.8268
X4.8976Y-4.1953
X4.8986Y-3.248
X4.9138Y-3.8894
X4.9144Y-3.8268
X4.9301Y-3.247
X4.9524Y-4.1933
X4.9606Y-3.248
X4.9618Y-3.8673
X4.9925Y-3.2465
X5.0012Y-4.2815
X5.0125Y-3.8335
X5.0236Y-3.248
X5.0268Y-4.2819
X5.0349Y-3.8297
X5.0543Y-4.1949
X5.0551Y-3.248
X5.0576Y-3.8308
X5.0799Y-3.8268
X5.0866Y-3.248
X5.1025Y-3.8249
X5.1118Y-4.7035
X5.1181Y-3.248
X5.128Y-3.8258
X5.1504Y-3.2461
X5.1516Y-3.8268
X5.1811Y-3.2441
X5.1941Y-3.8594
X5.2126Y-3.2441
X5.2142Y-4.422
X5.2429Y-3.8817
X5.2449Y-3.905
X5.2451Y-3.2441
X5.2496Y-4.1984
X5.2613Y-3.9421
X5.2629Y-3.9658
X5.2667Y-3.9892
X5.2684Y-4.0138
X5.2686Y-4.0571
X5.2753Y-4.0354
X5.2756Y-3.2441
X5.2921Y-3.4504
X5.3075Y-3.2433
X5.328Y-4.3539
X5.3303Y-4.9213
X5.3396Y-3.2451
X5.363Y-4.6315
X5.3711Y-3.2451
X5.4026Y-3.2451
X5.4331Y-3.2451
X5.44Y-4.25
X5.465Y-3.2437
X5.4693Y-3.9055
X5.496Y-3.46
X5.505Y-4.195
X5.528Y-3.46
X5.5887Y-3.9706
X5.59Y-3.44
X5.59Y-3.57
X5.59Y-3.845
X5.59Y-4.11
X5.6295Y-3.7075
X5.6315Y-3.1512
X5.6315Y-3.3386
X5.7106Y-4.9209
X5.722Y-4.8012
T2
X4.5384Y-4.1585
X4.5384Y-4.1978
T4
X4.5866Y-4.6504
X4.6072Y-4.1148
X4.86Y-3.9844
X4.86Y-4.0274
X4.86Y-4.0694
X4.86Y-4.1114
X4.86Y-4.1534
X4.8732Y-4.5618
X4.902Y-3.9844
X4.902Y-4.0274
X4.902Y-4.0694
X4.902Y-4.1114
X4.902Y-4.1534
X4.944Y-3.9844
X4.944Y-4.0274
X4.944Y-4.0694
X4.944Y-4.1114
X4.944Y-4.1534
X4.986Y-3.9854
X4.986Y-4.0284
X4.986Y-4.0704
X4.986Y-4.1124
X4.986Y-4.1544
X4.9929Y-4.4362
X5.028Y-3.9854
X5.028Y-4.0284
X5.028Y-4.0704
X5.028Y-4.1124
X5.028Y-4.1544
X5.1094Y-4.5646
X5.4472Y-4.5634
T5
X4.1157Y-4.1126
X4.2665Y-4.413
X4.2728Y-4.6481
X4.6768Y-4.3209
X4.9547Y-3.7016
X5.3953Y-4.8008
T6
X5.4722Y-4.3809
X5.5722Y-4.3809
X5.6722Y-4.3809
T7
X4.2327Y-3.2437
X5.6579Y-3.2437
T3
G00X4.7402Y-4.5055
M15
G01X4.7402Y-4.5803
M16
G05
G00X5.2441Y-4.5803
M15
G01X5.2441Y-4.5055
M16
G05
T0
M30
