M48
; DRILL file {KiCad 6.0.7-f9a2dced07~116~ubuntu20.04.1} date Rab 24 Agu 2022 05:01:59 
; FORMAT={-:-/ absolute / inch / decimal}
; #@! TF.CreationDate,2022-08-24T05:01:59+07:00
; #@! TF.GenerationSoftware,Kicad,Pcbnew,6.0.7-f9a2dced07~116~ubuntu20.04.1
; #@! TF.FileFunction,Plated,1,4,PTH
FMAT,2
INCH
; #@! TA.AperFunction,Plated,PTH,ViaDrill
T1C0.0079
; #@! TA.AperFunction,Plated,PTH,ViaDrill
T2C0.0157
; #@! TA.AperFunction,Plated,PTH,ViaDrill
T3C0.0236
; #@! TA.AperFunction,Plated,PTH,ComponentDrill
T4C0.0276
; #@! TA.AperFunction,Plated,PTH,ViaDrill
T5C0.0315
; #@! TA.AperFunction,Plated,PTH,ViaDrill
T6C0.0394
; #@! TA.AperFunction,Plated,PTH,ComponentDrill
T7C0.0394
; #@! TA.AperFunction,Plated,PTH,ComponentDrill
T8C0.0512
%
G90
G05
T1
X3.9744Y-3.561
X3.9744Y-3.6148
X3.9744Y-3.6686
X3.9744Y-3.7224
X3.9744Y-3.7762
X3.9744Y-3.83
X3.9744Y-3.8838
X3.9744Y-3.9376
X3.9744Y-3.9914
X3.9744Y-4.0452
X3.9744Y-4.099
X3.9744Y-4.1527
X3.9744Y-4.2065
X3.9744Y-4.2603
X3.9744Y-4.3141
X3.9744Y-4.3679
X3.9744Y-4.4217
X3.9744Y-4.4755
X3.9744Y-4.5293
X3.9744Y-4.5831
X3.9744Y-4.6369
X3.9744Y-4.6907
X3.9744Y-4.7445
X3.9744Y-4.7983
X3.9744Y-4.8521
X3.9744Y-4.9059
X3.9744Y-4.9596
X3.9823Y-3.5246
X3.9882Y-4.6644
X4.0039Y-5.0098
X4.0157Y-4.6526
X4.0157Y-4.6772
X4.0167Y-3.5138
X4.0236Y-4.8248
X4.0264Y-3.6799
X4.0283Y-3.5504
X4.0335Y-3.815
X4.0354Y-4.6516
X4.0354Y-4.6713
X4.0531Y-4.6417
X4.061Y-3.5138
X4.064Y-4.7372
X4.0653Y-4.8248
X4.0669Y-4.5748
X4.0669Y-4.6181
X4.0689Y-4.5984
X4.0709Y-4.5531
X4.0719Y-4.6388
X4.0886Y-4.6565
X4.09Y-5.0098
X4.0906Y-4.5433
X4.1053Y-3.5138
X4.107Y-4.8248
X4.1093Y-4.5305
X4.1112Y-4.6506
X4.1132Y-4.1319
X4.127Y-4.5157
X4.1358Y-4.497
X4.1407Y-4.4764
X4.1476Y-4.4557
X4.1486Y-4.8248
X4.1654Y-3.5049
X4.1761Y-5.0098
X4.1929Y-3.2726
X4.1939Y-3.127
X4.1939Y-3.1708
X4.1939Y-3.2146
X4.1939Y-3.3022
X4.1939Y-3.346
X4.1939Y-3.3898
X4.1939Y-3.4336
X4.1939Y-3.4774
X4.2067Y-4.4951
X4.2077Y-4.4744
X4.2106Y-4.3563
X4.2185Y-3.1033
X4.2244Y-4.2057
X4.2343Y-4.1378
X4.2366Y-3.1476
X4.239Y-3.3394
X4.2402Y-3.2933
X4.2402Y-4.5984
X4.244Y-3.462
X4.2461Y-3.1939
X4.2569Y-3.1033
X4.2622Y-5.0098
X4.2677Y-4.1024
X4.2697Y-4.8258
X4.2707Y-4.6083
X4.2795Y-3.2677
X4.2805Y-3.2215
X4.2854Y-4.3474
X4.2854Y-4.3814
X4.2854Y-4.4163
X4.2854Y-4.4503
X4.2854Y-4.4843
X4.2894Y-4.1781
X4.2913Y-4.5453
X4.2943Y-4.9242
X4.2953Y-3.1033
X4.3012Y-4.5098
X4.3051Y-4.0669
X4.3081Y-4.6063
X4.31Y-4.2205
X4.31Y-4.5699
X4.3126Y-3.2488
X4.3199Y-4.1535
X4.3209Y-4.3474
X4.3209Y-4.3814
X4.3209Y-4.4154
X4.3209Y-4.4493
X4.3209Y-4.4833
X4.3366Y-4.1378
X4.3374Y-3.5323
X4.34Y-4.2504
X4.3406Y-4.0285
X4.3409Y-4.1913
X4.3417Y-3.8386
X4.3429Y-3.7953
X4.3453Y-3.9047
X4.3469Y-3.9378
X4.3482Y-5.0098
X4.3533Y-4.3474
X4.3533Y-4.3814
X4.3543Y-4.4154
X4.3543Y-4.4493
X4.3543Y-4.4833
X4.3602Y-4.1171
X4.3642Y-3.7665
X4.3646Y-3.4209
X4.3657Y-3.963
X4.3669Y-3.872
X4.3711Y-3.997
X4.372Y-3.53
X4.375Y-3.6447
X4.3868Y-4.3814
X4.3868Y-4.4154
X4.3868Y-4.4493
X4.3868Y-4.4833
X4.3888Y-4.3061
X4.3941Y-3.248
X4.3941Y-3.4191
X4.3957Y-4.0856
X4.4094Y-3.7606
X4.4173Y-4.9242
X4.4232Y-4.0551
X4.4252Y-4.4163
X4.4252Y-4.4503
X4.4252Y-4.4843
X4.4262Y-4.6033
X4.4343Y-5.0098
X4.436Y-4.3593
X4.4409Y-3.9665
X4.4421Y-3.7228
X4.4429Y-4.0344
X4.4453Y-3.7693
X4.4467Y-3.613
X4.4591Y-3.5799
X4.463Y-3.7941
X4.4657Y-3.9303
X4.4679Y-4.4167
X4.4724Y-3.8224
X4.4728Y-4.0303
X4.4734Y-3.9636
X4.4734Y-4.5463
X4.4744Y-4.0764
X4.4803Y-4.1154
X4.4819Y-3.8484
X4.5033Y-4.4453
X4.5039Y-4.1713
X4.5079Y-3.7825
X4.5128Y-4.1437
X4.5187Y-3.8337
X4.5197Y-3.2157
X4.5204Y-5.0098
X4.5213Y-3.8909
X4.5335Y-4.9281
X4.5366Y-4.0358
X4.5394Y-3.9528
X4.5404Y-4.4882
X4.5421Y-4.076
X4.5427Y-4.4157
X4.5482Y-4.1752
X4.5492Y-4.2215
X4.5561Y-4.3091
X4.5657Y-3.4205
X4.572Y-4.1087
X4.5744Y-4.5795
X4.5748Y-4.2392
X4.5768Y-4.2057
X4.585Y-3.21
X4.5856Y-4.0285
X4.5866Y-4.0571
X4.5883Y-4.3091
X4.59Y-3.8
X4.6014Y-4.4291
X4.603Y-4.2392
X4.6063Y-4.1457
X4.6064Y-5.0098
X4.6132Y-3.8652
X4.615Y-3.2161
X4.6181Y-3.8996
X4.6181Y-4.4567
X4.6197Y-4.5469
X4.6201Y-4.4874
X4.6201Y-4.5177
X4.6201Y-4.5787
X4.6206Y-4.3091
X4.622Y-4.6053
X4.6312Y-4.2392
X4.6319Y-4.4262
X4.6407Y-4.623
X4.6461Y-3.2331
X4.6526Y-3.8681
X4.6528Y-4.3091
X4.6594Y-4.2392
X4.6604Y-4.4035
X4.6614Y-3.9016
X4.6776Y-3.2476
X4.685Y-4.2352
X4.685Y-4.3091
X4.688Y-4.376
X4.688Y-4.5492
X4.689Y-4.4951
X4.6898Y-4.6831
X4.69Y-4.47
X4.69Y-4.52
X4.69Y-4.58
X4.6925Y-5.0098
X4.7057Y-4.2146
X4.7087Y-3.248
X4.7096Y-4.4488
X4.7154Y-4.3437
X4.7215Y-4.2913
X4.73Y-4.43
X4.7382Y-4.3165
X4.7402Y-3.248
X4.7461Y-4.2657
X4.749Y-4.4094
X4.7543Y-4.6823
X4.7559Y-4.3002
X4.7618Y-3.8287
X4.7669Y-3.8606
X4.7677Y-4.6181
X4.77Y-4.39
X4.7717Y-3.248
X4.7728Y-4.2819
X4.7736Y-4.2421
X4.7786Y-5.0098
X4.7874Y-4.3701
X4.7963Y-3.8307
X4.8031Y-4.4961
X4.8031Y-4.5394
X4.8041Y-3.248
X4.81Y-4.35
X4.814Y-4.4478
X4.8142Y-4.6835
X4.8209Y-4.1732
X4.8213Y-3.9689
X4.822Y-4.0976
X4.8224Y-4.013
X4.8224Y-4.0594
X4.8228Y-4.1213
X4.8238Y-4.3307
X4.824Y-4.3874
X4.8248Y-4.3622
X4.826Y-3.8299
X4.826Y-3.9457
X4.8287Y-4.4075
X4.8307Y-4.5512
X4.835Y-3.2461
X4.84Y-4.31
X4.8435Y-4.3327
X4.8435Y-4.4321
X4.8504Y-4.1949
X4.8524Y-3.8272
X4.8647Y-5.0098
X4.8661Y-3.248
X4.874Y-4.6142
X4.8783Y-4.6846
X4.8799Y-3.8268
X4.8815Y-3.891
X4.8972Y-4.1945
X4.8986Y-3.248
X4.8996Y-4.3382
X4.9031Y-4.4307
X4.9065Y-3.7835
X4.9124Y-4.5482
X4.9144Y-3.8268
X4.9217Y-4.3921
X4.9228Y-4.4161
X4.9248Y-4.4469
X4.9264Y-4.3713
X4.9291Y-4.6142
X4.9301Y-3.247
X4.9413Y-4.6862
X4.948Y-4.3945
X4.95Y-4.55
X4.9504Y-4.3083
X4.9507Y-5.0098
X4.9524Y-4.1933
X4.9567Y-4.4449
X4.96Y-4.58
X4.9606Y-3.248
X4.962Y-3.86
X4.9656Y-4.3268
X4.9685Y-4.4173
X4.9843Y-4.3415
X4.9846Y-4.6811
X4.9925Y-3.2465
X4.9937Y-4.4224
X5.0Y-4.3594
X5.0012Y-4.2815
X5.0098Y-3.6604
X5.0114Y-4.6512
X5.0125Y-3.8335
X5.0197Y-4.4213
X5.0236Y-3.248
X5.0268Y-4.2819
X5.0276Y-4.3594
X5.0327Y-4.5906
X5.0339Y-4.6232
X5.0349Y-3.8297
X5.0354Y-4.4449
X5.0364Y-3.7106
X5.0368Y-5.0098
X5.0433Y-4.5571
X5.0492Y-4.4213
X5.0512Y-4.3593
X5.0543Y-4.1949
X5.0551Y-3.248
X5.0576Y-3.8308
X5.0669Y-4.4449
X5.0724Y-4.5535
X5.0748Y-4.4213
X5.0768Y-4.3593
X5.0799Y-3.8268
X5.0866Y-3.248
X5.095Y-3.92
X5.1024Y-4.3632
X5.1025Y-3.8249
X5.1181Y-3.248
X5.1211Y-4.377
X5.1229Y-5.0098
X5.128Y-3.8258
X5.1368Y-4.3957
X5.1447Y-4.4213
X5.1465Y-4.5567
X5.1504Y-3.2461
X5.1516Y-3.8268
X5.1551Y-4.3512
X5.1604Y-4.4429
X5.1801Y-3.8228
X5.1811Y-3.2441
X5.182Y-3.85
X5.1835Y-4.552
X5.187Y-4.4539
X5.1898Y-4.5232
X5.1913Y-4.4894
X5.2083Y-4.3524
X5.209Y-5.0098
X5.212Y-3.866
X5.2126Y-3.2441
X5.2142Y-4.422
X5.2274Y-3.9439
X5.24Y-3.888
X5.2451Y-3.2441
X5.2496Y-4.1984
X5.2613Y-3.9421
X5.2629Y-3.9658
X5.2646Y-4.3543
X5.2667Y-3.9892
X5.2684Y-4.0138
X5.2686Y-4.0571
X5.2753Y-4.0354
X5.2756Y-3.2441
X5.2921Y-3.4504
X5.295Y-5.0098
X5.3075Y-3.2433
X5.328Y-4.3539
X5.3396Y-3.2451
X5.365Y-4.2601
X5.3711Y-3.2451
X5.3811Y-5.0098
X5.4026Y-3.2451
X5.4224Y-4.2047
X5.4331Y-3.2451
X5.4634Y-3.9181
X5.465Y-3.2437
X5.4672Y-5.0098
X5.4681Y-4.1598
X5.496Y-3.46
X5.5108Y-3.2431
X5.515Y-4.1201
X5.528Y-3.46
X5.5532Y-5.0098
X5.5561Y-3.5472
X5.5561Y-3.5837
X5.5567Y-3.5012
X5.5567Y-3.9087
X5.5567Y-4.0146
X5.5567Y-4.0736
X5.5579Y-3.8571
X5.5591Y-3.9669
X5.561Y-3.2411
X5.561Y-3.4606
X5.561Y-3.7701
X5.561Y-3.813
X5.5614Y-3.4264
X5.5622Y-3.6193
X5.5935Y-3.7421
X5.5965Y-3.6447
X5.5969Y-3.689
X5.6014Y-3.1033
X5.6102Y-3.251
X5.6191Y-3.2106
X5.6315Y-3.1512
X5.6315Y-3.3386
X5.6348Y-3.2904
X5.6388Y-3.1033
X5.6393Y-5.0098
X5.6496Y-3.1919
X5.6762Y-3.1112
X5.687Y-3.2005
X5.687Y-3.312
X5.687Y-3.3678
X5.687Y-3.4236
X5.689Y-3.1526
X5.69Y-3.2805
X5.6949Y-3.4764
X5.7254Y-5.0098
X5.7313Y-3.5079
X5.7795Y-3.5177
X5.7864Y-4.998
X5.7943Y-3.5502
X5.7943Y-3.6101
X5.7943Y-3.6699
X5.7943Y-3.7298
X5.7943Y-3.7897
X5.7943Y-3.8495
X5.7943Y-3.9094
X5.7943Y-3.9693
X5.7943Y-4.0291
X5.7943Y-4.089
X5.7943Y-4.1489
X5.7943Y-4.2087
X5.7943Y-4.2686
X5.7943Y-4.3285
X5.7943Y-4.3884
X5.7943Y-4.4482
X5.7943Y-4.5081
X5.7943Y-4.568
X5.7943Y-4.6278
X5.7943Y-4.6877
X5.7943Y-4.7476
X5.7943Y-4.8074
X5.7943Y-4.8673
X5.7943Y-4.9272
T2
X4.9921Y-4.4512
T3
X4.0276Y-4.3898
X4.063Y-4.6673
X4.1476Y-4.626
X4.1811Y-4.1949
X4.2067Y-4.876
X4.2398Y-4.4866
X4.2421Y-4.4173
X4.3524Y-4.9783
X4.4764Y-4.9783
X4.86Y-3.9844
X4.86Y-4.0274
X4.86Y-4.0694
X4.86Y-4.1114
X4.86Y-4.1534
X4.902Y-3.9844
X4.902Y-4.0274
X4.902Y-4.0694
X4.902Y-4.1114
X4.902Y-4.1534
X4.944Y-3.9844
X4.944Y-4.0274
X4.944Y-4.0694
X4.944Y-4.1114
X4.944Y-4.1534
X4.9547Y-3.7016
X4.986Y-3.9854
X4.986Y-4.0284
X4.986Y-4.0704
X4.986Y-4.1124
X4.986Y-4.1544
X5.028Y-3.9854
X5.028Y-4.0284
X5.028Y-4.0704
X5.028Y-4.1124
X5.028Y-4.1544
T5
X4.5866Y-4.6504
X4.6072Y-4.1148
X4.8732Y-4.5618
X5.1094Y-4.5646
T6
X4.2559Y-4.2559
T7
X4.406Y-3.8222
X4.406Y-3.9222
X5.4722Y-4.3809
X5.5722Y-4.3809
X5.6722Y-4.3809
T8
X4.2327Y-3.2437
X5.6579Y-3.2437
T4
G00X4.7402Y-4.5055
M15
G01X4.7402Y-4.5803
M16
G05
G00X5.2441Y-4.5803
M15
G01X5.2441Y-4.5055
M16
G05
T0
M30
