%TF.GenerationSoftware,KiCad,Pcbnew,6.0.7-f9a2dced07~116~ubuntu20.04.1*%
%TF.CreationDate,2022-08-24T05:01:59+07:00*%
%TF.ProjectId,CH569Board,43483536-3942-46f6-9172-642e6b696361,rev?*%
%TF.SameCoordinates,Original*%
%TF.FileFunction,Legend,Bot*%
%TF.FilePolarity,Positive*%
%FSLAX46Y46*%
G04 Gerber Fmt 4.6, Leading zero omitted, Abs format (unit mm)*
G04 Created by KiCad (PCBNEW 6.0.7-f9a2dced07~116~ubuntu20.04.1) date 2022-08-24 05:01:59*
%MOMM*%
%LPD*%
G01*
G04 APERTURE LIST*
%ADD10C,0.150000*%
%ADD11C,0.120000*%
G04 APERTURE END LIST*
D10*
X143284761Y-121217380D02*
X142713333Y-121217380D01*
X142999047Y-122217380D02*
X142999047Y-121217380D01*
X142380000Y-122217380D02*
X142380000Y-121550714D01*
X142380000Y-121741190D02*
X142332380Y-121645952D01*
X142284761Y-121598333D01*
X142189523Y-121550714D01*
X142094285Y-121550714D01*
X141332380Y-122217380D02*
X141332380Y-121693571D01*
X141380000Y-121598333D01*
X141475238Y-121550714D01*
X141665714Y-121550714D01*
X141760952Y-121598333D01*
X141332380Y-122169761D02*
X141427619Y-122217380D01*
X141665714Y-122217380D01*
X141760952Y-122169761D01*
X141808571Y-122074523D01*
X141808571Y-121979285D01*
X141760952Y-121884047D01*
X141665714Y-121836428D01*
X141427619Y-121836428D01*
X141332380Y-121788809D01*
X140427619Y-122169761D02*
X140522857Y-122217380D01*
X140713333Y-122217380D01*
X140808571Y-122169761D01*
X140856190Y-122122142D01*
X140903809Y-122026904D01*
X140903809Y-121741190D01*
X140856190Y-121645952D01*
X140808571Y-121598333D01*
X140713333Y-121550714D01*
X140522857Y-121550714D01*
X140427619Y-121598333D01*
X139618095Y-122169761D02*
X139713333Y-122217380D01*
X139903809Y-122217380D01*
X139999047Y-122169761D01*
X140046666Y-122074523D01*
X140046666Y-121693571D01*
X139999047Y-121598333D01*
X139903809Y-121550714D01*
X139713333Y-121550714D01*
X139618095Y-121598333D01*
X139570476Y-121693571D01*
X139570476Y-121788809D01*
X140046666Y-121884047D01*
X138380000Y-122217380D02*
X138380000Y-121217380D01*
X137903809Y-122217380D02*
X137903809Y-121550714D01*
X137903809Y-121645952D02*
X137856190Y-121598333D01*
X137760952Y-121550714D01*
X137618095Y-121550714D01*
X137522857Y-121598333D01*
X137475238Y-121693571D01*
X137475238Y-122217380D01*
X137475238Y-121693571D02*
X137427619Y-121598333D01*
X137332380Y-121550714D01*
X137189523Y-121550714D01*
X137094285Y-121598333D01*
X137046666Y-121693571D01*
X137046666Y-122217380D01*
X136570476Y-121550714D02*
X136570476Y-122550714D01*
X136570476Y-121598333D02*
X136475238Y-121550714D01*
X136284761Y-121550714D01*
X136189523Y-121598333D01*
X136141904Y-121645952D01*
X136094285Y-121741190D01*
X136094285Y-122026904D01*
X136141904Y-122122142D01*
X136189523Y-122169761D01*
X136284761Y-122217380D01*
X136475238Y-122217380D01*
X136570476Y-122169761D01*
X135284761Y-122169761D02*
X135380000Y-122217380D01*
X135570476Y-122217380D01*
X135665714Y-122169761D01*
X135713333Y-122074523D01*
X135713333Y-121693571D01*
X135665714Y-121598333D01*
X135570476Y-121550714D01*
X135380000Y-121550714D01*
X135284761Y-121598333D01*
X135237142Y-121693571D01*
X135237142Y-121788809D01*
X135713333Y-121884047D01*
X134380000Y-122217380D02*
X134380000Y-121217380D01*
X134380000Y-122169761D02*
X134475238Y-122217380D01*
X134665714Y-122217380D01*
X134760952Y-122169761D01*
X134808571Y-122122142D01*
X134856190Y-122026904D01*
X134856190Y-121741190D01*
X134808571Y-121645952D01*
X134760952Y-121598333D01*
X134665714Y-121550714D01*
X134475238Y-121550714D01*
X134380000Y-121598333D01*
X133475238Y-122217380D02*
X133475238Y-121693571D01*
X133522857Y-121598333D01*
X133618095Y-121550714D01*
X133808571Y-121550714D01*
X133903809Y-121598333D01*
X133475238Y-122169761D02*
X133570476Y-122217380D01*
X133808571Y-122217380D01*
X133903809Y-122169761D01*
X133951428Y-122074523D01*
X133951428Y-121979285D01*
X133903809Y-121884047D01*
X133808571Y-121836428D01*
X133570476Y-121836428D01*
X133475238Y-121788809D01*
X132999047Y-121550714D02*
X132999047Y-122217380D01*
X132999047Y-121645952D02*
X132951428Y-121598333D01*
X132856190Y-121550714D01*
X132713333Y-121550714D01*
X132618095Y-121598333D01*
X132570476Y-121693571D01*
X132570476Y-122217380D01*
X131665714Y-122169761D02*
X131760952Y-122217380D01*
X131951428Y-122217380D01*
X132046666Y-122169761D01*
X132094285Y-122122142D01*
X132141904Y-122026904D01*
X132141904Y-121741190D01*
X132094285Y-121645952D01*
X132046666Y-121598333D01*
X131951428Y-121550714D01*
X131760952Y-121550714D01*
X131665714Y-121598333D01*
X130856190Y-122169761D02*
X130951428Y-122217380D01*
X131141904Y-122217380D01*
X131237142Y-122169761D01*
X131284761Y-122074523D01*
X131284761Y-121693571D01*
X131237142Y-121598333D01*
X131141904Y-121550714D01*
X130951428Y-121550714D01*
X130856190Y-121598333D01*
X130808571Y-121693571D01*
X130808571Y-121788809D01*
X131284761Y-121884047D01*
X130427619Y-122169761D02*
X130332380Y-122217380D01*
X130141904Y-122217380D01*
X130046666Y-122169761D01*
X129999047Y-122074523D01*
X129999047Y-122026904D01*
X130046666Y-121931666D01*
X130141904Y-121884047D01*
X130284761Y-121884047D01*
X130380000Y-121836428D01*
X130427619Y-121741190D01*
X130427619Y-121693571D01*
X130380000Y-121598333D01*
X130284761Y-121550714D01*
X130141904Y-121550714D01*
X130046666Y-121598333D01*
X128380000Y-122169761D02*
X128475238Y-122217380D01*
X128665714Y-122217380D01*
X128760952Y-122169761D01*
X128808571Y-122122142D01*
X128856190Y-122026904D01*
X128856190Y-121741190D01*
X128808571Y-121645952D01*
X128760952Y-121598333D01*
X128665714Y-121550714D01*
X128475238Y-121550714D01*
X128380000Y-121598333D01*
X127522857Y-122217380D02*
X127522857Y-121693571D01*
X127570476Y-121598333D01*
X127665714Y-121550714D01*
X127856190Y-121550714D01*
X127951428Y-121598333D01*
X127522857Y-122169761D02*
X127618095Y-122217380D01*
X127856190Y-122217380D01*
X127951428Y-122169761D01*
X127999047Y-122074523D01*
X127999047Y-121979285D01*
X127951428Y-121884047D01*
X127856190Y-121836428D01*
X127618095Y-121836428D01*
X127522857Y-121788809D01*
X126903809Y-122217380D02*
X126999047Y-122169761D01*
X127046666Y-122074523D01*
X127046666Y-121217380D01*
X126094285Y-122169761D02*
X126189523Y-122217380D01*
X126380000Y-122217380D01*
X126475238Y-122169761D01*
X126522857Y-122122142D01*
X126570476Y-122026904D01*
X126570476Y-121741190D01*
X126522857Y-121645952D01*
X126475238Y-121598333D01*
X126380000Y-121550714D01*
X126189523Y-121550714D01*
X126094285Y-121598333D01*
X125237142Y-121550714D02*
X125237142Y-122217380D01*
X125665714Y-121550714D02*
X125665714Y-122074523D01*
X125618095Y-122169761D01*
X125522857Y-122217380D01*
X125380000Y-122217380D01*
X125284761Y-122169761D01*
X125237142Y-122122142D01*
X124618095Y-122217380D02*
X124713333Y-122169761D01*
X124760952Y-122074523D01*
X124760952Y-121217380D01*
X123808571Y-122217380D02*
X123808571Y-121693571D01*
X123856190Y-121598333D01*
X123951428Y-121550714D01*
X124141904Y-121550714D01*
X124237142Y-121598333D01*
X123808571Y-122169761D02*
X123903809Y-122217380D01*
X124141904Y-122217380D01*
X124237142Y-122169761D01*
X124284761Y-122074523D01*
X124284761Y-121979285D01*
X124237142Y-121884047D01*
X124141904Y-121836428D01*
X123903809Y-121836428D01*
X123808571Y-121788809D01*
X123475238Y-121550714D02*
X123094285Y-121550714D01*
X123332380Y-121217380D02*
X123332380Y-122074523D01*
X123284761Y-122169761D01*
X123189523Y-122217380D01*
X123094285Y-122217380D01*
X122380000Y-122169761D02*
X122475238Y-122217380D01*
X122665714Y-122217380D01*
X122760952Y-122169761D01*
X122808571Y-122074523D01*
X122808571Y-121693571D01*
X122760952Y-121598333D01*
X122665714Y-121550714D01*
X122475238Y-121550714D01*
X122380000Y-121598333D01*
X122332380Y-121693571D01*
X122332380Y-121788809D01*
X122808571Y-121884047D01*
X121475238Y-122217380D02*
X121475238Y-121217380D01*
X121475238Y-122169761D02*
X121570476Y-122217380D01*
X121760952Y-122217380D01*
X121856190Y-122169761D01*
X121903809Y-122122142D01*
X121951428Y-122026904D01*
X121951428Y-121741190D01*
X121903809Y-121645952D01*
X121856190Y-121598333D01*
X121760952Y-121550714D01*
X121570476Y-121550714D01*
X121475238Y-121598333D01*
X120380000Y-121550714D02*
X119999047Y-121550714D01*
X120237142Y-122217380D02*
X120237142Y-121360238D01*
X120189523Y-121265000D01*
X120094285Y-121217380D01*
X119999047Y-121217380D01*
X119522857Y-122217380D02*
X119618095Y-122169761D01*
X119665714Y-122122142D01*
X119713333Y-122026904D01*
X119713333Y-121741190D01*
X119665714Y-121645952D01*
X119618095Y-121598333D01*
X119522857Y-121550714D01*
X119380000Y-121550714D01*
X119284761Y-121598333D01*
X119237142Y-121645952D01*
X119189523Y-121741190D01*
X119189523Y-122026904D01*
X119237142Y-122122142D01*
X119284761Y-122169761D01*
X119380000Y-122217380D01*
X119522857Y-122217380D01*
X118760952Y-122217380D02*
X118760952Y-121550714D01*
X118760952Y-121741190D02*
X118713333Y-121645952D01*
X118665714Y-121598333D01*
X118570476Y-121550714D01*
X118475238Y-121550714D01*
X136808571Y-122827380D02*
X136808571Y-123541666D01*
X136856190Y-123684523D01*
X136951428Y-123779761D01*
X137094285Y-123827380D01*
X137189523Y-123827380D01*
X135856190Y-123827380D02*
X136332380Y-123827380D01*
X136332380Y-122827380D01*
X134951428Y-123732142D02*
X134999047Y-123779761D01*
X135141904Y-123827380D01*
X135237142Y-123827380D01*
X135380000Y-123779761D01*
X135475238Y-123684523D01*
X135522857Y-123589285D01*
X135570476Y-123398809D01*
X135570476Y-123255952D01*
X135522857Y-123065476D01*
X135475238Y-122970238D01*
X135380000Y-122875000D01*
X135237142Y-122827380D01*
X135141904Y-122827380D01*
X134999047Y-122875000D01*
X134951428Y-122922619D01*
X134618095Y-122827380D02*
X133951428Y-122827380D01*
X134380000Y-123827380D01*
X133141904Y-122827380D02*
X133332380Y-122827380D01*
X133427619Y-122875000D01*
X133475238Y-122922619D01*
X133570476Y-123065476D01*
X133618095Y-123255952D01*
X133618095Y-123636904D01*
X133570476Y-123732142D01*
X133522857Y-123779761D01*
X133427619Y-123827380D01*
X133237142Y-123827380D01*
X133141904Y-123779761D01*
X133094285Y-123732142D01*
X133046666Y-123636904D01*
X133046666Y-123398809D01*
X133094285Y-123303571D01*
X133141904Y-123255952D01*
X133237142Y-123208333D01*
X133427619Y-123208333D01*
X133522857Y-123255952D01*
X133570476Y-123303571D01*
X133618095Y-123398809D01*
X132665714Y-122922619D02*
X132618095Y-122875000D01*
X132522857Y-122827380D01*
X132284761Y-122827380D01*
X132189523Y-122875000D01*
X132141904Y-122922619D01*
X132094285Y-123017857D01*
X132094285Y-123113095D01*
X132141904Y-123255952D01*
X132713333Y-123827380D01*
X132094285Y-123827380D01*
X131522857Y-123255952D02*
X131618095Y-123208333D01*
X131665714Y-123160714D01*
X131713333Y-123065476D01*
X131713333Y-123017857D01*
X131665714Y-122922619D01*
X131618095Y-122875000D01*
X131522857Y-122827380D01*
X131332380Y-122827380D01*
X131237142Y-122875000D01*
X131189523Y-122922619D01*
X131141904Y-123017857D01*
X131141904Y-123065476D01*
X131189523Y-123160714D01*
X131237142Y-123208333D01*
X131332380Y-123255952D01*
X131522857Y-123255952D01*
X131618095Y-123303571D01*
X131665714Y-123351190D01*
X131713333Y-123446428D01*
X131713333Y-123636904D01*
X131665714Y-123732142D01*
X131618095Y-123779761D01*
X131522857Y-123827380D01*
X131332380Y-123827380D01*
X131237142Y-123779761D01*
X131189523Y-123732142D01*
X131141904Y-123636904D01*
X131141904Y-123446428D01*
X131189523Y-123351190D01*
X131237142Y-123303571D01*
X131332380Y-123255952D01*
X129999047Y-123779761D02*
X129903809Y-123827380D01*
X129713333Y-123827380D01*
X129618095Y-123779761D01*
X129570476Y-123684523D01*
X129570476Y-123636904D01*
X129618095Y-123541666D01*
X129713333Y-123494047D01*
X129856190Y-123494047D01*
X129951428Y-123446428D01*
X129999047Y-123351190D01*
X129999047Y-123303571D01*
X129951428Y-123208333D01*
X129856190Y-123160714D01*
X129713333Y-123160714D01*
X129618095Y-123208333D01*
X129284761Y-123160714D02*
X128903809Y-123160714D01*
X129141904Y-122827380D02*
X129141904Y-123684523D01*
X129094285Y-123779761D01*
X128999047Y-123827380D01*
X128903809Y-123827380D01*
X128141904Y-123827380D02*
X128141904Y-123303571D01*
X128189523Y-123208333D01*
X128284761Y-123160714D01*
X128475238Y-123160714D01*
X128570476Y-123208333D01*
X128141904Y-123779761D02*
X128237142Y-123827380D01*
X128475238Y-123827380D01*
X128570476Y-123779761D01*
X128618095Y-123684523D01*
X128618095Y-123589285D01*
X128570476Y-123494047D01*
X128475238Y-123446428D01*
X128237142Y-123446428D01*
X128141904Y-123398809D01*
X127237142Y-123779761D02*
X127332380Y-123827380D01*
X127522857Y-123827380D01*
X127618095Y-123779761D01*
X127665714Y-123732142D01*
X127713333Y-123636904D01*
X127713333Y-123351190D01*
X127665714Y-123255952D01*
X127618095Y-123208333D01*
X127522857Y-123160714D01*
X127332380Y-123160714D01*
X127237142Y-123208333D01*
X126808571Y-123827380D02*
X126808571Y-122827380D01*
X126713333Y-123446428D02*
X126427619Y-123827380D01*
X126427619Y-123160714D02*
X126808571Y-123541666D01*
X125570476Y-123160714D02*
X125570476Y-123827380D01*
X125999047Y-123160714D02*
X125999047Y-123684523D01*
X125951428Y-123779761D01*
X125856190Y-123827380D01*
X125713333Y-123827380D01*
X125618095Y-123779761D01*
X125570476Y-123732142D01*
X125094285Y-123160714D02*
X125094285Y-124160714D01*
X125094285Y-123208333D02*
X124999047Y-123160714D01*
X124808571Y-123160714D01*
X124713333Y-123208333D01*
X124665714Y-123255952D01*
X124618095Y-123351190D01*
X124618095Y-123636904D01*
X124665714Y-123732142D01*
X124713333Y-123779761D01*
X124808571Y-123827380D01*
X124999047Y-123827380D01*
X125094285Y-123779761D01*
%TO.C,C6*%
X127127142Y-111633333D02*
X127174761Y-111585714D01*
X127222380Y-111442857D01*
X127222380Y-111347619D01*
X127174761Y-111204761D01*
X127079523Y-111109523D01*
X126984285Y-111061904D01*
X126793809Y-111014285D01*
X126650952Y-111014285D01*
X126460476Y-111061904D01*
X126365238Y-111109523D01*
X126270000Y-111204761D01*
X126222380Y-111347619D01*
X126222380Y-111442857D01*
X126270000Y-111585714D01*
X126317619Y-111633333D01*
X126222380Y-112490476D02*
X126222380Y-112300000D01*
X126270000Y-112204761D01*
X126317619Y-112157142D01*
X126460476Y-112061904D01*
X126650952Y-112014285D01*
X127031904Y-112014285D01*
X127127142Y-112061904D01*
X127174761Y-112109523D01*
X127222380Y-112204761D01*
X127222380Y-112395238D01*
X127174761Y-112490476D01*
X127127142Y-112538095D01*
X127031904Y-112585714D01*
X126793809Y-112585714D01*
X126698571Y-112538095D01*
X126650952Y-112490476D01*
X126603333Y-112395238D01*
X126603333Y-112204761D01*
X126650952Y-112109523D01*
X126698571Y-112061904D01*
X126793809Y-112014285D01*
%TO.C,C10*%
X124897142Y-111387142D02*
X124944761Y-111339523D01*
X124992380Y-111196666D01*
X124992380Y-111101428D01*
X124944761Y-110958571D01*
X124849523Y-110863333D01*
X124754285Y-110815714D01*
X124563809Y-110768095D01*
X124420952Y-110768095D01*
X124230476Y-110815714D01*
X124135238Y-110863333D01*
X124040000Y-110958571D01*
X123992380Y-111101428D01*
X123992380Y-111196666D01*
X124040000Y-111339523D01*
X124087619Y-111387142D01*
X124992380Y-112339523D02*
X124992380Y-111768095D01*
X124992380Y-112053809D02*
X123992380Y-112053809D01*
X124135238Y-111958571D01*
X124230476Y-111863333D01*
X124278095Y-111768095D01*
X123992380Y-112958571D02*
X123992380Y-113053809D01*
X124040000Y-113149047D01*
X124087619Y-113196666D01*
X124182857Y-113244285D01*
X124373333Y-113291904D01*
X124611428Y-113291904D01*
X124801904Y-113244285D01*
X124897142Y-113196666D01*
X124944761Y-113149047D01*
X124992380Y-113053809D01*
X124992380Y-112958571D01*
X124944761Y-112863333D01*
X124897142Y-112815714D01*
X124801904Y-112768095D01*
X124611428Y-112720476D01*
X124373333Y-112720476D01*
X124182857Y-112768095D01*
X124087619Y-112815714D01*
X124040000Y-112863333D01*
X123992380Y-112958571D01*
%TO.C,C8*%
X128897142Y-111643333D02*
X128944761Y-111595714D01*
X128992380Y-111452857D01*
X128992380Y-111357619D01*
X128944761Y-111214761D01*
X128849523Y-111119523D01*
X128754285Y-111071904D01*
X128563809Y-111024285D01*
X128420952Y-111024285D01*
X128230476Y-111071904D01*
X128135238Y-111119523D01*
X128040000Y-111214761D01*
X127992380Y-111357619D01*
X127992380Y-111452857D01*
X128040000Y-111595714D01*
X128087619Y-111643333D01*
X128420952Y-112214761D02*
X128373333Y-112119523D01*
X128325714Y-112071904D01*
X128230476Y-112024285D01*
X128182857Y-112024285D01*
X128087619Y-112071904D01*
X128040000Y-112119523D01*
X127992380Y-112214761D01*
X127992380Y-112405238D01*
X128040000Y-112500476D01*
X128087619Y-112548095D01*
X128182857Y-112595714D01*
X128230476Y-112595714D01*
X128325714Y-112548095D01*
X128373333Y-112500476D01*
X128420952Y-112405238D01*
X128420952Y-112214761D01*
X128468571Y-112119523D01*
X128516190Y-112071904D01*
X128611428Y-112024285D01*
X128801904Y-112024285D01*
X128897142Y-112071904D01*
X128944761Y-112119523D01*
X128992380Y-112214761D01*
X128992380Y-112405238D01*
X128944761Y-112500476D01*
X128897142Y-112548095D01*
X128801904Y-112595714D01*
X128611428Y-112595714D01*
X128516190Y-112548095D01*
X128468571Y-112500476D01*
X128420952Y-112405238D01*
%TO.C,C18*%
X115612857Y-103047142D02*
X115660476Y-103094761D01*
X115803333Y-103142380D01*
X115898571Y-103142380D01*
X116041428Y-103094761D01*
X116136666Y-102999523D01*
X116184285Y-102904285D01*
X116231904Y-102713809D01*
X116231904Y-102570952D01*
X116184285Y-102380476D01*
X116136666Y-102285238D01*
X116041428Y-102190000D01*
X115898571Y-102142380D01*
X115803333Y-102142380D01*
X115660476Y-102190000D01*
X115612857Y-102237619D01*
X114660476Y-103142380D02*
X115231904Y-103142380D01*
X114946190Y-103142380D02*
X114946190Y-102142380D01*
X115041428Y-102285238D01*
X115136666Y-102380476D01*
X115231904Y-102428095D01*
X114089047Y-102570952D02*
X114184285Y-102523333D01*
X114231904Y-102475714D01*
X114279523Y-102380476D01*
X114279523Y-102332857D01*
X114231904Y-102237619D01*
X114184285Y-102190000D01*
X114089047Y-102142380D01*
X113898571Y-102142380D01*
X113803333Y-102190000D01*
X113755714Y-102237619D01*
X113708095Y-102332857D01*
X113708095Y-102380476D01*
X113755714Y-102475714D01*
X113803333Y-102523333D01*
X113898571Y-102570952D01*
X114089047Y-102570952D01*
X114184285Y-102618571D01*
X114231904Y-102666190D01*
X114279523Y-102761428D01*
X114279523Y-102951904D01*
X114231904Y-103047142D01*
X114184285Y-103094761D01*
X114089047Y-103142380D01*
X113898571Y-103142380D01*
X113803333Y-103094761D01*
X113755714Y-103047142D01*
X113708095Y-102951904D01*
X113708095Y-102761428D01*
X113755714Y-102666190D01*
X113803333Y-102618571D01*
X113898571Y-102570952D01*
%TO.C,C17*%
X120422857Y-108707142D02*
X120470476Y-108754761D01*
X120613333Y-108802380D01*
X120708571Y-108802380D01*
X120851428Y-108754761D01*
X120946666Y-108659523D01*
X120994285Y-108564285D01*
X121041904Y-108373809D01*
X121041904Y-108230952D01*
X120994285Y-108040476D01*
X120946666Y-107945238D01*
X120851428Y-107850000D01*
X120708571Y-107802380D01*
X120613333Y-107802380D01*
X120470476Y-107850000D01*
X120422857Y-107897619D01*
X119470476Y-108802380D02*
X120041904Y-108802380D01*
X119756190Y-108802380D02*
X119756190Y-107802380D01*
X119851428Y-107945238D01*
X119946666Y-108040476D01*
X120041904Y-108088095D01*
X119137142Y-107802380D02*
X118470476Y-107802380D01*
X118899047Y-108802380D01*
%TO.C,C9*%
X122737142Y-111383333D02*
X122784761Y-111335714D01*
X122832380Y-111192857D01*
X122832380Y-111097619D01*
X122784761Y-110954761D01*
X122689523Y-110859523D01*
X122594285Y-110811904D01*
X122403809Y-110764285D01*
X122260952Y-110764285D01*
X122070476Y-110811904D01*
X121975238Y-110859523D01*
X121880000Y-110954761D01*
X121832380Y-111097619D01*
X121832380Y-111192857D01*
X121880000Y-111335714D01*
X121927619Y-111383333D01*
X122832380Y-111859523D02*
X122832380Y-112050000D01*
X122784761Y-112145238D01*
X122737142Y-112192857D01*
X122594285Y-112288095D01*
X122403809Y-112335714D01*
X122022857Y-112335714D01*
X121927619Y-112288095D01*
X121880000Y-112240476D01*
X121832380Y-112145238D01*
X121832380Y-111954761D01*
X121880000Y-111859523D01*
X121927619Y-111811904D01*
X122022857Y-111764285D01*
X122260952Y-111764285D01*
X122356190Y-111811904D01*
X122403809Y-111859523D01*
X122451428Y-111954761D01*
X122451428Y-112145238D01*
X122403809Y-112240476D01*
X122356190Y-112288095D01*
X122260952Y-112335714D01*
%TO.C,C20*%
X115612857Y-104607142D02*
X115660476Y-104654761D01*
X115803333Y-104702380D01*
X115898571Y-104702380D01*
X116041428Y-104654761D01*
X116136666Y-104559523D01*
X116184285Y-104464285D01*
X116231904Y-104273809D01*
X116231904Y-104130952D01*
X116184285Y-103940476D01*
X116136666Y-103845238D01*
X116041428Y-103750000D01*
X115898571Y-103702380D01*
X115803333Y-103702380D01*
X115660476Y-103750000D01*
X115612857Y-103797619D01*
X115231904Y-103797619D02*
X115184285Y-103750000D01*
X115089047Y-103702380D01*
X114850952Y-103702380D01*
X114755714Y-103750000D01*
X114708095Y-103797619D01*
X114660476Y-103892857D01*
X114660476Y-103988095D01*
X114708095Y-104130952D01*
X115279523Y-104702380D01*
X114660476Y-104702380D01*
X114041428Y-103702380D02*
X113946190Y-103702380D01*
X113850952Y-103750000D01*
X113803333Y-103797619D01*
X113755714Y-103892857D01*
X113708095Y-104083333D01*
X113708095Y-104321428D01*
X113755714Y-104511904D01*
X113803333Y-104607142D01*
X113850952Y-104654761D01*
X113946190Y-104702380D01*
X114041428Y-104702380D01*
X114136666Y-104654761D01*
X114184285Y-104607142D01*
X114231904Y-104511904D01*
X114279523Y-104321428D01*
X114279523Y-104083333D01*
X114231904Y-103892857D01*
X114184285Y-103797619D01*
X114136666Y-103750000D01*
X114041428Y-103702380D01*
D11*
%TO.C,C6*%
X125675000Y-108508748D02*
X125675000Y-109031252D01*
X127145000Y-108508748D02*
X127145000Y-109031252D01*
%TO.C,C10*%
X125165000Y-108508748D02*
X125165000Y-109031252D01*
X123695000Y-108508748D02*
X123695000Y-109031252D01*
%TO.C,C8*%
X127665000Y-108508748D02*
X127665000Y-109031252D01*
X129135000Y-108508748D02*
X129135000Y-109031252D01*
%TO.C,C18*%
X119981252Y-103315000D02*
X119458748Y-103315000D01*
X119981252Y-101845000D02*
X119458748Y-101845000D01*
%TO.C,C17*%
X119991252Y-107355000D02*
X119468748Y-107355000D01*
X119991252Y-105885000D02*
X119468748Y-105885000D01*
%TO.C,C9*%
X123195000Y-108498748D02*
X123195000Y-109021252D01*
X121725000Y-108498748D02*
X121725000Y-109021252D01*
%TO.C,C20*%
X119981252Y-105335000D02*
X119458748Y-105335000D01*
X119981252Y-103865000D02*
X119458748Y-103865000D01*
%TD*%
M02*
