%TF.GenerationSoftware,KiCad,Pcbnew,6.0.7-f9a2dced07~116~ubuntu20.04.1*%
%TF.CreationDate,2022-09-30T03:47:36+07:00*%
%TF.ProjectId,CH569Board,43483536-3942-46f6-9172-642e6b696361,rev?*%
%TF.SameCoordinates,Original*%
%TF.FileFunction,Copper,L2,Inr*%
%TF.FilePolarity,Positive*%
%FSLAX46Y46*%
G04 Gerber Fmt 4.6, Leading zero omitted, Abs format (unit mm)*
G04 Created by KiCad (PCBNEW 6.0.7-f9a2dced07~116~ubuntu20.04.1) date 2022-09-30 03:47:36*
%MOMM*%
%LPD*%
G01*
G04 APERTURE LIST*
%TA.AperFunction,ComponentPad*%
%ADD10O,1.300000X3.200000*%
%TD*%
%TA.AperFunction,ComponentPad*%
%ADD11C,1.300000*%
%TD*%
%TA.AperFunction,ComponentPad*%
%ADD12C,1.700000*%
%TD*%
%TA.AperFunction,ComponentPad*%
%ADD13O,1.700000X1.700000*%
%TD*%
%TA.AperFunction,ComponentPad*%
%ADD14R,1.700000X1.700000*%
%TD*%
%TA.AperFunction,ViaPad*%
%ADD15C,0.450000*%
%TD*%
%TA.AperFunction,ViaPad*%
%ADD16C,0.950000*%
%TD*%
%TA.AperFunction,ViaPad*%
%ADD17C,0.750000*%
%TD*%
%TA.AperFunction,ViaPad*%
%ADD18C,0.650000*%
%TD*%
%TA.AperFunction,ViaPad*%
%ADD19C,1.300000*%
%TD*%
%TA.AperFunction,Conductor*%
%ADD20C,0.150000*%
%TD*%
G04 APERTURE END LIST*
D10*
%TO.N,unconnected-(USB1-Pad10)*%
%TO.C,USB1*%
X120400000Y-115390007D03*
%TO.N,unconnected-(USB1-Pad11)*%
X133200000Y-115390007D03*
%TD*%
D11*
%TO.N,*%
%TO.C,CN1*%
X143710000Y-82390000D03*
X107510000Y-82390000D03*
%TD*%
D12*
%TO.N,/GXO+*%
%TO.C,J1*%
X111912400Y-99623800D03*
D13*
%TO.N,/GXO-*%
X111912400Y-97083800D03*
%TD*%
D14*
%TO.N,GND*%
%TO.C,J2*%
X144075000Y-111275000D03*
D13*
%TO.N,/RXD*%
X141535000Y-111275000D03*
%TO.N,/TXD*%
X138995000Y-111275000D03*
%TD*%
D15*
%TO.N,GND*%
X116875000Y-112500000D03*
X131750000Y-113130000D03*
X147175000Y-102340216D03*
X111425000Y-112150000D03*
X103886250Y-127250000D03*
X110750000Y-104575000D03*
X116475000Y-102325000D03*
X105050000Y-114225000D03*
X121250000Y-107750000D03*
X122000000Y-115300000D03*
X126810000Y-82460000D03*
X110860000Y-86890000D03*
X124775000Y-115525000D03*
D16*
X117023147Y-104516260D03*
D15*
X101150000Y-89525000D03*
X114840000Y-98830000D03*
X108400000Y-104200000D03*
X113430000Y-99830000D03*
D17*
X127711200Y-105521000D03*
D15*
X147175000Y-112984780D03*
X143225000Y-78825000D03*
X122525000Y-110000000D03*
X122275000Y-112975000D03*
X126840000Y-112330000D03*
X110235000Y-107960000D03*
X100950000Y-109578844D03*
X124450000Y-110190000D03*
X127830000Y-116600000D03*
X102950000Y-117900000D03*
X122174000Y-110490000D03*
X146800000Y-89350000D03*
X142075000Y-95050000D03*
X147175000Y-93216304D03*
X114775000Y-97375000D03*
X128100000Y-115750000D03*
X109750000Y-113875000D03*
X101700000Y-127250000D03*
X147175000Y-120588040D03*
X125010000Y-111560000D03*
X127500000Y-112300000D03*
X122650000Y-111950000D03*
X147175000Y-91695652D03*
X126125000Y-109900000D03*
X104316666Y-122550000D03*
X100950000Y-125975000D03*
X108475000Y-117050000D03*
X117875000Y-117425000D03*
X119126000Y-116332000D03*
X100950000Y-116410574D03*
X147175000Y-117546736D03*
X147175000Y-123629344D03*
X100950000Y-94549038D03*
X109350000Y-103300000D03*
D17*
X127711200Y-104454200D03*
D15*
X107300000Y-106825000D03*
X138866250Y-127250000D03*
X122530000Y-111440000D03*
X100950000Y-108212498D03*
X111425000Y-111287500D03*
X111610000Y-86845000D03*
X147175000Y-119067388D03*
X112400000Y-113037500D03*
X106525000Y-88325000D03*
X100950000Y-113677882D03*
X109475000Y-107200000D03*
D17*
X123444000Y-103362000D03*
D15*
X109725000Y-105500000D03*
X144650000Y-88300000D03*
X130820000Y-82450000D03*
X125130000Y-111030000D03*
X141052500Y-127250000D03*
X112200000Y-125075000D03*
X109540000Y-82520000D03*
X108850000Y-112175000D03*
X147175000Y-96257608D03*
X117400000Y-116975000D03*
X122550000Y-110800000D03*
X137730000Y-106800000D03*
X119925000Y-109000000D03*
X147175000Y-103860868D03*
X110250000Y-102325000D03*
X106875000Y-113650000D03*
D16*
X129780000Y-115940000D03*
D15*
X112400000Y-113900000D03*
X113625000Y-100675000D03*
X105375000Y-122550000D03*
D17*
X124510800Y-102295200D03*
D15*
X113610000Y-102370000D03*
X115150000Y-125175000D03*
X107550000Y-105100000D03*
X147175000Y-97778260D03*
D17*
X126644400Y-102320600D03*
D15*
X110575000Y-111287500D03*
X108450000Y-122575000D03*
X120550000Y-108350000D03*
X112350000Y-103000000D03*
X110600000Y-112150000D03*
X120625000Y-112000000D03*
X103300000Y-116200000D03*
X117340000Y-115490000D03*
X124540000Y-112540000D03*
X110850000Y-95670000D03*
X100950000Y-124608650D03*
X125900000Y-112900000D03*
X102320000Y-90180000D03*
X103258333Y-122550000D03*
X121230000Y-108760000D03*
X117000000Y-105300000D03*
X141250000Y-82325000D03*
X142275000Y-78825000D03*
X102025000Y-89250000D03*
X142725000Y-81550000D03*
X128700000Y-112900000D03*
X109100000Y-78825000D03*
X112675000Y-110725000D03*
X144450000Y-85541664D03*
X108258750Y-127250000D03*
X110280000Y-97500000D03*
X115550000Y-107225000D03*
X116250000Y-106825000D03*
X103425000Y-117825000D03*
D17*
X110550000Y-126450000D03*
D15*
X121100000Y-117300000D03*
X141125000Y-90100000D03*
X103300000Y-117300000D03*
X111475000Y-109375000D03*
X122000000Y-114200000D03*
X147175000Y-116026084D03*
X106950000Y-110650000D03*
X128950000Y-110725000D03*
X100950000Y-102747114D03*
X125680000Y-111620000D03*
X123910000Y-118990000D03*
X108850000Y-113037500D03*
X102500000Y-118650000D03*
X109475000Y-116075000D03*
X142150000Y-92575000D03*
X113600000Y-97090000D03*
X145425000Y-127250000D03*
X141250000Y-87900000D03*
X104475000Y-104950000D03*
X127935000Y-127250000D03*
X120800000Y-109225000D03*
X100950000Y-93182692D03*
X110600000Y-113012500D03*
X147175000Y-100819564D03*
X135330000Y-110590000D03*
X125510000Y-119030000D03*
X128300000Y-110725000D03*
X130475000Y-111650000D03*
X110170000Y-89720000D03*
X125040000Y-112170000D03*
X117350000Y-114750000D03*
X116500000Y-103050000D03*
X147175000Y-94736956D03*
X114625000Y-105250000D03*
X118350000Y-107675000D03*
X121600000Y-111000000D03*
X102200000Y-122550000D03*
D17*
X124510800Y-104428800D03*
D15*
X119625000Y-113000000D03*
X128250000Y-112300000D03*
D17*
X123444000Y-104428800D03*
D15*
X103225000Y-120325000D03*
X141250000Y-95760000D03*
X119120000Y-118950000D03*
X117003750Y-127250000D03*
X121158000Y-111506000D03*
X111025000Y-101525000D03*
X111125000Y-92575000D03*
X141170000Y-97970000D03*
D17*
X123444000Y-105495600D03*
D15*
X110410000Y-100020000D03*
X114800000Y-81680000D03*
X100950000Y-104113460D03*
X109000000Y-115450000D03*
X122936000Y-109474000D03*
D17*
X125577600Y-105495600D03*
D15*
X113800000Y-104530000D03*
X128900000Y-112300000D03*
X107797600Y-87934800D03*
X141200000Y-100760000D03*
X117633332Y-107675000D03*
X127860000Y-117430000D03*
X106525000Y-87212500D03*
X105800000Y-89025000D03*
X141140000Y-88930000D03*
X123562500Y-127250000D03*
X117362500Y-109450000D03*
X144500000Y-80075000D03*
X105175000Y-113700000D03*
X144450000Y-81291666D03*
X104425000Y-118125000D03*
X131075000Y-112850000D03*
X119100000Y-114175000D03*
X141140000Y-101970000D03*
X125730000Y-115570000D03*
X100950000Y-106846152D03*
X127000000Y-110730000D03*
X117650000Y-112425000D03*
D17*
X123444000Y-102295200D03*
D15*
X106525000Y-83875000D03*
X126610000Y-118900000D03*
D17*
X107750000Y-112200000D03*
D15*
X126200000Y-112200000D03*
X117175000Y-98175000D03*
X131575000Y-97100000D03*
X127250000Y-92975000D03*
X113625000Y-115475000D03*
X123800000Y-117200000D03*
X102500000Y-118150000D03*
X106072500Y-127250000D03*
X106525000Y-80537500D03*
X131860000Y-114030000D03*
X129600000Y-110825000D03*
X113485000Y-112185000D03*
X121376250Y-127250000D03*
X109750000Y-113012500D03*
X145575000Y-89100000D03*
D17*
X126000000Y-94225000D03*
D15*
X119126000Y-113538000D03*
X119075000Y-115550000D03*
X119000000Y-109450000D03*
X106500000Y-83125000D03*
X101300000Y-118475000D03*
X117350000Y-116300000D03*
X102000000Y-118800000D03*
X100950000Y-112311536D03*
X143125000Y-83575000D03*
X104375000Y-115075000D03*
X138890000Y-105660000D03*
X130940000Y-110520000D03*
X100950000Y-110945190D03*
X138810000Y-82390000D03*
X141140000Y-99280000D03*
X116543750Y-109450000D03*
X141125000Y-91025000D03*
X102000000Y-118175000D03*
X109750000Y-110425000D03*
X131820000Y-114890000D03*
X147175000Y-105381520D03*
X141250000Y-96850000D03*
X127900000Y-112900000D03*
X144450000Y-86958330D03*
D17*
X113700000Y-126450000D03*
D15*
X139975000Y-82375000D03*
D17*
X124510800Y-101203000D03*
D15*
X115525000Y-106050000D03*
X127700000Y-110730000D03*
X108850000Y-113900000D03*
X110920000Y-98350000D03*
X125740000Y-109430000D03*
X100950000Y-123242304D03*
X119000000Y-107575000D03*
X120142000Y-112522000D03*
X116190000Y-116320000D03*
X109750000Y-111287500D03*
X110575000Y-110425000D03*
X125984000Y-116332000D03*
D17*
X102300000Y-111500000D03*
D15*
X100950000Y-119143266D03*
X111425000Y-113875000D03*
X107670000Y-84820000D03*
X147175000Y-90175000D03*
X115300000Y-100400000D03*
X108725000Y-81825000D03*
X111610000Y-82500000D03*
X144175000Y-79025000D03*
X115725000Y-109450000D03*
X104825000Y-114700000D03*
X106850000Y-114175000D03*
X129413000Y-99568000D03*
D18*
X126800000Y-113060000D03*
D15*
X110600000Y-113875000D03*
X108125000Y-78825000D03*
X119126000Y-114808000D03*
X147175000Y-106902172D03*
X118175000Y-98250000D03*
X110310000Y-96400000D03*
X132775000Y-100175000D03*
D17*
X103200000Y-118550000D03*
D15*
X147175000Y-122108692D03*
X119525000Y-107050000D03*
X144525000Y-83325000D03*
X108700000Y-83000000D03*
D17*
X124510800Y-103362000D03*
D15*
X142160000Y-93700000D03*
X115230000Y-102510000D03*
D17*
X125577600Y-103362000D03*
D15*
X142500000Y-82575000D03*
X100950000Y-97281730D03*
X122810000Y-82450000D03*
X116130000Y-104360000D03*
X133720000Y-110600000D03*
X106525000Y-79425000D03*
X128840000Y-115660000D03*
X126600000Y-110275000D03*
X122280000Y-118960000D03*
X108950000Y-106125000D03*
X132440000Y-112320000D03*
X124625000Y-96100000D03*
D17*
X126644400Y-103387400D03*
D15*
X110445000Y-127250000D03*
X130121250Y-127250000D03*
X141140000Y-103470000D03*
X141280000Y-91930000D03*
X147175000Y-99298912D03*
X100950000Y-101380768D03*
X109750000Y-112150000D03*
X108850000Y-110425000D03*
X136680000Y-127250000D03*
X107150000Y-78825000D03*
X100950000Y-117776920D03*
X109425000Y-117000000D03*
X123025000Y-110050000D03*
X117300000Y-113200000D03*
D17*
X125577600Y-102295200D03*
D15*
X109075000Y-125075000D03*
X106525000Y-84987500D03*
X120760000Y-118930000D03*
X144450000Y-84124998D03*
X111425000Y-113012500D03*
X119075000Y-111150000D03*
X112910000Y-95740000D03*
X100950000Y-98648076D03*
X112850000Y-102475000D03*
X112800000Y-100750000D03*
X130720000Y-115740000D03*
X119190000Y-127250000D03*
X114817500Y-127250000D03*
X103400000Y-115650000D03*
X147175000Y-114505432D03*
D17*
X123444000Y-101203000D03*
D15*
X125090000Y-112950000D03*
X110890000Y-100660000D03*
X147175000Y-111464128D03*
X107700000Y-116800000D03*
X103900000Y-115400000D03*
X110370000Y-99180000D03*
X100950000Y-105479806D03*
X132290000Y-110550000D03*
X141260000Y-87030000D03*
X102450000Y-96900000D03*
X106525000Y-81650000D03*
X100950000Y-90450000D03*
X119770000Y-110330000D03*
X118375000Y-111850000D03*
X107700000Y-83650000D03*
X103350000Y-116800000D03*
X110150000Y-105100000D03*
X100950000Y-121875958D03*
X100950000Y-120509612D03*
X115325000Y-114000000D03*
X136270000Y-108206000D03*
X143040000Y-84800000D03*
D17*
X125577600Y-104428800D03*
D15*
X143040000Y-80040000D03*
X130075000Y-111175000D03*
D17*
X107690000Y-113960000D03*
D15*
X103850000Y-118275000D03*
X111650000Y-103775000D03*
X132307500Y-127250000D03*
X109250000Y-114550000D03*
X100950000Y-115044228D03*
D17*
X126644400Y-105521000D03*
D15*
X143500000Y-81075000D03*
X103150000Y-89250000D03*
X120350000Y-109640000D03*
X113840000Y-97750000D03*
X102270000Y-93470000D03*
D17*
X127711200Y-103387400D03*
D15*
X113360000Y-96370000D03*
X121080000Y-98060000D03*
X108850000Y-111287500D03*
X122700000Y-115600000D03*
X147175000Y-125150000D03*
X114385000Y-112910000D03*
X131660000Y-115620000D03*
X114500000Y-96075000D03*
X100950000Y-95915384D03*
X125748750Y-127250000D03*
X112631250Y-127250000D03*
X134810000Y-82380000D03*
X104275000Y-89250000D03*
X107850000Y-81125000D03*
X140080000Y-104650000D03*
D17*
X124510800Y-105495600D03*
D15*
X110260000Y-106460000D03*
X105350000Y-113175000D03*
X117300000Y-99050000D03*
X112400000Y-112175000D03*
X123025000Y-112575000D03*
X147175000Y-108422824D03*
X112000000Y-95520000D03*
X112830000Y-94560000D03*
X107610000Y-79950000D03*
X146975000Y-126950000D03*
X147175000Y-109943476D03*
X113650000Y-103540000D03*
X112425000Y-116925000D03*
X115370000Y-103530000D03*
X116916666Y-107675000D03*
X117350000Y-113980000D03*
X118400000Y-99100000D03*
X143238750Y-127250000D03*
D17*
X106850000Y-123850000D03*
D15*
X134493750Y-127250000D03*
X130675000Y-112300000D03*
D17*
X126644400Y-101228400D03*
D15*
X125200000Y-117200000D03*
X115970000Y-86880000D03*
D17*
X126644400Y-104454200D03*
D15*
X100950000Y-100014422D03*
X118810000Y-82490000D03*
D17*
X125577600Y-101203000D03*
D15*
X114400000Y-105950000D03*
D17*
X127711200Y-102320600D03*
D15*
X106525000Y-86100000D03*
X127925000Y-94250000D03*
X118181250Y-109450000D03*
D17*
X127711200Y-101228400D03*
D15*
X115385000Y-112160000D03*
X100950000Y-91816346D03*
X127290000Y-118140000D03*
X116200000Y-107675000D03*
%TO.N,+3V3*%
X126034800Y-98044000D03*
X122490000Y-103110000D03*
X128380000Y-106550000D03*
D19*
X108100000Y-108100000D03*
D15*
X123200000Y-106550000D03*
X122450000Y-106000000D03*
X122480000Y-104080000D03*
%TO.N,+1V2*%
X122500000Y-104680000D03*
X125790000Y-106510000D03*
X124390000Y-106540000D03*
%TO.N,/SCLK*%
X116586000Y-96520000D03*
X116459000Y-81534000D03*
%TO.N,/CS*%
X111048800Y-89662000D03*
X122490000Y-101930000D03*
%TO.N,/HD2*%
X122460000Y-100810000D03*
X134420000Y-87640000D03*
%TO.N,/HD18*%
X132400000Y-82400000D03*
X131622800Y-97790000D03*
%TO.N,/HD17*%
X133225000Y-82400000D03*
X132384800Y-98196400D03*
%TO.N,/HD16*%
X133096000Y-98755200D03*
X134000000Y-82400000D03*
%TO.N,/HD15*%
X133637768Y-100128917D03*
X135625000Y-82425000D03*
%TO.N,/HD14*%
X133678099Y-100731164D03*
X136425000Y-82425000D03*
%TO.N,/HD13*%
X137225000Y-82425000D03*
X133775000Y-101325000D03*
%TO.N,/HD12*%
X138000000Y-82425000D03*
X133817712Y-101951384D03*
%TO.N,/HD11*%
X139598400Y-87884000D03*
X133993549Y-102500416D03*
%TO.N,/HD10*%
X140411200Y-87884000D03*
X133822478Y-103050952D03*
%TO.N,/HTRDY*%
X133340000Y-106640000D03*
X138770000Y-99520000D03*
%TO.N,/HD19*%
X131600000Y-82400000D03*
X130850000Y-97200000D03*
%TO.N,/HD20*%
X130250000Y-97175000D03*
X130000000Y-82500000D03*
%TO.N,/HD21*%
X129604047Y-97152549D03*
X129200000Y-82500000D03*
%TO.N,/HD23*%
X128462025Y-97301824D03*
X127600000Y-82500000D03*
%TO.N,/HD25*%
X125225000Y-82475000D03*
X127317823Y-97370467D03*
%TO.N,/HD27*%
X123950000Y-97200000D03*
X123600000Y-82500000D03*
%TO.N,/HD28*%
X123250000Y-97210000D03*
X122025000Y-82500000D03*
%TO.N,/LED1*%
X123991255Y-98830218D03*
X118010000Y-82120000D03*
X113260000Y-90930000D03*
%TO.N,/HD29*%
X122580000Y-97280000D03*
X121200000Y-82500000D03*
%TO.N,/LED2*%
X117220000Y-81690000D03*
X112945711Y-91770711D03*
X122580000Y-100220000D03*
%TO.N,/HD30*%
X121825000Y-97300000D03*
X120400000Y-82500000D03*
%TO.N,/HD31*%
X120950000Y-97250000D03*
X119600000Y-82500000D03*
%TO.N,/TXD*%
X127029324Y-108749973D03*
%TO.N,/RXD*%
X127680000Y-108760000D03*
D16*
%TO.N,/VBUS*%
X116500000Y-118120000D03*
X123780000Y-115870000D03*
D15*
%TO.N,/HD22*%
X129029532Y-97200378D03*
X128400000Y-82500000D03*
%TO.N,/HD24*%
X126000000Y-82500000D03*
X127886195Y-97273983D03*
%TO.N,/HD26*%
X124425000Y-82500000D03*
X124825000Y-97200000D03*
D17*
%TO.N,Net-(R6-Pad1)*%
X105350000Y-117500000D03*
X106200000Y-106550000D03*
%TD*%
D20*
%TO.N,+3V3*%
X126034800Y-98044000D02*
X126034800Y-100214800D01*
X128470000Y-100360000D02*
X128470000Y-106460000D01*
X126180000Y-100360000D02*
X128470000Y-100360000D01*
X128470000Y-106460000D02*
X128380000Y-106550000D01*
X126034800Y-100214800D02*
X126180000Y-100360000D01*
%TD*%
%TA.AperFunction,Conductor*%
%TO.N,GND*%
G36*
X143812747Y-78519693D02*
G01*
X143816362Y-78520330D01*
X143817326Y-78520500D01*
X143828187Y-78522415D01*
X143839044Y-78520500D01*
X143849634Y-78520500D01*
X143861965Y-78521105D01*
X143991335Y-78533845D01*
X144015543Y-78538660D01*
X144160551Y-78582646D01*
X144183361Y-78592094D01*
X144316993Y-78663519D01*
X144337529Y-78677241D01*
X144454656Y-78773362D01*
X144472116Y-78790821D01*
X144568243Y-78907948D01*
X144581966Y-78928485D01*
X144653392Y-79062109D01*
X144662845Y-79084928D01*
X144670911Y-79111516D01*
X144706833Y-79229928D01*
X144711651Y-79254148D01*
X144724354Y-79383101D01*
X144724961Y-79395450D01*
X144724961Y-79406427D01*
X144723047Y-79417284D01*
X144724962Y-79428142D01*
X144725768Y-79432714D01*
X144727683Y-79454596D01*
X144727683Y-81780003D01*
X144707681Y-81848124D01*
X144654025Y-81894617D01*
X144583751Y-81904721D01*
X144519171Y-81875227D01*
X144504040Y-81859639D01*
X144391605Y-81721780D01*
X144391602Y-81721777D01*
X144387710Y-81717005D01*
X144382056Y-81712327D01*
X144315898Y-81657596D01*
X144244085Y-81598187D01*
X144080116Y-81509529D01*
X143991083Y-81481969D01*
X143907936Y-81456231D01*
X143907933Y-81456230D01*
X143902049Y-81454409D01*
X143895924Y-81453765D01*
X143895923Y-81453765D01*
X143722796Y-81435568D01*
X143722795Y-81435568D01*
X143716668Y-81434924D01*
X143638549Y-81442033D01*
X143537171Y-81451259D01*
X143537168Y-81451260D01*
X143531032Y-81451818D01*
X143525122Y-81453557D01*
X143525119Y-81453558D01*
X143358129Y-81502707D01*
X143352214Y-81504448D01*
X143187023Y-81590807D01*
X143041752Y-81707608D01*
X142921935Y-81850401D01*
X142918971Y-81855793D01*
X142918968Y-81855797D01*
X142860611Y-81961948D01*
X142832135Y-82013746D01*
X142830274Y-82019613D01*
X142830273Y-82019615D01*
X142777634Y-82185554D01*
X142775772Y-82191424D01*
X142754994Y-82376665D01*
X142755510Y-82382809D01*
X142767786Y-82528994D01*
X142770592Y-82562414D01*
X142772291Y-82568339D01*
X142800013Y-82665017D01*
X142821971Y-82741595D01*
X142824790Y-82747080D01*
X142891152Y-82876205D01*
X142907176Y-82907385D01*
X143022959Y-83053468D01*
X143164912Y-83174279D01*
X143327627Y-83265217D01*
X143504907Y-83322819D01*
X143689998Y-83344890D01*
X143696133Y-83344418D01*
X143696135Y-83344418D01*
X143869710Y-83331062D01*
X143869715Y-83331061D01*
X143875851Y-83330589D01*
X143881781Y-83328933D01*
X143881783Y-83328933D01*
X144049459Y-83282117D01*
X144049458Y-83282117D01*
X144055387Y-83280462D01*
X144221768Y-83196417D01*
X144246255Y-83177286D01*
X144363794Y-83085454D01*
X144363795Y-83085453D01*
X144368655Y-83081656D01*
X144490454Y-82940550D01*
X144493498Y-82935192D01*
X144497048Y-82930159D01*
X144498655Y-82931293D01*
X144543166Y-82888254D01*
X144612784Y-82874332D01*
X144678878Y-82900258D01*
X144720463Y-82957801D01*
X144727683Y-82999842D01*
X144727683Y-87406077D01*
X144725769Y-87427957D01*
X144723047Y-87443394D01*
X144724435Y-87451265D01*
X144739183Y-87657481D01*
X144784805Y-87867210D01*
X144786376Y-87871422D01*
X144845080Y-88028814D01*
X144859811Y-88068311D01*
X144861967Y-88072259D01*
X144861969Y-88072264D01*
X144960241Y-88252238D01*
X144962672Y-88256691D01*
X145027203Y-88342895D01*
X145080457Y-88414035D01*
X145091296Y-88428515D01*
X145243064Y-88580286D01*
X145246664Y-88582981D01*
X145246671Y-88582987D01*
X145367643Y-88673546D01*
X145414886Y-88708913D01*
X145603264Y-88811778D01*
X145607476Y-88813349D01*
X145607478Y-88813350D01*
X145800141Y-88885212D01*
X145804364Y-88886787D01*
X145808769Y-88887745D01*
X145808768Y-88887745D01*
X146009692Y-88931456D01*
X146009695Y-88931456D01*
X146014092Y-88932413D01*
X146220517Y-88947180D01*
X146228179Y-88948531D01*
X146243619Y-88945809D01*
X146265495Y-88943895D01*
X146450846Y-88943895D01*
X146472720Y-88945808D01*
X146488167Y-88948531D01*
X146499024Y-88946616D01*
X146509606Y-88946616D01*
X146521957Y-88947222D01*
X146651307Y-88959957D01*
X146675531Y-88964775D01*
X146748029Y-88986765D01*
X146820526Y-89008754D01*
X146843348Y-89018206D01*
X146976984Y-89089632D01*
X146997510Y-89103347D01*
X147114643Y-89199471D01*
X147132102Y-89216929D01*
X147228230Y-89334057D01*
X147241953Y-89354594D01*
X147313380Y-89488220D01*
X147322832Y-89511037D01*
X147366819Y-89656039D01*
X147371637Y-89680260D01*
X147384331Y-89809142D01*
X147383873Y-89821515D01*
X147384934Y-89821515D01*
X147384934Y-89832542D01*
X147383020Y-89843396D01*
X147384934Y-89854251D01*
X147385742Y-89858833D01*
X147387656Y-89880713D01*
X147387656Y-126528619D01*
X147385741Y-126550504D01*
X147383020Y-126565932D01*
X147384933Y-126576786D01*
X147384933Y-126587812D01*
X147384137Y-126587812D01*
X147384672Y-126600029D01*
X147377980Y-126676492D01*
X147374362Y-126717821D01*
X147370548Y-126739449D01*
X147333933Y-126876082D01*
X147326420Y-126896720D01*
X147296531Y-126960813D01*
X147277965Y-127000626D01*
X147266642Y-127024906D01*
X147255660Y-127043926D01*
X147174523Y-127159795D01*
X147160405Y-127176620D01*
X147060385Y-127276635D01*
X147043564Y-127290749D01*
X146927687Y-127371884D01*
X146908676Y-127382859D01*
X146780471Y-127442639D01*
X146759838Y-127450148D01*
X146691524Y-127468451D01*
X146623213Y-127486754D01*
X146601585Y-127490568D01*
X146556582Y-127494505D01*
X146483571Y-127500892D01*
X146471568Y-127500366D01*
X146471568Y-127501190D01*
X146460546Y-127501190D01*
X146449690Y-127499276D01*
X146434250Y-127501998D01*
X146412374Y-127503912D01*
X101704558Y-127503912D01*
X101682683Y-127501999D01*
X101667237Y-127499276D01*
X101656380Y-127501191D01*
X101645361Y-127501191D01*
X101645361Y-127500397D01*
X101633141Y-127500930D01*
X101515335Y-127490628D01*
X101493705Y-127486815D01*
X101357061Y-127450207D01*
X101336425Y-127442697D01*
X101208216Y-127382918D01*
X101189197Y-127371938D01*
X101073314Y-127290803D01*
X101056488Y-127276686D01*
X100956459Y-127176664D01*
X100942340Y-127159839D01*
X100861198Y-127043965D01*
X100850216Y-127024945D01*
X100790427Y-126896739D01*
X100782915Y-126876101D01*
X100746298Y-126739466D01*
X100742483Y-126717836D01*
X100732203Y-126600378D01*
X100732751Y-126587810D01*
X100732003Y-126587810D01*
X100732003Y-126576787D01*
X100733916Y-126565932D01*
X100731195Y-126550504D01*
X100729280Y-126528619D01*
X100729280Y-117492874D01*
X104669576Y-117492874D01*
X104678547Y-117574129D01*
X104685955Y-117641226D01*
X104687518Y-117655384D01*
X104690127Y-117662515D01*
X104690128Y-117662517D01*
X104730561Y-117773004D01*
X104743705Y-117808923D01*
X104747941Y-117815226D01*
X104747941Y-117815227D01*
X104830660Y-117938327D01*
X104830663Y-117938330D01*
X104834894Y-117944627D01*
X104955822Y-118054663D01*
X104984410Y-118070185D01*
X105092829Y-118129052D01*
X105092831Y-118129053D01*
X105099506Y-118132677D01*
X105106855Y-118134605D01*
X105250301Y-118172237D01*
X105250303Y-118172237D01*
X105257651Y-118174165D01*
X105340932Y-118175473D01*
X105413529Y-118176614D01*
X105413532Y-118176614D01*
X105421128Y-118176733D01*
X105428533Y-118175037D01*
X105428534Y-118175037D01*
X105573097Y-118141928D01*
X105580498Y-118140233D01*
X105642390Y-118109104D01*
X115719669Y-118109104D01*
X115736647Y-118282256D01*
X115791564Y-118447343D01*
X115795211Y-118453365D01*
X115795212Y-118453367D01*
X115812907Y-118482584D01*
X115881692Y-118596162D01*
X116002550Y-118721314D01*
X116148132Y-118816580D01*
X116211355Y-118840093D01*
X116304600Y-118874771D01*
X116304602Y-118874772D01*
X116311202Y-118877226D01*
X116318180Y-118878157D01*
X116318184Y-118878158D01*
X116386420Y-118887262D01*
X116483656Y-118900236D01*
X116490667Y-118899598D01*
X116490671Y-118899598D01*
X116627507Y-118887144D01*
X116656923Y-118884467D01*
X116663623Y-118882290D01*
X116663628Y-118882289D01*
X116815691Y-118832881D01*
X116815694Y-118832880D01*
X116822390Y-118830704D01*
X116971833Y-118741618D01*
X117097826Y-118621636D01*
X117111387Y-118601226D01*
X117190212Y-118482584D01*
X117194107Y-118476722D01*
X117255889Y-118314079D01*
X117280103Y-118141790D01*
X117280407Y-118120000D01*
X117261013Y-117947102D01*
X117203796Y-117782797D01*
X117111600Y-117635252D01*
X117098274Y-117621832D01*
X117052057Y-117575292D01*
X116989006Y-117511799D01*
X116978342Y-117505031D01*
X116932076Y-117475670D01*
X116842108Y-117418575D01*
X116740015Y-117382221D01*
X116684841Y-117362574D01*
X116684839Y-117362573D01*
X116678207Y-117360212D01*
X116671221Y-117359379D01*
X116671217Y-117359378D01*
X116548107Y-117344699D01*
X116505448Y-117339612D01*
X116498445Y-117340348D01*
X116498444Y-117340348D01*
X116452109Y-117345218D01*
X116332419Y-117357798D01*
X116325753Y-117360067D01*
X116325750Y-117360068D01*
X116174386Y-117411597D01*
X116174383Y-117411598D01*
X116167719Y-117413867D01*
X116019533Y-117505031D01*
X115895228Y-117626760D01*
X115800980Y-117773004D01*
X115798569Y-117779627D01*
X115798568Y-117779630D01*
X115743885Y-117929870D01*
X115743884Y-117929875D01*
X115741475Y-117936493D01*
X115719669Y-118109104D01*
X105642390Y-118109104D01*
X105726561Y-118066770D01*
X105850885Y-117960588D01*
X105855547Y-117954101D01*
X105941861Y-117833983D01*
X105941862Y-117833982D01*
X105946293Y-117827815D01*
X106007275Y-117676116D01*
X106030312Y-117514250D01*
X106030461Y-117500000D01*
X106028688Y-117485343D01*
X106021065Y-117422354D01*
X106010819Y-117337687D01*
X105953027Y-117184745D01*
X105892695Y-117096962D01*
X105864723Y-117056262D01*
X105864722Y-117056261D01*
X105860421Y-117050003D01*
X105840083Y-117031882D01*
X105744019Y-116946293D01*
X105738348Y-116941240D01*
X105731638Y-116937687D01*
X105600566Y-116868288D01*
X105600564Y-116868287D01*
X105593855Y-116864735D01*
X105542785Y-116851907D01*
X105442655Y-116826756D01*
X105442651Y-116826756D01*
X105435284Y-116824905D01*
X105427685Y-116824865D01*
X105427683Y-116824865D01*
X105359653Y-116824509D01*
X105271790Y-116824049D01*
X105264410Y-116825821D01*
X105264408Y-116825821D01*
X105120189Y-116860444D01*
X105120185Y-116860445D01*
X105112810Y-116862216D01*
X104967524Y-116937204D01*
X104961802Y-116942196D01*
X104961800Y-116942197D01*
X104850044Y-117039688D01*
X104850041Y-117039691D01*
X104844319Y-117044683D01*
X104750307Y-117178448D01*
X104690917Y-117330776D01*
X104689926Y-117338303D01*
X104679492Y-117417558D01*
X104669576Y-117492874D01*
X100729280Y-117492874D01*
X100729280Y-116388266D01*
X119449500Y-116388266D01*
X119464112Y-116532117D01*
X119521856Y-116716380D01*
X119615472Y-116885268D01*
X119741136Y-117031882D01*
X119746178Y-117035793D01*
X119746179Y-117035794D01*
X119888665Y-117146318D01*
X119888668Y-117146320D01*
X119893714Y-117150234D01*
X120066974Y-117235488D01*
X120073144Y-117237095D01*
X120073149Y-117237097D01*
X120247655Y-117282552D01*
X120247658Y-117282552D01*
X120253837Y-117284162D01*
X120337203Y-117288531D01*
X120440290Y-117293934D01*
X120440294Y-117293934D01*
X120446671Y-117294268D01*
X120637599Y-117265393D01*
X120643595Y-117263187D01*
X120812832Y-117200921D01*
X120812836Y-117200919D01*
X120818821Y-117198717D01*
X120982934Y-117096962D01*
X121123235Y-116964286D01*
X121195946Y-116860444D01*
X121230327Y-116811342D01*
X121230328Y-116811341D01*
X121233991Y-116806109D01*
X121310680Y-116628892D01*
X121329625Y-116538208D01*
X121349177Y-116444619D01*
X121349177Y-116444615D01*
X121350168Y-116439874D01*
X121350500Y-116433539D01*
X121350500Y-115859104D01*
X122999669Y-115859104D01*
X123016647Y-116032256D01*
X123071564Y-116197343D01*
X123075211Y-116203365D01*
X123075212Y-116203367D01*
X123092907Y-116232584D01*
X123161692Y-116346162D01*
X123282550Y-116471314D01*
X123428132Y-116566580D01*
X123491355Y-116590093D01*
X123584600Y-116624771D01*
X123584602Y-116624772D01*
X123591202Y-116627226D01*
X123598180Y-116628157D01*
X123598184Y-116628158D01*
X123666420Y-116637262D01*
X123763656Y-116650236D01*
X123770667Y-116649598D01*
X123770671Y-116649598D01*
X123907507Y-116637144D01*
X123936923Y-116634467D01*
X123943623Y-116632290D01*
X123943628Y-116632289D01*
X124095691Y-116582881D01*
X124095694Y-116582880D01*
X124102390Y-116580704D01*
X124251833Y-116491618D01*
X124360363Y-116388266D01*
X132249500Y-116388266D01*
X132264112Y-116532117D01*
X132321856Y-116716380D01*
X132415472Y-116885268D01*
X132541136Y-117031882D01*
X132546178Y-117035793D01*
X132546179Y-117035794D01*
X132688665Y-117146318D01*
X132688668Y-117146320D01*
X132693714Y-117150234D01*
X132866974Y-117235488D01*
X132873144Y-117237095D01*
X132873149Y-117237097D01*
X133047655Y-117282552D01*
X133047658Y-117282552D01*
X133053837Y-117284162D01*
X133137203Y-117288531D01*
X133240290Y-117293934D01*
X133240294Y-117293934D01*
X133246671Y-117294268D01*
X133437599Y-117265393D01*
X133443595Y-117263187D01*
X133612832Y-117200921D01*
X133612836Y-117200919D01*
X133618821Y-117198717D01*
X133782934Y-117096962D01*
X133923235Y-116964286D01*
X133995946Y-116860444D01*
X134030327Y-116811342D01*
X134030328Y-116811341D01*
X134033991Y-116806109D01*
X134110680Y-116628892D01*
X134129625Y-116538208D01*
X134149177Y-116444619D01*
X134149177Y-116444615D01*
X134150168Y-116439874D01*
X134150500Y-116433539D01*
X134150500Y-114391748D01*
X134135888Y-114247897D01*
X134078144Y-114063634D01*
X133984528Y-113894746D01*
X133858864Y-113748132D01*
X133770627Y-113679688D01*
X133711335Y-113633696D01*
X133711332Y-113633694D01*
X133706286Y-113629780D01*
X133533026Y-113544526D01*
X133526856Y-113542919D01*
X133526851Y-113542917D01*
X133352345Y-113497462D01*
X133352342Y-113497462D01*
X133346163Y-113495852D01*
X133262797Y-113491483D01*
X133159710Y-113486080D01*
X133159706Y-113486080D01*
X133153329Y-113485746D01*
X132962401Y-113514621D01*
X132956406Y-113516827D01*
X132956405Y-113516827D01*
X132787168Y-113579093D01*
X132787164Y-113579095D01*
X132781179Y-113581297D01*
X132617066Y-113683052D01*
X132476765Y-113815728D01*
X132366009Y-113973905D01*
X132289320Y-114151122D01*
X132288015Y-114157369D01*
X132269103Y-114247897D01*
X132249832Y-114340140D01*
X132249500Y-114346475D01*
X132249500Y-116388266D01*
X124360363Y-116388266D01*
X124377826Y-116371636D01*
X124391387Y-116351226D01*
X124470212Y-116232584D01*
X124474107Y-116226722D01*
X124535889Y-116064079D01*
X124560103Y-115891790D01*
X124560407Y-115870000D01*
X124541013Y-115697102D01*
X124483796Y-115532797D01*
X124391600Y-115385252D01*
X124378274Y-115371832D01*
X124273968Y-115266796D01*
X124269006Y-115261799D01*
X124258342Y-115255031D01*
X124212076Y-115225670D01*
X124122108Y-115168575D01*
X124020015Y-115132221D01*
X123964841Y-115112574D01*
X123964839Y-115112573D01*
X123958207Y-115110212D01*
X123951221Y-115109379D01*
X123951217Y-115109378D01*
X123828107Y-115094699D01*
X123785448Y-115089612D01*
X123778445Y-115090348D01*
X123778444Y-115090348D01*
X123732109Y-115095218D01*
X123612419Y-115107798D01*
X123605753Y-115110067D01*
X123605750Y-115110068D01*
X123454386Y-115161597D01*
X123454383Y-115161598D01*
X123447719Y-115163867D01*
X123299533Y-115255031D01*
X123175228Y-115376760D01*
X123080980Y-115523004D01*
X123078569Y-115529627D01*
X123078568Y-115529630D01*
X123023885Y-115679870D01*
X123023884Y-115679875D01*
X123021475Y-115686493D01*
X122999669Y-115859104D01*
X121350500Y-115859104D01*
X121350500Y-114391748D01*
X121335888Y-114247897D01*
X121278144Y-114063634D01*
X121184528Y-113894746D01*
X121058864Y-113748132D01*
X120970627Y-113679688D01*
X120911335Y-113633696D01*
X120911332Y-113633694D01*
X120906286Y-113629780D01*
X120733026Y-113544526D01*
X120726856Y-113542919D01*
X120726851Y-113542917D01*
X120552345Y-113497462D01*
X120552342Y-113497462D01*
X120546163Y-113495852D01*
X120462797Y-113491483D01*
X120359710Y-113486080D01*
X120359706Y-113486080D01*
X120353329Y-113485746D01*
X120162401Y-113514621D01*
X120156406Y-113516827D01*
X120156405Y-113516827D01*
X119987168Y-113579093D01*
X119987164Y-113579095D01*
X119981179Y-113581297D01*
X119817066Y-113683052D01*
X119676765Y-113815728D01*
X119566009Y-113973905D01*
X119489320Y-114151122D01*
X119488015Y-114157369D01*
X119469103Y-114247897D01*
X119449832Y-114340140D01*
X119449500Y-114346475D01*
X119449500Y-116388266D01*
X100729280Y-116388266D01*
X100729280Y-111244754D01*
X137839967Y-111244754D01*
X137853796Y-111455749D01*
X137855217Y-111461345D01*
X137855218Y-111461350D01*
X137877000Y-111547115D01*
X137905845Y-111660690D01*
X137994369Y-111852714D01*
X138116405Y-112025391D01*
X138267865Y-112172937D01*
X138272661Y-112176142D01*
X138272664Y-112176144D01*
X138372129Y-112242604D01*
X138443677Y-112290411D01*
X138448985Y-112292692D01*
X138448986Y-112292692D01*
X138632650Y-112371600D01*
X138632653Y-112371601D01*
X138637953Y-112373878D01*
X138643582Y-112375152D01*
X138643583Y-112375152D01*
X138838550Y-112419269D01*
X138838553Y-112419269D01*
X138844186Y-112420544D01*
X138849957Y-112420771D01*
X138849959Y-112420771D01*
X138911989Y-112423208D01*
X139055470Y-112428846D01*
X139061179Y-112428018D01*
X139061183Y-112428018D01*
X139259015Y-112399333D01*
X139259019Y-112399332D01*
X139264730Y-112398504D01*
X139369163Y-112363054D01*
X139459483Y-112332395D01*
X139459488Y-112332393D01*
X139464955Y-112330537D01*
X139469998Y-112327713D01*
X139644395Y-112230046D01*
X139644399Y-112230043D01*
X139649442Y-112227219D01*
X139812012Y-112092012D01*
X139947219Y-111929442D01*
X139950043Y-111924399D01*
X139950046Y-111924395D01*
X140047713Y-111749998D01*
X140047714Y-111749996D01*
X140050537Y-111744955D01*
X140052393Y-111739488D01*
X140052395Y-111739483D01*
X140116647Y-111550200D01*
X140118504Y-111544730D01*
X140119333Y-111539015D01*
X140140090Y-111395860D01*
X140169660Y-111331315D01*
X140229432Y-111293003D01*
X140300429Y-111293087D01*
X140360109Y-111331542D01*
X140389525Y-111396158D01*
X140390515Y-111405695D01*
X140393796Y-111455749D01*
X140395217Y-111461345D01*
X140395218Y-111461350D01*
X140417000Y-111547115D01*
X140445845Y-111660690D01*
X140534369Y-111852714D01*
X140656405Y-112025391D01*
X140807865Y-112172937D01*
X140812661Y-112176142D01*
X140812664Y-112176144D01*
X140912129Y-112242604D01*
X140983677Y-112290411D01*
X140988985Y-112292692D01*
X140988986Y-112292692D01*
X141172650Y-112371600D01*
X141172653Y-112371601D01*
X141177953Y-112373878D01*
X141183582Y-112375152D01*
X141183583Y-112375152D01*
X141378550Y-112419269D01*
X141378553Y-112419269D01*
X141384186Y-112420544D01*
X141389957Y-112420771D01*
X141389959Y-112420771D01*
X141451989Y-112423208D01*
X141595470Y-112428846D01*
X141601179Y-112428018D01*
X141601183Y-112428018D01*
X141799015Y-112399333D01*
X141799019Y-112399332D01*
X141804730Y-112398504D01*
X141909163Y-112363054D01*
X141999483Y-112332395D01*
X141999488Y-112332393D01*
X142004955Y-112330537D01*
X142009998Y-112327713D01*
X142184395Y-112230046D01*
X142184399Y-112230043D01*
X142189442Y-112227219D01*
X142352012Y-112092012D01*
X142359855Y-112082581D01*
X142483526Y-111933883D01*
X142483528Y-111933879D01*
X142487219Y-111929442D01*
X142488141Y-111927795D01*
X142542230Y-111883782D01*
X142612783Y-111875857D01*
X142676421Y-111907334D01*
X142712938Y-111968220D01*
X142717001Y-111999960D01*
X142717001Y-112169669D01*
X142717371Y-112176490D01*
X142722895Y-112227352D01*
X142726521Y-112242604D01*
X142771676Y-112363054D01*
X142780214Y-112378649D01*
X142856715Y-112480724D01*
X142869276Y-112493285D01*
X142971351Y-112569786D01*
X142986946Y-112578324D01*
X143107394Y-112623478D01*
X143122649Y-112627105D01*
X143173514Y-112632631D01*
X143180328Y-112633000D01*
X143802885Y-112633000D01*
X143818124Y-112628525D01*
X143819329Y-112627135D01*
X143821000Y-112619452D01*
X143821000Y-112614884D01*
X144329000Y-112614884D01*
X144333475Y-112630123D01*
X144334865Y-112631328D01*
X144342548Y-112632999D01*
X144969669Y-112632999D01*
X144976490Y-112632629D01*
X145027352Y-112627105D01*
X145042604Y-112623479D01*
X145163054Y-112578324D01*
X145178649Y-112569786D01*
X145280724Y-112493285D01*
X145293285Y-112480724D01*
X145369786Y-112378649D01*
X145378324Y-112363054D01*
X145423478Y-112242606D01*
X145427105Y-112227351D01*
X145432631Y-112176486D01*
X145433000Y-112169672D01*
X145433000Y-111547115D01*
X145428525Y-111531876D01*
X145427135Y-111530671D01*
X145419452Y-111529000D01*
X144347115Y-111529000D01*
X144331876Y-111533475D01*
X144330671Y-111534865D01*
X144329000Y-111542548D01*
X144329000Y-112614884D01*
X143821000Y-112614884D01*
X143821000Y-111002885D01*
X144329000Y-111002885D01*
X144333475Y-111018124D01*
X144334865Y-111019329D01*
X144342548Y-111021000D01*
X145414884Y-111021000D01*
X145430123Y-111016525D01*
X145431328Y-111015135D01*
X145432999Y-111007452D01*
X145432999Y-110380331D01*
X145432629Y-110373510D01*
X145427105Y-110322648D01*
X145423479Y-110307396D01*
X145378324Y-110186946D01*
X145369786Y-110171351D01*
X145293285Y-110069276D01*
X145280724Y-110056715D01*
X145178649Y-109980214D01*
X145163054Y-109971676D01*
X145042606Y-109926522D01*
X145027351Y-109922895D01*
X144976486Y-109917369D01*
X144969672Y-109917000D01*
X144347115Y-109917000D01*
X144331876Y-109921475D01*
X144330671Y-109922865D01*
X144329000Y-109930548D01*
X144329000Y-111002885D01*
X143821000Y-111002885D01*
X143821000Y-109935116D01*
X143816525Y-109919877D01*
X143815135Y-109918672D01*
X143807452Y-109917001D01*
X143180331Y-109917001D01*
X143173510Y-109917371D01*
X143122648Y-109922895D01*
X143107396Y-109926521D01*
X142986946Y-109971676D01*
X142971351Y-109980214D01*
X142869276Y-110056715D01*
X142856715Y-110069276D01*
X142780214Y-110171351D01*
X142771676Y-110186946D01*
X142726522Y-110307394D01*
X142722895Y-110322649D01*
X142717369Y-110373514D01*
X142717000Y-110380328D01*
X142717000Y-110555561D01*
X142696998Y-110623682D01*
X142643342Y-110670175D01*
X142573068Y-110680279D01*
X142508488Y-110650785D01*
X142490042Y-110630950D01*
X142397104Y-110506491D01*
X142397103Y-110506490D01*
X142393651Y-110501867D01*
X142262171Y-110380328D01*
X142242622Y-110362257D01*
X142242620Y-110362255D01*
X142238381Y-110358337D01*
X142059554Y-110245505D01*
X141863160Y-110167152D01*
X141857503Y-110166027D01*
X141857497Y-110166025D01*
X141661442Y-110127028D01*
X141661440Y-110127028D01*
X141655775Y-110125901D01*
X141650000Y-110125825D01*
X141649996Y-110125825D01*
X141543976Y-110124437D01*
X141444346Y-110123133D01*
X141438649Y-110124112D01*
X141438648Y-110124112D01*
X141241650Y-110157962D01*
X141241649Y-110157962D01*
X141235953Y-110158941D01*
X141037575Y-110232127D01*
X141032614Y-110235079D01*
X141032613Y-110235079D01*
X140885421Y-110322649D01*
X140855856Y-110340238D01*
X140696881Y-110479655D01*
X140565976Y-110645708D01*
X140563287Y-110650819D01*
X140563285Y-110650822D01*
X140549792Y-110676469D01*
X140467523Y-110832836D01*
X140404820Y-111034773D01*
X140404141Y-111040510D01*
X140390088Y-111159239D01*
X140362217Y-111224537D01*
X140303469Y-111264401D01*
X140232494Y-111266174D01*
X140171828Y-111229295D01*
X140140730Y-111165471D01*
X140139490Y-111155958D01*
X140131610Y-111070197D01*
X140131081Y-111064440D01*
X140118359Y-111019329D01*
X140075255Y-110866496D01*
X140073686Y-110860931D01*
X140062553Y-110838354D01*
X139982719Y-110676469D01*
X139980165Y-110671290D01*
X139853651Y-110501867D01*
X139722171Y-110380328D01*
X139702622Y-110362257D01*
X139702620Y-110362255D01*
X139698381Y-110358337D01*
X139519554Y-110245505D01*
X139323160Y-110167152D01*
X139317503Y-110166027D01*
X139317497Y-110166025D01*
X139121442Y-110127028D01*
X139121440Y-110127028D01*
X139115775Y-110125901D01*
X139110000Y-110125825D01*
X139109996Y-110125825D01*
X139003976Y-110124437D01*
X138904346Y-110123133D01*
X138898649Y-110124112D01*
X138898648Y-110124112D01*
X138701650Y-110157962D01*
X138701649Y-110157962D01*
X138695953Y-110158941D01*
X138497575Y-110232127D01*
X138492614Y-110235079D01*
X138492613Y-110235079D01*
X138345421Y-110322649D01*
X138315856Y-110340238D01*
X138156881Y-110479655D01*
X138025976Y-110645708D01*
X138023287Y-110650819D01*
X138023285Y-110650822D01*
X138009792Y-110676469D01*
X137927523Y-110832836D01*
X137864820Y-111034773D01*
X137839967Y-111244754D01*
X100729280Y-111244754D01*
X100729280Y-108086665D01*
X107144994Y-108086665D01*
X107145510Y-108092809D01*
X107158454Y-108246948D01*
X107160592Y-108272414D01*
X107211971Y-108451595D01*
X107297176Y-108617385D01*
X107412959Y-108763468D01*
X107554912Y-108884279D01*
X107560290Y-108887285D01*
X107560292Y-108887286D01*
X107573714Y-108894787D01*
X107717627Y-108975217D01*
X107894907Y-109032819D01*
X108079998Y-109054890D01*
X108086133Y-109054418D01*
X108086135Y-109054418D01*
X108259710Y-109041062D01*
X108259715Y-109041061D01*
X108265851Y-109040589D01*
X108271781Y-109038933D01*
X108271783Y-109038933D01*
X108439459Y-108992117D01*
X108439458Y-108992117D01*
X108445387Y-108990462D01*
X108611768Y-108906417D01*
X108634069Y-108888994D01*
X108753794Y-108795454D01*
X108753795Y-108795453D01*
X108758655Y-108791656D01*
X108794635Y-108749973D01*
X126499289Y-108749973D01*
X126517350Y-108887156D01*
X126570300Y-109014990D01*
X126600917Y-109054890D01*
X126649504Y-109118211D01*
X126649507Y-109118214D01*
X126654533Y-109124764D01*
X126764306Y-109208997D01*
X126771935Y-109212157D01*
X126884513Y-109258788D01*
X126884517Y-109258789D01*
X126892141Y-109261947D01*
X126900321Y-109263024D01*
X126900325Y-109263025D01*
X127021136Y-109278930D01*
X127029324Y-109280008D01*
X127037512Y-109278930D01*
X127158323Y-109263025D01*
X127158327Y-109263024D01*
X127166507Y-109261947D01*
X127174131Y-109258789D01*
X127174135Y-109258788D01*
X127294342Y-109208997D01*
X127295305Y-109211322D01*
X127351972Y-109197575D01*
X127408757Y-109214247D01*
X127414982Y-109219024D01*
X127422613Y-109222185D01*
X127422615Y-109222186D01*
X127535189Y-109268815D01*
X127535193Y-109268816D01*
X127542817Y-109271974D01*
X127550997Y-109273051D01*
X127551001Y-109273052D01*
X127671812Y-109288957D01*
X127680000Y-109290035D01*
X127688188Y-109288957D01*
X127808999Y-109273052D01*
X127809003Y-109273051D01*
X127817183Y-109271974D01*
X127824807Y-109268816D01*
X127824811Y-109268815D01*
X127937389Y-109222184D01*
X127945018Y-109219024D01*
X127964635Y-109203971D01*
X128048240Y-109139818D01*
X128048241Y-109139817D01*
X128054791Y-109134791D01*
X128059817Y-109128241D01*
X128059820Y-109128238D01*
X128096908Y-109079904D01*
X128139024Y-109025017D01*
X128191974Y-108897183D01*
X128210035Y-108760000D01*
X128191974Y-108622817D01*
X128139024Y-108494983D01*
X128096908Y-108440096D01*
X128059820Y-108391762D01*
X128059817Y-108391759D01*
X128054791Y-108385209D01*
X127945018Y-108300976D01*
X127920810Y-108290949D01*
X127824811Y-108251185D01*
X127824807Y-108251184D01*
X127817183Y-108248026D01*
X127809003Y-108246949D01*
X127808999Y-108246948D01*
X127688188Y-108231043D01*
X127680000Y-108229965D01*
X127542817Y-108248026D01*
X127414983Y-108300976D01*
X127414020Y-108298651D01*
X127357352Y-108312398D01*
X127300567Y-108295726D01*
X127294342Y-108290949D01*
X127286711Y-108287788D01*
X127286709Y-108287787D01*
X127174135Y-108241158D01*
X127174131Y-108241157D01*
X127166507Y-108237999D01*
X127158327Y-108236922D01*
X127158323Y-108236921D01*
X127037512Y-108221016D01*
X127029324Y-108219938D01*
X126892141Y-108237999D01*
X126764307Y-108290949D01*
X126654533Y-108375182D01*
X126570300Y-108484956D01*
X126517350Y-108612790D01*
X126499289Y-108749973D01*
X108794635Y-108749973D01*
X108880454Y-108650550D01*
X108972526Y-108488474D01*
X109031364Y-108311601D01*
X109038996Y-108251187D01*
X109054285Y-108130170D01*
X109054286Y-108130163D01*
X109054727Y-108126668D01*
X109055099Y-108100000D01*
X109036909Y-107914487D01*
X109035128Y-107908588D01*
X109035127Y-107908583D01*
X108984814Y-107741939D01*
X108983033Y-107736040D01*
X108895522Y-107571456D01*
X108891632Y-107566686D01*
X108891629Y-107566682D01*
X108781605Y-107431780D01*
X108781602Y-107431777D01*
X108777710Y-107427005D01*
X108772056Y-107422327D01*
X108638834Y-107312116D01*
X108634085Y-107308187D01*
X108470116Y-107219529D01*
X108357293Y-107184605D01*
X108297936Y-107166231D01*
X108297933Y-107166230D01*
X108292049Y-107164409D01*
X108285924Y-107163765D01*
X108285923Y-107163765D01*
X108112796Y-107145568D01*
X108112795Y-107145568D01*
X108106668Y-107144924D01*
X108029201Y-107151974D01*
X107927171Y-107161259D01*
X107927168Y-107161260D01*
X107921032Y-107161818D01*
X107915122Y-107163557D01*
X107915119Y-107163558D01*
X107748129Y-107212707D01*
X107742214Y-107214448D01*
X107577023Y-107300807D01*
X107431752Y-107417608D01*
X107311935Y-107560401D01*
X107308971Y-107565793D01*
X107308968Y-107565797D01*
X107234256Y-107701699D01*
X107222135Y-107723746D01*
X107165772Y-107901424D01*
X107144994Y-108086665D01*
X100729280Y-108086665D01*
X100729280Y-106542874D01*
X105519576Y-106542874D01*
X105523280Y-106576423D01*
X105535509Y-106687183D01*
X105537518Y-106705384D01*
X105540127Y-106712515D01*
X105540128Y-106712517D01*
X105580036Y-106821570D01*
X105593705Y-106858923D01*
X105597941Y-106865226D01*
X105597941Y-106865227D01*
X105680660Y-106988327D01*
X105680663Y-106988330D01*
X105684894Y-106994627D01*
X105805822Y-107104663D01*
X105834410Y-107120185D01*
X105942829Y-107179052D01*
X105942831Y-107179053D01*
X105949506Y-107182677D01*
X105956855Y-107184605D01*
X106100301Y-107222237D01*
X106100303Y-107222237D01*
X106107651Y-107224165D01*
X106190932Y-107225473D01*
X106263529Y-107226614D01*
X106263532Y-107226614D01*
X106271128Y-107226733D01*
X106278533Y-107225037D01*
X106278534Y-107225037D01*
X106423097Y-107191928D01*
X106430498Y-107190233D01*
X106576561Y-107116770D01*
X106667669Y-107038957D01*
X106695106Y-107015524D01*
X106695107Y-107015523D01*
X106700885Y-107010588D01*
X106705621Y-107003998D01*
X106791861Y-106883983D01*
X106791862Y-106883982D01*
X106796293Y-106877815D01*
X106857275Y-106726116D01*
X106880312Y-106564250D01*
X106880461Y-106550000D01*
X106878688Y-106535343D01*
X106863641Y-106411006D01*
X106860819Y-106387687D01*
X106803027Y-106234745D01*
X106766611Y-106181759D01*
X106714723Y-106106262D01*
X106714722Y-106106261D01*
X106710421Y-106100003D01*
X106700290Y-106090976D01*
X106633696Y-106031644D01*
X106598180Y-106000000D01*
X121919965Y-106000000D01*
X121938026Y-106137183D01*
X121990976Y-106265017D01*
X122018294Y-106300618D01*
X122070180Y-106368238D01*
X122070183Y-106368241D01*
X122075209Y-106374791D01*
X122081759Y-106379817D01*
X122081760Y-106379818D01*
X122124765Y-106412817D01*
X122184982Y-106459024D01*
X122192611Y-106462184D01*
X122305189Y-106508815D01*
X122305193Y-106508816D01*
X122312817Y-106511974D01*
X122320997Y-106513051D01*
X122321001Y-106513052D01*
X122441812Y-106528957D01*
X122450000Y-106530035D01*
X122458188Y-106528957D01*
X122458189Y-106528957D01*
X122538712Y-106518356D01*
X122608860Y-106529295D01*
X122661959Y-106576423D01*
X122680080Y-106626831D01*
X122681814Y-106640000D01*
X122688026Y-106687183D01*
X122740976Y-106815017D01*
X122779504Y-106865227D01*
X122820180Y-106918238D01*
X122820183Y-106918241D01*
X122825209Y-106924791D01*
X122831759Y-106929817D01*
X122831760Y-106929818D01*
X122926068Y-107002184D01*
X122934982Y-107009024D01*
X122942611Y-107012184D01*
X123055189Y-107058815D01*
X123055193Y-107058816D01*
X123062817Y-107061974D01*
X123070997Y-107063051D01*
X123071001Y-107063052D01*
X123191812Y-107078957D01*
X123200000Y-107080035D01*
X123208188Y-107078957D01*
X123328999Y-107063052D01*
X123329003Y-107063051D01*
X123337183Y-107061974D01*
X123344807Y-107058816D01*
X123344811Y-107058815D01*
X123457389Y-107012184D01*
X123465018Y-107009024D01*
X123473932Y-107002184D01*
X123568240Y-106929818D01*
X123568241Y-106929817D01*
X123574791Y-106924791D01*
X123579817Y-106918241D01*
X123579820Y-106918238D01*
X123620496Y-106865227D01*
X123659024Y-106815017D01*
X123680662Y-106762778D01*
X123725210Y-106707497D01*
X123792574Y-106685076D01*
X123861365Y-106702634D01*
X123909743Y-106754596D01*
X123913480Y-106762778D01*
X123930976Y-106805017D01*
X123943678Y-106821570D01*
X124010180Y-106908238D01*
X124010183Y-106908241D01*
X124015209Y-106914791D01*
X124124982Y-106999024D01*
X124132611Y-107002184D01*
X124245189Y-107048815D01*
X124245193Y-107048816D01*
X124252817Y-107051974D01*
X124260997Y-107053051D01*
X124261001Y-107053052D01*
X124381812Y-107068957D01*
X124390000Y-107070035D01*
X124398188Y-107068957D01*
X124518999Y-107053052D01*
X124519003Y-107053051D01*
X124527183Y-107051974D01*
X124534807Y-107048816D01*
X124534811Y-107048815D01*
X124647389Y-107002184D01*
X124655018Y-106999024D01*
X124764791Y-106914791D01*
X124769817Y-106908241D01*
X124769820Y-106908238D01*
X124836322Y-106821570D01*
X124849024Y-106805017D01*
X124901974Y-106677183D01*
X124920035Y-106540000D01*
X124916085Y-106510000D01*
X125259965Y-106510000D01*
X125278026Y-106647183D01*
X125330976Y-106775017D01*
X125361669Y-106815017D01*
X125410180Y-106878238D01*
X125410183Y-106878241D01*
X125415209Y-106884791D01*
X125421759Y-106889817D01*
X125421760Y-106889818D01*
X125454305Y-106914791D01*
X125524982Y-106969024D01*
X125532611Y-106972184D01*
X125645189Y-107018815D01*
X125645193Y-107018816D01*
X125652817Y-107021974D01*
X125660997Y-107023051D01*
X125661001Y-107023052D01*
X125781812Y-107038957D01*
X125790000Y-107040035D01*
X125798188Y-107038957D01*
X125918999Y-107023052D01*
X125919003Y-107023051D01*
X125927183Y-107021974D01*
X125934807Y-107018816D01*
X125934811Y-107018815D01*
X126047389Y-106972184D01*
X126055018Y-106969024D01*
X126125695Y-106914791D01*
X126158240Y-106889818D01*
X126158241Y-106889817D01*
X126164791Y-106884791D01*
X126169817Y-106878241D01*
X126169820Y-106878238D01*
X126218331Y-106815017D01*
X126249024Y-106775017D01*
X126301974Y-106647183D01*
X126320035Y-106510000D01*
X126301974Y-106372817D01*
X126249024Y-106244983D01*
X126200510Y-106181759D01*
X126169820Y-106141762D01*
X126169817Y-106141759D01*
X126164791Y-106135209D01*
X126135429Y-106112678D01*
X126061568Y-106056002D01*
X126055018Y-106050976D01*
X126031380Y-106041185D01*
X125934811Y-106001185D01*
X125934807Y-106001184D01*
X125927183Y-105998026D01*
X125919003Y-105996949D01*
X125918999Y-105996948D01*
X125798188Y-105981043D01*
X125790000Y-105979965D01*
X125652817Y-105998026D01*
X125524983Y-106050976D01*
X125415209Y-106135209D01*
X125330976Y-106244983D01*
X125278026Y-106372817D01*
X125259965Y-106510000D01*
X124916085Y-106510000D01*
X124901974Y-106402817D01*
X124849024Y-106274983D01*
X124806908Y-106220096D01*
X124769820Y-106171762D01*
X124769817Y-106171759D01*
X124764791Y-106165209D01*
X124728268Y-106137183D01*
X124661568Y-106086002D01*
X124655018Y-106080976D01*
X124594732Y-106056005D01*
X124534811Y-106031185D01*
X124534807Y-106031184D01*
X124527183Y-106028026D01*
X124519003Y-106026949D01*
X124518999Y-106026948D01*
X124398188Y-106011043D01*
X124390000Y-106009965D01*
X124252817Y-106028026D01*
X124124983Y-106080976D01*
X124015209Y-106165209D01*
X123930976Y-106274983D01*
X123920358Y-106300618D01*
X123909338Y-106327222D01*
X123864790Y-106382503D01*
X123797426Y-106404924D01*
X123728635Y-106387366D01*
X123680257Y-106335404D01*
X123676520Y-106327222D01*
X123662184Y-106292613D01*
X123659024Y-106284983D01*
X123610873Y-106222232D01*
X123579820Y-106181762D01*
X123579817Y-106181759D01*
X123574791Y-106175209D01*
X123491170Y-106111043D01*
X123471568Y-106096002D01*
X123465018Y-106090976D01*
X123453017Y-106086005D01*
X123344811Y-106041185D01*
X123344807Y-106041184D01*
X123337183Y-106038026D01*
X123329003Y-106036949D01*
X123328999Y-106036948D01*
X123208188Y-106021043D01*
X123200000Y-106019965D01*
X123191812Y-106021043D01*
X123191811Y-106021043D01*
X123111288Y-106031644D01*
X123041140Y-106020705D01*
X122988041Y-105973577D01*
X122969920Y-105923169D01*
X122963052Y-105871006D01*
X122961974Y-105862817D01*
X122909024Y-105734983D01*
X122866908Y-105680096D01*
X122829820Y-105631762D01*
X122829817Y-105631759D01*
X122824791Y-105625209D01*
X122715018Y-105540976D01*
X122707389Y-105537816D01*
X122594811Y-105491185D01*
X122594807Y-105491184D01*
X122587183Y-105488026D01*
X122579003Y-105486949D01*
X122578999Y-105486948D01*
X122458188Y-105471043D01*
X122450000Y-105469965D01*
X122312817Y-105488026D01*
X122184983Y-105540976D01*
X122075209Y-105625209D01*
X121990976Y-105734983D01*
X121938026Y-105862817D01*
X121919965Y-106000000D01*
X106598180Y-106000000D01*
X106588348Y-105991240D01*
X106581638Y-105987687D01*
X106450566Y-105918288D01*
X106450564Y-105918287D01*
X106443855Y-105914735D01*
X106392785Y-105901907D01*
X106292655Y-105876756D01*
X106292651Y-105876756D01*
X106285284Y-105874905D01*
X106277685Y-105874865D01*
X106277683Y-105874865D01*
X106209653Y-105874509D01*
X106121790Y-105874049D01*
X106114410Y-105875821D01*
X106114408Y-105875821D01*
X105970189Y-105910444D01*
X105970185Y-105910445D01*
X105962810Y-105912216D01*
X105817524Y-105987204D01*
X105811802Y-105992196D01*
X105811800Y-105992197D01*
X105700044Y-106089688D01*
X105700041Y-106089691D01*
X105694319Y-106094683D01*
X105600307Y-106228448D01*
X105540917Y-106380776D01*
X105539926Y-106388303D01*
X105521364Y-106529295D01*
X105519576Y-106542874D01*
X100729280Y-106542874D01*
X100729280Y-100810000D01*
X121929965Y-100810000D01*
X121948026Y-100947183D01*
X122000976Y-101075017D01*
X122020576Y-101100560D01*
X122080180Y-101178238D01*
X122080183Y-101178241D01*
X122085209Y-101184791D01*
X122194982Y-101269024D01*
X122200600Y-101271351D01*
X122248898Y-101322002D01*
X122262336Y-101391716D01*
X122235950Y-101457627D01*
X122213611Y-101479702D01*
X122115209Y-101555209D01*
X122030976Y-101664983D01*
X121978026Y-101792817D01*
X121959965Y-101930000D01*
X121978026Y-102067183D01*
X122030976Y-102195017D01*
X122067817Y-102243029D01*
X122110180Y-102298238D01*
X122110183Y-102298241D01*
X122115209Y-102304791D01*
X122121759Y-102309817D01*
X122121760Y-102309818D01*
X122218432Y-102383998D01*
X122224982Y-102389024D01*
X122232609Y-102392183D01*
X122260151Y-102403591D01*
X122315432Y-102448139D01*
X122337853Y-102515503D01*
X122320295Y-102584294D01*
X122268333Y-102632672D01*
X122260151Y-102636409D01*
X122224983Y-102650976D01*
X122115209Y-102735209D01*
X122030976Y-102844983D01*
X121978026Y-102972817D01*
X121959965Y-103110000D01*
X121978026Y-103247183D01*
X122030976Y-103375017D01*
X122064871Y-103419190D01*
X122110180Y-103478238D01*
X122110183Y-103478241D01*
X122115209Y-103484791D01*
X122121759Y-103489817D01*
X122123563Y-103491201D01*
X122124699Y-103492757D01*
X122127601Y-103495659D01*
X122127149Y-103496111D01*
X122165430Y-103548539D01*
X122169652Y-103619410D01*
X122134888Y-103681313D01*
X122123572Y-103691119D01*
X122105209Y-103705209D01*
X122020976Y-103814983D01*
X121968026Y-103942817D01*
X121949965Y-104080000D01*
X121968026Y-104217183D01*
X122020976Y-104345017D01*
X122020383Y-104345263D01*
X122035685Y-104408347D01*
X122026237Y-104450565D01*
X121991188Y-104535183D01*
X121988026Y-104542817D01*
X121969965Y-104680000D01*
X121988026Y-104817183D01*
X122040976Y-104945017D01*
X122083093Y-104999904D01*
X122120180Y-105048238D01*
X122120183Y-105048241D01*
X122125209Y-105054791D01*
X122234982Y-105139024D01*
X122242611Y-105142184D01*
X122355189Y-105188815D01*
X122355193Y-105188816D01*
X122362817Y-105191974D01*
X122370997Y-105193051D01*
X122371001Y-105193052D01*
X122491812Y-105208957D01*
X122500000Y-105210035D01*
X122508188Y-105208957D01*
X122628999Y-105193052D01*
X122629003Y-105193051D01*
X122637183Y-105191974D01*
X122644807Y-105188816D01*
X122644811Y-105188815D01*
X122757389Y-105142184D01*
X122765018Y-105139024D01*
X122874791Y-105054791D01*
X122879817Y-105048241D01*
X122879820Y-105048238D01*
X122916907Y-104999904D01*
X122959024Y-104945017D01*
X123011974Y-104817183D01*
X123030035Y-104680000D01*
X123011974Y-104542817D01*
X122959024Y-104414983D01*
X122959617Y-104414737D01*
X122944315Y-104351653D01*
X122953763Y-104309435D01*
X122988812Y-104224817D01*
X122988813Y-104224814D01*
X122991974Y-104217183D01*
X123010035Y-104080000D01*
X122991974Y-103942817D01*
X122939024Y-103814983D01*
X122896908Y-103760096D01*
X122859820Y-103711762D01*
X122859817Y-103711759D01*
X122854791Y-103705209D01*
X122846440Y-103698801D01*
X122845306Y-103697248D01*
X122842399Y-103694341D01*
X122842852Y-103693888D01*
X122804572Y-103641464D01*
X122800348Y-103570593D01*
X122835111Y-103508689D01*
X122846436Y-103498876D01*
X122858238Y-103489820D01*
X122858241Y-103489817D01*
X122864791Y-103484791D01*
X122869817Y-103478241D01*
X122869820Y-103478238D01*
X122915129Y-103419190D01*
X122949024Y-103375017D01*
X123001974Y-103247183D01*
X123020035Y-103110000D01*
X123001974Y-102972817D01*
X122949024Y-102844983D01*
X122887983Y-102765433D01*
X122869820Y-102741762D01*
X122869817Y-102741759D01*
X122864791Y-102735209D01*
X122755018Y-102650976D01*
X122719848Y-102636409D01*
X122664568Y-102591862D01*
X122642146Y-102524499D01*
X122659703Y-102455707D01*
X122711665Y-102407328D01*
X122719849Y-102403591D01*
X122747389Y-102392184D01*
X122747391Y-102392183D01*
X122755018Y-102389024D01*
X122761568Y-102383998D01*
X122858240Y-102309818D01*
X122858241Y-102309817D01*
X122864791Y-102304791D01*
X122869817Y-102298241D01*
X122869820Y-102298238D01*
X122912183Y-102243029D01*
X122949024Y-102195017D01*
X123001974Y-102067183D01*
X123020035Y-101930000D01*
X123001974Y-101792817D01*
X122949024Y-101664983D01*
X122896530Y-101596572D01*
X122869820Y-101561762D01*
X122869817Y-101561759D01*
X122864791Y-101555209D01*
X122857001Y-101549231D01*
X122761568Y-101476002D01*
X122755018Y-101470976D01*
X122749402Y-101468650D01*
X122701104Y-101418001D01*
X122687665Y-101348287D01*
X122714050Y-101282375D01*
X122736390Y-101260298D01*
X122828240Y-101189818D01*
X122828241Y-101189817D01*
X122834791Y-101184791D01*
X122839817Y-101178241D01*
X122839820Y-101178238D01*
X122899424Y-101100560D01*
X122919024Y-101075017D01*
X122971974Y-100947183D01*
X122990035Y-100810000D01*
X122980461Y-100737282D01*
X122973052Y-100681004D01*
X122973052Y-100681003D01*
X122971974Y-100672817D01*
X122968813Y-100665186D01*
X122967286Y-100659487D01*
X122968974Y-100588511D01*
X122989030Y-100550170D01*
X122993010Y-100544983D01*
X123039024Y-100485017D01*
X123091974Y-100357183D01*
X123110035Y-100220000D01*
X123091974Y-100082817D01*
X123039024Y-99954983D01*
X122991869Y-99893530D01*
X122959820Y-99851762D01*
X122959817Y-99851759D01*
X122954791Y-99845209D01*
X122876349Y-99785017D01*
X122851568Y-99766002D01*
X122845018Y-99760976D01*
X122828480Y-99754126D01*
X122724811Y-99711185D01*
X122724807Y-99711184D01*
X122717183Y-99708026D01*
X122709003Y-99706949D01*
X122708999Y-99706948D01*
X122588188Y-99691043D01*
X122580000Y-99689965D01*
X122442817Y-99708026D01*
X122314983Y-99760976D01*
X122205209Y-99845209D01*
X122120976Y-99954983D01*
X122068026Y-100082817D01*
X122049965Y-100220000D01*
X122051043Y-100228188D01*
X122063264Y-100321010D01*
X122068026Y-100357183D01*
X122071187Y-100364814D01*
X122072714Y-100370513D01*
X122071026Y-100441489D01*
X122050970Y-100479830D01*
X122000976Y-100544983D01*
X121948026Y-100672817D01*
X121929965Y-100810000D01*
X100729280Y-100810000D01*
X100729280Y-99593554D01*
X110757367Y-99593554D01*
X110771196Y-99804549D01*
X110772617Y-99810145D01*
X110772618Y-99810150D01*
X110815878Y-99980482D01*
X110823245Y-100009490D01*
X110911769Y-100201514D01*
X111033805Y-100374191D01*
X111045245Y-100385335D01*
X111139739Y-100477387D01*
X111185265Y-100521737D01*
X111190061Y-100524942D01*
X111190064Y-100524944D01*
X111326654Y-100616210D01*
X111361077Y-100639211D01*
X111366385Y-100641492D01*
X111366386Y-100641492D01*
X111550050Y-100720400D01*
X111550053Y-100720401D01*
X111555353Y-100722678D01*
X111560982Y-100723952D01*
X111560983Y-100723952D01*
X111755950Y-100768069D01*
X111755953Y-100768069D01*
X111761586Y-100769344D01*
X111767357Y-100769571D01*
X111767359Y-100769571D01*
X111829389Y-100772008D01*
X111972870Y-100777646D01*
X111978579Y-100776818D01*
X111978583Y-100776818D01*
X112176415Y-100748133D01*
X112176419Y-100748132D01*
X112182130Y-100747304D01*
X112267777Y-100718231D01*
X112376883Y-100681195D01*
X112376888Y-100681193D01*
X112382355Y-100679337D01*
X112387398Y-100676513D01*
X112561795Y-100578846D01*
X112561799Y-100578843D01*
X112566842Y-100576019D01*
X112729412Y-100440812D01*
X112864619Y-100278242D01*
X112867443Y-100273199D01*
X112867446Y-100273195D01*
X112965113Y-100098798D01*
X112965114Y-100098796D01*
X112967937Y-100093755D01*
X112969793Y-100088288D01*
X112969795Y-100088283D01*
X113030027Y-99910842D01*
X113035904Y-99893530D01*
X113040201Y-99863900D01*
X113065714Y-99687940D01*
X113065714Y-99687938D01*
X113066246Y-99684270D01*
X113067829Y-99623800D01*
X113048481Y-99413240D01*
X113042211Y-99391006D01*
X113007286Y-99267174D01*
X112991086Y-99209731D01*
X112979953Y-99187154D01*
X112900119Y-99025269D01*
X112897565Y-99020090D01*
X112771051Y-98850667D01*
X112748929Y-98830218D01*
X123461220Y-98830218D01*
X123479281Y-98967401D01*
X123532231Y-99095235D01*
X123562758Y-99135018D01*
X123611435Y-99198456D01*
X123611438Y-99198459D01*
X123616464Y-99205009D01*
X123623014Y-99210035D01*
X123623015Y-99210036D01*
X123681590Y-99254983D01*
X123726237Y-99289242D01*
X123733866Y-99292402D01*
X123846444Y-99339033D01*
X123846448Y-99339034D01*
X123854072Y-99342192D01*
X123862252Y-99343269D01*
X123862256Y-99343270D01*
X123983067Y-99359175D01*
X123991255Y-99360253D01*
X123999443Y-99359175D01*
X124120254Y-99343270D01*
X124120258Y-99343269D01*
X124128438Y-99342192D01*
X124136062Y-99339034D01*
X124136066Y-99339033D01*
X124248644Y-99292402D01*
X124256273Y-99289242D01*
X124300920Y-99254983D01*
X124359495Y-99210036D01*
X124359496Y-99210035D01*
X124366046Y-99205009D01*
X124371072Y-99198459D01*
X124371075Y-99198456D01*
X124419752Y-99135018D01*
X124450279Y-99095235D01*
X124503229Y-98967401D01*
X124521290Y-98830218D01*
X124503229Y-98693035D01*
X124450279Y-98565201D01*
X124398570Y-98497813D01*
X124371075Y-98461980D01*
X124371072Y-98461977D01*
X124366046Y-98455427D01*
X124349436Y-98442681D01*
X124262823Y-98376220D01*
X124256273Y-98371194D01*
X124229750Y-98360208D01*
X124136066Y-98321403D01*
X124136062Y-98321402D01*
X124128438Y-98318244D01*
X124120258Y-98317167D01*
X124120254Y-98317166D01*
X123999443Y-98301261D01*
X123991255Y-98300183D01*
X123854072Y-98318244D01*
X123726238Y-98371194D01*
X123616464Y-98455427D01*
X123532231Y-98565201D01*
X123479281Y-98693035D01*
X123461220Y-98830218D01*
X112748929Y-98830218D01*
X112641451Y-98730866D01*
X112620022Y-98711057D01*
X112620020Y-98711055D01*
X112615781Y-98707137D01*
X112582414Y-98686084D01*
X112441834Y-98597384D01*
X112441833Y-98597384D01*
X112436954Y-98594305D01*
X112240560Y-98515952D01*
X112234903Y-98514827D01*
X112234897Y-98514825D01*
X112037634Y-98475588D01*
X111974724Y-98442681D01*
X111939592Y-98380986D01*
X111943392Y-98310091D01*
X111984917Y-98252505D01*
X112044134Y-98227313D01*
X112176415Y-98208133D01*
X112176419Y-98208132D01*
X112182130Y-98207304D01*
X112261387Y-98180400D01*
X112376883Y-98141195D01*
X112376888Y-98141193D01*
X112382355Y-98139337D01*
X112387398Y-98136513D01*
X112552592Y-98044000D01*
X125504765Y-98044000D01*
X125522826Y-98181183D01*
X125575776Y-98309017D01*
X125621062Y-98368034D01*
X125633262Y-98383934D01*
X125658863Y-98450154D01*
X125659300Y-98460638D01*
X125659300Y-100161304D01*
X125656821Y-100184601D01*
X125656723Y-100186686D01*
X125654531Y-100196866D01*
X125655755Y-100207205D01*
X125658427Y-100229784D01*
X125658771Y-100235621D01*
X125658872Y-100235613D01*
X125659300Y-100240792D01*
X125659300Y-100245993D01*
X125660154Y-100251121D01*
X125660154Y-100251127D01*
X125662428Y-100264787D01*
X125663265Y-100270663D01*
X125669224Y-100321010D01*
X125673146Y-100329177D01*
X125674633Y-100338113D01*
X125679577Y-100347275D01*
X125679578Y-100347279D01*
X125698706Y-100382729D01*
X125701402Y-100388020D01*
X125723337Y-100433700D01*
X125726894Y-100437931D01*
X125728826Y-100439863D01*
X125730545Y-100441737D01*
X125730619Y-100441874D01*
X125730509Y-100441974D01*
X125730932Y-100442454D01*
X125733994Y-100448129D01*
X125741642Y-100455199D01*
X125741643Y-100455200D01*
X125773138Y-100484313D01*
X125776706Y-100487743D01*
X125876655Y-100587693D01*
X125891376Y-100605920D01*
X125892780Y-100607463D01*
X125898428Y-100616210D01*
X125906607Y-100622658D01*
X125906609Y-100622660D01*
X125924461Y-100636734D01*
X125928835Y-100640621D01*
X125928901Y-100640543D01*
X125932860Y-100643898D01*
X125936538Y-100647576D01*
X125940762Y-100650595D01*
X125940771Y-100650602D01*
X125952074Y-100658679D01*
X125956820Y-100662243D01*
X125970233Y-100672817D01*
X125996600Y-100693603D01*
X126005148Y-100696605D01*
X126012519Y-100701872D01*
X126022492Y-100704855D01*
X126022495Y-100704856D01*
X126061083Y-100716396D01*
X126066730Y-100718231D01*
X126107064Y-100732395D01*
X126107065Y-100732395D01*
X126114548Y-100735023D01*
X126120055Y-100735500D01*
X126122762Y-100735500D01*
X126125332Y-100735611D01*
X126125494Y-100735659D01*
X126125488Y-100735804D01*
X126126108Y-100735843D01*
X126132287Y-100737691D01*
X126185581Y-100735597D01*
X126190527Y-100735500D01*
X127968500Y-100735500D01*
X128036621Y-100755502D01*
X128083114Y-100809158D01*
X128094500Y-100861500D01*
X128094500Y-106044557D01*
X128074498Y-106112678D01*
X128045206Y-106144518D01*
X128005209Y-106175209D01*
X127920976Y-106284983D01*
X127868026Y-106412817D01*
X127849965Y-106550000D01*
X127868026Y-106687183D01*
X127920976Y-106815017D01*
X127959504Y-106865227D01*
X128000180Y-106918238D01*
X128000183Y-106918241D01*
X128005209Y-106924791D01*
X128011759Y-106929817D01*
X128011760Y-106929818D01*
X128106068Y-107002184D01*
X128114982Y-107009024D01*
X128122611Y-107012184D01*
X128235189Y-107058815D01*
X128235193Y-107058816D01*
X128242817Y-107061974D01*
X128250997Y-107063051D01*
X128251001Y-107063052D01*
X128371812Y-107078957D01*
X128380000Y-107080035D01*
X128388188Y-107078957D01*
X128508999Y-107063052D01*
X128509003Y-107063051D01*
X128517183Y-107061974D01*
X128524807Y-107058816D01*
X128524811Y-107058815D01*
X128637389Y-107012184D01*
X128645018Y-107009024D01*
X128653932Y-107002184D01*
X128748240Y-106929818D01*
X128748241Y-106929817D01*
X128754791Y-106924791D01*
X128759817Y-106918241D01*
X128759820Y-106918238D01*
X128800496Y-106865227D01*
X128839024Y-106815017D01*
X128891974Y-106687183D01*
X128898186Y-106640000D01*
X132809965Y-106640000D01*
X132828026Y-106777183D01*
X132880976Y-106905017D01*
X132900007Y-106929818D01*
X132960180Y-107008238D01*
X132960183Y-107008241D01*
X132965209Y-107014791D01*
X132971759Y-107019817D01*
X132971760Y-107019818D01*
X133050235Y-107080035D01*
X133074982Y-107099024D01*
X133082611Y-107102184D01*
X133195189Y-107148815D01*
X133195193Y-107148816D01*
X133202817Y-107151974D01*
X133210997Y-107153051D01*
X133211001Y-107153052D01*
X133331812Y-107168957D01*
X133340000Y-107170035D01*
X133348188Y-107168957D01*
X133468999Y-107153052D01*
X133469003Y-107153051D01*
X133477183Y-107151974D01*
X133484807Y-107148816D01*
X133484811Y-107148815D01*
X133597389Y-107102184D01*
X133605018Y-107099024D01*
X133629765Y-107080035D01*
X133708240Y-107019818D01*
X133708241Y-107019817D01*
X133714791Y-107014791D01*
X133719817Y-107008241D01*
X133719820Y-107008238D01*
X133779993Y-106929818D01*
X133799024Y-106905017D01*
X133851974Y-106777183D01*
X133870035Y-106640000D01*
X133851974Y-106502817D01*
X133799024Y-106374983D01*
X133756908Y-106320096D01*
X133719820Y-106271762D01*
X133719817Y-106271759D01*
X133714791Y-106265209D01*
X133704598Y-106257387D01*
X133611568Y-106186002D01*
X133605018Y-106180976D01*
X133578968Y-106170186D01*
X133484811Y-106131185D01*
X133484807Y-106131184D01*
X133477183Y-106128026D01*
X133469003Y-106126949D01*
X133468999Y-106126948D01*
X133348188Y-106111043D01*
X133340000Y-106109965D01*
X133202817Y-106128026D01*
X133074983Y-106180976D01*
X132965209Y-106265209D01*
X132880976Y-106374983D01*
X132828026Y-106502817D01*
X132809965Y-106640000D01*
X128898186Y-106640000D01*
X128910035Y-106550000D01*
X128891974Y-106412817D01*
X128855091Y-106323773D01*
X128845500Y-106275555D01*
X128845500Y-100381970D01*
X128845970Y-100371099D01*
X128848619Y-100340509D01*
X128849518Y-100330131D01*
X128839199Y-100288588D01*
X128837193Y-100278901D01*
X128831877Y-100246959D01*
X128831876Y-100246957D01*
X128830167Y-100236687D01*
X128825223Y-100227524D01*
X128823730Y-100223162D01*
X128821893Y-100218918D01*
X128819382Y-100208809D01*
X128796159Y-100172843D01*
X128791142Y-100164361D01*
X128772018Y-100128917D01*
X133107733Y-100128917D01*
X133125794Y-100266100D01*
X133178744Y-100393934D01*
X133183771Y-100400486D01*
X133187901Y-100407639D01*
X133185286Y-100409149D01*
X133205677Y-100461884D01*
X133196523Y-100520593D01*
X133166125Y-100593981D01*
X133148064Y-100731164D01*
X133166125Y-100868347D01*
X133219075Y-100996181D01*
X133224101Y-101002731D01*
X133254883Y-101042846D01*
X133280484Y-101109066D01*
X133271330Y-101167768D01*
X133266994Y-101178238D01*
X133263026Y-101187817D01*
X133244965Y-101325000D01*
X133263026Y-101462183D01*
X133315976Y-101590017D01*
X133321003Y-101596568D01*
X133321005Y-101596572D01*
X133325348Y-101602232D01*
X133350948Y-101668452D01*
X133341794Y-101727153D01*
X133305738Y-101814201D01*
X133287677Y-101951384D01*
X133305738Y-102088567D01*
X133358688Y-102216401D01*
X133430370Y-102309818D01*
X133442921Y-102326175D01*
X133441815Y-102327024D01*
X133471655Y-102381671D01*
X133473456Y-102424901D01*
X133463514Y-102500416D01*
X133464592Y-102508604D01*
X133464592Y-102508605D01*
X133474185Y-102581473D01*
X133463246Y-102651622D01*
X133446585Y-102675315D01*
X133447687Y-102676161D01*
X133363454Y-102785935D01*
X133310504Y-102913769D01*
X133292443Y-103050952D01*
X133310504Y-103188135D01*
X133363454Y-103315969D01*
X133402909Y-103367387D01*
X133442658Y-103419190D01*
X133442661Y-103419193D01*
X133447687Y-103425743D01*
X133454237Y-103430769D01*
X133454238Y-103430770D01*
X133532992Y-103491201D01*
X133557460Y-103509976D01*
X133565089Y-103513136D01*
X133677667Y-103559767D01*
X133677671Y-103559768D01*
X133685295Y-103562926D01*
X133693475Y-103564003D01*
X133693479Y-103564004D01*
X133814290Y-103579909D01*
X133822478Y-103580987D01*
X133830666Y-103579909D01*
X133951477Y-103564004D01*
X133951481Y-103564003D01*
X133959661Y-103562926D01*
X133967285Y-103559768D01*
X133967289Y-103559767D01*
X134079867Y-103513136D01*
X134087496Y-103509976D01*
X134111964Y-103491201D01*
X134190718Y-103430770D01*
X134190719Y-103430769D01*
X134197269Y-103425743D01*
X134202295Y-103419193D01*
X134202298Y-103419190D01*
X134242047Y-103367387D01*
X134281502Y-103315969D01*
X134334452Y-103188135D01*
X134352513Y-103050952D01*
X134351435Y-103042763D01*
X134341842Y-102969895D01*
X134352781Y-102899746D01*
X134369442Y-102876053D01*
X134368340Y-102875207D01*
X134441869Y-102779382D01*
X134452573Y-102765433D01*
X134505523Y-102637599D01*
X134523584Y-102500416D01*
X134505523Y-102363233D01*
X134452573Y-102235399D01*
X134368340Y-102125625D01*
X134369446Y-102124776D01*
X134339606Y-102070129D01*
X134337805Y-102026899D01*
X134346669Y-101959572D01*
X134347747Y-101951384D01*
X134329686Y-101814201D01*
X134276736Y-101686367D01*
X134271709Y-101679816D01*
X134271707Y-101679812D01*
X134267364Y-101674152D01*
X134241764Y-101607932D01*
X134250918Y-101549231D01*
X134283813Y-101469814D01*
X134286974Y-101462183D01*
X134305035Y-101325000D01*
X134286974Y-101187817D01*
X134234024Y-101059983D01*
X134198216Y-101013318D01*
X134172615Y-100947098D01*
X134181769Y-100888396D01*
X134186911Y-100875981D01*
X134186912Y-100875978D01*
X134190073Y-100868347D01*
X134208134Y-100731164D01*
X134190073Y-100593981D01*
X134137123Y-100466147D01*
X134132096Y-100459595D01*
X134127966Y-100452442D01*
X134130581Y-100450932D01*
X134110190Y-100398197D01*
X134119344Y-100339488D01*
X134146581Y-100273731D01*
X134149742Y-100266100D01*
X134167803Y-100128917D01*
X134149742Y-99991734D01*
X134096792Y-99863900D01*
X134030408Y-99777387D01*
X134017588Y-99760679D01*
X134017585Y-99760676D01*
X134012559Y-99754126D01*
X133902786Y-99669893D01*
X133872101Y-99657183D01*
X133782579Y-99620102D01*
X133782575Y-99620101D01*
X133774951Y-99616943D01*
X133766771Y-99615866D01*
X133766767Y-99615865D01*
X133645956Y-99599960D01*
X133637768Y-99598882D01*
X133500585Y-99616943D01*
X133372751Y-99669893D01*
X133262977Y-99754126D01*
X133178744Y-99863900D01*
X133125794Y-99991734D01*
X133107733Y-100128917D01*
X128772018Y-100128917D01*
X128770806Y-100126671D01*
X128763160Y-100119602D01*
X128760339Y-100115966D01*
X128757224Y-100112542D01*
X128751572Y-100103790D01*
X128717946Y-100077282D01*
X128710455Y-100070884D01*
X128679009Y-100041815D01*
X128669483Y-100037604D01*
X128665618Y-100035065D01*
X128661577Y-100032844D01*
X128653400Y-100026397D01*
X128613016Y-100012215D01*
X128603818Y-100008573D01*
X128574201Y-99995479D01*
X128574196Y-99995478D01*
X128564674Y-99991268D01*
X128554299Y-99990369D01*
X128546617Y-99988397D01*
X128542931Y-99987603D01*
X128535452Y-99984977D01*
X128529945Y-99984500D01*
X128491970Y-99984500D01*
X128481099Y-99984030D01*
X128440131Y-99980482D01*
X128430021Y-99982993D01*
X128419643Y-99983810D01*
X128419591Y-99983148D01*
X128408541Y-99984500D01*
X126536300Y-99984500D01*
X126468179Y-99964498D01*
X126421686Y-99910842D01*
X126410300Y-99858500D01*
X126410300Y-99520000D01*
X138239965Y-99520000D01*
X138258026Y-99657183D01*
X138310976Y-99785017D01*
X138353092Y-99839904D01*
X138390180Y-99888238D01*
X138390183Y-99888241D01*
X138395209Y-99894791D01*
X138401759Y-99899817D01*
X138401760Y-99899818D01*
X138483595Y-99962613D01*
X138504982Y-99979024D01*
X138512611Y-99982184D01*
X138625189Y-100028815D01*
X138625193Y-100028816D01*
X138632817Y-100031974D01*
X138640997Y-100033051D01*
X138641001Y-100033052D01*
X138761812Y-100048957D01*
X138770000Y-100050035D01*
X138778188Y-100048957D01*
X138898999Y-100033052D01*
X138899003Y-100033051D01*
X138907183Y-100031974D01*
X138914807Y-100028816D01*
X138914811Y-100028815D01*
X139027389Y-99982184D01*
X139035018Y-99979024D01*
X139056405Y-99962613D01*
X139138240Y-99899818D01*
X139138241Y-99899817D01*
X139144791Y-99894791D01*
X139149817Y-99888241D01*
X139149820Y-99888238D01*
X139186907Y-99839904D01*
X139229024Y-99785017D01*
X139281974Y-99657183D01*
X139300035Y-99520000D01*
X139281974Y-99382817D01*
X139229024Y-99254983D01*
X139168817Y-99176520D01*
X139149820Y-99151762D01*
X139149817Y-99151759D01*
X139144791Y-99145209D01*
X139088205Y-99101788D01*
X139041568Y-99066002D01*
X139035018Y-99060976D01*
X139027389Y-99057816D01*
X138914811Y-99011185D01*
X138914807Y-99011184D01*
X138907183Y-99008026D01*
X138899003Y-99006949D01*
X138898999Y-99006948D01*
X138778188Y-98991043D01*
X138770000Y-98989965D01*
X138632817Y-99008026D01*
X138504983Y-99060976D01*
X138395209Y-99145209D01*
X138310976Y-99254983D01*
X138258026Y-99382817D01*
X138239965Y-99520000D01*
X126410300Y-99520000D01*
X126410300Y-98460638D01*
X126430302Y-98392517D01*
X126436338Y-98383934D01*
X126448538Y-98368034D01*
X126493824Y-98309017D01*
X126546774Y-98181183D01*
X126564835Y-98044000D01*
X126546774Y-97906817D01*
X126493824Y-97778983D01*
X126438842Y-97707329D01*
X126414620Y-97675762D01*
X126414617Y-97675759D01*
X126409591Y-97669209D01*
X126399368Y-97661364D01*
X126306368Y-97590002D01*
X126299818Y-97584976D01*
X126275229Y-97574791D01*
X126179611Y-97535185D01*
X126179607Y-97535184D01*
X126171983Y-97532026D01*
X126163803Y-97530949D01*
X126163799Y-97530948D01*
X126042988Y-97515043D01*
X126034800Y-97513965D01*
X125897617Y-97532026D01*
X125769783Y-97584976D01*
X125660009Y-97669209D01*
X125575776Y-97778983D01*
X125522826Y-97906817D01*
X125504765Y-98044000D01*
X112552592Y-98044000D01*
X112561795Y-98038846D01*
X112561799Y-98038843D01*
X112566842Y-98036019D01*
X112729412Y-97900812D01*
X112864619Y-97738242D01*
X112867443Y-97733199D01*
X112867446Y-97733195D01*
X112965113Y-97558798D01*
X112965114Y-97558796D01*
X112967937Y-97553755D01*
X112969793Y-97548288D01*
X112969795Y-97548283D01*
X113034047Y-97359000D01*
X113035904Y-97353530D01*
X113038275Y-97337183D01*
X113050916Y-97250000D01*
X120419965Y-97250000D01*
X120438026Y-97387183D01*
X120490976Y-97515017D01*
X120516502Y-97548283D01*
X120570180Y-97618238D01*
X120570183Y-97618241D01*
X120575209Y-97624791D01*
X120581759Y-97629817D01*
X120581760Y-97629818D01*
X120657651Y-97688052D01*
X120684982Y-97709024D01*
X120692611Y-97712184D01*
X120805189Y-97758815D01*
X120805193Y-97758816D01*
X120812817Y-97761974D01*
X120820997Y-97763051D01*
X120821001Y-97763052D01*
X120941812Y-97778957D01*
X120950000Y-97780035D01*
X120958188Y-97778957D01*
X121078999Y-97763052D01*
X121079003Y-97763051D01*
X121087183Y-97761974D01*
X121094807Y-97758816D01*
X121094811Y-97758815D01*
X121207389Y-97712184D01*
X121215018Y-97709024D01*
X121280663Y-97658652D01*
X121346881Y-97633052D01*
X121416430Y-97647316D01*
X121445776Y-97669013D01*
X121450209Y-97674791D01*
X121456755Y-97679814D01*
X121533831Y-97738957D01*
X121559982Y-97759024D01*
X121567611Y-97762184D01*
X121680189Y-97808815D01*
X121680193Y-97808816D01*
X121687817Y-97811974D01*
X121695997Y-97813051D01*
X121696001Y-97813052D01*
X121816812Y-97828957D01*
X121825000Y-97830035D01*
X121833188Y-97828957D01*
X121953999Y-97813052D01*
X121954003Y-97813051D01*
X121962183Y-97811974D01*
X121969807Y-97808816D01*
X121969811Y-97808815D01*
X122082389Y-97762184D01*
X122090018Y-97759024D01*
X122138827Y-97721571D01*
X122205047Y-97695970D01*
X122274596Y-97710234D01*
X122292236Y-97721571D01*
X122308428Y-97733996D01*
X122308434Y-97733999D01*
X122314982Y-97739024D01*
X122322611Y-97742184D01*
X122435189Y-97788815D01*
X122435193Y-97788816D01*
X122442817Y-97791974D01*
X122450997Y-97793051D01*
X122451001Y-97793052D01*
X122571812Y-97808957D01*
X122580000Y-97810035D01*
X122588188Y-97808957D01*
X122708999Y-97793052D01*
X122709003Y-97793051D01*
X122717183Y-97791974D01*
X122724807Y-97788816D01*
X122724811Y-97788815D01*
X122837389Y-97742184D01*
X122845018Y-97739024D01*
X122895617Y-97700198D01*
X122961836Y-97674597D01*
X123020535Y-97683750D01*
X123112817Y-97721974D01*
X123120997Y-97723051D01*
X123121001Y-97723052D01*
X123241812Y-97738957D01*
X123250000Y-97740035D01*
X123258188Y-97738957D01*
X123378999Y-97723052D01*
X123379003Y-97723051D01*
X123387183Y-97721974D01*
X123394807Y-97718816D01*
X123394811Y-97718815D01*
X123507389Y-97672184D01*
X123515018Y-97669024D01*
X123529812Y-97657672D01*
X123596033Y-97632072D01*
X123665581Y-97646337D01*
X123671220Y-97649961D01*
X123671275Y-97649866D01*
X123678429Y-97653996D01*
X123684982Y-97659024D01*
X123692611Y-97662184D01*
X123805189Y-97708815D01*
X123805193Y-97708816D01*
X123812817Y-97711974D01*
X123820997Y-97713051D01*
X123821001Y-97713052D01*
X123941812Y-97728957D01*
X123950000Y-97730035D01*
X123958188Y-97728957D01*
X124078999Y-97713052D01*
X124079003Y-97713051D01*
X124087183Y-97711974D01*
X124094807Y-97708816D01*
X124094811Y-97708815D01*
X124207389Y-97662184D01*
X124215018Y-97659024D01*
X124221566Y-97653999D01*
X124221572Y-97653996D01*
X124310796Y-97585531D01*
X124377016Y-97559930D01*
X124446565Y-97574194D01*
X124464204Y-97585531D01*
X124553428Y-97653996D01*
X124553434Y-97653999D01*
X124559982Y-97659024D01*
X124567611Y-97662184D01*
X124680189Y-97708815D01*
X124680193Y-97708816D01*
X124687817Y-97711974D01*
X124695997Y-97713051D01*
X124696001Y-97713052D01*
X124816812Y-97728957D01*
X124825000Y-97730035D01*
X124833188Y-97728957D01*
X124953999Y-97713052D01*
X124954003Y-97713051D01*
X124962183Y-97711974D01*
X124969807Y-97708816D01*
X124969811Y-97708815D01*
X125082389Y-97662184D01*
X125090018Y-97659024D01*
X125118479Y-97637185D01*
X125193240Y-97579818D01*
X125193241Y-97579817D01*
X125199791Y-97574791D01*
X125204817Y-97568241D01*
X125204820Y-97568238D01*
X125262500Y-97493067D01*
X125284024Y-97465017D01*
X125323187Y-97370467D01*
X126787788Y-97370467D01*
X126805849Y-97507650D01*
X126858799Y-97635484D01*
X126889703Y-97675759D01*
X126938003Y-97738705D01*
X126938006Y-97738708D01*
X126943032Y-97745258D01*
X126949582Y-97750284D01*
X126949583Y-97750285D01*
X127032354Y-97813798D01*
X127052805Y-97829491D01*
X127060434Y-97832651D01*
X127173012Y-97879282D01*
X127173016Y-97879283D01*
X127180640Y-97882441D01*
X127188820Y-97883518D01*
X127188824Y-97883519D01*
X127309635Y-97899424D01*
X127317823Y-97900502D01*
X127326011Y-97899424D01*
X127446822Y-97883519D01*
X127446826Y-97883518D01*
X127455006Y-97882441D01*
X127462630Y-97879283D01*
X127462634Y-97879282D01*
X127575212Y-97832651D01*
X127582841Y-97829491D01*
X127609786Y-97808815D01*
X127620226Y-97800804D01*
X127686446Y-97775203D01*
X127732925Y-97782450D01*
X127733405Y-97780659D01*
X127741381Y-97782796D01*
X127749012Y-97785957D01*
X127886195Y-97804018D01*
X127894383Y-97802940D01*
X128015194Y-97787035D01*
X128015198Y-97787034D01*
X128023378Y-97785957D01*
X128093650Y-97756850D01*
X128164238Y-97749261D01*
X128196858Y-97761208D01*
X128197007Y-97760848D01*
X128317214Y-97810639D01*
X128317218Y-97810640D01*
X128324842Y-97813798D01*
X128333022Y-97814875D01*
X128333026Y-97814876D01*
X128453837Y-97830781D01*
X128462025Y-97831859D01*
X128470213Y-97830781D01*
X128591024Y-97814876D01*
X128591028Y-97814875D01*
X128599208Y-97813798D01*
X128606832Y-97810640D01*
X128606836Y-97810639D01*
X128719412Y-97764009D01*
X128719413Y-97764008D01*
X128727043Y-97760848D01*
X128768454Y-97729072D01*
X128834671Y-97703472D01*
X128877770Y-97707329D01*
X128884715Y-97709190D01*
X128892349Y-97712352D01*
X129029532Y-97730413D01*
X129037720Y-97729335D01*
X129158531Y-97713430D01*
X129158535Y-97713429D01*
X129166715Y-97712352D01*
X129174339Y-97709194D01*
X129174343Y-97709193D01*
X129286919Y-97662563D01*
X129286920Y-97662562D01*
X129294550Y-97659402D01*
X129301100Y-97654376D01*
X129306303Y-97651372D01*
X129375298Y-97634636D01*
X129417517Y-97644084D01*
X129459229Y-97661361D01*
X129459232Y-97661362D01*
X129466864Y-97664523D01*
X129604047Y-97682584D01*
X129612235Y-97681506D01*
X129733046Y-97665601D01*
X129733050Y-97665600D01*
X129741230Y-97664523D01*
X129748854Y-97661365D01*
X129748858Y-97661364D01*
X129858136Y-97616100D01*
X129928726Y-97608511D01*
X129970143Y-97626833D01*
X129971278Y-97624867D01*
X129978429Y-97628996D01*
X129984982Y-97634024D01*
X129992612Y-97637184D01*
X129992613Y-97637185D01*
X130105189Y-97683815D01*
X130105193Y-97683816D01*
X130112817Y-97686974D01*
X130120997Y-97688051D01*
X130121001Y-97688052D01*
X130241812Y-97703957D01*
X130250000Y-97705035D01*
X130258188Y-97703957D01*
X130378999Y-97688052D01*
X130379003Y-97688051D01*
X130387183Y-97686974D01*
X130474394Y-97650851D01*
X130544981Y-97643262D01*
X130582208Y-97656896D01*
X130584982Y-97659024D01*
X130592612Y-97662184D01*
X130592613Y-97662185D01*
X130705189Y-97708815D01*
X130705193Y-97708816D01*
X130712817Y-97711974D01*
X130720997Y-97713051D01*
X130721001Y-97713052D01*
X130841812Y-97728957D01*
X130850000Y-97730035D01*
X130858188Y-97728957D01*
X130858189Y-97728957D01*
X130955947Y-97716087D01*
X131026096Y-97727026D01*
X131079194Y-97774154D01*
X131097315Y-97824562D01*
X131104935Y-97882441D01*
X131110826Y-97927183D01*
X131163776Y-98055017D01*
X131199438Y-98101492D01*
X131242980Y-98158238D01*
X131242983Y-98158241D01*
X131248009Y-98164791D01*
X131254559Y-98169817D01*
X131254560Y-98169818D01*
X131320914Y-98220734D01*
X131357782Y-98249024D01*
X131365411Y-98252184D01*
X131477989Y-98298815D01*
X131477993Y-98298816D01*
X131485617Y-98301974D01*
X131493797Y-98303051D01*
X131493801Y-98303052D01*
X131614612Y-98318957D01*
X131622800Y-98320035D01*
X131630988Y-98318957D01*
X131630989Y-98318957D01*
X131758719Y-98302141D01*
X131828867Y-98313080D01*
X131881966Y-98360208D01*
X131891574Y-98378844D01*
X131925776Y-98461417D01*
X131942821Y-98483630D01*
X132004980Y-98564638D01*
X132004983Y-98564641D01*
X132010009Y-98571191D01*
X132119782Y-98655424D01*
X132127411Y-98658584D01*
X132239989Y-98705215D01*
X132239993Y-98705216D01*
X132247617Y-98708374D01*
X132255797Y-98709451D01*
X132255801Y-98709452D01*
X132376612Y-98725357D01*
X132384800Y-98726435D01*
X132392988Y-98725357D01*
X132392989Y-98725357D01*
X132434234Y-98719927D01*
X132504382Y-98730866D01*
X132557481Y-98777994D01*
X132575602Y-98828401D01*
X132581003Y-98869421D01*
X132584026Y-98892383D01*
X132636976Y-99020217D01*
X132665827Y-99057816D01*
X132716180Y-99123438D01*
X132716183Y-99123441D01*
X132721209Y-99129991D01*
X132830982Y-99214224D01*
X132838611Y-99217384D01*
X132951189Y-99264015D01*
X132951193Y-99264016D01*
X132958817Y-99267174D01*
X132966997Y-99268251D01*
X132967001Y-99268252D01*
X133087812Y-99284157D01*
X133096000Y-99285235D01*
X133104188Y-99284157D01*
X133224999Y-99268252D01*
X133225003Y-99268251D01*
X133233183Y-99267174D01*
X133240807Y-99264016D01*
X133240811Y-99264015D01*
X133353389Y-99217384D01*
X133361018Y-99214224D01*
X133470791Y-99129991D01*
X133475817Y-99123441D01*
X133475820Y-99123438D01*
X133526173Y-99057816D01*
X133555024Y-99020217D01*
X133607974Y-98892383D01*
X133626035Y-98755200D01*
X133607974Y-98618017D01*
X133555024Y-98490183D01*
X133480082Y-98392517D01*
X133475820Y-98386962D01*
X133475817Y-98386959D01*
X133470791Y-98380409D01*
X133383048Y-98313080D01*
X133367568Y-98301202D01*
X133361018Y-98296176D01*
X133353389Y-98293016D01*
X133240811Y-98246385D01*
X133240807Y-98246384D01*
X133233183Y-98243226D01*
X133225003Y-98242149D01*
X133224999Y-98242148D01*
X133104188Y-98226243D01*
X133096000Y-98225165D01*
X133087812Y-98226243D01*
X133087811Y-98226243D01*
X133046566Y-98231673D01*
X132976418Y-98220734D01*
X132923319Y-98173606D01*
X132905198Y-98123199D01*
X132897852Y-98067406D01*
X132896774Y-98059217D01*
X132843824Y-97931383D01*
X132768064Y-97832651D01*
X132764620Y-97828162D01*
X132764617Y-97828159D01*
X132759591Y-97821609D01*
X132748440Y-97813052D01*
X132656368Y-97742402D01*
X132649818Y-97737376D01*
X132632095Y-97730035D01*
X132529611Y-97687585D01*
X132529607Y-97687584D01*
X132521983Y-97684426D01*
X132513803Y-97683349D01*
X132513799Y-97683348D01*
X132392988Y-97667443D01*
X132384800Y-97666365D01*
X132376612Y-97667443D01*
X132376611Y-97667443D01*
X132248881Y-97684259D01*
X132178733Y-97673320D01*
X132125634Y-97626192D01*
X132116026Y-97607555D01*
X132108755Y-97590002D01*
X132081824Y-97524983D01*
X132039707Y-97470096D01*
X132002620Y-97421762D01*
X132002617Y-97421759D01*
X131997591Y-97415209D01*
X131961068Y-97387183D01*
X131894368Y-97336002D01*
X131887818Y-97330976D01*
X131880189Y-97327816D01*
X131767611Y-97281185D01*
X131767607Y-97281184D01*
X131759983Y-97278026D01*
X131751803Y-97276949D01*
X131751799Y-97276948D01*
X131630988Y-97261043D01*
X131622800Y-97259965D01*
X131614612Y-97261043D01*
X131614611Y-97261043D01*
X131516853Y-97273913D01*
X131446704Y-97262974D01*
X131393606Y-97215846D01*
X131375485Y-97165438D01*
X131365224Y-97087504D01*
X131361974Y-97062817D01*
X131309024Y-96934983D01*
X131253022Y-96862000D01*
X131229820Y-96831762D01*
X131229817Y-96831759D01*
X131224791Y-96825209D01*
X131215157Y-96817816D01*
X131121568Y-96746002D01*
X131115018Y-96740976D01*
X131066895Y-96721043D01*
X130994811Y-96691185D01*
X130994807Y-96691184D01*
X130987183Y-96688026D01*
X130979003Y-96686949D01*
X130978999Y-96686948D01*
X130858188Y-96671043D01*
X130850000Y-96669965D01*
X130712817Y-96688026D01*
X130705183Y-96691188D01*
X130625608Y-96724148D01*
X130555018Y-96731737D01*
X130517791Y-96718104D01*
X130515018Y-96715976D01*
X130466599Y-96695921D01*
X130394811Y-96666185D01*
X130394807Y-96666184D01*
X130387183Y-96663026D01*
X130379003Y-96661949D01*
X130378999Y-96661948D01*
X130258188Y-96646043D01*
X130250000Y-96644965D01*
X130112817Y-96663026D01*
X130046817Y-96690364D01*
X129995912Y-96711449D01*
X129925322Y-96719038D01*
X129883904Y-96700716D01*
X129882769Y-96702682D01*
X129875618Y-96698553D01*
X129869065Y-96693525D01*
X129856702Y-96688404D01*
X129748858Y-96643734D01*
X129748854Y-96643733D01*
X129741230Y-96640575D01*
X129733050Y-96639498D01*
X129733046Y-96639497D01*
X129612235Y-96623592D01*
X129604047Y-96622514D01*
X129466864Y-96640575D01*
X129339030Y-96693525D01*
X129332476Y-96698554D01*
X129327280Y-96701554D01*
X129258284Y-96718292D01*
X129216064Y-96708845D01*
X129166715Y-96688404D01*
X129158535Y-96687327D01*
X129158531Y-96687326D01*
X129037720Y-96671421D01*
X129029532Y-96670343D01*
X128892349Y-96688404D01*
X128764515Y-96741354D01*
X128723104Y-96773130D01*
X128656887Y-96798730D01*
X128613789Y-96794873D01*
X128606837Y-96793010D01*
X128599208Y-96789850D01*
X128591024Y-96788773D01*
X128591022Y-96788772D01*
X128470213Y-96772867D01*
X128462025Y-96771789D01*
X128324842Y-96789850D01*
X128317208Y-96793012D01*
X128254571Y-96818956D01*
X128183981Y-96826545D01*
X128151362Y-96814600D01*
X128151213Y-96814959D01*
X128031006Y-96765168D01*
X128031002Y-96765167D01*
X128023378Y-96762009D01*
X128015198Y-96760932D01*
X128015194Y-96760931D01*
X127894383Y-96745026D01*
X127886195Y-96743948D01*
X127749012Y-96762009D01*
X127621178Y-96814959D01*
X127614627Y-96819986D01*
X127614625Y-96819987D01*
X127583790Y-96843647D01*
X127517570Y-96869247D01*
X127471093Y-96862000D01*
X127470613Y-96863791D01*
X127462637Y-96861654D01*
X127455006Y-96858493D01*
X127317823Y-96840432D01*
X127180640Y-96858493D01*
X127052806Y-96911443D01*
X126943032Y-96995676D01*
X126858799Y-97105450D01*
X126805849Y-97233284D01*
X126787788Y-97370467D01*
X125323187Y-97370467D01*
X125336974Y-97337183D01*
X125355035Y-97200000D01*
X125336974Y-97062817D01*
X125284024Y-96934983D01*
X125228022Y-96862000D01*
X125204820Y-96831762D01*
X125204817Y-96831759D01*
X125199791Y-96825209D01*
X125190157Y-96817816D01*
X125096568Y-96746002D01*
X125090018Y-96740976D01*
X125041895Y-96721043D01*
X124969811Y-96691185D01*
X124969807Y-96691184D01*
X124962183Y-96688026D01*
X124954003Y-96686949D01*
X124953999Y-96686948D01*
X124833188Y-96671043D01*
X124825000Y-96669965D01*
X124687817Y-96688026D01*
X124559983Y-96740976D01*
X124464202Y-96814471D01*
X124397985Y-96840071D01*
X124328437Y-96825807D01*
X124310796Y-96814470D01*
X124221568Y-96746002D01*
X124215018Y-96740976D01*
X124166895Y-96721043D01*
X124094811Y-96691185D01*
X124094807Y-96691184D01*
X124087183Y-96688026D01*
X124079003Y-96686949D01*
X124078999Y-96686948D01*
X123958188Y-96671043D01*
X123950000Y-96669965D01*
X123812817Y-96688026D01*
X123684983Y-96740976D01*
X123670188Y-96752329D01*
X123603970Y-96777929D01*
X123534421Y-96763665D01*
X123528780Y-96760039D01*
X123528725Y-96760134D01*
X123521568Y-96756002D01*
X123515018Y-96750976D01*
X123503922Y-96746380D01*
X123394811Y-96701185D01*
X123394807Y-96701184D01*
X123387183Y-96698026D01*
X123379003Y-96696949D01*
X123378999Y-96696948D01*
X123258188Y-96681043D01*
X123250000Y-96679965D01*
X123112817Y-96698026D01*
X122984983Y-96750976D01*
X122934382Y-96789804D01*
X122868164Y-96815403D01*
X122809463Y-96806249D01*
X122724811Y-96771185D01*
X122724807Y-96771184D01*
X122717183Y-96768026D01*
X122709003Y-96766949D01*
X122708999Y-96766948D01*
X122588188Y-96751043D01*
X122580000Y-96749965D01*
X122442817Y-96768026D01*
X122314983Y-96820976D01*
X122266170Y-96858431D01*
X122199954Y-96884031D01*
X122130405Y-96869767D01*
X122112764Y-96858430D01*
X122096568Y-96846002D01*
X122090018Y-96840976D01*
X122053867Y-96826002D01*
X121969811Y-96791185D01*
X121969807Y-96791184D01*
X121962183Y-96788026D01*
X121954003Y-96786949D01*
X121953999Y-96786948D01*
X121833188Y-96771043D01*
X121825000Y-96769965D01*
X121687817Y-96788026D01*
X121559983Y-96840976D01*
X121494337Y-96891349D01*
X121428117Y-96916948D01*
X121358569Y-96902683D01*
X121329224Y-96880987D01*
X121324791Y-96875209D01*
X121303007Y-96858493D01*
X121221568Y-96796002D01*
X121215018Y-96790976D01*
X121205293Y-96786948D01*
X121094811Y-96741185D01*
X121094807Y-96741184D01*
X121087183Y-96738026D01*
X121079003Y-96736949D01*
X121078999Y-96736948D01*
X120958188Y-96721043D01*
X120950000Y-96719965D01*
X120812817Y-96738026D01*
X120684983Y-96790976D01*
X120575209Y-96875209D01*
X120490976Y-96984983D01*
X120438026Y-97112817D01*
X120419965Y-97250000D01*
X113050916Y-97250000D01*
X113065714Y-97147940D01*
X113065714Y-97147938D01*
X113066246Y-97144270D01*
X113067829Y-97083800D01*
X113048481Y-96873240D01*
X113045214Y-96861654D01*
X113026379Y-96794873D01*
X112991086Y-96669731D01*
X112987780Y-96663026D01*
X112917247Y-96520000D01*
X116055965Y-96520000D01*
X116074026Y-96657183D01*
X116126976Y-96785017D01*
X116158425Y-96826002D01*
X116206180Y-96888238D01*
X116206183Y-96888241D01*
X116211209Y-96894791D01*
X116217759Y-96899817D01*
X116217760Y-96899818D01*
X116263587Y-96934983D01*
X116320982Y-96979024D01*
X116328611Y-96982184D01*
X116441189Y-97028815D01*
X116441193Y-97028816D01*
X116448817Y-97031974D01*
X116456997Y-97033051D01*
X116457001Y-97033052D01*
X116577812Y-97048957D01*
X116586000Y-97050035D01*
X116594188Y-97048957D01*
X116714999Y-97033052D01*
X116715003Y-97033051D01*
X116723183Y-97031974D01*
X116730807Y-97028816D01*
X116730811Y-97028815D01*
X116843389Y-96982184D01*
X116851018Y-96979024D01*
X116908413Y-96934983D01*
X116954240Y-96899818D01*
X116954241Y-96899817D01*
X116960791Y-96894791D01*
X116965817Y-96888241D01*
X116965820Y-96888238D01*
X117013575Y-96826002D01*
X117045024Y-96785017D01*
X117097974Y-96657183D01*
X117116035Y-96520000D01*
X117097974Y-96382817D01*
X117045024Y-96254983D01*
X116966653Y-96152848D01*
X116965820Y-96151762D01*
X116965817Y-96151759D01*
X116960791Y-96145209D01*
X116851018Y-96060976D01*
X116842346Y-96057384D01*
X116730811Y-96011185D01*
X116730807Y-96011184D01*
X116723183Y-96008026D01*
X116715003Y-96006949D01*
X116714999Y-96006948D01*
X116594188Y-95991043D01*
X116586000Y-95989965D01*
X116448817Y-96008026D01*
X116320983Y-96060976D01*
X116211209Y-96145209D01*
X116126976Y-96254983D01*
X116074026Y-96382817D01*
X116055965Y-96520000D01*
X112917247Y-96520000D01*
X112900119Y-96485269D01*
X112897565Y-96480090D01*
X112771051Y-96310667D01*
X112615781Y-96167137D01*
X112591413Y-96151762D01*
X112441834Y-96057384D01*
X112441833Y-96057384D01*
X112436954Y-96054305D01*
X112240560Y-95975952D01*
X112234903Y-95974827D01*
X112234897Y-95974825D01*
X112038842Y-95935828D01*
X112038840Y-95935828D01*
X112033175Y-95934701D01*
X112027400Y-95934625D01*
X112027396Y-95934625D01*
X111921376Y-95933237D01*
X111821746Y-95931933D01*
X111816049Y-95932912D01*
X111816048Y-95932912D01*
X111619050Y-95966762D01*
X111619049Y-95966762D01*
X111613353Y-95967741D01*
X111414975Y-96040927D01*
X111410014Y-96043879D01*
X111410013Y-96043879D01*
X111248142Y-96140182D01*
X111233256Y-96149038D01*
X111074281Y-96288455D01*
X110943376Y-96454508D01*
X110940687Y-96459619D01*
X110940685Y-96459622D01*
X110927192Y-96485269D01*
X110844923Y-96641636D01*
X110782220Y-96843573D01*
X110757367Y-97053554D01*
X110771196Y-97264549D01*
X110772617Y-97270145D01*
X110772618Y-97270150D01*
X110809459Y-97415209D01*
X110823245Y-97469490D01*
X110825662Y-97474733D01*
X110894875Y-97624867D01*
X110911769Y-97661514D01*
X111033805Y-97834191D01*
X111185265Y-97981737D01*
X111190061Y-97984942D01*
X111190064Y-97984944D01*
X111333336Y-98080675D01*
X111361077Y-98099211D01*
X111366385Y-98101492D01*
X111366386Y-98101492D01*
X111550050Y-98180400D01*
X111550053Y-98180401D01*
X111555353Y-98182678D01*
X111560982Y-98183952D01*
X111560983Y-98183952D01*
X111755950Y-98228069D01*
X111755953Y-98228069D01*
X111761586Y-98229344D01*
X111767358Y-98229571D01*
X111773087Y-98230325D01*
X111772727Y-98233057D01*
X111829004Y-98252016D01*
X111873350Y-98307459D01*
X111880682Y-98378076D01*
X111848671Y-98441447D01*
X111787481Y-98477451D01*
X111778104Y-98479432D01*
X111619050Y-98506762D01*
X111619049Y-98506762D01*
X111613353Y-98507741D01*
X111414975Y-98580927D01*
X111410014Y-98583879D01*
X111410013Y-98583879D01*
X111338868Y-98626206D01*
X111233256Y-98689038D01*
X111074281Y-98828455D01*
X111070710Y-98832985D01*
X110958730Y-98975032D01*
X110943376Y-98994508D01*
X110940687Y-98999619D01*
X110940685Y-98999622D01*
X110894395Y-99087605D01*
X110844923Y-99181636D01*
X110782220Y-99383573D01*
X110757367Y-99593554D01*
X100729280Y-99593554D01*
X100729280Y-91770711D01*
X112415676Y-91770711D01*
X112433737Y-91907894D01*
X112486687Y-92035728D01*
X112528804Y-92090615D01*
X112565891Y-92138949D01*
X112565894Y-92138952D01*
X112570920Y-92145502D01*
X112680693Y-92229735D01*
X112688322Y-92232895D01*
X112800900Y-92279526D01*
X112800904Y-92279527D01*
X112808528Y-92282685D01*
X112816708Y-92283762D01*
X112816712Y-92283763D01*
X112937523Y-92299668D01*
X112945711Y-92300746D01*
X112953899Y-92299668D01*
X113074710Y-92283763D01*
X113074714Y-92283762D01*
X113082894Y-92282685D01*
X113090518Y-92279527D01*
X113090522Y-92279526D01*
X113203100Y-92232895D01*
X113210729Y-92229735D01*
X113320502Y-92145502D01*
X113325528Y-92138952D01*
X113325531Y-92138949D01*
X113362618Y-92090615D01*
X113404735Y-92035728D01*
X113457685Y-91907894D01*
X113475746Y-91770711D01*
X113457685Y-91633528D01*
X113454523Y-91625894D01*
X113429319Y-91565044D01*
X113421730Y-91494454D01*
X113453510Y-91430968D01*
X113497509Y-91400419D01*
X113517387Y-91392185D01*
X113517388Y-91392184D01*
X113525018Y-91389024D01*
X113634791Y-91304791D01*
X113639817Y-91298241D01*
X113639820Y-91298238D01*
X113710399Y-91206257D01*
X113719024Y-91195017D01*
X113771974Y-91067183D01*
X113790035Y-90930000D01*
X113771974Y-90792817D01*
X113719024Y-90664983D01*
X113676907Y-90610096D01*
X113639820Y-90561762D01*
X113639817Y-90561759D01*
X113634791Y-90555209D01*
X113525018Y-90470976D01*
X113517389Y-90467816D01*
X113404811Y-90421185D01*
X113404807Y-90421184D01*
X113397183Y-90418026D01*
X113389003Y-90416949D01*
X113388999Y-90416948D01*
X113268188Y-90401043D01*
X113260000Y-90399965D01*
X113122817Y-90418026D01*
X112994983Y-90470976D01*
X112885209Y-90555209D01*
X112800976Y-90664983D01*
X112748026Y-90792817D01*
X112729965Y-90930000D01*
X112748026Y-91067183D01*
X112751187Y-91074814D01*
X112751188Y-91074817D01*
X112776392Y-91135667D01*
X112783981Y-91206257D01*
X112752201Y-91269743D01*
X112708202Y-91300292D01*
X112688328Y-91308524D01*
X112688322Y-91308527D01*
X112680694Y-91311687D01*
X112570920Y-91395920D01*
X112486687Y-91505694D01*
X112433737Y-91633528D01*
X112415676Y-91770711D01*
X100729280Y-91770711D01*
X100729280Y-89880713D01*
X100731194Y-89858833D01*
X100732002Y-89854252D01*
X100732002Y-89854251D01*
X100733916Y-89843396D01*
X100732001Y-89832539D01*
X100732001Y-89821956D01*
X100732608Y-89809602D01*
X100745348Y-89680260D01*
X100748980Y-89662000D01*
X110518765Y-89662000D01*
X110536826Y-89799183D01*
X110589776Y-89927017D01*
X110631893Y-89981904D01*
X110668980Y-90030238D01*
X110668983Y-90030241D01*
X110674009Y-90036791D01*
X110783782Y-90121024D01*
X110791411Y-90124184D01*
X110903989Y-90170815D01*
X110903993Y-90170816D01*
X110911617Y-90173974D01*
X110919797Y-90175051D01*
X110919801Y-90175052D01*
X111040612Y-90190957D01*
X111048800Y-90192035D01*
X111056988Y-90190957D01*
X111177799Y-90175052D01*
X111177803Y-90175051D01*
X111185983Y-90173974D01*
X111193607Y-90170816D01*
X111193611Y-90170815D01*
X111306189Y-90124184D01*
X111313818Y-90121024D01*
X111423591Y-90036791D01*
X111428617Y-90030241D01*
X111428620Y-90030238D01*
X111465707Y-89981904D01*
X111507824Y-89927017D01*
X111560774Y-89799183D01*
X111578835Y-89662000D01*
X111560774Y-89524817D01*
X111507824Y-89396983D01*
X111459539Y-89334057D01*
X111428620Y-89293762D01*
X111428617Y-89293759D01*
X111423591Y-89287209D01*
X111313818Y-89202976D01*
X111305346Y-89199467D01*
X111193611Y-89153185D01*
X111193607Y-89153184D01*
X111185983Y-89150026D01*
X111177803Y-89148949D01*
X111177799Y-89148948D01*
X111056988Y-89133043D01*
X111048800Y-89131965D01*
X110911617Y-89150026D01*
X110783783Y-89202976D01*
X110674009Y-89287209D01*
X110589776Y-89396983D01*
X110536826Y-89524817D01*
X110518765Y-89662000D01*
X100748980Y-89662000D01*
X100750167Y-89656035D01*
X100785204Y-89540535D01*
X100794151Y-89511040D01*
X100803601Y-89488226D01*
X100875025Y-89354601D01*
X100888747Y-89334064D01*
X100984867Y-89216940D01*
X101002333Y-89199474D01*
X101119456Y-89103352D01*
X101139993Y-89089630D01*
X101139997Y-89089628D01*
X101273616Y-89018205D01*
X101296427Y-89008756D01*
X101441429Y-88964767D01*
X101465649Y-88959950D01*
X101581568Y-88948531D01*
X101594837Y-88947224D01*
X101607185Y-88946617D01*
X101617928Y-88946617D01*
X101628785Y-88948531D01*
X101644215Y-88945810D01*
X101666097Y-88943895D01*
X104791032Y-88943895D01*
X104812908Y-88945809D01*
X104817490Y-88946617D01*
X104817491Y-88946617D01*
X104828348Y-88948531D01*
X104835600Y-88947252D01*
X105042438Y-88932452D01*
X105252169Y-88886822D01*
X105256383Y-88885250D01*
X105256387Y-88885249D01*
X105449062Y-88813379D01*
X105453271Y-88811809D01*
X105457273Y-88809624D01*
X105637700Y-88711098D01*
X105637699Y-88711098D01*
X105641652Y-88708940D01*
X105728069Y-88644246D01*
X105809877Y-88583003D01*
X105809881Y-88583000D01*
X105813475Y-88580309D01*
X105965244Y-88428535D01*
X106066405Y-88293395D01*
X106091167Y-88260316D01*
X106091169Y-88260313D01*
X106093869Y-88256706D01*
X106196731Y-88068322D01*
X106219141Y-88008238D01*
X106243425Y-87943127D01*
X106271737Y-87867217D01*
X106317360Y-87657484D01*
X106318610Y-87640000D01*
X133889965Y-87640000D01*
X133908026Y-87777183D01*
X133960976Y-87905017D01*
X133990219Y-87943127D01*
X134040180Y-88008238D01*
X134040183Y-88008241D01*
X134045209Y-88014791D01*
X134051759Y-88019817D01*
X134051760Y-88019818D01*
X134129451Y-88079433D01*
X134154982Y-88099024D01*
X134162611Y-88102184D01*
X134275189Y-88148815D01*
X134275193Y-88148816D01*
X134282817Y-88151974D01*
X134290997Y-88153051D01*
X134291001Y-88153052D01*
X134411812Y-88168957D01*
X134420000Y-88170035D01*
X134428188Y-88168957D01*
X134548999Y-88153052D01*
X134549003Y-88153051D01*
X134557183Y-88151974D01*
X134564807Y-88148816D01*
X134564811Y-88148815D01*
X134677389Y-88102184D01*
X134685018Y-88099024D01*
X134710549Y-88079433D01*
X134788240Y-88019818D01*
X134788241Y-88019817D01*
X134794791Y-88014791D01*
X134799817Y-88008241D01*
X134799820Y-88008238D01*
X134849781Y-87943127D01*
X134879024Y-87905017D01*
X134887729Y-87884000D01*
X139068365Y-87884000D01*
X139086426Y-88021183D01*
X139139376Y-88149017D01*
X139154677Y-88168957D01*
X139218580Y-88252238D01*
X139218583Y-88252241D01*
X139223609Y-88258791D01*
X139333382Y-88343024D01*
X139341011Y-88346184D01*
X139453589Y-88392815D01*
X139453593Y-88392816D01*
X139461217Y-88395974D01*
X139469397Y-88397051D01*
X139469401Y-88397052D01*
X139590212Y-88412957D01*
X139598400Y-88414035D01*
X139606588Y-88412957D01*
X139727399Y-88397052D01*
X139727403Y-88397051D01*
X139735583Y-88395974D01*
X139743207Y-88392816D01*
X139743211Y-88392815D01*
X139855789Y-88346184D01*
X139863418Y-88343024D01*
X139928095Y-88293395D01*
X139994316Y-88267794D01*
X140063864Y-88282058D01*
X140081505Y-88293395D01*
X140146182Y-88343024D01*
X140153811Y-88346184D01*
X140266389Y-88392815D01*
X140266393Y-88392816D01*
X140274017Y-88395974D01*
X140282197Y-88397051D01*
X140282201Y-88397052D01*
X140403012Y-88412957D01*
X140411200Y-88414035D01*
X140419388Y-88412957D01*
X140540199Y-88397052D01*
X140540203Y-88397051D01*
X140548383Y-88395974D01*
X140556007Y-88392816D01*
X140556011Y-88392815D01*
X140668589Y-88346184D01*
X140676218Y-88343024D01*
X140785991Y-88258791D01*
X140791017Y-88252241D01*
X140791020Y-88252238D01*
X140854923Y-88168957D01*
X140870224Y-88149017D01*
X140923174Y-88021183D01*
X140941235Y-87884000D01*
X140923174Y-87746817D01*
X140870224Y-87618983D01*
X140817600Y-87550402D01*
X140791020Y-87515762D01*
X140791017Y-87515759D01*
X140785991Y-87509209D01*
X140700221Y-87443394D01*
X140682768Y-87430002D01*
X140676218Y-87424976D01*
X140630591Y-87406077D01*
X140556011Y-87375185D01*
X140556007Y-87375184D01*
X140548383Y-87372026D01*
X140540203Y-87370949D01*
X140540199Y-87370948D01*
X140419388Y-87355043D01*
X140411200Y-87353965D01*
X140274017Y-87372026D01*
X140146183Y-87424976D01*
X140081503Y-87474607D01*
X140015286Y-87500207D01*
X139945737Y-87485943D01*
X139928096Y-87474606D01*
X139907678Y-87458938D01*
X139863418Y-87424976D01*
X139817791Y-87406077D01*
X139743211Y-87375185D01*
X139743207Y-87375184D01*
X139735583Y-87372026D01*
X139727403Y-87370949D01*
X139727399Y-87370948D01*
X139606588Y-87355043D01*
X139598400Y-87353965D01*
X139461217Y-87372026D01*
X139333383Y-87424976D01*
X139223609Y-87509209D01*
X139139376Y-87618983D01*
X139086426Y-87746817D01*
X139068365Y-87884000D01*
X134887729Y-87884000D01*
X134931974Y-87777183D01*
X134950035Y-87640000D01*
X134931974Y-87502817D01*
X134879024Y-87374983D01*
X134836908Y-87320096D01*
X134799820Y-87271762D01*
X134799817Y-87271759D01*
X134794791Y-87265209D01*
X134685018Y-87180976D01*
X134677389Y-87177816D01*
X134564811Y-87131185D01*
X134564807Y-87131184D01*
X134557183Y-87128026D01*
X134549003Y-87126949D01*
X134548999Y-87126948D01*
X134428188Y-87111043D01*
X134420000Y-87109965D01*
X134282817Y-87128026D01*
X134154983Y-87180976D01*
X134045209Y-87265209D01*
X133960976Y-87374983D01*
X133908026Y-87502817D01*
X133889965Y-87640000D01*
X106318610Y-87640000D01*
X106332123Y-87451055D01*
X106333474Y-87443394D01*
X106330752Y-87427957D01*
X106328838Y-87406077D01*
X106328838Y-82615854D01*
X106348840Y-82547733D01*
X106402496Y-82501240D01*
X106472770Y-82491136D01*
X106537350Y-82520630D01*
X106575957Y-82581124D01*
X106595408Y-82648957D01*
X106621971Y-82741595D01*
X106624790Y-82747080D01*
X106691152Y-82876205D01*
X106707176Y-82907385D01*
X106822959Y-83053468D01*
X106964912Y-83174279D01*
X107127627Y-83265217D01*
X107304907Y-83322819D01*
X107489998Y-83344890D01*
X107496133Y-83344418D01*
X107496135Y-83344418D01*
X107669710Y-83331062D01*
X107669715Y-83331061D01*
X107675851Y-83330589D01*
X107681781Y-83328933D01*
X107681783Y-83328933D01*
X107849459Y-83282117D01*
X107849458Y-83282117D01*
X107855387Y-83280462D01*
X108021768Y-83196417D01*
X108046255Y-83177286D01*
X108163794Y-83085454D01*
X108163795Y-83085453D01*
X108168655Y-83081656D01*
X108290454Y-82940550D01*
X108294162Y-82934024D01*
X108339622Y-82853998D01*
X108382526Y-82778474D01*
X108441364Y-82601601D01*
X108454043Y-82501240D01*
X108464285Y-82420170D01*
X108464286Y-82420163D01*
X108464727Y-82416668D01*
X108465099Y-82390000D01*
X108446909Y-82204487D01*
X108445128Y-82198588D01*
X108445127Y-82198583D01*
X108394814Y-82031939D01*
X108393033Y-82026040D01*
X108334622Y-81916185D01*
X108308416Y-81866898D01*
X108308414Y-81866895D01*
X108305522Y-81861456D01*
X108301632Y-81856686D01*
X108301629Y-81856682D01*
X108191605Y-81721780D01*
X108191602Y-81721777D01*
X108187710Y-81717005D01*
X108182056Y-81712327D01*
X108115898Y-81657596D01*
X108044085Y-81598187D01*
X107925374Y-81534000D01*
X115928965Y-81534000D01*
X115947026Y-81671183D01*
X115999976Y-81799017D01*
X116035784Y-81845683D01*
X116079180Y-81902238D01*
X116079183Y-81902241D01*
X116084209Y-81908791D01*
X116090759Y-81913817D01*
X116090760Y-81913818D01*
X116154615Y-81962816D01*
X116193982Y-81993024D01*
X116201611Y-81996184D01*
X116314189Y-82042815D01*
X116314193Y-82042816D01*
X116321817Y-82045974D01*
X116329997Y-82047051D01*
X116330001Y-82047052D01*
X116450812Y-82062957D01*
X116459000Y-82064035D01*
X116467188Y-82062957D01*
X116587999Y-82047052D01*
X116588003Y-82047051D01*
X116596183Y-82045974D01*
X116684871Y-82009239D01*
X116755459Y-82001650D01*
X116818946Y-82033430D01*
X116833045Y-82048938D01*
X116845209Y-82064791D01*
X116851759Y-82069817D01*
X116851760Y-82069818D01*
X116906487Y-82111812D01*
X116954982Y-82149024D01*
X116962611Y-82152184D01*
X117075189Y-82198815D01*
X117075193Y-82198816D01*
X117082817Y-82201974D01*
X117090997Y-82203051D01*
X117091001Y-82203052D01*
X117211812Y-82218957D01*
X117220000Y-82220035D01*
X117357183Y-82201974D01*
X117359090Y-82201184D01*
X117427196Y-82202804D01*
X117485992Y-82242597D01*
X117505242Y-82274604D01*
X117550976Y-82385017D01*
X117577950Y-82420170D01*
X117630180Y-82488238D01*
X117630183Y-82488241D01*
X117635209Y-82494791D01*
X117641759Y-82499817D01*
X117641760Y-82499818D01*
X117700399Y-82544814D01*
X117744982Y-82579024D01*
X117752611Y-82582184D01*
X117865189Y-82628815D01*
X117865193Y-82628816D01*
X117872817Y-82631974D01*
X117880997Y-82633051D01*
X117881001Y-82633052D01*
X118001812Y-82648957D01*
X118010000Y-82650035D01*
X118018188Y-82648957D01*
X118138999Y-82633052D01*
X118139003Y-82633051D01*
X118147183Y-82631974D01*
X118154807Y-82628816D01*
X118154811Y-82628815D01*
X118267389Y-82582184D01*
X118275018Y-82579024D01*
X118319601Y-82544814D01*
X118378003Y-82500000D01*
X119069965Y-82500000D01*
X119088026Y-82637183D01*
X119140976Y-82765017D01*
X119159153Y-82788705D01*
X119220180Y-82868238D01*
X119220183Y-82868241D01*
X119225209Y-82874791D01*
X119231759Y-82879817D01*
X119231760Y-82879818D01*
X119316982Y-82945212D01*
X119334982Y-82959024D01*
X119342611Y-82962184D01*
X119455189Y-83008815D01*
X119455193Y-83008816D01*
X119462817Y-83011974D01*
X119470997Y-83013051D01*
X119471001Y-83013052D01*
X119591812Y-83028957D01*
X119600000Y-83030035D01*
X119608188Y-83028957D01*
X119728999Y-83013052D01*
X119729003Y-83013051D01*
X119737183Y-83011974D01*
X119744807Y-83008816D01*
X119744811Y-83008815D01*
X119857389Y-82962184D01*
X119865018Y-82959024D01*
X119871566Y-82953999D01*
X119871572Y-82953996D01*
X119923296Y-82914306D01*
X119989516Y-82888705D01*
X120059065Y-82902969D01*
X120076704Y-82914306D01*
X120128428Y-82953996D01*
X120128434Y-82953999D01*
X120134982Y-82959024D01*
X120142611Y-82962184D01*
X120255189Y-83008815D01*
X120255193Y-83008816D01*
X120262817Y-83011974D01*
X120270997Y-83013051D01*
X120271001Y-83013052D01*
X120391812Y-83028957D01*
X120400000Y-83030035D01*
X120408188Y-83028957D01*
X120528999Y-83013052D01*
X120529003Y-83013051D01*
X120537183Y-83011974D01*
X120544807Y-83008816D01*
X120544811Y-83008815D01*
X120657389Y-82962184D01*
X120665018Y-82959024D01*
X120671566Y-82953999D01*
X120671572Y-82953996D01*
X120723296Y-82914306D01*
X120789516Y-82888705D01*
X120859065Y-82902969D01*
X120876704Y-82914306D01*
X120928428Y-82953996D01*
X120928434Y-82953999D01*
X120934982Y-82959024D01*
X120942611Y-82962184D01*
X121055189Y-83008815D01*
X121055193Y-83008816D01*
X121062817Y-83011974D01*
X121070997Y-83013051D01*
X121071001Y-83013052D01*
X121191812Y-83028957D01*
X121200000Y-83030035D01*
X121208188Y-83028957D01*
X121328999Y-83013052D01*
X121329003Y-83013051D01*
X121337183Y-83011974D01*
X121344807Y-83008816D01*
X121344811Y-83008815D01*
X121457389Y-82962184D01*
X121465018Y-82959024D01*
X121535795Y-82904714D01*
X121602015Y-82879113D01*
X121671564Y-82893377D01*
X121689204Y-82904713D01*
X121759982Y-82959024D01*
X121767611Y-82962184D01*
X121880189Y-83008815D01*
X121880193Y-83008816D01*
X121887817Y-83011974D01*
X121895997Y-83013051D01*
X121896001Y-83013052D01*
X122016812Y-83028957D01*
X122025000Y-83030035D01*
X122033188Y-83028957D01*
X122153999Y-83013052D01*
X122154003Y-83013051D01*
X122162183Y-83011974D01*
X122169807Y-83008816D01*
X122169811Y-83008815D01*
X122282389Y-82962184D01*
X122290018Y-82959024D01*
X122308018Y-82945212D01*
X122393240Y-82879818D01*
X122393241Y-82879817D01*
X122399791Y-82874791D01*
X122404817Y-82868241D01*
X122404820Y-82868238D01*
X122465847Y-82788705D01*
X122484024Y-82765017D01*
X122536974Y-82637183D01*
X122555035Y-82500000D01*
X123069965Y-82500000D01*
X123088026Y-82637183D01*
X123140976Y-82765017D01*
X123159153Y-82788705D01*
X123220180Y-82868238D01*
X123220183Y-82868241D01*
X123225209Y-82874791D01*
X123231759Y-82879817D01*
X123231760Y-82879818D01*
X123316982Y-82945212D01*
X123334982Y-82959024D01*
X123342611Y-82962184D01*
X123455189Y-83008815D01*
X123455193Y-83008816D01*
X123462817Y-83011974D01*
X123470997Y-83013051D01*
X123471001Y-83013052D01*
X123591812Y-83028957D01*
X123600000Y-83030035D01*
X123608188Y-83028957D01*
X123728999Y-83013052D01*
X123729003Y-83013051D01*
X123737183Y-83011974D01*
X123744807Y-83008816D01*
X123744811Y-83008815D01*
X123857389Y-82962184D01*
X123865018Y-82959024D01*
X123935795Y-82904714D01*
X124002015Y-82879113D01*
X124071564Y-82893377D01*
X124089204Y-82904713D01*
X124159982Y-82959024D01*
X124167611Y-82962184D01*
X124280189Y-83008815D01*
X124280193Y-83008816D01*
X124287817Y-83011974D01*
X124295997Y-83013051D01*
X124296001Y-83013052D01*
X124416812Y-83028957D01*
X124425000Y-83030035D01*
X124433188Y-83028957D01*
X124553999Y-83013052D01*
X124554003Y-83013051D01*
X124562183Y-83011974D01*
X124569807Y-83008816D01*
X124569811Y-83008815D01*
X124682389Y-82962184D01*
X124690018Y-82959024D01*
X124708018Y-82945212D01*
X124764585Y-82901806D01*
X124830806Y-82876205D01*
X124900354Y-82890469D01*
X124917994Y-82901806D01*
X124953428Y-82928996D01*
X124953434Y-82928999D01*
X124959982Y-82934024D01*
X124967611Y-82937184D01*
X125080189Y-82983815D01*
X125080193Y-82983816D01*
X125087817Y-82986974D01*
X125095997Y-82988051D01*
X125096001Y-82988052D01*
X125216812Y-83003957D01*
X125225000Y-83005035D01*
X125233188Y-83003957D01*
X125353999Y-82988052D01*
X125354003Y-82988051D01*
X125362183Y-82986974D01*
X125369807Y-82983816D01*
X125369811Y-82983815D01*
X125482389Y-82937184D01*
X125490018Y-82934024D01*
X125518754Y-82911974D01*
X125519506Y-82911397D01*
X125585727Y-82885797D01*
X125655276Y-82900062D01*
X125672914Y-82911398D01*
X125728428Y-82953996D01*
X125728434Y-82953999D01*
X125734982Y-82959024D01*
X125742611Y-82962184D01*
X125855189Y-83008815D01*
X125855193Y-83008816D01*
X125862817Y-83011974D01*
X125870997Y-83013051D01*
X125871001Y-83013052D01*
X125991812Y-83028957D01*
X126000000Y-83030035D01*
X126008188Y-83028957D01*
X126128999Y-83013052D01*
X126129003Y-83013051D01*
X126137183Y-83011974D01*
X126144807Y-83008816D01*
X126144811Y-83008815D01*
X126257389Y-82962184D01*
X126265018Y-82959024D01*
X126283018Y-82945212D01*
X126368240Y-82879818D01*
X126368241Y-82879817D01*
X126374791Y-82874791D01*
X126379817Y-82868241D01*
X126379820Y-82868238D01*
X126440847Y-82788705D01*
X126459024Y-82765017D01*
X126511974Y-82637183D01*
X126530035Y-82500000D01*
X127069965Y-82500000D01*
X127088026Y-82637183D01*
X127140976Y-82765017D01*
X127159153Y-82788705D01*
X127220180Y-82868238D01*
X127220183Y-82868241D01*
X127225209Y-82874791D01*
X127231759Y-82879817D01*
X127231760Y-82879818D01*
X127316982Y-82945212D01*
X127334982Y-82959024D01*
X127342611Y-82962184D01*
X127455189Y-83008815D01*
X127455193Y-83008816D01*
X127462817Y-83011974D01*
X127470997Y-83013051D01*
X127471001Y-83013052D01*
X127591812Y-83028957D01*
X127600000Y-83030035D01*
X127608188Y-83028957D01*
X127728999Y-83013052D01*
X127729003Y-83013051D01*
X127737183Y-83011974D01*
X127744807Y-83008816D01*
X127744811Y-83008815D01*
X127857389Y-82962184D01*
X127865018Y-82959024D01*
X127871566Y-82953999D01*
X127871572Y-82953996D01*
X127923296Y-82914306D01*
X127989516Y-82888705D01*
X128059065Y-82902969D01*
X128076704Y-82914306D01*
X128128428Y-82953996D01*
X128128434Y-82953999D01*
X128134982Y-82959024D01*
X128142611Y-82962184D01*
X128255189Y-83008815D01*
X128255193Y-83008816D01*
X128262817Y-83011974D01*
X128270997Y-83013051D01*
X128271001Y-83013052D01*
X128391812Y-83028957D01*
X128400000Y-83030035D01*
X128408188Y-83028957D01*
X128528999Y-83013052D01*
X128529003Y-83013051D01*
X128537183Y-83011974D01*
X128544807Y-83008816D01*
X128544811Y-83008815D01*
X128657389Y-82962184D01*
X128665018Y-82959024D01*
X128671566Y-82953999D01*
X128671572Y-82953996D01*
X128723296Y-82914306D01*
X128789516Y-82888705D01*
X128859065Y-82902969D01*
X128876704Y-82914306D01*
X128928428Y-82953996D01*
X128928434Y-82953999D01*
X128934982Y-82959024D01*
X128942611Y-82962184D01*
X129055189Y-83008815D01*
X129055193Y-83008816D01*
X129062817Y-83011974D01*
X129070997Y-83013051D01*
X129071001Y-83013052D01*
X129191812Y-83028957D01*
X129200000Y-83030035D01*
X129208188Y-83028957D01*
X129328999Y-83013052D01*
X129329003Y-83013051D01*
X129337183Y-83011974D01*
X129344807Y-83008816D01*
X129344811Y-83008815D01*
X129457389Y-82962184D01*
X129465018Y-82959024D01*
X129471566Y-82953999D01*
X129471572Y-82953996D01*
X129523296Y-82914306D01*
X129589516Y-82888705D01*
X129659065Y-82902969D01*
X129676704Y-82914306D01*
X129728428Y-82953996D01*
X129728434Y-82953999D01*
X129734982Y-82959024D01*
X129742611Y-82962184D01*
X129855189Y-83008815D01*
X129855193Y-83008816D01*
X129862817Y-83011974D01*
X129870997Y-83013051D01*
X129871001Y-83013052D01*
X129991812Y-83028957D01*
X130000000Y-83030035D01*
X130008188Y-83028957D01*
X130128999Y-83013052D01*
X130129003Y-83013051D01*
X130137183Y-83011974D01*
X130144807Y-83008816D01*
X130144811Y-83008815D01*
X130257389Y-82962184D01*
X130265018Y-82959024D01*
X130283018Y-82945212D01*
X130368240Y-82879818D01*
X130368241Y-82879817D01*
X130374791Y-82874791D01*
X130379817Y-82868241D01*
X130379820Y-82868238D01*
X130440847Y-82788705D01*
X130459024Y-82765017D01*
X130511974Y-82637183D01*
X130530035Y-82500000D01*
X130516869Y-82400000D01*
X131069965Y-82400000D01*
X131088026Y-82537183D01*
X131140976Y-82665017D01*
X131165188Y-82696570D01*
X131220180Y-82768238D01*
X131220183Y-82768241D01*
X131225209Y-82774791D01*
X131231759Y-82779817D01*
X131231760Y-82779818D01*
X131321786Y-82848898D01*
X131334982Y-82859024D01*
X131342611Y-82862184D01*
X131455189Y-82908815D01*
X131455193Y-82908816D01*
X131462817Y-82911974D01*
X131470997Y-82913051D01*
X131471001Y-82913052D01*
X131591812Y-82928957D01*
X131600000Y-82930035D01*
X131608188Y-82928957D01*
X131728999Y-82913052D01*
X131729003Y-82913051D01*
X131737183Y-82911974D01*
X131744807Y-82908816D01*
X131744811Y-82908815D01*
X131857389Y-82862184D01*
X131865018Y-82859024D01*
X131871566Y-82853999D01*
X131871572Y-82853996D01*
X131923296Y-82814306D01*
X131989516Y-82788705D01*
X132059065Y-82802969D01*
X132076704Y-82814306D01*
X132128428Y-82853996D01*
X132128434Y-82853999D01*
X132134982Y-82859024D01*
X132142611Y-82862184D01*
X132255189Y-82908815D01*
X132255193Y-82908816D01*
X132262817Y-82911974D01*
X132270997Y-82913051D01*
X132271001Y-82913052D01*
X132391812Y-82928957D01*
X132400000Y-82930035D01*
X132408188Y-82928957D01*
X132528999Y-82913052D01*
X132529003Y-82913051D01*
X132537183Y-82911974D01*
X132544807Y-82908816D01*
X132544811Y-82908815D01*
X132657389Y-82862184D01*
X132665018Y-82859024D01*
X132735795Y-82804714D01*
X132802015Y-82779113D01*
X132871564Y-82793377D01*
X132889204Y-82804713D01*
X132959982Y-82859024D01*
X132967611Y-82862184D01*
X133080189Y-82908815D01*
X133080193Y-82908816D01*
X133087817Y-82911974D01*
X133095997Y-82913051D01*
X133096001Y-82913052D01*
X133216812Y-82928957D01*
X133225000Y-82930035D01*
X133233188Y-82928957D01*
X133353999Y-82913052D01*
X133354003Y-82913051D01*
X133362183Y-82911974D01*
X133369807Y-82908816D01*
X133369811Y-82908815D01*
X133482389Y-82862184D01*
X133490018Y-82859024D01*
X133502051Y-82849791D01*
X133535796Y-82823898D01*
X133602016Y-82798297D01*
X133671565Y-82812562D01*
X133689204Y-82823898D01*
X133722949Y-82849791D01*
X133734982Y-82859024D01*
X133742611Y-82862184D01*
X133855189Y-82908815D01*
X133855193Y-82908816D01*
X133862817Y-82911974D01*
X133870997Y-82913051D01*
X133871001Y-82913052D01*
X133991812Y-82928957D01*
X134000000Y-82930035D01*
X134008188Y-82928957D01*
X134128999Y-82913052D01*
X134129003Y-82913051D01*
X134137183Y-82911974D01*
X134144807Y-82908816D01*
X134144811Y-82908815D01*
X134257389Y-82862184D01*
X134265018Y-82859024D01*
X134278214Y-82848898D01*
X134368240Y-82779818D01*
X134368241Y-82779817D01*
X134374791Y-82774791D01*
X134379817Y-82768241D01*
X134379820Y-82768238D01*
X134434812Y-82696570D01*
X134459024Y-82665017D01*
X134511974Y-82537183D01*
X134526744Y-82425000D01*
X135094965Y-82425000D01*
X135113026Y-82562183D01*
X135165976Y-82690017D01*
X135205553Y-82741595D01*
X135245180Y-82793238D01*
X135245183Y-82793241D01*
X135250209Y-82799791D01*
X135256759Y-82804817D01*
X135256760Y-82804818D01*
X135347351Y-82874332D01*
X135359982Y-82884024D01*
X135367611Y-82887184D01*
X135480189Y-82933815D01*
X135480193Y-82933816D01*
X135487817Y-82936974D01*
X135495997Y-82938051D01*
X135496001Y-82938052D01*
X135616812Y-82953957D01*
X135625000Y-82955035D01*
X135633188Y-82953957D01*
X135753999Y-82938052D01*
X135754003Y-82938051D01*
X135762183Y-82936974D01*
X135769807Y-82933816D01*
X135769811Y-82933815D01*
X135882389Y-82887184D01*
X135890018Y-82884024D01*
X135896566Y-82878999D01*
X135896572Y-82878996D01*
X135948296Y-82839306D01*
X136014516Y-82813705D01*
X136084065Y-82827969D01*
X136101704Y-82839306D01*
X136153428Y-82878996D01*
X136153434Y-82878999D01*
X136159982Y-82884024D01*
X136167611Y-82887184D01*
X136280189Y-82933815D01*
X136280193Y-82933816D01*
X136287817Y-82936974D01*
X136295997Y-82938051D01*
X136296001Y-82938052D01*
X136416812Y-82953957D01*
X136425000Y-82955035D01*
X136433188Y-82953957D01*
X136553999Y-82938052D01*
X136554003Y-82938051D01*
X136562183Y-82936974D01*
X136569807Y-82933816D01*
X136569811Y-82933815D01*
X136682389Y-82887184D01*
X136690018Y-82884024D01*
X136696566Y-82878999D01*
X136696572Y-82878996D01*
X136748296Y-82839306D01*
X136814516Y-82813705D01*
X136884065Y-82827969D01*
X136901704Y-82839306D01*
X136953428Y-82878996D01*
X136953434Y-82878999D01*
X136959982Y-82884024D01*
X136967611Y-82887184D01*
X137080189Y-82933815D01*
X137080193Y-82933816D01*
X137087817Y-82936974D01*
X137095997Y-82938051D01*
X137096001Y-82938052D01*
X137216812Y-82953957D01*
X137225000Y-82955035D01*
X137233188Y-82953957D01*
X137353999Y-82938052D01*
X137354003Y-82938051D01*
X137362183Y-82936974D01*
X137369807Y-82933816D01*
X137369811Y-82933815D01*
X137482389Y-82887184D01*
X137490018Y-82884024D01*
X137502649Y-82874332D01*
X137535796Y-82848898D01*
X137602016Y-82823297D01*
X137671565Y-82837562D01*
X137689204Y-82848898D01*
X137722351Y-82874332D01*
X137734982Y-82884024D01*
X137742611Y-82887184D01*
X137855189Y-82933815D01*
X137855193Y-82933816D01*
X137862817Y-82936974D01*
X137870997Y-82938051D01*
X137871001Y-82938052D01*
X137991812Y-82953957D01*
X138000000Y-82955035D01*
X138008188Y-82953957D01*
X138128999Y-82938052D01*
X138129003Y-82938051D01*
X138137183Y-82936974D01*
X138144807Y-82933816D01*
X138144811Y-82933815D01*
X138257389Y-82887184D01*
X138265018Y-82884024D01*
X138277649Y-82874332D01*
X138368240Y-82804818D01*
X138368241Y-82804817D01*
X138374791Y-82799791D01*
X138379817Y-82793241D01*
X138379820Y-82793238D01*
X138419447Y-82741595D01*
X138459024Y-82690017D01*
X138511974Y-82562183D01*
X138530035Y-82425000D01*
X138511974Y-82287817D01*
X138459024Y-82159983D01*
X138400000Y-82083062D01*
X138379820Y-82056762D01*
X138379817Y-82056759D01*
X138374791Y-82050209D01*
X138362759Y-82040976D01*
X138271568Y-81971002D01*
X138265018Y-81965976D01*
X138216803Y-81946005D01*
X138144811Y-81916185D01*
X138144807Y-81916184D01*
X138137183Y-81913026D01*
X138129003Y-81911949D01*
X138128999Y-81911948D01*
X138008188Y-81896043D01*
X138000000Y-81894965D01*
X137862817Y-81913026D01*
X137734983Y-81965976D01*
X137728433Y-81971002D01*
X137728430Y-81971004D01*
X137689205Y-82001103D01*
X137622985Y-82026704D01*
X137553436Y-82012440D01*
X137535797Y-82001103D01*
X137496572Y-81971004D01*
X137496566Y-81971001D01*
X137490018Y-81965976D01*
X137441803Y-81946005D01*
X137369811Y-81916185D01*
X137369807Y-81916184D01*
X137362183Y-81913026D01*
X137354003Y-81911949D01*
X137353999Y-81911948D01*
X137233188Y-81896043D01*
X137225000Y-81894965D01*
X137087817Y-81913026D01*
X136959983Y-81965976D01*
X136901703Y-82010696D01*
X136835486Y-82036296D01*
X136765937Y-82022032D01*
X136748296Y-82010695D01*
X136696568Y-81971002D01*
X136690018Y-81965976D01*
X136641803Y-81946005D01*
X136569811Y-81916185D01*
X136569807Y-81916184D01*
X136562183Y-81913026D01*
X136554003Y-81911949D01*
X136553999Y-81911948D01*
X136433188Y-81896043D01*
X136425000Y-81894965D01*
X136287817Y-81913026D01*
X136159983Y-81965976D01*
X136101703Y-82010696D01*
X136035486Y-82036296D01*
X135965937Y-82022032D01*
X135948296Y-82010695D01*
X135896568Y-81971002D01*
X135890018Y-81965976D01*
X135841803Y-81946005D01*
X135769811Y-81916185D01*
X135769807Y-81916184D01*
X135762183Y-81913026D01*
X135754003Y-81911949D01*
X135753999Y-81911948D01*
X135633188Y-81896043D01*
X135625000Y-81894965D01*
X135487817Y-81913026D01*
X135359983Y-81965976D01*
X135250209Y-82050209D01*
X135165976Y-82159983D01*
X135113026Y-82287817D01*
X135094965Y-82425000D01*
X134526744Y-82425000D01*
X134530035Y-82400000D01*
X134511974Y-82262817D01*
X134459024Y-82134983D01*
X134406684Y-82066772D01*
X134379820Y-82031762D01*
X134379817Y-82031759D01*
X134374791Y-82025209D01*
X134362759Y-82015976D01*
X134271568Y-81946002D01*
X134265018Y-81940976D01*
X134257389Y-81937816D01*
X134144811Y-81891185D01*
X134144807Y-81891184D01*
X134137183Y-81888026D01*
X134129003Y-81886949D01*
X134128999Y-81886948D01*
X134008188Y-81871043D01*
X134000000Y-81869965D01*
X133862817Y-81888026D01*
X133734983Y-81940976D01*
X133728433Y-81946002D01*
X133728430Y-81946004D01*
X133689205Y-81976103D01*
X133622985Y-82001704D01*
X133553436Y-81987440D01*
X133535797Y-81976103D01*
X133496572Y-81946004D01*
X133496566Y-81946001D01*
X133490018Y-81940976D01*
X133482389Y-81937816D01*
X133369811Y-81891185D01*
X133369807Y-81891184D01*
X133362183Y-81888026D01*
X133354003Y-81886949D01*
X133353999Y-81886948D01*
X133233188Y-81871043D01*
X133225000Y-81869965D01*
X133087817Y-81888026D01*
X132959983Y-81940976D01*
X132927128Y-81966187D01*
X132889205Y-81995286D01*
X132822985Y-82020887D01*
X132753436Y-82006622D01*
X132735797Y-81995286D01*
X132671572Y-81946004D01*
X132671566Y-81946001D01*
X132665018Y-81940976D01*
X132657389Y-81937816D01*
X132544811Y-81891185D01*
X132544807Y-81891184D01*
X132537183Y-81888026D01*
X132529003Y-81886949D01*
X132528999Y-81886948D01*
X132408188Y-81871043D01*
X132400000Y-81869965D01*
X132262817Y-81888026D01*
X132134983Y-81940976D01*
X132076703Y-81985696D01*
X132010486Y-82011296D01*
X131940937Y-81997032D01*
X131923296Y-81985695D01*
X131904202Y-81971043D01*
X131865018Y-81940976D01*
X131857389Y-81937816D01*
X131744811Y-81891185D01*
X131744807Y-81891184D01*
X131737183Y-81888026D01*
X131729003Y-81886949D01*
X131728999Y-81886948D01*
X131608188Y-81871043D01*
X131600000Y-81869965D01*
X131462817Y-81888026D01*
X131334983Y-81940976D01*
X131225209Y-82025209D01*
X131140976Y-82134983D01*
X131088026Y-82262817D01*
X131069965Y-82400000D01*
X130516869Y-82400000D01*
X130511974Y-82362817D01*
X130459024Y-82234983D01*
X130407329Y-82167613D01*
X130379820Y-82131762D01*
X130379817Y-82131759D01*
X130374791Y-82125209D01*
X130356660Y-82111296D01*
X130271568Y-82046002D01*
X130265018Y-82040976D01*
X130246800Y-82033430D01*
X130144811Y-81991185D01*
X130144807Y-81991184D01*
X130137183Y-81988026D01*
X130129003Y-81986949D01*
X130128999Y-81986948D01*
X130008188Y-81971043D01*
X130000000Y-81969965D01*
X129862817Y-81988026D01*
X129734983Y-82040976D01*
X129676703Y-82085696D01*
X129610486Y-82111296D01*
X129540937Y-82097032D01*
X129523296Y-82085695D01*
X129471568Y-82046002D01*
X129465018Y-82040976D01*
X129446800Y-82033430D01*
X129344811Y-81991185D01*
X129344807Y-81991184D01*
X129337183Y-81988026D01*
X129329003Y-81986949D01*
X129328999Y-81986948D01*
X129208188Y-81971043D01*
X129200000Y-81969965D01*
X129062817Y-81988026D01*
X128934983Y-82040976D01*
X128876703Y-82085696D01*
X128810486Y-82111296D01*
X128740937Y-82097032D01*
X128723296Y-82085695D01*
X128671568Y-82046002D01*
X128665018Y-82040976D01*
X128646800Y-82033430D01*
X128544811Y-81991185D01*
X128544807Y-81991184D01*
X128537183Y-81988026D01*
X128529003Y-81986949D01*
X128528999Y-81986948D01*
X128408188Y-81971043D01*
X128400000Y-81969965D01*
X128262817Y-81988026D01*
X128134983Y-82040976D01*
X128076703Y-82085696D01*
X128010486Y-82111296D01*
X127940937Y-82097032D01*
X127923296Y-82085695D01*
X127871568Y-82046002D01*
X127865018Y-82040976D01*
X127846800Y-82033430D01*
X127744811Y-81991185D01*
X127744807Y-81991184D01*
X127737183Y-81988026D01*
X127729003Y-81986949D01*
X127728999Y-81986948D01*
X127608188Y-81971043D01*
X127600000Y-81969965D01*
X127462817Y-81988026D01*
X127334983Y-82040976D01*
X127225209Y-82125209D01*
X127140976Y-82234983D01*
X127088026Y-82362817D01*
X127069965Y-82500000D01*
X126530035Y-82500000D01*
X126511974Y-82362817D01*
X126459024Y-82234983D01*
X126407329Y-82167613D01*
X126379820Y-82131762D01*
X126379817Y-82131759D01*
X126374791Y-82125209D01*
X126356660Y-82111296D01*
X126271568Y-82046002D01*
X126265018Y-82040976D01*
X126246800Y-82033430D01*
X126144811Y-81991185D01*
X126144807Y-81991184D01*
X126137183Y-81988026D01*
X126129003Y-81986949D01*
X126128999Y-81986948D01*
X126008188Y-81971043D01*
X126000000Y-81969965D01*
X125862817Y-81988026D01*
X125734983Y-82040976D01*
X125712716Y-82058062D01*
X125705495Y-82063603D01*
X125639275Y-82089204D01*
X125569726Y-82074939D01*
X125552087Y-82063603D01*
X125496572Y-82021004D01*
X125496566Y-82021001D01*
X125490018Y-82015976D01*
X125455562Y-82001704D01*
X125369811Y-81966185D01*
X125369807Y-81966184D01*
X125362183Y-81963026D01*
X125354003Y-81961949D01*
X125353999Y-81961948D01*
X125233188Y-81946043D01*
X125225000Y-81944965D01*
X125087817Y-81963026D01*
X124959983Y-82015976D01*
X124885412Y-82073196D01*
X124819196Y-82098796D01*
X124749647Y-82084532D01*
X124732006Y-82073195D01*
X124696568Y-82046002D01*
X124690018Y-82040976D01*
X124671800Y-82033430D01*
X124569811Y-81991185D01*
X124569807Y-81991184D01*
X124562183Y-81988026D01*
X124554003Y-81986949D01*
X124553999Y-81986948D01*
X124433188Y-81971043D01*
X124425000Y-81969965D01*
X124287817Y-81988026D01*
X124159983Y-82040976D01*
X124122396Y-82069818D01*
X124089205Y-82095286D01*
X124022985Y-82120887D01*
X123953436Y-82106622D01*
X123935797Y-82095286D01*
X123871572Y-82046004D01*
X123871566Y-82046001D01*
X123865018Y-82040976D01*
X123846800Y-82033430D01*
X123744811Y-81991185D01*
X123744807Y-81991184D01*
X123737183Y-81988026D01*
X123729003Y-81986949D01*
X123728999Y-81986948D01*
X123608188Y-81971043D01*
X123600000Y-81969965D01*
X123462817Y-81988026D01*
X123334983Y-82040976D01*
X123225209Y-82125209D01*
X123140976Y-82234983D01*
X123088026Y-82362817D01*
X123069965Y-82500000D01*
X122555035Y-82500000D01*
X122536974Y-82362817D01*
X122484024Y-82234983D01*
X122432329Y-82167613D01*
X122404820Y-82131762D01*
X122404817Y-82131759D01*
X122399791Y-82125209D01*
X122381660Y-82111296D01*
X122296568Y-82046002D01*
X122290018Y-82040976D01*
X122271800Y-82033430D01*
X122169811Y-81991185D01*
X122169807Y-81991184D01*
X122162183Y-81988026D01*
X122154003Y-81986949D01*
X122153999Y-81986948D01*
X122033188Y-81971043D01*
X122025000Y-81969965D01*
X121887817Y-81988026D01*
X121759983Y-82040976D01*
X121722396Y-82069818D01*
X121689205Y-82095286D01*
X121622985Y-82120887D01*
X121553436Y-82106622D01*
X121535797Y-82095286D01*
X121471572Y-82046004D01*
X121471566Y-82046001D01*
X121465018Y-82040976D01*
X121446800Y-82033430D01*
X121344811Y-81991185D01*
X121344807Y-81991184D01*
X121337183Y-81988026D01*
X121329003Y-81986949D01*
X121328999Y-81986948D01*
X121208188Y-81971043D01*
X121200000Y-81969965D01*
X121062817Y-81988026D01*
X120934983Y-82040976D01*
X120876703Y-82085696D01*
X120810486Y-82111296D01*
X120740937Y-82097032D01*
X120723296Y-82085695D01*
X120671568Y-82046002D01*
X120665018Y-82040976D01*
X120646800Y-82033430D01*
X120544811Y-81991185D01*
X120544807Y-81991184D01*
X120537183Y-81988026D01*
X120529003Y-81986949D01*
X120528999Y-81986948D01*
X120408188Y-81971043D01*
X120400000Y-81969965D01*
X120262817Y-81988026D01*
X120134983Y-82040976D01*
X120076703Y-82085696D01*
X120010486Y-82111296D01*
X119940937Y-82097032D01*
X119923296Y-82085695D01*
X119871568Y-82046002D01*
X119865018Y-82040976D01*
X119846800Y-82033430D01*
X119744811Y-81991185D01*
X119744807Y-81991184D01*
X119737183Y-81988026D01*
X119729003Y-81986949D01*
X119728999Y-81986948D01*
X119608188Y-81971043D01*
X119600000Y-81969965D01*
X119462817Y-81988026D01*
X119334983Y-82040976D01*
X119225209Y-82125209D01*
X119140976Y-82234983D01*
X119088026Y-82362817D01*
X119069965Y-82500000D01*
X118378003Y-82500000D01*
X118378240Y-82499818D01*
X118378241Y-82499817D01*
X118384791Y-82494791D01*
X118389817Y-82488241D01*
X118389820Y-82488238D01*
X118442050Y-82420170D01*
X118469024Y-82385017D01*
X118521974Y-82257183D01*
X118540035Y-82120000D01*
X118521974Y-81982817D01*
X118469024Y-81854983D01*
X118411490Y-81780003D01*
X118389820Y-81751762D01*
X118389817Y-81751759D01*
X118384791Y-81745209D01*
X118348036Y-81717005D01*
X118281568Y-81666002D01*
X118275018Y-81660976D01*
X118267389Y-81657816D01*
X118154811Y-81611185D01*
X118154807Y-81611184D01*
X118147183Y-81608026D01*
X118139003Y-81606949D01*
X118138999Y-81606948D01*
X118018188Y-81591043D01*
X118010000Y-81589965D01*
X117872817Y-81608026D01*
X117870910Y-81608816D01*
X117802804Y-81607196D01*
X117744008Y-81567403D01*
X117724758Y-81535396D01*
X117691967Y-81456231D01*
X117679024Y-81424983D01*
X117636907Y-81370096D01*
X117599820Y-81321762D01*
X117599817Y-81321759D01*
X117594791Y-81315209D01*
X117544493Y-81276613D01*
X117491568Y-81236002D01*
X117485018Y-81230976D01*
X117445871Y-81214761D01*
X117364811Y-81181185D01*
X117364807Y-81181184D01*
X117357183Y-81178026D01*
X117349003Y-81176949D01*
X117348999Y-81176948D01*
X117228188Y-81161043D01*
X117220000Y-81159965D01*
X117082817Y-81178026D01*
X116994130Y-81214761D01*
X116923541Y-81222350D01*
X116860054Y-81190571D01*
X116845955Y-81175062D01*
X116833791Y-81159209D01*
X116724018Y-81074976D01*
X116716389Y-81071816D01*
X116603811Y-81025185D01*
X116603807Y-81025184D01*
X116596183Y-81022026D01*
X116588003Y-81020949D01*
X116587999Y-81020948D01*
X116467188Y-81005043D01*
X116459000Y-81003965D01*
X116321817Y-81022026D01*
X116193983Y-81074976D01*
X116084209Y-81159209D01*
X115999976Y-81268983D01*
X115947026Y-81396817D01*
X115928965Y-81534000D01*
X107925374Y-81534000D01*
X107880116Y-81509529D01*
X107791083Y-81481969D01*
X107707936Y-81456231D01*
X107707933Y-81456230D01*
X107702049Y-81454409D01*
X107695924Y-81453765D01*
X107695923Y-81453765D01*
X107522796Y-81435568D01*
X107522795Y-81435568D01*
X107516668Y-81434924D01*
X107438549Y-81442033D01*
X107337171Y-81451259D01*
X107337168Y-81451260D01*
X107331032Y-81451818D01*
X107325122Y-81453557D01*
X107325119Y-81453558D01*
X107158129Y-81502707D01*
X107152214Y-81504448D01*
X106987023Y-81590807D01*
X106841752Y-81707608D01*
X106721935Y-81850401D01*
X106718971Y-81855793D01*
X106718968Y-81855797D01*
X106660611Y-81961948D01*
X106632135Y-82013746D01*
X106630274Y-82019613D01*
X106630273Y-82019615D01*
X106598429Y-82120000D01*
X106575772Y-82191424D01*
X106574064Y-82190882D01*
X106544355Y-82245911D01*
X106482205Y-82280231D01*
X106411366Y-82275502D01*
X106354329Y-82233226D01*
X106329203Y-82166824D01*
X106328838Y-82157239D01*
X106328838Y-79454596D01*
X106330753Y-79432714D01*
X106331559Y-79428142D01*
X106333474Y-79417284D01*
X106331560Y-79406426D01*
X106331560Y-79395841D01*
X106332167Y-79383492D01*
X106344907Y-79254160D01*
X106349726Y-79229933D01*
X106357840Y-79203189D01*
X106393711Y-79084945D01*
X106403164Y-79062127D01*
X106474586Y-78928513D01*
X106488305Y-78907981D01*
X106584435Y-78790852D01*
X106601884Y-78773404D01*
X106719014Y-78677282D01*
X106739547Y-78663564D01*
X106873169Y-78592146D01*
X106895990Y-78582694D01*
X107040975Y-78538718D01*
X107065200Y-78533900D01*
X107067793Y-78533645D01*
X107195140Y-78521106D01*
X107207487Y-78520500D01*
X107217470Y-78520500D01*
X107228328Y-78522415D01*
X107239185Y-78520501D01*
X107239186Y-78520501D01*
X107243768Y-78519693D01*
X107265644Y-78517779D01*
X143790871Y-78517779D01*
X143812747Y-78519693D01*
G37*
%TD.AperFunction*%
%TD*%
M02*
